<svg width="230" height="26" viewBox="0 0 230 26" fill="none" xmlns="http://www.w3.org/2000/svg">
<g clip-path="url(#clip0_1_52)">
<g clip-path="url(#clip1_1_52)">
<path d="M43.1521 12.4239C43.7638 11.6106 44.0691 10.6016 44.0691 9.39423C44.0691 8.50315 43.8967 7.76761 43.5519 7.18501C43.2136 6.60629 42.7354 6.12479 42.1307 5.74373C41.587 5.40545 40.9791 5.17085 40.3019 5.03929C39.6286 4.90903 38.7829 4.84229 37.768 4.84229H33.0703V21.5738H35.3022V14.9221H38.4342L44.0457 21.5744H46.9348L40.6363 14.2605C41.7043 13.849 42.5403 13.2359 43.1521 12.4239ZM37.5665 13.0486H35.3022V6.75599H37.9372C38.5392 6.75599 39.0622 6.79812 39.5048 6.88625C39.9533 6.9705 40.3375 7.1215 40.6596 7.33795C41.0498 7.59198 41.333 7.9024 41.5021 8.27504C41.6719 8.64248 41.7561 9.0689 41.7561 9.54393C41.7561 10.1719 41.6751 10.689 41.5125 11.096C41.3531 11.503 41.099 11.8646 40.7607 12.1763C40.3933 12.5146 39.9442 12.7421 39.4173 12.8659C38.8898 12.9864 38.2722 13.0486 37.5665 13.0486ZM52.3091 13.4096V21.5744H63.3442V19.581H54.5377V13.4096H61.4305V11.4149H54.5377V6.8357H63.3442V4.84293H52.3091V11.4149" fill="#FF2A00"/>
<path d="M80.611 6.17016C79.948 5.7567 79.1315 5.43396 78.1685 5.19678C77.2055 4.95959 75.9068 4.84229 74.2704 4.84229H70.0905V21.5738H74.319C75.851 21.5738 77.0907 21.4701 78.0311 21.2601C78.9714 21.0508 79.8242 20.7086 80.5883 20.2388C81.6906 19.5538 82.5752 18.5979 83.2395 17.3621C83.9031 16.1256 84.2317 14.7498 84.2317 13.2268C84.2317 11.6022 83.9128 10.1965 83.2777 9.01382C82.6375 7.82788 81.7561 6.88237 80.611 6.17016ZM81.294 16.4516C80.8806 17.32 80.2559 18.0192 79.4238 18.5513C78.753 18.979 78.0175 19.2719 77.2243 19.4281C76.4207 19.5843 75.4868 19.6633 74.413 19.6633H72.3211V6.756H74.413C75.4479 6.756 76.339 6.82923 77.0843 6.97569C77.8256 7.12085 78.5288 7.38072 79.1853 7.75465C80.0925 8.27245 80.7762 8.97818 81.2351 9.87963C81.6932 10.7772 81.9214 11.8841 81.9214 13.1944C81.922 14.4957 81.714 15.5825 81.294 16.4516ZM119.993 18.5072L112.758 4.84294H109.313V21.5744H111.386V6.60954L119.316 21.5744H122.063V4.84294H119.993V18.5072ZM127.817 4.84294V6.83571H133.792V21.5744H136.024V6.83571H142V4.84294H127.817ZM101.434 17.5215L95.3316 0.785461H95.3147L93.8385 4.84294H93.8248L87.7253 21.5744H89.9702L91.3985 17.5215L91.4666 17.3225L91.6163 16.9169L91.6817 16.7458L92.2442 15.1626L92.2993 15.0032L95.2467 6.77544L98.1876 15.0032L100.523 21.5744H102.901L101.46 17.5805L101.434 17.5215ZM95.2467 6.77544L98.1876 15.0032Z" fill="#FF2A00"/>
<path d="M24.0973 12.9235C24.0973 19.0852 19.0839 24.0979 12.9222 24.0979C6.76052 24.0979 1.74716 19.0852 1.74716 12.9235C1.74716 6.76052 6.76052 1.74716 12.9222 1.74716C19.0839 1.74716 24.0973 6.76116 24.0973 12.9235ZM12.9222 0C5.79686 0 0 5.7975 0 12.9235C0 20.0489 5.79686 25.8451 12.9222 25.8451C20.0476 25.8451 25.8445 20.0489 25.8445 12.9235C25.8445 5.7975 20.0476 0 12.9222 0Z" fill="#FF2A00"/>
<path d="M13.4309 12.1835C13.4452 12.2359 13.1925 12.177 13.313 12.1439C13.4342 12.1102 13.8787 12.1122 13.8651 12.0616L11.4246 8.2666C11.4116 8.2167 11.3027 8.2018 11.1828 8.23614C11.0642 8.2666 10.9755 8.3353 10.993 8.39038L13.4309 12.1835ZM11.4446 8.42538C11.4719 8.37872 11.411 8.28929 11.3047 8.22254C11.199 8.15838 11.0895 8.14347 11.0616 8.18949L9.30736 11.026C9.2795 11.0701 9.34171 11.1608 9.44799 11.2269C9.55427 11.2924 9.66314 11.3066 9.69101 11.2619L11.4446 8.42538ZM11.4375 8.60683C11.3286 8.74033 11.1323 8.76237 10.9955 8.65609C10.8614 8.54721 10.8387 8.3528 10.9456 8.21606C11.0539 8.08191 11.2502 8.05858 11.3857 8.1681C11.5231 8.27438 11.5451 8.47139 11.4375 8.60683ZM8.5109 13.2372L8.21733 13.1037L9.29116 11.2302L9.58603 11.365L8.5109 13.2372ZM7.6937 14.5158L7.55826 14.4542L8.22446 13.2605L8.36055 13.3227L7.6937 14.5158ZM8.49729 13.3402C8.43184 13.4439 8.2951 13.4763 8.18882 13.4122C8.08189 13.3461 8.05078 13.2087 8.11559 13.1069C8.18104 12.9994 8.31843 12.965 8.42601 13.0324C8.52905 13.0972 8.5621 13.2339 8.49729 13.3402ZM9.75711 11.2289C9.68194 11.3455 9.53029 11.3805 9.41364 11.3112C9.29505 11.2353 9.25552 11.0818 9.33069 10.9658C9.40327 10.8491 9.55622 10.8115 9.67546 10.8847C9.79276 10.9567 9.82905 11.1116 9.75711 11.2289ZM12.0648 10.2918C12.0648 10.2918 9.58149 9.93081 8.81549 11.9126C8.04689 13.8963 9.13109 15.924 9.3106 16.1496C9.49206 16.3751 10.7551 16.3304 11.5244 15.7004C12.2904 15.0686 13.0136 13.987 13.059 13.5826C13.1024 13.1776 14.5022 11.1479 12.0648 10.2918ZM11.9501 12.6792C11.9858 12.7369 12.1245 12.7162 12.258 12.6384C12.3934 12.5587 12.4731 12.4466 12.4362 12.3902L7.93478 9.09806C7.89914 9.04168 7.7624 9.06112 7.6276 9.14018C7.49345 9.22054 7.41439 9.33136 7.45198 9.38709L11.9501 12.6792ZM8.01773 9.22508C8.05208 9.16675 7.96459 9.06047 7.82915 8.98465C7.69241 8.91142 7.55178 8.89716 7.51808 8.95484L5.47217 12.5029C5.43653 12.5606 5.52337 12.6682 5.66011 12.7421C5.79749 12.816 5.93618 12.8309 5.96988 12.7745L8.01773 9.22508ZM8.07022 9.49143C7.98598 9.68779 7.75397 9.78046 7.54984 9.69881C7.34829 9.6178 7.25173 9.39487 7.33727 9.19916C7.42087 9.00344 7.65288 8.91272 7.85701 8.99243C8.05791 9.07667 8.15382 9.29831 8.07022 9.49143ZM4.80208 15.3239L4.40936 15.2047L5.46569 12.7719L5.85452 12.8892L4.80208 15.3239ZM4.18643 16.9797L3.96674 16.948L4.40223 15.3064L4.62386 15.3395L4.18643 16.9797ZM4.74894 15.4257C4.6958 15.5365 4.56165 15.5812 4.44759 15.5333C4.33224 15.4827 4.28493 15.3524 4.33354 15.2449C4.38668 15.1328 4.52147 15.0861 4.63553 15.136C4.75088 15.1852 4.80078 15.3149 4.74894 15.4257ZM6.05153 12.7291C5.96664 12.8775 5.77351 12.9307 5.61993 12.8477C5.46569 12.7622 5.40931 12.5762 5.49615 12.4278C5.57975 12.2826 5.77352 12.2308 5.92775 12.3131C6.0794 12.3954 6.13578 12.5814 6.05153 12.7291ZM14.2598 11.7175C14.2268 11.7687 14.103 11.7525 13.9831 11.6799C13.8651 11.6106 13.7939 11.5121 13.8243 11.4602L17.8416 8.52194C17.8747 8.47204 17.9978 8.48824 18.117 8.56017C18.2363 8.63081 18.3089 8.72932 18.2745 8.78051L14.2598 11.7175ZM17.7677 8.6347C17.7399 8.5835 17.8137 8.48694 17.9375 8.42019C18.0594 8.35474 18.1851 8.34243 18.2149 8.39492L20.0411 11.5613C20.0709 11.6119 19.997 11.7078 19.8733 11.7739C19.7501 11.8413 19.6276 11.8529 19.5978 11.8011L17.7677 8.6347ZM17.723 8.87254C17.7975 9.04751 18.0069 9.12917 18.1864 9.05594C18.3672 8.98595 18.4534 8.78505 18.3782 8.61202C18.303 8.43769 18.0943 8.35539 17.9122 8.42797C17.7314 8.5012 17.6478 8.7008 17.723 8.87254ZM20.6393 14.0758L20.9899 13.9714L20.0495 11.7992L19.6996 11.9061L20.6393 14.0758ZM21.1875 15.5566L21.3871 15.5268L20.997 14.0628L20.7974 14.09L21.1875 15.5566ZM20.6892 14.1697C20.7326 14.2663 20.8518 14.3104 20.9542 14.2637C21.0586 14.2203 21.102 14.1043 21.0566 14.0071C21.0093 13.9086 20.8907 13.8665 20.7877 13.9105C20.6859 13.9539 20.6406 14.068 20.6892 14.1697ZM19.5246 11.7616C19.6004 11.8944 19.7722 11.9417 19.9096 11.8653C20.0476 11.792 20.0981 11.6261 20.0217 11.4939C19.9452 11.3624 19.7722 11.317 19.6354 11.3896C19.4974 11.4648 19.4468 11.6313 19.5246 11.7616ZM11.8361 13.4932C11.8665 13.545 11.5833 13.5593 11.7 13.4867C11.8166 13.4161 12.2884 13.2845 12.258 13.2359L8.53423 9.96321C8.50183 9.91202 8.38259 9.93016 8.26658 10.0027C8.14993 10.0734 8.08124 10.1732 8.113 10.2244L11.8361 13.4932ZM8.61848 10.0475C8.64051 9.99302 8.55951 9.90554 8.43184 9.85434C8.30806 9.80185 8.18623 9.80509 8.1629 9.85888L6.75791 13.2398C6.73199 13.2936 6.81688 13.3811 6.94131 13.4336C7.06963 13.4847 7.19016 13.4835 7.21025 13.4284L8.61848 10.0475ZM8.64764 10.3196C8.57571 10.494 8.37416 10.5782 8.19919 10.503C8.02356 10.4324 7.94191 10.2296 8.0132 10.0539C8.08578 9.87897 8.28797 9.79731 8.46165 9.8686C8.63922 9.94248 8.71893 10.1427 8.64764 10.3196ZM6.27835 15.7763L5.93488 15.683L6.77411 13.4647L7.11499 13.5593L6.27835 15.7763ZM5.1287 17.1119L4.99196 17.0154L5.95367 15.8625L6.08653 15.9584L5.1287 17.1119ZM11.6475 13.0609L12.3221 12.2314L12.7537 12.5827L12.0791 13.4122L11.6475 13.0609Z" fill="#FF2A00"/>
<path d="M11.8743 13.6098C12.0922 13.6098 12.2689 13.4331 12.2689 13.2151C12.2689 12.9971 12.0922 12.8204 11.8743 12.8204C11.6563 12.8204 11.4796 12.9971 11.4796 13.2151C11.4796 13.4331 11.6563 13.6098 11.8743 13.6098Z" fill="#FF2A00"/>
<path d="M6.28096 15.889C6.22717 16.016 6.08395 16.073 5.95758 16.0225C5.83315 15.97 5.77353 15.8255 5.82408 15.7004C5.87851 15.5766 6.02108 15.5151 6.14681 15.5689C6.27188 15.6201 6.33215 15.7639 6.28096 15.889ZM7.27702 13.3804C7.21934 13.521 7.05992 13.5871 6.91864 13.5288C6.77607 13.4718 6.71062 13.3117 6.76765 13.1698C6.82727 13.0298 6.98734 12.963 7.12667 13.0214C7.26989 13.0797 7.33469 13.241 7.27702 13.3804ZM15.1165 12.6416C15.0777 12.6857 15.3563 12.7407 15.2513 12.6539C15.1477 12.5671 14.6979 12.3701 14.7374 12.3253L18.8876 9.61453C18.9265 9.56916 19.0418 9.60286 19.1462 9.68905C19.2531 9.77913 19.3049 9.88606 19.2686 9.93078L15.1165 12.6416ZM18.7904 9.68517C18.7761 9.62554 18.8707 9.55426 19.0016 9.52056C19.1351 9.48492 19.2524 9.50371 19.268 9.56074L20.1811 13.1088C20.1954 13.1659 20.1001 13.2391 19.9685 13.2728C19.837 13.3078 19.719 13.289 19.7022 13.2313L18.7904 9.68517ZM18.723 9.94828C18.7716 10.1343 18.9563 10.2444 19.141 10.1971C19.325 10.1498 19.4371 9.96189 19.3879 9.77913C19.3432 9.59638 19.1526 9.48362 18.9705 9.52963C18.7858 9.57694 18.6731 9.76552 18.723 9.94828ZM20.2926 15.6881L20.6464 15.644L20.1299 13.3272L19.778 13.372L20.2926 15.6881ZM20.2297 16.7652L20.4228 16.7587L20.6671 15.7024L20.474 15.7043L20.2297 16.7652ZM14.8878 12.5249L14.3376 11.6086L14.8152 11.3215L15.3654 12.2379L14.8878 12.5249Z" fill="#FF2A00"/>
<path d="M15.1178 12.7544C15.3362 12.7544 15.5132 12.5774 15.5132 12.3591C15.5132 12.1407 15.3362 11.9637 15.1178 11.9637C14.8995 11.9637 14.7225 12.1407 14.7225 12.3591C14.7225 12.5774 14.8995 12.7544 15.1178 12.7544Z" fill="#FF2A00"/>
<path d="M20.2757 15.7982C20.3088 15.9305 20.4429 16.0102 20.5751 15.9752C20.7086 15.9421 20.7851 15.808 20.7533 15.6751C20.7183 15.5449 20.5855 15.4658 20.4539 15.4988C20.3217 15.5332 20.2414 15.6686 20.2757 15.7982Z" fill="#FF2A00"/>
<path d="M19.9102 13.3823C20.0623 13.3823 20.1856 13.259 20.1856 13.1069C20.1856 12.9548 20.0623 12.8315 19.9102 12.8315C19.7581 12.8315 19.6348 12.9548 19.6348 13.1069C19.6348 13.259 19.7581 13.3823 19.9102 13.3823Z" fill="#FF2A00"/>
<path d="M14.0674 13.5981C15.2821 13.5981 16.2669 12.7065 16.2669 11.6066C16.2669 10.5068 15.2821 9.61517 14.0674 9.61517C12.8526 9.61517 11.8679 10.5068 11.8679 11.6066C11.8679 12.7065 12.8526 13.5981 14.0674 13.5981Z" fill="#FF2A00"/>
<path d="M12.8924 12.0337C12.8924 11.9741 12.779 11.9287 12.6429 11.932C12.5062 11.9372 12.3979 11.9871 12.3999 12.0473L12.4861 15.7069C12.49 15.7672 12.6008 15.8106 12.7369 15.808C12.8743 15.8035 12.9851 15.7549 12.9805 15.6952L12.8924 12.0337ZM13.0583 11.8892C13.0615 12.0778 12.9099 12.2359 12.7213 12.2398C12.5314 12.2443 12.3733 12.0946 12.3701 11.9028C12.3649 11.7149 12.5152 11.5581 12.7051 11.5529C12.895 11.5477 13.0544 11.7 13.0583 11.8892ZM12.8989 14.6026C12.8866 14.5456 12.7673 14.5177 12.6345 14.543C12.5003 14.5702 12.4012 14.6383 12.4128 14.6966L13.1114 18.2901C13.1218 18.3477 13.2385 18.3743 13.3746 18.3477C13.5074 18.3231 13.6053 18.2531 13.5962 18.1967L12.8989 14.6026ZM13.0706 14.8126C13.1088 14.9966 12.987 15.1794 12.801 15.2137C12.6131 15.2494 12.4336 15.1295 12.396 14.9422C12.361 14.7562 12.4828 14.5767 12.6682 14.5385C12.8535 14.5048 13.0356 14.6266 13.0706 14.8126ZM13.6234 18.1209C13.6532 18.27 13.5541 18.4138 13.4076 18.4423C13.2573 18.4728 13.1121 18.3749 13.0829 18.224C13.0551 18.0762 13.1516 17.9323 13.3 17.9038C13.4504 17.8734 13.5955 17.9712 13.6234 18.1209ZM13.2663 18.4644L13.5346 18.3775L13.7945 19.1805L13.5262 19.2673L13.2663 18.4644ZM18.362 11.9372C18.6718 11.2956 18.7184 10.3643 18.4268 9.42919C17.9686 7.95875 17.0769 7.71703 16.1567 8.05013C15.2371 8.38128 14.6402 9.16219 15.0958 10.6326C15.3848 11.5561 15.9318 12.2644 16.5267 12.58C16.5429 12.7498 16.5967 12.9475 16.6868 13.1503C16.887 13.6098 17.1922 13.906 17.3718 13.8152C17.5493 13.7245 17.5318 13.2806 17.3322 12.8231L17.3024 12.755C17.397 12.7479 17.4942 12.7284 17.5889 12.6921C17.6822 12.6584 17.7664 12.6163 17.8481 12.5606L17.8623 12.6921C17.9369 13.1924 18.1527 13.5696 18.3497 13.5379C18.5421 13.5055 18.6394 13.0726 18.5681 12.5703C18.5298 12.315 18.4534 12.0888 18.362 11.9372Z" fill="#FF2A00"/>
<path d="M15.8936 10.3072C16.0973 10.3344 16.3026 10.0544 16.3522 9.68185C16.4018 9.30933 16.277 8.98536 16.0733 8.95823C15.8697 8.93111 15.6644 9.2111 15.6147 9.58362C15.5651 9.95614 15.69 10.2801 15.8936 10.3072Z" fill="#FF2A00"/>
<path d="M16.5332 10.4687C16.5831 10.4791 16.6272 10.4343 16.633 10.3721C16.6382 10.3073 16.6032 10.249 16.5546 10.2373L13.5722 9.63464C13.5262 9.62557 13.4802 9.66963 13.475 9.7325C13.4692 9.7973 13.5035 9.85692 13.5534 9.86794L16.5332 10.4687ZM16.644 10.5711C16.4885 10.5406 16.3686 10.4428 16.377 10.352C16.3848 10.2633 16.5177 10.2166 16.6712 10.2483C16.8255 10.2808 16.9441 10.3754 16.9376 10.4674C16.9305 10.5555 16.7976 10.6028 16.644 10.5711ZM13.6072 9.89645C13.4835 9.87183 13.3895 9.79341 13.3947 9.72342C13.4005 9.65214 13.5074 9.6139 13.6293 9.63723C13.7518 9.6651 13.8477 9.74092 13.8425 9.8135C13.836 9.88608 13.7291 9.92302 13.6072 9.89645ZM12.7362 9.70528L12.7188 9.56919L13.4076 9.65732L13.4212 9.79341L12.7362 9.70528ZM18.2402 10.2976C18.2272 10.3177 18.1851 10.2782 18.1456 10.2075C18.1047 10.1395 18.0821 10.0669 18.0944 10.0455L18.8532 8.7818C18.8662 8.75976 18.9077 8.79994 18.9485 8.86864C18.9893 8.93863 19.0127 9.01251 18.9978 9.03324L18.2402 10.2976ZM18.2603 10.4324C18.2992 10.365 18.2855 10.2334 18.2318 10.1375C18.1734 10.0423 18.097 10.017 18.0574 10.0818C18.0166 10.1492 18.0309 10.2814 18.0866 10.3747C18.143 10.4713 18.2214 10.4953 18.2603 10.4324ZM18.9978 9.07666C19.0289 9.02287 19.0179 8.92178 18.9731 8.84207C18.9304 8.76495 18.8669 8.74421 18.8357 8.7967C18.8053 8.84984 18.8144 8.95548 18.861 9.03324C18.9038 9.10842 18.9673 9.1298 18.9978 9.07666ZM19.211 8.68913L19.1351 8.53424L18.9304 8.77208L19.0042 8.92567L19.211 8.68913Z" fill="#FF2A00"/>
</g>
<line x1="162.5" y1="-2.18557e-08" x2="162.5" y2="26" stroke="white" stroke-opacity="0.5"/>
<path d="M186.175 11.072C185.551 11.072 184.951 10.972 184.375 10.772C183.807 10.572 183.367 10.308 183.055 9.98L183.403 9.296C183.707 9.6 184.111 9.848 184.615 10.04C185.119 10.224 185.639 10.316 186.175 10.316C186.927 10.316 187.491 10.18 187.867 9.908C188.243 9.628 188.431 9.268 188.431 8.828C188.431 8.492 188.327 8.224 188.119 8.024C187.919 7.824 187.671 7.672 187.375 7.568C187.079 7.456 186.667 7.336 186.139 7.208C185.507 7.048 185.003 6.896 184.627 6.752C184.251 6.6 183.927 6.372 183.655 6.068C183.391 5.764 183.259 5.352 183.259 4.832C183.259 4.408 183.371 4.024 183.595 3.68C183.819 3.328 184.163 3.048 184.627 2.84C185.091 2.632 185.667 2.528 186.355 2.528C186.835 2.528 187.303 2.596 187.759 2.732C188.223 2.86 188.623 3.04 188.959 3.272L188.659 3.98C188.307 3.748 187.931 3.576 187.531 3.464C187.131 3.344 186.739 3.284 186.355 3.284C185.619 3.284 185.063 3.428 184.687 3.716C184.319 3.996 184.135 4.36 184.135 4.808C184.135 5.144 184.235 5.416 184.435 5.624C184.643 5.824 184.899 5.98 185.203 6.092C185.515 6.196 185.931 6.312 186.451 6.44C187.067 6.592 187.563 6.744 187.939 6.896C188.323 7.04 188.647 7.264 188.911 7.568C189.175 7.864 189.307 8.268 189.307 8.78C189.307 9.204 189.191 9.592 188.959 9.944C188.735 10.288 188.387 10.564 187.915 10.772C187.443 10.972 186.863 11.072 186.175 11.072ZM193.642 2.6H194.53V11H193.642V2.6ZM206.683 2.6V11H205.951L200.551 4.184V11H199.663V2.6H200.395L205.807 9.416V2.6H206.683ZM215.473 11.072C214.641 11.072 213.889 10.888 213.217 10.52C212.553 10.152 212.029 9.644 211.645 8.996C211.269 8.34 211.081 7.608 211.081 6.8C211.081 5.992 211.269 5.264 211.645 4.616C212.029 3.96 212.557 3.448 213.229 3.08C213.901 2.712 214.653 2.528 215.485 2.528C216.109 2.528 216.685 2.632 217.213 2.84C217.741 3.048 218.189 3.352 218.557 3.752L217.993 4.316C217.337 3.652 216.509 3.32 215.509 3.32C214.845 3.32 214.241 3.472 213.697 3.776C213.153 4.08 212.725 4.496 212.413 5.024C212.109 5.552 211.957 6.144 211.957 6.8C211.957 7.456 212.109 8.048 212.413 8.576C212.725 9.104 213.153 9.52 213.697 9.824C214.241 10.128 214.845 10.28 215.509 10.28C216.517 10.28 217.345 9.944 217.993 9.272L218.557 9.836C218.189 10.236 217.737 10.544 217.201 10.76C216.673 10.968 216.097 11.072 215.473 11.072ZM228.79 10.232V11H222.85V2.6H228.61V3.368H223.738V6.356H228.082V7.112H223.738V10.232H228.79ZM186.505 15.6V24H185.641V16.368H183.661V15.6H186.505ZM197.129 15.528C198.241 15.528 199.093 15.896 199.685 16.632C200.277 17.36 200.573 18.392 200.573 19.728C200.573 20.664 200.413 21.456 200.093 22.104C199.773 22.752 199.325 23.244 198.749 23.58C198.173 23.908 197.501 24.072 196.733 24.072C195.901 24.072 195.237 23.92 194.741 23.616L195.089 22.92C195.489 23.184 196.033 23.316 196.721 23.316C197.649 23.316 198.377 23.024 198.905 22.44C199.433 21.848 199.697 20.992 199.697 19.872C199.697 19.664 199.685 19.436 199.661 19.188C199.453 19.644 199.121 20 198.665 20.256C198.209 20.504 197.685 20.628 197.093 20.628C196.541 20.628 196.049 20.524 195.617 20.316C195.193 20.108 194.861 19.816 194.621 19.44C194.381 19.056 194.261 18.612 194.261 18.108C194.261 17.596 194.385 17.144 194.633 16.752C194.881 16.36 195.221 16.06 195.653 15.852C196.093 15.636 196.585 15.528 197.129 15.528ZM197.225 19.896C197.649 19.896 198.021 19.816 198.341 19.656C198.669 19.496 198.925 19.276 199.109 18.996C199.293 18.716 199.385 18.404 199.385 18.06C199.385 17.74 199.297 17.444 199.121 17.172C198.953 16.9 198.701 16.68 198.365 16.512C198.029 16.344 197.629 16.26 197.165 16.26C196.557 16.26 196.061 16.428 195.677 16.764C195.301 17.092 195.113 17.532 195.113 18.084C195.113 18.636 195.301 19.076 195.677 19.404C196.061 19.732 196.577 19.896 197.225 19.896ZM210.441 15.528C211.553 15.528 212.405 15.896 212.997 16.632C213.589 17.36 213.885 18.392 213.885 19.728C213.885 20.664 213.725 21.456 213.405 22.104C213.085 22.752 212.637 23.244 212.061 23.58C211.485 23.908 210.813 24.072 210.045 24.072C209.213 24.072 208.549 23.92 208.053 23.616L208.401 22.92C208.801 23.184 209.345 23.316 210.033 23.316C210.961 23.316 211.689 23.024 212.217 22.44C212.745 21.848 213.009 20.992 213.009 19.872C213.009 19.664 212.997 19.436 212.973 19.188C212.765 19.644 212.433 20 211.977 20.256C211.521 20.504 210.997 20.628 210.405 20.628C209.853 20.628 209.361 20.524 208.929 20.316C208.505 20.108 208.173 19.816 207.933 19.44C207.693 19.056 207.573 18.612 207.573 18.108C207.573 17.596 207.697 17.144 207.945 16.752C208.193 16.36 208.533 16.06 208.965 15.852C209.405 15.636 209.897 15.528 210.441 15.528ZM210.537 19.896C210.961 19.896 211.333 19.816 211.653 19.656C211.981 19.496 212.237 19.276 212.421 18.996C212.605 18.716 212.697 18.404 212.697 18.06C212.697 17.74 212.609 17.444 212.433 17.172C212.265 16.9 212.013 16.68 211.677 16.512C211.341 16.344 210.941 16.26 210.477 16.26C209.869 16.26 209.373 16.428 208.989 16.764C208.613 17.092 208.425 17.532 208.425 18.084C208.425 18.636 208.613 19.076 208.989 19.404C209.373 19.732 209.889 19.896 210.537 19.896ZM228.278 21.792H226.598V24H225.734V21.792H220.994V21.168L225.446 15.6H226.406L222.11 21.024H225.758V19.08H226.598V21.024H228.278V21.792Z" fill="white"/>
</g>
<defs>
<clipPath id="clip0_1_52">
<rect width="230" height="26" fill="white"/>
</clipPath>
<clipPath id="clip1_1_52">
<rect width="142" height="25.8458" fill="white"/>
</clipPath>
</defs>
</svg>
