<svg fill="none" viewBox="0 0 1600 971" xmlns="http://www.w3.org/2000/svg" xmlns:xlink="http://www.w3.org/1999/xlink"><linearGradient id="a" gradientUnits="userSpaceOnUse" x1="1010" x2="1010" y1="971" y2="671"><stop offset="0"/><stop offset="1" stop-opacity="0"/></linearGradient><clipPath id="b"><path d="m0 0h1600v971h-1600z"/></clipPath><clipPath id="c"><path d="m-1 0h1600v965.744h-1600z"/></clipPath><g clip-path="url(#b)"><path d="m0 0h1600v971h-1600z" fill="#000"/><g clip-path="url(#c)"><g fill="#fff" fill-opacity=".2"><path d="m1590.14 970.37 16.72-13.122 2.23 3.536z"/><path d="m1562.27 970.531 44.6-30.444 2.21 3.566z"/><path d="m1534.61 970.531c23.86-16.126 47.98-31.892 72.28-47.396l2.17 3.585c-24.99 14.294-49.83 28.864-74.45 43.811z"/><path d="m1506.67 970.531c32.88-22.157 66.3-43.536 100.08-64.335l2.14 3.608c-34.45 19.566-68.58 39.743-102.22 60.727z"/><path d="m1478.82 970.531c41.91-28.302 84.72-55.306 128.1-81.346l2.11 3.62c-44.03 24.802-87.53 50.591-130.21 77.726z"/><path d="m1450.8 970.531c50.79-34.699 102.99-67.345 156.14-98.375l2.07 3.644c-53.77 29.774-106.65 61.193-158.21 94.731z"/><path d="m1422.87 970.531c59.59-41.131 121.17-79.396 184.08-115.321l2.05 3.656c-63.51 34.657-125.76 71.689-186.13 111.665z"/><path d="m1394.84 970.531c68.24-47.88 139.2-91.907 212.14-132.398l1.99 3.68c-73.47 39.198-145.1 81.993-214.13 128.718z"/><path d="m1366.89 970.531c76.83-54.654 157.15-104.437 240.1-149.397l1.97 3.698c-83.47 43.65-164.44 92.194-242.07 145.699z"/><path d="m1338.89 970.531c85.29-61.726 174.91-117.499 268.12-166.504l1.93 3.716c-93.75 47.707-184.01 102.241-270.05 162.788z"/><path d="m1310.96 970.531c93.66-68.805 192.57-130.579 296.07-183.545l1.89 3.74c-104.01 51.655-203.55 112.185-297.96 179.805z"/><path d="m1283.01 970.531c101.9-76.111 209.92-144.335 324.05-200.718l1.83 3.764c-114.57 55.054-223.23 122.028-325.88 196.954z"/><path d="m1255.11 970.531c110.11-83.423 227.22-158.121 351.97-217.819l1.79 3.788c-125.16 58.345-242.91 131.799-353.76 214.031z"/><path d="m1227.2 970.531c66.47-51.195 134.85-100.206 206.65-143.707 55.85-33.867 113.86-64.239 173.26-91.386l1.73 3.817c-59.53 26.537-117.72 56.311-173.78 89.586-72.16 42.8-140.95 91.147-207.86 141.69z"/><path d="m1199.34 970.531c70.97-55.503 143.58-109.337 220.72-156.069 60.01-36.368 122.82-68.11 187.08-96.227l1.67 3.847c-64.37 27.495-127.33 58.627-187.53 94.397-77.49 46.025-150.52 99.201-221.94 154.052z"/><path d="m1171.56 970.531c75.54-59.716 152.48-118.205 234.9-168.263 64.09-38.965 131.5-72.449 200.72-101.314l1.59 3.878c-69.28 28.224-136.83 61.098-201.1 99.458-82.75 49.347-160.12 107.172-236.11 166.241z"/><path d="m1143.8 970.531c82.34-65.693 165.91-130.573 256.37-184.88 66-39.641 135.54-73.418 207.04-101.911l1.53 3.901c-71.54 27.871-141.19 61.044-207.33 100.093-90.8 53.564-174.81 117.768-257.61 182.797z"/><path d="m1115.82 970.531c113.46-92.577 230.62-182.827 362.41-247.982 20.29-10.058 40.94-19.776 61.71-28.811 22.19-9.693 44.64-18.806 67.31-27.345l1.46 3.932c-22.66 8.347-45.11 17.274-67.32 26.776-20.77 8.862-41.44 18.405-61.76 28.29-132.12 64.144-249.78 153.472-363.81 245.14z"/><path d="m1087.92 970.531c48.63-41.544 99.42-80.479 150.48-118.971 51.22-38.33 104.23-74.375 159.73-106.256 44.42-25.43 90.41-48.335 137.55-68.29 23.59-9.992 47.47-19.297 71.6-27.895l1.39 3.949c-24.11 8.413-47.98 17.526-71.57 27.327-47.16 19.59-93.18 42.112-137.67 67.183-55.64 31.456-108.83 67.106-160.25 105.035-51.31 38.133-102.35 76.709-151.26 117.918z"/><path d="m1066.4 970.531c46.25-47.85 101.71-87.695 154.28-128.335 95.74-73.251 199.25-137.185 311.2-182.54 24.82-10.154 49.98-19.482 75.44-27.949l1.31 3.979c-25.42 8.269-50.56 17.4-75.38 27.363-112.02 44.541-215.74 107.703-311.78 180.194-52.82 40.293-108.5 79.737-155.07 127.288z"/><path d="m1045.36 970.531c43.98-54.875 103.01-94.438 157.64-137.753 121.34-94.636 256.68-173.2 404.37-218.417l1.22 4.009c-26.72 8.113-53.13 17.256-79.17 27.362-117.57 45.224-225.86 111.647-325.63 188.087-54.88 42.962-114.12 82.13-158.43 136.712z"/><path d="m1031.62 970.531c38.49-62.474 100.05-104.341 156.34-149.331 125.02-98.771 265.3-180.949 419.45-224.313 0 0 1.13 4.034 1.13 4.034-153.98 42.316-294.46 123.531-419.78 221.314-56.53 44.631-118.29 86.079-157.14 148.296z"/><path d="m1018.18 970.531c13.48-26.8 30.35-52.057 51.24-73.657 26.11-27.046 56.56-49.293 85.58-73.018 5.02-4.104 12.45-9.95 17.59-14.061 128.76-102.989 274.22-188.805 434.86-230.317 0 0 1.05 4.057 1.05 4.057-160.42 40.459-306.07 125.312-435.1 227.289-5.17 4.099-12.59 9.855-17.65 13.948-29.15 23.545-59.7 45.595-85.95 72.461-21 21.469-37.99 46.593-51.62 73.298z"/><path d="m1009.14 970.531c15.44-35.411 36.35-68.607 63.07-96.604 5.29-5.643 10.77-11.112 16.37-16.443 57.01-52.153 118.54-99.417 182.39-142.941 102.67-68.799 215.86-124.055 336.53-152.58 0 .001.94 4.082.94 4.082-120.45 27.764-233.54 82.206-336.3 150.239-63.99 43.088-125.78 89.993-183.02 141.768-5.62 5.296-11.12 10.723-16.43 16.323-26.85 27.818-47.92 60.865-63.55 96.156z"/><path d="m1000.87 970.531c36.77-105.657 96.98-149.726 181.16-215.976 37.83-29.218 76.93-56.933 117.87-81.675 40.75-24.982 82.47-48.718 126.18-68.213 58.09-26.387 118.91-47.077 181.48-60.128l.83 4.104c-73.99 14.966-145.64 40.87-213.45 74.035-35.71 17.531-70.05 37.744-104.03 58.411-50.93 31.162-98.93 66.878-145.55 104.15-69.73 54.725-114.05 99.835-144.49 185.292z"/><path d="m992.897 970.531c26.403-90.322 64.633-140.637 136.853-199.348 50.95-41.328 103.33-81.514 159.97-114.812 28.27-16.694 56.21-34.034 85.44-49.077 73.31-37.194 151.47-65.135 232.44-80.104l.75 4.121c-80.6 14.45-158.69 41.898-231.88 78.55-32.85 16.766-64.29 36.212-96.15 54.791-5.97 3.554-14.91 9.137-20.9 12.943-44.8 28.78-87.35 61.241-128.84 94.599-72.38 58.155-110.93 108.458-137.683 198.337z"/><path d="m986.321 970.531c37.229-144 96.289-188.924 209.469-274.507 67.74-50.381 140.52-94.355 218.03-128.093 30.89-13.383 62.92-25.276 95.09-35.199 32.32-9.958 65.27-18.075 98.75-23.28l.63 4.14c-33.27 4.996-66.08 12.895-98.31 22.645-32.09 9.718-64.07 21.405-94.91 34.578-77.43 33.224-150.36 76.76-218.2 126.681-113.55 84.954-172.62 129.406-210.549 273.035z"/><path d="m981.061 970.597c15.384-67.345 40.819-134.109 85.839-187.405 22.13-26.818 48.95-49.244 76.08-70.779 53.97-43.477 110.9-83.752 171.5-117.491 52.91-29.694 108.78-54.667 166.51-73.427 41.3-13.419 83.54-24.205 126.73-29.67l.51 4.156c-42.86 5.202-85.02 15.738-126.15 28.878-90.74 28.933-176.16 73.225-254.68 126.881-28.43 19.339-56.52 40.556-83.44 61.905-27.21 21.368-54.03 43.567-76.26 70.217-45.23 52.997-70.932 119.552-86.639 186.735z"/><path d="m975.778 970.531c17.065-86.462 46.812-176.042 113.312-237.277 19.33-18.137 40.75-34.974 61.42-51.573 17.23-13.738 35.39-27.446 53.39-40.215 48.9-34.938 100.8-66.173 154.97-92.264 46.2-22.159 94.48-40.455 143.82-54.287 34.37-9.643 69.46-17.133 105.09-20.662l.39 4.17c-35.32 3.324-70.24 10.589-104.49 20.023-50.31 13.815-99.49 32.354-146.58 54.796-55.07 26.493-107.77 58.211-157.49 93.717-16.1 11.512-32.54 23.796-48.05 36.057-20.71 16.466-42.21 33.202-61.58 51.189-66.67 60.817-96.724 150.079-114.202 236.326z"/><path d="m970.782 970.531c15.138-91.65 44.048-186.07 110.998-253.553 30.53-30.959 65.06-57.657 99.85-83.62 88.14-65.289 186.29-118.31 291.58-149.963 43.86-13.198 88.77-23.471 134.62-26.747l.29 4.179c-45.43 3.02-90.25 13.042-133.89 25.953-113.99 33.613-219.38 92.445-313.4 164.547-28.07 21.499-55.8 43.668-80.5 69.032-65.53 66.956-94.135 159.821-109.548 250.172z"/><path d="m965.923 970.531c11.147-73.963 28.715-148.619 66.517-213.882 18.77-32.556 42.84-62.133 71.31-86.743 57-48.94 118.24-93.103 183.85-129.809 6.93-3.934 17.72-9.543 24.81-13.394 7.29-3.535 17.97-9.191 25.23-12.577 4.09-1.89 15.18-7.089 19.17-8.937 6.01-2.725 16.57-7.153 22.64-9.812 7.46-3.114 18.66-7.449 26.2-10.426 10.95-3.971 25.48-9.286 36.64-12.737 40.2-13.079 81.44-23.729 123.37-29.493 14.01-1.935 28.1-3.155 42.24-3.776l.15 4.186c-13.99.55-27.98 1.695-41.86 3.548-46.38 6.084-91.88 18.462-136.24 33.057-6.34 2.233-16.99 6.055-23.17 8.234-8.89 3.476-20.66 7.898-29.38 11.64-2.63 1.139-13.86 5.885-16.16 6.879-5.75 2.501-16.53 7.586-22.36 10.236-7.19 3.368-17.98 8.877-25.21 12.42-7.1 3.883-17.86 9.292-24.8 13.241-65.63 36.32-126.98 80.13-184.09 128.711-28.45 24.359-52.57 53.696-71.43 86.085-38.066 65.029-55.939 139.488-67.427 213.349z"/><path d="m962.656 970.531c14.444-103.671 38.254-212.751 108.794-293.75 32.09-36.063 71.05-65.101 109.8-93.545 105.15-76.461 226.28-132.278 354.62-155.2 18.98-3.215 38.35-5.589 57.59-6.429 4.88-.297 9.78-.292 14.5-.419 0 .001.03 4.189.03 4.189-4.41.061-10.07.128-14.35.349-19.08.748-38.29 3.012-57.12 6.117-128 22.273-248.91 77.369-354.05 153.094-38.77 28.191-77.78 56.99-109.94 92.795-70.77 80.563-94.957 189.344-109.874 292.799z"/><path d="m959.395 970.531c12.721-97.119 28.984-197.989 82.445-282.052 21.19-33.562 49.71-61.768 80.76-86.211 46.39-36.895 94.81-71.4 146.77-100.091 69.11-38.578 143.69-67.1 220.84-84.776 38.6-8.83 78.1-14.748 117.82-13.915l-.11 4.187c-19.61-.458-39.27.626-58.79 3.057-136.89 18.577-266.99 76.064-378.2 157.258-31.61 23.457-63.8 46.696-91.33 74.98-83.37 87.264-104.498 212.308-120.205 327.563z"/><path d="m955.548 970.531c14.701-118.672 32.077-246.773 111.932-341.2 19.83-23.102 42.77-43.266 66.52-62.204 63.62-50.104 133.67-92.407 208.25-124.068 28.04-11.746 56.74-21.994 85.96-30.425 38.97-11.2 78.57-20.608 118.96-24.98 20.19-2.243 40.58-2.969 60.93-1.943l-.24 4.181c-20.07-1.097-40.25-.472-60.28 1.666-40.13 4.168-79.65 13.379-118.44 24.347-33.97 9.66-67.3 21.73-99.65 35.887-69.27 30.61-134.61 70.262-194.27 116.873-23.75 18.767-46.71 38.779-66.55 61.69-80.099 93.941-97.906 221.75-113.122 340.176z"/><path d="m951.694 970.531c14.253-121.825 27.955-253.044 103.966-354.058 38.41-49.418 89.62-86.868 141.93-120.343 78.36-51.033 164.83-89.822 255.94-111.395 30.29-7.435 61.04-13.439 92.13-16.22 20.74-1.951 41.67-2.214 62.5-.537l-.37 4.173c-20.52-1.737-41.22-1.574-61.79.275-30.9 2.633-61.51 8.481-91.63 15.742-90.9 21.119-177.19 59.411-255.51 109.951-52.28 33.147-103.48 70.241-141.96 119.317-76.287 100.56-90.438 231.491-105.206 353.095z"/><path d="m947.296 970.531c13.517-115.058 24.108-235.464 81.404-338.543 25.82-46.752 64.38-85.133 106.4-117.495 46.58-35.334 96.5-66.409 149.08-92.012 81.45-39.062 169.8-65.186 260.03-72.354 21.24-1.502 42.67-1.915 63.99.299l-.45 4.165c-20.95-2.262-42.16-1.951-63.27-.545-89.79 6.762-177.86 32.431-259.08 70.971-52.51 25.304-102.45 56.105-149.02 91.136-41.99 32.062-80.52 70.095-106.42 116.541-57.64 102.72-68.686 222.965-82.664 337.837z"/><path d="m942.898 970.531c13.954-118.037 22.445-240.748 76.082-348.883 34.3-68.892 94.32-120.488 157.64-162.188 108.44-72.536 235.25-120.438 366.1-127.648 21.75-1.167 43.7-1.55 65.51 1.089l-.51 4.158c-21.41-2.681-43.14-2.405-64.8-1.328-130.3 6.659-256.72 53.897-365.01 125.694-65.44 42.699-127.57 96.2-161.2 168.194-50.948 106.148-59.672 225.669-73.812 340.912z"/><path d="m937.944 970.531c13.84-112.269 21.499-229.493 63.216-335.617 19-49.472 48.1-95.2 86.1-132.255 28.05-27.241 60.24-49.751 92.9-71.041 107.41-69.727 232.85-114.328 361.34-119.032 22.35-.807 44.85-.783 67.05 2.585l-.65 4.141c-21.88-3.405-44.14-3.518-66.26-2.8-127.94 4.182-252.95 48.137-360.16 117.138-32.65 21.098-64.8 43.394-92.85 70.417-37.97 36.734-67.11 82.163-86.22 131.344-42.088 105.837-50.207 223.054-64.466 335.12z"/><path d="m933.031 970.531c17.227-133.624 22.762-277.194 83.359-399.895 37.31-74.619 84.81-113.091 153.08-157.63 109.55-72.04 238.7-116.88 370.3-119.621 22.89-.455 45.95-.06 68.58 3.997l-.75 4.117c-22.3-4.075-45.11-4.554-67.76-4.189-136.79 2.292-270.77 50.424-383.29 127.149-61.96 40.821-104.82 79.646-138.75 146.889-28.29 55.931-44.302 117.43-55.635 178.833-13.277 72.862-19.56 146.968-29.134 220.35z"/><path d="m927.048 970.531c14.917-106.687 21.098-215.294 49.101-319.707 14.313-53.491 34.641-106.094 66.721-151.579 31.67-46.059 77.48-79.688 123.6-110.117 63.69-41.37 133.77-73.083 207.19-92.643 53.65-14.271 109.12-22.463 164.69-22.415 23.42-.072 47.01.736 70.06 5.529l-.87 4.093c-22.68-4.799-46.01-5.679-69.19-5.697-133.63-.113-266.85 44.464-377.83 118.009-43.5 28.798-86.13 61.011-116.15 104.299-32.13 45.186-52.592 97.591-67.054 150.838-28.374 104.264-34.956 212.805-50.268 319.39z"/><path d="m921.16 970.531c17.089-111.988 22.51-226.064 50.501-336.197 13.248-52.027 31.619-103.363 60.859-148.688 29.62-47.166 74.04-82.505 119.84-113.072 108.05-72.056 236.37-115.503 366.59-117.825 29.95-.143 60.17.234 89.52 7.079l-.99 4.075c-11.47-2.765-23.22-4.446-35.03-5.517-148.36-11.626-299.54 34.178-422.44 116.713-71.57 47.457-115.59 92.561-149.11 172.732-13.933 32.795-24.015 67.545-32.338 102.172-24.724 104.688-30.821 212.482-47.402 318.528z"/><path d="m913.651 970.531c30.588-168.162 26.405-387.088 130.139-528.194 22.24-29.274 49.82-54.141 79.46-75.713 98.88-71.97 216.98-117.691 338.87-129.077 36.6-3.303 73.47-3.465 110.07-.024 12.21 1.292 24.39 3.291 36.34 6.468l-1.11 4.039c-11.64-3.141-23.61-5.152-35.66-6.474-36.28-3.543-73-3.507-109.31-.359-121.35 10.896-239.13 56.036-337.81 127.333-29.58 21.37-57.06 45.964-79.29 75-103.9 140.299-100.555 359.228-131.699 527.001z"/><path d="m905.639 974.636c4.882-24.503 9.053-49.365 12.715-74.065 25.191-160.598 26.465-373.069 137.066-500.613 28.88-33.298 65.01-59.309 102.11-82.657 101.22-62.905 219.25-99.59 338.6-101.893 31.42-.162 63.06.454 94 6.306 6.2 1.227 12.36 2.699 18.45 4.488l-1.2 4.015c-5.93-1.771-11.96-3.231-18.05-4.458-18.32-3.668-37.02-5.11-55.68-5.912-24.97-1.124-49.96-.909-74.87 1.042-105.96 8.203-209.52 42.794-299.91 98.578-15.75 9.814-31.64 20.488-46.58 31.522-107.48 76.377-142.454 202.458-163.151 326.259-16.466 98.818-23.425 199.138-43.5 297.388z"/><path d="m896.173 974.701c23.737-99.787 30.779-202.596 46.336-303.76 11.932-75.708 27.668-152.232 61.341-221.595 22.45-46.17 54.87-87.88 96.15-118.677 102.14-77.804 227.18-125.278 355.35-133.942 25.63-1.777 51.41-1.705 77.04-.239 19.27 1.059 38.58 2.788 57.49 6.911 6.31 1.382 12.57 3.027 18.75 5.014l-1.31 3.979c-6.01-1.957-12.14-3.59-18.33-4.966-18.66-4.129-37.76-5.906-56.83-7.019-25.51-1.544-51.06-1.699-76.57-.024-127.61 8.191-252.22 55.055-354.16 132.165-41.14 30.474-73.45 71.768-95.93 117.608-33.827 69.072-49.797 145.447-61.955 220.946-15.899 101.098-23.3 203.902-47.372 303.599z"/><path d="m887.874 970.531c31.503-116.912 36.146-238.648 57.119-357.493 10.794-61.018 24.981-122.029 50.555-178.73 18.172-40.132 42.682-78.173 75.762-107.654 106.27-89.748 242.65-142.732 381.4-150.451 32.69-1.837 65.51-.688 98.08 2.531 11.39 1.179 22.86 2.861 34.07 5.266 8.05 1.753 16.01 3.907 23.82 6.63l-1.4 3.943c-9.06-3.225-18.61-5.643-28.05-7.569-15.93-3.124-32.11-4.859-48.3-6.02-25.98-1.968-52.01-2.501-78.03-1.119-138.1 7.216-274 59.531-380.07 148.488-32.97 29.194-57.39 66.851-75.619 106.714-25.693 56.461-40.054 117.336-51.028 178.181-21.361 118.761-26.423 240.49-58.309 357.283z"/><path d="m875.805 970.531c64.161-194.31 34.722-446.458 150.075-618.292 37.75-55.898 95.18-94.582 154.35-124.96 95.07-49.059 202.49-74.447 309.5-72 31.78 1.185 63.7 3.219 94.79 10.286 8.2 1.95 16.29 4.32 24.2 7.282l-1.49 3.913c-7.7-2.914-15.64-5.266-23.66-7.198-30.73-7.097-62.49-9.209-93.94-10.483-106.45-2.789-213.41 22.145-308.15 70.647-58.94 30.026-116.16 68.255-153.88 123.71-115.511 170.827-87.095 423.426-151.795 617.095z"/><path d="m863.754 970.531c48.323-128.544 49.628-267.74 73.867-401.592 14.211-80.316 34.734-161.63 78.949-231.162 14.75-22.995 31.89-44.697 51.86-63.396 30.17-27.967 65.88-49.094 102.34-67.721 100.19-51.746 214.26-76.979 326.94-70.953 27.29 1.759 54.71 4.134 81.45 10.208 10 2.381 20.06 5.301 29.61 9.161l-1.58 3.877c-9.3-3.788-19.17-6.708-28.95-9.059-26.44-6.091-53.7-8.539-80.75-10.364-112.08-6.348-225.64 18.418-325.48 69.583-36.32 18.405-71.91 39.3-101.97 66.992-19.9 18.513-36.97 40.006-51.71 62.803-44.287 69.165-64.99 150.21-79.423 230.26-24.658 133.755-26.423 272.986-75.153 401.363z"/><path d="m847.592 970.531c96.712-213.343 39.731-531.904 206.718-709.277 30.53-31.45 68.27-54.798 106.91-74.95 99.05-51.973 212.22-76.56 323.93-71.199 27.85 1.694 55.95 4.171 83.32 9.825 13.74 2.873 27.33 6.792 40.34 12.333l-1.67 3.841c-12.65-5.433-25.97-9.328-39.51-12.206-27.13-5.691-55.04-8.24-82.68-10.005-111.07-5.672-223.77 18.453-322.47 69.852-38.47 19.913-76.07 42.992-106.5 74.142-166.844 176.159-111.143 495.103-208.388 707.644z"/><path d="m830.904 970.531c110.379-209.406 50.741-531.236 205.556-717.834 31.23-37.11 72.36-64.263 114.89-86.731 101.08-53.577 217.33-77.7626 331.41-70.9114 28.53 2.0224 57.12 4.8407 85.09 11.0394 14.03 3.213 27.86 7.426 41 13.385l-1.75 3.8c-12.84-5.858-26.4-10.034-40.16-13.23-27.72-6.234-56.11-9.113-84.42-11.2068-113.46-7.1623-229.18 16.5688-329.89 69.5588-42.34 22.193-83.31 49.047-114.41 85.786-154.768 185.366-96.453 507.788-207.316 716.344z"/><path d="m809.495 970.531c34.579-47.551 50.818-105.167 64.467-161.586 16.951-70.42 26.519-143.988 37.002-215.697 17.095-116.361 34.429-238.537 102.076-337.882 15.58-22.594 33.42-43.812 54.5-61.481 11.27-9.394 23.38-17.652 35.66-25.628 61.62-39.503 130.73-66.967 202.39-81.6212 71.68-14.7434 145.88-17.3942 218.33-6.7973 21.74 3.1294 43.43 7.5512 64.3 14.5819 6.97 2.3396 13.86 4.9664 20.58 8.0596l-1.64 3.531c-6.54-3.04-13.3-5.637-20.16-7.9646-20.65-7.0127-42.04-11.4286-63.61-14.5998-72.04-10.7405-145.83-8.3052-217.19 6.169-71.38 14.3844-140.25 41.5374-201.69 80.6884-12.2 7.88-24.3 16.078-35.48 25.352-22.32 18.645-41.19 41.275-57.3 65.43-65.361 98.22-82.504 217.999-99.683 332.321-10.668 71.688-20.458 145.238-37.612 215.652-13.81 56.395-30.217 114.011-64.94 161.472z"/><path d="m784.55 970.531c41.526-43.889 62.175-102.444 78.049-159.641 22.989-83.231 34.753-179.135 47.551-264.894 17.113-117.433 39.779-240.536 114.57-336.386 12.55-16.336 26.83-31.659 43.63-43.758 116.36-86.1332 265.73-122.6209 409.2-110.7435 29.89 2.5849 59.73 7.1084 88.67 15.2161 14.48 4.1646 28.78 8.8796 42.52 15.1563l-1.52 3.2491c-13.47-6.1929-27.7-10.9319-41.94-15.0546-28.68-8.1197-58.35-12.6911-88.02-15.3238-142.77-12.1825-291.56 23.7905-407.61 109.2474-16.68 11.949-30.81 27.028-43.33 43.243-74.841 95.45-97.674 218.19-115.063 335.319-12.942 85.767-24.999 181.51-48.227 264.849-16.024 57.184-36.829 115.728-78.48 159.521z"/><path d="m749.289 970.531c55.892-42.992 75.5-88.598 97.035-153.197 15.916-43.362 26.1-88.604 34.076-134.025 13.314-75.249 22.678-152.871 35.973-228.058 14.289-79.319 35.004-159.143 76.967-228.732 13.89-23.132 29.77-45.23 48.81-64.437 10.91-10.968 22.97-20.715 35.58-29.606 116.45-79.8208 262.63-111.0071 402.26-96.8141 28.75 3.0875 57.46 7.8863 85.24 16.0957 14.83 4.4697 29.47 9.5019 43.47 16.2154l-1.45 2.9559c-13.74-6.6297-28.32-11.6799-42.93-16.1137-29.39-8.724-59.88-13.7502-90.38-16.742-122.07-11.5961-248.58 11.6201-355.9 71.8028-41.11 22.492-77.14 49.974-104.15 88.73-82.402 114.088-96.864 258.512-117.962 393.666-11.878 75.39-22.6 153.379-49.215 225.2-21.672 64.509-41.4 110.169-97.424 153.059z"/><path d="m704.101 970.531c43.967-25.753 77.637-51.806 102.319-97.245 38.402-69.929 56.795-148.727 70.994-226.644 26.232-139.926 31.629-287.581 96.778-416.85 14.498-28.35 31.928-55.419 52.918-79.401 10.44-12.081 21.75-23.474 34.48-33.131 103.42-75.3213 233.86-108.4282 360.82-105.3706 47.76 1.5258 95.73 7.3418 141.57 21.2296 15.26 4.8048 30.34 10.172 44.68 17.3643l-1.36 2.6626c-14.1-7.1084-29.12-12.4936-44.17-17.2565-45.55-13.8998-93.29-19.7756-140.79-21.3852-102.99-2.7524-207.53 18.4532-298.97 66.6327-29.53 15.9941-59.27 32.9991-82.84 57.2801-37.47 38.469-64.77 85.822-84.587 135.492-58.28 149.053-56.832 312.631-98.065 466.148-12.356 45.995-27.895 91.68-51.213 133.367-7.904 13.804-16.664 27.201-27.189 39.156-21.224 23.839-47.994 41.921-75.375 57.951z"/><path d="m650.62 967.802c45.026-19.793 88.61-45.744 120.904-83.47 42.878-50.501 64.867-114.848 81.854-177.945 12.297-47.844 20.961-96.538 28.943-145.262 20.894-129.092 34.016-264.61 101.487-379.572 16.932-28.261 37.052-55.007 61.722-76.979 17.03-15.0422 35.92-27.8351 55.66-39.0363 109.51-62.40834 239.83-84.0927 364.5-70.67159 32.77 3.64996 65.46 9.55571 96.93 19.58409 15.72 5.1459 31.28 10.8542 45.99 18.5251l-1.26 2.3815c-14.5-7.5931-29.99-13.3135-45.53-18.4174-31.25-10.02845-63.81-15.970076-96.4-19.64996-124.2-13.58864-254.11 7.80253-363.34 69.80406-5.38 3.0157-10.66 6.1929-15.88 9.4719-100.525 61.5526-144.486 180.2006-169.504 290.0346-28.493 128.48-35.596 261.708-76.751 387.321-36.206 108.667-82.674 167.587-189.325 213.881z"/><path d="m671.784 930.064c22.253-12.302 43.65-26.267 63.527-42.142 26.465-21.265 48.485-47.874 64.383-77.87 98.31-190.809 69.032-419.493 159.27-613.175 28.302-61.547 72.126-117.7207 131.886-151.1926 36.72-21.3553 76.13-37.97755 116.84-50.02841 4.11-1.16679 8.06-2.47122 12.07-3.90128 42.55-15.07851 206.13-74.93791 251.08-91.27301 50.07-17.9927 129.77-47.4437 179.64-64.4367 4.08-1.316 8.1-2.806 12.3-3.83l.45 2.346c-4.05 1.035-8.01 2.423-11.99 3.74-49.57 16.891-129.33 46.037-179.69 64.1492-46.21 16.5984-208.17 75.8176-251.23 90.90212-3.99 1.42409-8.09 2.77035-12.15 3.91321-40.61 11.95512-79.93 28.47567-116.57 49.70527-59.58 33.2686-103.269 89.1372-131.559 150.4142-90.447 193.475-61.541 422.181-160.125 612.781-15.953 29.996-38.038 56.598-64.545 77.834-19.895 15.856-41.316 29.792-63.587 42.064z"/><path d="m689.477 890.519c40.276-24.407 76.123-57.609 98.837-99.225 17.232-30.379 30.504-62.857 41.34-96.018 46.025-141.016 49.651-291.619 91.799-433.592 23.713-77.929 59.082-156.655 122.517-210.2553 38.15-31.647 85.08-50.566948 132.13-64.712 1.5-.389 7.3-2.178 8.88-2.5789 4-1.3882 10.77-4.003 14.37-5.3613 94.15-36.2243 250.74-97.0655 344.74-133.4155 23.87-9.16 65.16-25.268 89.15-34.243l1.46-.533.73-.263.81-.264.54 2.023c-.72.227-2.08.73-2.81.999-24.15 8.993-64.56 24.688-89.17 34.112-94.04 36.195-250.73 96.8978-344.93 132.9547-2.54.8317-12.18 4.751-14.49 5.3852-1.61.4847-7.14 2.0224-8.88 2.561-46.9 14.03736-93.68 32.8078-131.74 64.2872-63.322 53.3729-98.666 131.8589-122.439 209.5619-42.316 141.879-46.151 292.496-92.368 433.436-10.884 33.161-24.203 65.633-41.49 96-22.767 41.603-58.663 74.776-98.986 99.141z"/><path d="m704.053 850.19c25.167-19.578 49.514-41.179 68.039-67.321 18.256-26.393 30.672-56.233 42.017-86.103 11.386-29.936 20.427-60.709 28.164-91.776 31.079-124.264 38.875-253.654 77.433-376.173 24.317-75.453 59.297-152.1977 122.144-203.1895 20.14-15.75468 42.7-28.16452 65.5-39.6051 156.45-60.727 343.75-131.8954 500.28-192.2514l5.6-2.166 5.55-2.178.73 1.639c-3.1 1.269-8.05 3.112-11.24 4.362-156.52 60.129-343.95 131.13-500.41 191.6296-22.74 11.37471-45.26 23.7188-65.35 39.4016-62.747 50.8003-97.703 127.3478-122.062 202.5908-38.689 122.441-46.636 251.802-77.858 376.018-7.772 31.067-16.861 61.84-28.278 91.776-11.387 29.87-23.844 59.704-42.142 86.085-18.561 26.136-42.914 47.689-68.117 67.261z"/><path d="m717.792 803.812c8.52-7.959 17.418-15.671 25.214-24.371 23.677-25.999 41.005-57.06 55.079-89.107 74.764-172.849 65.298-369.197 138.226-542.66 21.355-49.9627 49.783-98.6029 91.799-133.9537 7.49-6.25879 15.31-12.11071 23.34-17.66344 1.64-1.1608 3.57-1.76514 5.3-2.63276 111.63-47.7307 265-109.0801 378.38-156.0031 43.89-17.974 118.75-48.622 162.18-66.788l5.38-2.286 2.67-1.161c.87-.389 1.81-.79 2.58-1.19l.74 1.298c-1.57.826-3.79 1.699-5.41 2.423-45.71 19.279-120.9 49.706-167.64 68.913-109.63 45.277-259.94 105.4837-367.8 150.9766-3.57 1.52582-7.16 3.0576-10.72 4.63726-1.6.74196-3.73 1.57371-5.16 2.54903-138.862 93.13981-163.406 315.90111-191.882 468.58211-17.131 91.508-36.769 184.899-82.872 266.778-11.704 20.23-25.609 39.3-42.28 55.73-5.636 5.386-11.398 10.639-17.124 15.929z"/><path d="m1555.71-4.7868c6.96 2.19596 13.84 4.583403 20.65 7.19223 10.34 3.96111 21.33 8.47267 31.62 14.13317"/></g><path d="m1555.71-4.7868c6.96 2.19596 13.84 4.583403 20.65 7.19223 10.34 3.96111 21.33 8.47267 31.62 14.13317" stroke="#fff" stroke-miterlimit="10" stroke-opacity=".2" stroke-width="5.33333"/><g fill="#fff" fill-opacity=".2"><path d="m728.628 760.892c23.551-25.299 43.44-54.152 57.914-85.565 75.908-164.278 71.33-351.527 132.991-520.335 18.369-50.747 43.285-99.8356 78.683-140.8887 5.694-6.56399 11.654-12.90057 17.864-18.96788.04-.07779 295.31-116.93642 295.36-117.00242 80.18-31.934 206.69-81.903 285.73-114.112l4.58-1.909 2.27-.969c.75-.329 1.52-.658 2.2-.999l.59 1.035c-2.47 1.214-6.6 2.842-9.19 3.943-78.6 32.012-205.65 82.064-285.8 113.962.05.018-295.86 117.03863-295.2 116.72749-6.19 6.02543-12.11 12.31418-17.776 18.83621-35.38 40.9454-60.296 89.9263-78.689 140.5653-61.816 168.718-57.454 355.983-133.523 520.156-14.516 31.401-34.429 60.242-58.004 85.523z"/><path d="m738.854 715.034c9.501-12.955 18.447-26.328 26.698-40.108 15.737-28.027 28.201-57.801 38.785-88.114 50.274-144.539 56.18-300.386 106.741-444.84 7.898-22.78 17.143-45.1044 28.021-66.6272 14.546-28.6851 31.982-56.1316 53.295-80.28718 97.196-38.43232 348.726-138.05262 442.766-175.49162 37.17-14.791 101.32-40.359 138.13-55.407l4.58-1.909c1.5-.646 3.08-1.281 4.49-1.975l.45.778c-2.51 1.203-6.55 2.83-9.17 3.931-36.72 15.091-100.54 40.294-138.17 55.354-92.9 36.972-346.45 137.2148-442.836 175.31797-20.608 23.59313-38.708 51.46443-53.038 79.94013-10.885 21.4869-20.141 43.7939-28.051 66.5369-50.669 144.401-56.712 300.231-107.106 444.715-10.615 30.313-23.102 60.075-38.863 88.09-8.257 13.78-17.215 27.147-26.722 40.096z"/><path d="m749.301 664.18c98.471-166.16 93.911-367.181 156.691-546.047 9.197-26.0941 20.105-51.7036 33.191-76.0926 8.777-16.2333 18.525-31.9999 29.349-46.95279.03-.17352 295.178-116.75061 295.268-116.85861 75.84-30.121 201.64-79.91 276.44-110.175 0-.006 9.18-3.764 9.18-3.764l4.58-1.902c1.51-.647 3.07-1.281 4.5-1.987l.3.521c-4.76 2.219-13.32 5.594-18.34 7.676-74.33 30.098-200.61 79.959-276.48 110.104.04-.012-295.562 116.88819-295.107 116.63688-10.818 14.92292-20.566 30.67162-29.349 46.88702-13.086 24.365-24.006 49.9447-33.215 76.0211-62.869 178.8-58.465 379.854-157.008 545.933z"/><path d="m761.154 605.834c10.382-24.632 20.769-49.293 29.936-74.407 3.781-10.4 7.844-22.693 11.183-33.261 38.438-122.967 50.693-252.44 89.28-375.366 14.014-44.5891 32.24-88.1792 57.472-127.64664.024-.07181 293.005-116.76936 293.055-116.81636 79.43-31.809 205.18-81.819 283.53-113.909l4.54-1.909c1.51-.646 3.04-1.268 4.49-1.986l.15.257c-2.57 1.268-6.41 2.764-9.07 3.913-77.89 31.946-204.09 82.016-283.55 113.873.02 0-293.204 116.82869-292.965 116.69107-7.198 11.26701-13.84 22.87503-19.985 34.74643-16.892 32.6103-29.852 67.285-40.473 102.4145-36.32 120.072-48.963 245.977-86.444 365.746-3.339 10.559-7.408 22.851-11.195 33.258-9.173 25.112-19.567 49.773-29.954 74.402z"/><path d="m7.85693-4.62532-16.71144 13.1219-2.24139-3.53625z"/><path d="m35.7332-4.78679-44.61013 30.44429-2.19657-3.5662z"/><path d="m63.3961-4.78675c-23.8709 16.12565-47.9913 31.89225-72.28805 47.39565l-2.16665-3.5841c24.9923-14.2947 49.8307-28.8647 74.4547-43.81155z"/><path d="m91.3291-4.78686c-32.8805 22.15706-66.3004 43.53626-100.08621 64.33506l-2.13249-3.608c34.4549-19.5662 68.5786-39.7428 102.2187-60.72706z"/><path d="m119.182-4.78685c-41.913 28.30215-84.7171 55.30595-128.10435 81.34625l-2.10575-3.62c44.0354-24.8018 87.5318-50.5969 130.2101-77.72625z"/><path d="m147.2-4.78682c-50.7867 34.69862-102.9899 67.34482-156.13983 98.37542l-2.07067-3.6439c53.7664-29.7741 106.6496-61.1938 158.2105-94.73152z"/><path d="m175.128-4.7868c-59.587 41.1309-121.1673 79.3957-184.08221 115.3208l-2.04189-3.656c63.5051-34.6566 125.7541-71.6887 186.1241-111.6648z"/><path d="m203.159-4.78682c-68.239 47.88032-139.1992 91.90722-212.13299 132.39782l-2.00261-3.68c73.483-39.198 145.1046-81.9923 214.1356-128.71782z"/><path d="m231.108-4.78679c-76.825 54.65369-157.1431 104.43679-240.09877 149.39679l-1.96893-3.697c83.4688-43.6504 164.4407-92.1949 242.0677-145.69979z"/><path d="m259.11-4.78683c-85.286 61.72623-174.909 117.49883-268.12248 166.50383l-1.92522-3.716c93.7445-47.706 184.0127-102.2403 270.0477-162.78783z"/><path d="m287.044-4.78672c-93.667 68.80482-192.5724 130.57872-296.07597 183.54572l-1.88673-3.74c104.0028-51.656 203.5477-112.1857 297.9627-179.80572z"/><path d="m314.993-4.7868c-101.911 76.1107-209.926 144.3348-324.05008 200.7178l-1.83622-3.763c114.5773-55.055 223.2333-122.0289 325.8863-196.9548z"/><path d="m342.888-4.78676c-110.11 83.42256-227.215 158.12076-351.96773 217.81876.00024 0-1.79087-3.787-1.79087-3.787 125.1636-58.346 242.9116-131.7999 353.7586-214.03176z"/><path d="m370.797-4.78672c-66.465 51.19522-134.84 100.20642-206.642 143.70672-55.858 33.867-113.8641 64.239-173.269 91.387l-1.7224-3.818c59.5285-26.537 117.7194-56.311 173.7794-89.585 72.155-42.8007 140.943-91.1477 207.854-141.69072z"/><path d="m398.66-4.78676c-70.973 55.50336-143.583 109.33776-220.724 156.06876-60.009 36.368-122.8139 68.111-187.08051 96.227l-1.66119-3.847c64.3713-27.494 127.3307-58.627 187.5307-94.396 77.484-46.026 150.517-99.2016 221.935-154.05276z"/><path d="m426.442-4.78674c-75.544 59.71574-152.489 118.20474-234.897 168.26374-64.097 38.964-131.5091 72.448-200.72273 101.307.00024 0-1.59497-3.871-1.59497-3.871 69.2838-28.225 136.8337-61.098 201.1027-99.459 82.748-49.346 160.122-107.1712 236.112-166.24074z"/><path d="m454.198-4.78675c-82.339 65.69335-165.903 130.57275-256.364 184.87975-66.002 39.641-135.5407 73.418-207.04201 101.912l-1.53439-3.902c71.5482-27.877 141.1864-61.044 207.3384-100.092 90.8-53.565 174.807-117.7686 257.602-182.79775z"/><path d="m482.179-4.78678c-113.463 92.57738-230.618 182.82678-362.407 247.98178-20.2967 10.059-40.9436 19.776-61.7072 28.811-22.1943 9.693-44.6431 18.806-67.31024 27.339l-1.45916-3.925c22.6601-8.347 45.1101-17.275 67.3142-26.777 20.7732-8.861 41.4392-18.405 61.7564-28.296 132.12-64.138 249.788-153.4659 363.813-245.13378z"/><path d="m510.08-4.78683c-48.632 41.54373-99.419 80.47863-150.479 118.97083-51.225 38.325-104.229 74.375-159.734 106.256-44.42 25.43-90.408 48.335-137.5497 68.284-23.5853 9.998-47.4651 19.303-71.59772 27.901l-1.38948-3.949c24.1125-8.413 47.9824-17.526 71.5679-27.327 47.165-19.584 93.182-42.112 137.674-67.183 55.638-31.455 108.83-67.105 160.248-105.035 51.312-38.1332 102.35-76.7092 151.26-117.91783z"/><path d="m531.6-4.78677c-46.251 47.85037-101.714 87.69477-154.282 128.33477-95.741 73.251-199.246 137.185-311.192 182.546-24.8245 10.148-49.9904 19.477-75.44879 27.943l-1.30441-3.979c25.4207-8.269 50.5626-17.406 75.3764-27.362 112.0238-44.542 215.7408-107.704 311.7798-180.195 52.826-40.293 108.498-79.7365 155.071-127.28777z"/><path d="m552.641-4.78684c-43.98 54.87504-103.014 94.43824-157.637 137.74684-121.348 94.642-256.683 173.206-404.36694 218.424.00024 0-1.22496-4.009-1.22496-4.009 26.7191-8.114 53.1278-17.257 79.167-27.363 117.5719-45.224 225.8569-111.647 325.6289-188.087 54.878-42.9617 114.123-82.1299 158.433-136.71184z"/><path d="m566.377-4.78678c-38.488 62.47418-100.05 104.34108-156.336 149.33178-125.023 98.77-265.307 180.948-419.45182 224.312.00042 0-1.12918-4.034-1.12918-4.034 153.98-42.316 294.463-123.53 419.778-221.314 56.534-44.6308 118.292-86.0789 157.139-148.29578z"/><path d="m579.816-4.7868c-13.482 26.8003-30.344 52.0568-51.239 73.6574-26.112 27.0457-56.559 49.2924-85.582 73.0174-5.013 4.105-12.443 9.95-17.583 14.061-128.763 102.983-274.222 188.805-434.86766 230.317.00018.001-1.03944-4.057-1.03944-4.057 160.4191-40.459 306.0641-125.311 435.0971-227.289 5.173-4.099 12.589-9.855 17.656-13.948 29.141-23.545 59.696-45.5943 85.943-72.4604 21.002-21.4689 37.984-46.5938 51.615-73.2984z"/><path d="m588.861-4.78677c-15.441 35.41057-36.349 68.60737-63.075 96.60437-5.289 5.6424-10.764 11.1054-16.364 16.4424-57.015 52.153-118.542 99.417-182.393 142.941-102.662 68.799-215.857 124.055-336.53423 152.58-.00018-.001-.93987-4.082-.93987-4.082 120.4531-27.764 233.5381-82.206 336.3111-150.239 63.983-43.087 125.768-89.992 183.016-141.768 5.62-5.296 11.116-10.7226 16.429-16.3232 26.853-27.8175 47.924-60.8646 63.55-96.15557z"/><path d="m597.125-4.78682c-36.767 105.65782-96.975 149.72582-181.154 215.97582-37.836 29.218-76.934 56.934-117.869 81.676-40.755 24.981-82.476 48.718-126.182 68.212-58.09 26.387-118.9088 47.077-181.47517 60.128l-.83983-4.103c73.9988-14.967 145.646-40.871 213.451-74.035 35.717-17.532 70.049-37.745 104.031-58.412 50.938-31.162 98.94-66.878 145.555-104.149 69.735-54.726 114.047-99.8358 144.483-185.29282z"/><path d="m605.103-4.78685c-26.403 90.32165-64.633 140.63685-136.858 199.34785-50.942 41.328-103.32 81.514-159.962 114.812-28.274 16.694-56.209 34.035-85.447 49.077-73.305 37.195-151.4678 65.135-232.43694 80.104l-.74846-4.121c80.5932-14.45 158.6934-41.897 231.8774-78.55 32.855-16.76 64.287-36.212 96.153-54.791 5.969-3.554 14.91-9.137 20.901-12.942 44.802-28.781 87.342-61.242 128.836-94.6 72.383-58.154 110.934-108.458 137.685-198.33685z"/><path d="m611.685-4.7868c-37.234 143.9998-96.294 188.9248-209.469 274.5068-67.741 50.382-140.525 94.355-218.037 128.094-30.89 13.382-62.921 25.275-95.0889 35.198-32.3168 9.958-65.2674 18.075-98.74914 23.281l-.63226-4.14c33.2657-4.997 66.079-12.896 98.3109-22.646 32.0944-9.718 64.0734-21.405 94.9154-34.578 77.425-33.224 150.351-76.76 218.193-126.681 113.552-84.954 172.619-129.406 210.557-273.0348z"/><path d="m616.939-4.85262c-15.384 67.34482-40.812 134.10962-85.837 187.40462-22.135 26.818-48.946 49.245-76.082 70.779-53.967 43.477-110.902 83.752-171.504 117.491-52.902 29.694-108.776 54.667-166.506 73.427-41.3003 13.419-83.5417 24.205-126.72819 29.67l-.51401-4.156c42.8649-5.202 85.0246-15.738 126.1582-28.877 90.732-28.934 176.156-73.225 254.678-126.882 28.423-19.338 56.52-40.556 83.441-61.905 27.202-21.368 54.028-43.566 76.254-70.217 45.227-52.996 70.933-119.5514 86.64-186.73462z"/><path d="m622.222-4.78682c-17.065 86.46222-46.813 176.04182-113.309 237.27782-19.332 18.136-40.747 34.973-61.421 51.572-17.23 13.738-35.396 27.446-53.391 40.215-48.898 34.938-100.8 66.173-154.966 92.265-46.207 22.158-94.484 40.454-143.8297 54.286-34.3629 9.644-69.4512 17.133-105.08018 20.662l-.40062-4.17c35.3314-3.323 70.2413-10.589 104.4989-20.023 50.3096-13.814 99.4846-32.354 146.5796-54.795 55.066-26.494 107.766-58.211 157.485-93.718 16.098-11.512 32.549-23.796 48.048-36.057 20.71-16.466 42.217-33.202 61.582-51.189 66.67-60.822 96.726-150.079 114.204-236.32582z"/><path d="m627.218-4.78674c-15.138 91.64994-44.046 186.07074-110.991 253.55274-30.535 30.959-65.07 57.657-99.854 83.62-88.146 65.289-186.289 118.311-291.583 149.963-43.8621 13.198-88.7689 23.471-134.62368 26.747l-.28302-4.179c45.4296-3.02 90.2488-13.042 133.8937-25.953 113.981-33.613 219.375-92.444 313.393-164.547 28.071-21.498 55.793-43.668 80.496-69.032 65.53-66.956 94.139-159.8202 109.552-250.17174z"/><path d="m632.077-4.78673c-11.147 73.96263-28.715 148.61973-66.519 213.88173-18.767 32.557-42.837 62.133-71.314 86.744-56.99 48.939-118.239 93.102-183.843 129.808-6.927 3.934-17.716 9.543-24.807 13.395-7.295 3.534-17.973 9.191-25.234 12.576-4.091 1.89-15.177 7.09-19.168 8.937-6.013 2.726-16.567 7.153-22.641 9.813-7.462 3.113-18.66 7.448-26.207 10.425-10.944 3.971-25.475 9.286-36.633 12.738-40.206 13.078-81.442 23.728-123.3703 29.492-14.0101 1.935-28.10466 3.156-42.23892 3.776l-.15378-4.185c13.9933-.55 27.9791-1.695 41.8663-3.549 46.3703-6.084 91.8687-18.461 136.2357-33.057 6.341-2.233 16.992-6.055 23.163-8.233 8.901-3.477 20.671-7.899 29.387-11.641 2.631-1.139 13.86-5.885 16.161-6.878 5.746-2.501 16.526-7.587 22.359-10.236 7.189-3.369 17.976-8.877 25.213-12.421 7.095-3.883 17.859-9.292 24.797-13.241 65.63-36.319 126.981-80.13 184.09-128.71 28.453-24.359 52.568-53.703 71.433-86.085 38.063-65.03 55.936-139.4889 67.424-213.34973z"/><path d="m635.344-4.7868c-14.444 103.6709-38.261 212.7508-108.796 293.7498-32.093 36.063-71.046 65.101-109.797 93.545-105.147 76.462-226.283 132.278-354.6222 155.2-18.9739 3.215-38.3513 5.59-57.58768 6.43-4.878933.296-9.78567.291-14.5066.418 0-.001-.01963-4.189-.01963-4.189 4.40912-.061 10.0666117-.128 14.34812-.349 19.07349-.748 38.28469-3.012 57.12019-6.117 127.9958-22.273 248.9068-77.368 354.0458-153.094 38.773-28.191 77.776-56.989 109.937-92.795 70.768-80.562 94.961-189.3433 109.878-292.7988z"/><path d="m638.605-4.78679c-12.721 97.11889-28.984 197.98979-82.447 282.05279-21.187 33.555-49.702 61.768-80.751 86.21-46.392 36.895-94.821 71.4-146.778 100.091-69.104 38.578-143.687 67.1-220.836 84.776-38.6018 8.83-78.1011 14.749-117.8225 13.915l.10814-4.187c19.61388.458 39.27756-.626 58.78806-3.057 136.8963-18.577 266.9973-76.064 378.2083-157.258 31.606-23.456 63.798-46.695 91.323-74.98 83.372-87.264 104.5-212.308 120.207-327.56279z"/><path d="m642.453-4.78681c-14.702 118.67181-32.078 246.77381-111.937 341.19981-19.829 23.102-42.764 43.266-66.515 62.204-63.617 50.105-133.673 92.407-208.252 124.068-28.033 11.747-56.745 21.994-85.952 30.425-38.975 11.2-78.5767 20.609-118.9656 24.981-20.1914 2.242-40.5831 2.968-60.9283 1.943l.24327-4.182c20.06543 1.097 40.24213.472 60.27353-1.666 40.1339-4.168 79.6471-13.379 118.4391-24.347 33.971-9.659 67.297-21.73 99.654-35.887 69.267-30.61 134.607-70.261 194.268-116.872 23.747-18.767 46.706-38.779 66.544-61.69 80.104-93.942 97.911-221.75 113.128-340.17681z"/><path d="m646.306-4.7868c-14.253 121.8248-27.955 253.0438-103.963 354.0588-38.411 49.418-89.625 86.867-141.937 120.342-78.36 51.033-164.826 89.823-255.942 111.395-30.279 7.436-61.036 13.439-92.12 16.221-20.7402 1.95-41.6773 2.214-62.5051.536l.37202-4.173c20.52008 1.737 41.22218 1.574 61.78988-.275 30.8917-2.633 61.5082-8.48 91.6272-15.741 90.9-21.119 177.192-59.412 255.515-109.952 52.28-33.147 103.48-70.24 141.958-119.317 76.287-100.565 90.438-231.491 105.205-353.0948z"/><path d="m650.704-4.78674c-13.517 115.05774-24.108 235.46474-81.408 338.54274-25.814 46.752-64.373 85.133-106.4 117.496-46.577 35.334-96.503 66.408-149.078 92.011-81.45 39.062-169.803 65.186-260.026 72.354-21.2428 1.502-42.6748 1.915-63.9905-.299l.44639-4.165c20.95441 2.262 42.16531 1.951 63.27271.545 89.7934-6.762 177.8634-32.431 259.0774-70.971 52.511-25.304 102.447-56.105 149.023-91.136 41.988-32.062 80.526-70.095 106.42-116.541 57.64-102.719 68.685-222.965 82.663-337.83674z"/><path d="m655.102-4.78688c-13.954 118.03788-22.444 240.74788-76.082 348.88288-34.304 68.893-94.326 120.489-157.637 162.188-108.446 72.537-235.252 120.439-366.1043 127.649-21.7486 1.166-43.7007 1.549-65.5141-1.089l.51942-4.159c21.40448 2.681 43.13688 2.405 64.79148 1.328 130.3025-6.659 256.7255-53.897 365.0085-125.693 65.446-42.7 127.569-96.2 161.208-168.194 50.947-106.142 59.671-225.67 73.81-340.91288z"/><path d="m660.056-4.78667c-13.84 112.26967-21.499 229.49267-63.218 335.61667-18.999 49.472-48.1 95.2-86.102 132.255-28.051 27.241-60.237 49.752-92.897 71.041-107.412 69.727-232.847 114.329-361.3385 119.032-22.3471.808-44.8527.784-67.0501-2.585l.64447-4.141c21.88273 3.405 44.14403 3.519 66.27103 2.801 127.9331-4.183 252.9401-48.138 360.1551-117.139 32.644-21.098 64.799-43.394 92.847-70.417 37.97-36.734 67.118-82.163 86.223-131.343 42.087-105.837 50.206-223.055 64.465-335.12067z"/><path d="m664.969-4.78687c-17.227 133.62487-22.762 277.19387-83.365 399.89387-37.298 74.62-84.805 113.092-153.072 157.631-109.551 72.04-238.707 116.881-370.301 119.621-22.891.455-45.9466.06-68.5843-3.997l.75497-4.117c22.30153 4.075 45.10233 4.554 67.75823 4.189 136.7871-2.292 270.7721-50.424 383.2931-127.149 61.959-40.821 104.817-79.646 138.749-146.889 28.288-55.931 44.3-117.43 55.633-178.833 13.277-72.861 19.56-146.9677 29.134-220.34987z"/><path d="m670.952-4.78686c-14.917 106.68686-21.098 215.29386-49.101 319.70686-14.312 53.492-34.638 106.094-66.72 151.579-31.673 46.059-77.485 79.689-123.602 110.117-63.69 41.371-133.767 73.083-207.189 92.644-53.65 14.27-109.116 22.468-164.6859 22.414-23.423.072-47.0181-.736-70.0652-5.529l.87015-4.093c22.68855 4.799 46.01745 5.679 69.19025 5.697 133.6297.113 266.8527-44.464 377.8307-118.008 43.502-28.799 86.133-61.012 116.155-104.3 32.127-45.186 52.587-97.591 67.05-150.838 28.374-104.263 34.955-212.805 50.267-319.38986z"/><path d="m676.84-4.78686c-17.089 111.98786-22.51 226.06486-50.501 336.19786-13.248 52.026-31.62 103.362-60.856 148.688-29.625 47.166-74.04 82.504-119.844 113.071-108.046 72.057-236.371 115.503-366.5887 117.825-29.9486.143-60.1746-.24-89.5164-7.079l.98032-4.075c11.47483 2.765 23.22338 4.446 35.03268 5.517 148.3631 11.626 299.5461-34.178 422.4491-116.713 71.562-47.457 115.59-92.561 149.11-172.732 13.927-32.794 24.009-67.545 32.332-102.178 24.724-104.682 30.822-212.475 47.402-318.52186z"/><path d="m684.349-4.78681c-30.588 168.16181-26.405 387.08881-130.136 528.19481-22.244 29.274-49.828 54.141-79.467 75.712-98.871 71.97-216.973 117.691-338.866 129.077-36.5934 3.303-73.4754 3.471-110.0712.024-12.2102-1.292-24.39343-3.291-36.332-6.468l1.09547-4.039c11.64854 3.142 23.61823 5.152 35.66963 6.474 36.28 3.543 72.9926 3.507 109.3081.359 121.349-10.896 239.13-56.035 337.811-127.332 29.58-21.371 57.062-45.965 79.291-75 103.898-140.3 100.553-359.229 131.697-527.00181z"/><path d="m692.361-8.89149c-4.882 24.50259-9.053 49.36419-12.715 74.06429-25.19 160.5982-26.465 373.0702-137.072 500.6142-28.874 33.298-65.001 59.308-102.104 82.656-101.223 62.905-219.255 99.59-338.604 101.894-31.4194.161-63.0485-.455-94.00096-6.307-6.19927-1.227-12.36045-2.699-18.44214-4.488l1.20276-4.015c5.92909 1.771 11.95798 3.231 18.04177 4.458 18.32457 3.668 37.02367 5.11 55.68247 5.912 24.9742 1.125 49.9561.909 74.8751-1.041 105.955-8.204 209.519-42.795 299.899-98.579 15.757-9.813 31.649-20.488 46.584-31.522 107.48-76.377 142.456-202.458 163.153-326.258 16.467-98.819 23.425-199.1387 43.5-297.38849z"/><path d="m701.827-8.95729c-23.736 99.78759-30.779 202.59729-46.336 303.76029-11.931 75.708-27.668 152.232-61.343 221.595-22.443 46.17-54.868 87.88-96.152 118.678-102.14 77.804-227.176 125.277-355.351 133.941-25.626 1.777-51.4013 1.706-77.0306.24-19.2741-1.06-38.5869-2.789-57.4872-6.911-6.31357-1.383-12.5811-3.028-18.7549-5.015l1.30353-3.979c6.01392 1.957 12.14332 3.584 18.33651 4.967 18.65816 4.128 37.75756 5.905 56.82106 7.018 25.5186 1.544 51.0656 1.7 76.5716.024 127.611-8.197 252.22-55.054 354.168-132.164 41.138-30.474 73.449-71.768 95.93-117.609 33.824-69.071 49.794-145.447 61.953-220.946 15.898-101.098 23.3-203.9015 47.371-303.59929z"/><path d="m710.126-4.78687c-31.503 116.91287-36.146 238.64787-57.119 357.49287-10.794 61.018-24.981 122.029-50.554 178.73-18.172 40.132-42.679 78.174-75.766 107.649-106.263 89.747-242.646 142.737-381.393 150.456-32.694 1.837-65.5173.688-98.0834-2.531-11.3884-1.179-22.8609-2.86-34.0683-5.266-8.05562-1.753-16.01119-3.907-23.8178-6.63l1.39951-3.949c9.051546 3.231 18.6065 5.649 28.04319 7.575 15.938 3.124 32.1074 4.859 48.3016 6.02 25.9818 1.969 52.0152 2.501 78.0312 1.119 138.101-7.216 274.002-59.53 380.073-148.488 32.974-29.194 57.393-66.85 75.616-106.714 25.693-56.461 40.054-117.336 51.028-178.18 21.361-118.762 26.423-240.491 58.309-357.28387z"/><path d="m722.195-4.78683c-64.161 194.30983-34.722 446.45783-150.073 618.29183-37.755 55.898-95.181 94.582-154.353 124.96-95.062 49.059-202.494 74.448-309.506 71.994-31.7755-1.179-63.6901-3.213-94.7833-10.279-8.19958-1.951-16.28672-4.321-24.2014-7.282l1.49196-3.914c7.6975 2.914 15.6423 5.266 23.65934 7.199 30.7252 7.096 62.4935 9.208 93.9374 10.483 106.45 2.788 213.415-22.145 308.155-70.648 58.943-30.025 116.161-68.254 153.878-123.71 115.511-170.826 87.095-423.425 151.795-617.09483z"/><path d="m734.246-4.78676c-48.323 128.54476-49.627 267.73976-73.867 401.59176-14.211 80.316-34.734 161.63-78.946 231.162-14.757 22.995-31.894 44.697-51.868 63.396-30.163 27.967-65.871 49.095-102.336 67.722-100.184 51.745-214.26 76.978-326.939 70.952-27.2931-1.759-54.711-4.134-81.4569-10.202-9.98951-2.387-20.04912-5.307-29.5987-9.166l1.57933-3.878c9.296912 3.788 19.16787 6.708 28.95167 9.059 26.4359 6.086 53.6964 8.539 80.7466 10.364 112.077 6.348 225.636-18.417 325.476-69.583 36.319-18.405 71.908-39.3 101.974-66.991 19.897-18.514 36.97-40.006 51.706-62.804 44.29-69.165 64.993-150.209 79.425-230.26 24.658-133.755 26.423-272.986 75.153-401.36276z"/><path d="m750.408-4.78686c-96.712 213.34286-39.731 531.90386-206.711 709.27786-30.534 31.449-68.28 54.797-106.918 74.95-99.047 51.973-212.226 76.559-323.923 71.198-27.8627-1.694-55.9557-4.171-83.3304-9.825-13.736-2.872-27.32519-6.792-40.3354-12.332l1.66904-3.842c12.64469 5.433 25.96856 9.329 39.51146 12.207 27.1279 5.69 55.0378 8.239 82.6853 10.004 111.071 5.673 223.765-18.453 322.461-69.852 38.47-19.913 76.068-42.992 106.504-74.142 166.843-176.159 111.142-495.102 208.387-707.64386z"/><path d="m767.096-4.78685c-110.379 209.40585-50.741 531.23685-205.555 717.83385-31.226 37.11-72.359 64.263-114.893 86.732-101.072 53.576-217.329 77.762-331.411 70.911-28.5314-2.023-57.114-4.841-85.0845-11.04-14.027-3.213-27.85994-7.426-41.0046-13.385-.0002 0 1.75281-3.8 1.75281-3.8 12.8431 5.858 26.40189 10.035 40.15799 13.23 27.7208 6.235 56.1172 9.107 84.4233 11.207 113.457 7.162 229.18-16.568 329.887-69.559 42.336-22.193 83.309-49.047 114.41-85.78 154.769-185.372 96.454-507.793 207.317-716.34985z"/><path d="m788.505-4.78675c-34.579 47.55125-50.818 105.16675-64.467 161.58575-16.951 70.42-26.519 143.988-37.002 215.697-17.095 116.361-34.429 238.538-102.08 337.882-15.572 22.594-33.413 43.812-54.498 61.481-11.269 9.395-23.38 17.652-35.66 25.628-61.618 39.503-130.723 66.968-202.39 81.621-71.676 14.744-145.88 17.395-218.327 6.798-21.7411-3.13-43.4359-7.551-64.30281-14.582-6.96593-2.34-13.8615-4.966-20.57259-8.06l1.63581-3.53c6.53798 3.039 13.29845 5.636 20.16039 7.964 20.6444 7.013 42.033 11.428 63.604 14.6 72.0442 10.74 145.8422 8.305 217.1952-6.169 71.374-14.385 140.244-41.544 201.685-80.688 12.208-7.881 24.306-16.078 35.492-25.353 22.311-18.644 41.184-41.274 57.295-65.43 65.358-98.226 82.501-217.998 99.68-332.321 10.669-71.688 20.458-145.237 37.613-215.652 13.81-56.395 30.216-114.0103 64.939-161.47175z"/><path d="m813.45-4.78683c-41.525 43.88933-62.175 102.44433-78.049 159.64083-22.989 83.231-34.752 179.136-47.551 264.895-17.113 117.432-39.779 240.535-114.572 336.386-12.547 16.335-26.831 31.659-43.63 43.757-116.362 86.133-265.732 122.621-409.194 110.744-29.896-2.585-59.7354-7.109-88.6729-15.216-14.4851-4.165-28.77525-8.88-42.5147-15.151 0-.006 1.51667-3.255 1.51667-3.255 13.47231 6.193 27.69703 10.932 41.94323 15.055 28.6762 8.119 58.3445 12.691 88.0107 15.324 142.778 12.182 291.562-23.791 407.617-109.248 16.677-11.955 30.803-27.028 43.327-43.243 74.84-95.449 97.674-218.189 115.062-335.318 12.942-85.768 24.999-181.511 48.227-264.85 16.024-57.1843 36.829-115.7273 78.48-159.52083z"/><path d="m848.711-4.78675c-55.886 42.99175-75.5 88.59835-97.035 153.19675-15.916 43.363-26.1 88.604-34.076 134.025-13.314 75.249-22.678 152.871-35.973 228.058-14.289 79.319-35.004 159.144-76.967 228.732-13.885 23.133-29.771 45.23-48.81 64.431-10.903 10.974-22.969 20.721-35.582 29.613-116.444 79.82-262.629 111.006-402.259 96.813-28.7538-3.087-57.4593-7.886-85.2349-16.095-14.831-4.476-29.47366-9.502-43.4728-16.216l1.4447-2.956c13.74857 6.63 28.3265 11.68 42.9331 16.114 29.3921 8.724 59.8854 13.75 90.3769 16.742 122.076 11.59 248.584-11.62 355.903-71.803 41.112-22.498 77.141-49.974 104.157-88.73 82.396-114.088 96.858-258.512 117.956-393.666 11.878-75.39 22.6-153.379 49.215-225.2 21.673-64.5142 41.4-110.1687 97.424-153.05875z"/><path d="m893.899-4.78684c-43.967 25.75314-77.636 51.80554-102.318 97.24454-38.403 69.9233-56.796 148.7273-70.995 226.6443-26.232 139.926-31.629 287.582-96.778 416.85-14.498 28.35-31.931 55.414-52.918 79.402-10.439 12.081-21.748 23.473-34.486 33.131-103.409 75.321-233.861 108.427-360.819 105.37-47.762-1.526-95.7256-7.342-141.5669-21.23-15.2612-4.805-30.34026-10.172-44.6751-17.364l1.36062-2.663c14.10011 7.109 29.11808 12.494 44.16948 17.257 45.5482 13.9 93.2899 19.775 140.7839 21.385 102.999 2.752 207.531-18.453 298.967-66.633 29.535-15.994 59.281-32.999 82.846-57.28 37.471-38.468 64.77-85.828 84.588-135.492 58.279-149.053 56.831-312.631 98.064-466.148 12.356-45.995 27.895-91.68 51.213-133.3669 7.904-13.804 16.664-27.2012 27.189-39.1563 21.224-23.8384 47.994-41.9207 75.375-57.95064z"/><path d="m947.404-2.09421c-45.002 19.83541-88.61 45.74421-120.903 83.47641-42.89 50.4948-64.88 114.8478-81.873 177.9448-12.296 47.844-20.961 96.538-28.949 145.265-20.894 129.096-34.01 264.614-101.481 379.588-16.923 28.26-37.048 55.006-61.717 76.984-17.033 15.042-35.924 27.835-55.656 39.036-109.515 62.415-239.838 84.099-364.51 70.678-32.7763-3.65-65.4674-9.556-96.9332-19.584-15.7286-5.146-31.28158-10.854-45.989-18.525l1.26243-2.381c14.4891 7.593 29.98947 13.313 45.52217 18.423 31.2602 10.022 63.8131 15.964 96.4086 19.644 124.2 13.588 254.119-7.809 363.349-69.816 5.378-3.01 10.657-6.187 15.875-9.466 100.528-61.559 144.483-180.213 169.494-290.047 28.494-128.487 35.602-261.72 76.763-387.332 36.248-108.763 82.657-167.4858 189.337-213.88821z"/><path d="m926.3 35.5124c-54.187 30.929-98.232 63.8385-127.934 120.0656-98.37 190.804-69.08 419.517-159.3 613.224-28.29 61.559-72.11 117.744-131.867 151.234-36.724 21.355-76.138 37.983-116.852 50.04-4.107 1.167-8.061 2.471-12.064 3.901-42.551 15.079-206.152 74.943-251.102 91.273-50.0801 18-129.78664 47.46-179.6651 64.45-4.0749 1.32-8.0974 2.81-12.295 3.83l-.4536-2.35c4.0551-1.03 8.0101-2.42 11.9925-3.74 49.56921-16.89 129.3383-46.04 179.7072-64.15 46.213-16.6 208.187-75.826 251.254-90.916 3.99-1.418 8.093-2.765 12.149-3.907 40.613-11.961 79.936-28.482 116.58-49.724 59.581-33.28 103.255-89.16 131.539-150.45 90.435-193.498 61.505-422.235 160.155-612.834 29.793-56.1979 73.915-89.0834 128.156-119.9466z"/><path d="m908.624 74.9678c-42.052 25.4962-78.928 60.8352-101.833 104.6882-15.809 28.817-28.177 59.416-38.385 90.627-46.067 141.031-49.687 291.657-91.823 433.657-23.707 77.942-59.058 156.685-122.479 210.316-38.148 31.671-85.078 50.597-132.131 64.754-1.506.389-7.303 2.172-8.887 2.573-3.982 1.376-10.781 4.009-14.371 5.361-94.172 36.226-250.777 97.086-344.7886 133.436-23.876 9.16-65.1722 25.27-89.1724 34.25-.0002 0-1.4556.53-1.4556.53l-.734.26-.8066.27-.5376-2.03c.7169-.22 2.0782-.73 2.8123-1 24.1539-8.99 64.5639-24.69 89.1873-34.11 94.0502-36.2 250.7622-96.91 344.9712-132.976 2.539-.832 12.186-4.757 14.502-5.38 1.605-.4 7.126-2.088 8.872-2.561 46.909-14.043 93.693-32.831 131.745-64.329 63.306-53.403 98.638-131.901 122.405-209.627 42.304-141.9 46.133-292.541 92.392-433.49 10.256-31.216 22.666-61.81 38.516-90.621 22.971-43.829 59.907-79.15 102.001-104.5982z"/><path d="m893.959 115.512c-24.915 19.884-49.55 41.149-68.039 67.345-18.256 26.394-30.678 56.234-42.022 86.103-14.217 37.433-24.838 76.129-33.718 115.14-30.635 134.344-38.091 274.874-90.1 403.712-17.226 42.626-39.312 83.877-69.391 118.869-15.693 18.219-33.763 34.537-54.161 47.347-14.799 9.401-30.136 17.963-45.871 25.688-38.797 15.324-113.194 43.614-152.717 58.884-97.659 37.46-251.0709 96.24-347.5695 133.37l-5.5983 2.17-5.5484 2.18-.7309-1.64c3.0928-1.27 8.0514-3.11 11.2367-4.37 95.9733-36.83 250.1744-95.64 347.7294-132.97 39.969-15.34 113.691-43.36 152.691-58.653 15.708-7.695 31.019-16.222 45.795-25.58 20.334-12.739 38.32-28.943 53.984-47.085 31.36-36.397 54.025-79.587 71.599-124.098 50.148-127.3 57.951-265.529 88.311-397.903 8.922-39.016 19.59-77.711 33.855-115.138 11.387-29.864 23.845-59.704 42.148-86.086 18.519-26.184 43.166-47.413 68.117-67.285z"/><path d="m880.358 161.382c-5.702 5.326-11.344 10.699-16.939 16.138-11.111 10.95-20.996 23.09-29.846 35.931-39.144 58.543-59.877 127.132-76.434 194.972-42.543 172.983-49.059 446.703-205.633 557.782-1.903 1.34-3.79 2.729-5.743 3.997-1.418.742-2.88 1.382-4.333 2.034-111.644 47.704-265.103 109.164-378.502 156.064-46.476 19.09-121.6677 49.73-167.60888 69.1-.00023 0-2.67743 1.16-2.67743 1.16-.87132.39-1.81493.79-2.58339 1.19l-.7424-1.3c1.49501-.75 3.86153-1.75 5.41585-2.42 45.76755-19.29 120.91025-49.72 167.70225-68.94 114.015-47.13 266.509-107.92 378.632-155.667 1.523-.701 3.088-1.341 4.544-2.166 1.801-1.251 3.603-2.496 5.381-3.77 156.353-110.678 163.192-384.303 205.885-557.127 16.628-67.842 37.433-136.426 76.643-194.939 8.868-12.834 18.765-24.969 29.894-35.913 5.589-5.433 11.243-10.806 16.945-16.126z"/><path d="m42.2886 970.531c-6.9564-2.196-13.8463-4.583-20.6519-7.192-10.3392-3.961-21.327123-8.473-31.61204-14.133"/></g><path d="m42.2886 970.531c-6.9564-2.196-13.8463-4.583-20.6519-7.192-10.3392-3.961-21.327123-8.473-31.61204-14.133" stroke="#fff" stroke-miterlimit="10" stroke-opacity=".2" stroke-width="5.33333"/><path d="m869.564 204.051c-20.105 22.582-38.067 47.336-52.147 74.136-48.472 97.324-65.848 205.952-85.199 311.92-21.188 115.82-45.349 244.508-116.201 341.214-10.297 13.935-21.625 27.129-34.04 39.228-.068.215-295.298 116.921-295.42 117.061-80.085 31.89-206.7521 81.94-285.726066 114.11l-4.576944 1.91-2.27702.97c-.75309.33-1.51766.66-2.19804 1l-.59387-1.04c2.49133-1.23 6.59053-2.82 9.191029-3.94 78.539011-31.99 205.700911-82.08 285.802911-113.96-.076.01 295.878-117.063 295.201-116.727 12.394-12.057 23.705-25.197 33.991-39.091 26.399-35.668 46.085-75.883 61.433-117.415 26.645-72.144 41.317-147.919 55.001-223.395 19.464-105.958 36.96-214.6 85.535-311.881 14.115-26.794 32.089-51.524 52.224-74.1z" fill="#fff" fill-opacity=".2"/><path d="m858.997 251.429c-9.532 12.906-18.639 26.16-26.866 39.946-19.554 35.069-34.148 72.694-46.199 110.938-42.136 134.211-50.687 276.622-95.168 410.205-8.808 26.68-19.195 52.876-31.904 77.959-14.534 28.655-31.959 56.078-53.254 80.209-97.166 38.424-348.751 138.054-442.769 175.494-37.143 14.77-101.3339 40.36-138.1305 55.41-.0005 0-4.5774 1.9-4.5774 1.9-1.5041.65-3.0811 1.28-4.49 1.98l-.4455-.78c2.5865-1.26 6.4978-2.79 9.1714-3.93 36.7025-15.09 100.542-40.3 138.165-55.36 92.88-36.96 346.467-137.21 442.837-175.312 20.589-23.575 38.677-51.416 52.996-79.862 12.721-25.047 23.12-51.213 31.94-77.864 44.584-133.529 53.26-275.925 95.503-410.088 12.087-38.241 26.711-75.854 46.301-110.917 8.233-13.78 17.346-27.028 26.89-39.928z" fill="#fff" fill-opacity=".2"/><path d="m848.849 300.817c-99.141 167.999-94.133 371.53-158.707 551.862-15.037 41.699-34.657 81.981-60.716 117.948-.029.113-295.163 116.793-295.231 116.863-80.014 31.83-206.698 81.84-285.6127 113.96l-4.5739 1.91c-.7589.33-1.5295.64-2.2789.97l-2.2305 1.01-.2969-.52c2.4269-1.15 6.6088-2.85 9.1533-3.92 78.4786-31.94 205.6236-82 285.6716-113.83-.025 0 295.477-116.82 295.142-116.635 26.059-35.925 45.685-76.176 60.727-117.846 64.652-180.284 59.746-383.839 158.953-551.772z" fill="#fff" fill-opacity=".2"/><path d="m836.714 360.539c-10.393 24.594-20.864 49.196-29.995 74.297-9.035 25.135-16.754 50.735-23.605 76.551-29.99 112.93-43.429 229.926-79.791 341.22-9.448 28.494-20.601 56.569-34.417 83.231-6.151 11.872-12.769 23.522-19.997 34.759-96.558 38.453-346.023 137.923-439.423 175.363-36.973 14.82-100.495 40.3-137.0934 55.36l-4.5445 1.91c-1.5031.64-3.0409 1.26-4.4889 1.98l-.149-.26c2.4293-1.17 6.5101-2.83 9.0681-3.9 36.4737-15.09 99.7387-40.28 137.1097-55.33 92.274-36.99 343.758-137.15 439.467-175.255 7.025-11.081 13.852-22.875 19.931-34.686 13.816-26.651 24.982-54.726 34.424-83.208 36.386-111.281 49.854-228.266 79.874-341.193 6.857-25.814 14.582-51.413 23.623-76.547 9.137-25.099 19.608-49.699 30.007-74.292z" fill="#fff" fill-opacity=".2"/><path d="m0 671h1600v300h-1600z" fill="url(#a)"/></g></g></svg>