<svg viewBox="0 0 1600 1081" fill="none" xmlns="http://www.w3.org/2000/svg">
<path d="M1595.1 827.586C1532.06 847.532 1462.88 854.119 1394.89 852.748C1330.97 851.323 1267.41 843.564 1205.52 831.594C1143.67 819.172 1084.86 799.92 1025.23 782.725C983.477 770.945 940.824 760.823 897.255 753.617C888.979 752.228 877.454 750.596 869.16 749.357C863.459 748.64 852.848 747.273 847.182 746.561C739.992 734.21 630.66 735.997 522.958 743.885C446.794 749.569 371.349 760.199 296.845 773.302C197.28 790.475 99.6599 813.735 -0.568542 828.815C64.8595 818.287 132.566 803.95 197.25 790.466C316.266 766.021 437.477 745.371 560.779 738.514C663.671 732.348 768.052 732.467 869.887 746.358C914.963 752.608 959.376 761.872 1002.55 773.422C1078.5 793.997 1152.01 820.53 1231.04 833.991C1350.11 854.442 1479.43 862.573 1595.1 827.586Z" fill="white" fill-opacity="0.2"/>
<path d="M1595.11 794.567C1460.98 844.294 1283.01 831.054 1145.32 794.855C1113.11 786.596 1081.88 775.705 1050.14 766.508C990.691 749.176 929.286 735.091 866.303 727.358C778.105 716.325 688.089 715.883 599.054 720.461C565.228 722.235 531.015 724.699 497.427 728.172C327.911 744.442 165.957 787.246 -0.311951 815.031C49.5881 806.578 98.9314 796.399 148.137 785.91C250.355 763.907 354.062 742.801 458.97 729.804C505.189 724.058 552.054 720.032 598.782 717.537C688.094 712.844 778.475 713.193 866.966 724.35C930.219 732.162 991.882 746.322 1051.49 763.884C1083.16 773.143 1114.32 784.074 1146.45 792.413C1283.48 828.917 1460.74 842.905 1595.11 794.567Z" fill="white" fill-opacity="0.2"/>
<path d="M1596.04 766.247C1560.59 781.186 1521.64 791.236 1481.81 797.009C1395.48 809.44 1306.01 804.043 1220.78 789.338C1179.12 781.951 1138.29 771.838 1098.98 759.063C1036.32 738.824 971.576 721.797 904.769 711.366C703.004 681.767 494.315 704.372 297.031 741.93C197.568 760.549 100.116 785.052 -0.0517578 801.57C132.96 777.766 262.063 742.863 396.118 722.036C462.905 711.234 530.804 703.041 598.863 698.821C781.554 686.74 931.92 700.13 1100.4 756.581C1194.22 787.131 1296.65 803.37 1398.92 802.225C1467 801.238 1535.82 790.922 1596.04 766.247Z" fill="white" fill-opacity="0.2"/>
<path d="M1595.12 739.448C1535.54 764.809 1467.44 778.465 1399.09 779.761C1332.84 780.703 1266.35 774.776 1202.1 762.553C1187.65 759.837 1173.11 756.731 1158.86 753.4C1146.91 750.556 1134.04 747.358 1122.38 744.106C1050.62 723.863 979.395 701.059 903.86 690.141C853.793 682.595 802.517 679.241 751.512 678.352C691.978 677.529 631.968 680.21 572.829 685.364C513.61 690.442 454.549 698.604 396.397 708.367C262.841 730.291 133.485 764.49 0.232971 787.303C100.01 769.52 197.272 744.854 296.241 724.797C444.453 694.22 597.42 673.146 751.588 675.291C794.253 675.972 837.235 678.498 879.372 683.709C921.656 688.801 963.177 697.135 1003.62 707.69C1056.24 720.983 1107.02 738.276 1159.87 750.976C1237.05 769.396 1318.02 778.996 1399.05 778.253C1467.2 777.447 1535.29 764.159 1595.12 739.448Z" fill="white" fill-opacity="0.2"/>
<path d="M0.528687 772.723C163.739 742.858 322.131 698.551 487.449 675.07C625.98 655.402 769.946 646.718 909.25 667.089C965.634 675.34 1019.84 690.354 1073.23 705.93C1090.57 711.008 1111.94 717.329 1129.35 722.098C1167.92 732.308 1207.69 740.417 1247.98 745.73C1307.89 753.626 1369.86 755.723 1430.11 751.927L1435.51 751.113C1436.41 750.985 1437.31 750.826 1438.21 750.724L1440.93 750.423C1480.7 746.159 1520.05 738.514 1556.63 725.827C1569.92 721.227 1582.81 715.949 1595.12 709.973C1582.91 716.06 1570.09 721.461 1556.85 726.19C1523.71 738.019 1488.11 745.619 1452.04 750.321C1447.63 750.945 1442.94 751.423 1438.5 751.967C1437.03 752.17 1432.05 752.971 1430.42 753.228C1331.36 760.182 1230.48 750.839 1136.34 726.668C1133.06 725.832 1128.64 724.748 1125.48 723.85C1119.2 722.085 1110.09 719.63 1103.98 717.825C1043.62 700.347 982.99 682.064 919.661 671.77C875.014 664.568 829.363 660.706 783.765 659.22C726.695 657.455 669.331 659.405 612.542 663.856C590.987 665.515 565.882 667.965 544.483 670.407C359.056 691.114 182.598 740.903 0.528687 772.723Z" fill="white" fill-opacity="0.2"/>
<path d="M0.802002 759.31C222.655 716.984 438.659 651.036 668.803 638.375C756.427 633.434 845.628 635.305 931.527 650.182C994.369 661.095 1054.08 679.976 1114.09 697.281C1121 699.245 1131.3 702.09 1138.25 703.779C1141.68 704.646 1146.98 706.04 1150.43 706.796C1154.44 707.699 1164.88 710.194 1168.85 710.981C1182.84 713.936 1198.19 716.935 1212.41 719.143C1222.08 720.775 1234.14 722.399 1243.91 723.677C1248.54 724.208 1258.34 725.305 1262.94 725.823C1305.22 729.985 1348.42 731.392 1390.98 729.318C1399.83 729.003 1410.96 728.176 1419.76 727.57L1421.36 727.46L1422.95 727.3L1429.31 726.659C1431.42 726.433 1433.55 726.256 1435.67 725.995C1443.7 724.938 1452.87 723.673 1460.84 722.279C1485.84 718.086 1510.59 712.242 1534.02 704.425L1536.96 703.448C1537.93 703.125 1538.92 702.806 1539.88 702.448L1545.67 700.356L1548.57 699.312L1551.42 698.197C1566.67 692.322 1581.33 685.549 1595.12 677.861C1581.46 685.678 1566.89 692.588 1551.71 698.613C1519.41 711.375 1484.27 719.966 1448.59 725.451C1445.28 726.009 1439.38 726.778 1435.93 727.278C1431.72 727.778 1425.87 728.38 1421.59 728.844C1418.8 729.065 1407.06 729.941 1403.96 730.18C1398.18 730.623 1390.55 730.892 1384.7 731.233C1326.94 733.741 1268.37 730.477 1211.76 721.465C1196.34 719.134 1179.99 715.923 1164.83 712.777C1160.72 711.844 1150.43 709.508 1146.31 708.575C1141.91 707.495 1135.46 705.836 1131.03 704.731C1088.63 693.45 1047.08 680.037 1004.49 669.288C982.245 663.581 959.693 658.419 936.87 654.207C926.665 652.354 915.831 650.686 905.543 649.138C812.987 636.141 717.697 636.752 624.367 644.542C410.607 662.006 208.795 721.744 0.802002 759.31Z" fill="white" fill-opacity="0.2"/>
<path d="M1595.26 647.161C1524.81 690.783 1432.09 708.323 1342.34 709.827L1335.88 709.96C1334.11 709.999 1331.25 709.968 1329.42 709.96L1316.5 709.898C1315.42 709.907 1314.35 709.867 1313.27 709.831C1311.47 709.783 1305.52 709.597 1303.58 709.544C1299.5 709.429 1294.61 709.283 1290.68 709.022C1285.59 708.743 1276.11 708.27 1271.36 707.823C1266.56 707.416 1260.03 706.969 1255.3 706.483C1249.2 705.815 1238.91 704.846 1232.92 704.005C1228.15 703.359 1221.71 702.616 1217.01 701.9C1211.01 700.953 1200.76 699.48 1194.88 698.37C1188.99 697.299 1181.83 696.118 1176.05 694.888C1171.31 693.915 1161.79 692.052 1157.36 690.982C1153.47 690.093 1147.3 688.69 1143.44 687.81C1134.51 685.558 1123.19 682.736 1114.45 680.197C1050.27 661.914 986.756 641.397 919.297 631.023C910.828 629.599 899.449 628.13 890.879 626.984C883.864 626.223 875.647 625.175 868.614 624.534L855.851 623.348C854.79 623.255 853.728 623.144 852.66 623.06C846.783 622.64 839.34 622.07 833.463 621.658C827.662 621.371 816.817 620.68 811.004 620.49C806.634 620.34 799.373 620.052 794.951 619.897C789.924 619.778 783.314 619.663 778.873 619.561C771.765 619.411 763.471 619.468 756.362 619.406C751.957 619.446 741.44 619.575 737.065 619.614C732.208 619.725 725.791 619.911 720.988 620.026C576.966 624.498 436.262 651.536 298.52 681.989C216.047 700.245 134.049 719.798 51.0049 736.573C34.3943 739.921 17.7494 743.173 1.06451 746.3C241.444 699.126 476.051 623.49 727.281 616.819C735.815 616.531 747.716 616.443 756.344 616.341C763.494 616.394 771.823 616.345 778.956 616.482C782.088 616.562 792.458 616.739 795.103 616.805C799.696 616.978 806.623 617.226 811.239 617.407C812.899 617.46 816.054 617.602 817.691 617.703C822.647 617.986 832.349 618.469 837.023 618.827C841.739 619.168 848.431 619.676 853.106 620.017C857.4 620.406 868.051 621.41 872.351 621.809C879.424 622.631 887.671 623.481 894.715 624.414C897.414 624.768 908.282 626.268 910.622 626.573C912.458 626.856 918.165 627.772 920.119 628.077C987.764 638.481 1051.49 659.237 1115.68 677.689C1124.39 680.228 1135.64 683.072 1144.5 685.32C1150.12 686.62 1157.32 688.283 1162.94 689.588C1167.65 690.544 1178.35 692.827 1183.11 693.725C1187.42 694.512 1194.38 695.777 1198.73 696.574C1204.44 697.556 1215.01 699.201 1220.76 700.059C1226.37 700.78 1234.1 701.882 1239.76 702.559L1252.49 703.939L1255.68 704.284C1256.74 704.399 1257.8 704.523 1258.86 704.603C1264.45 705.045 1272.38 705.788 1278.04 706.182L1290.87 706.947L1294.07 707.137C1295.14 707.204 1296.21 707.274 1297.28 707.301C1302.78 707.465 1310.97 707.827 1316.56 707.942L1329.42 708.066L1332.64 708.097C1333.71 708.106 1334.79 708.124 1335.86 708.097L1342.29 707.996L1348.72 707.889L1351.94 707.841C1438.32 705.655 1526.87 688.527 1595.26 647.161Z" fill="white" fill-opacity="0.2"/>
<path d="M1595.11 614.027C1532.24 658.132 1447.45 680.847 1362.8 686.377C1356.59 686.695 1346.29 687.39 1340.16 687.527C1335.28 687.642 1328.76 687.916 1323.95 687.961C1321.98 687.969 1310 688 1307.74 688.009C1301.56 687.921 1294.51 687.726 1288.29 687.598C1279.04 687.204 1265.25 686.479 1255.96 685.687C1250.06 685.306 1242.56 684.479 1236.63 683.904C1234.63 683.696 1232.14 683.479 1230.21 683.223C1211.26 680.984 1191.63 678.056 1173.02 674.424C1163.36 672.57 1151.43 669.978 1141.82 667.727C1136.16 666.395 1129.02 664.51 1123.34 663.095C1084.92 652.447 1046.88 640.698 1008.01 631.089C896.563 601.937 781.12 594.824 664.158 604.202C436.173 623.644 222.314 690.898 1.31757 733.502C34.6226 726.69 67.7611 719.422 100.8 711.91C282.24 670.589 461.838 620.229 650.849 602.322C710.905 596.877 771.794 595.673 832.091 599.619C839.798 600.194 850.367 600.955 857.887 601.716C944.114 608.98 1026.21 631.554 1106.38 655.495C1154.5 669.54 1204.94 679.286 1256.27 683.475C1265.32 684.28 1279.29 685.067 1288.43 685.483C1294.32 685.629 1301.82 685.886 1307.78 685.992L1320.69 686.014L1323.91 686.019C1329.09 685.992 1335 685.762 1340.05 685.665C1347.07 685.527 1352.98 685.076 1359.38 684.793L1362.6 684.629C1363.67 684.563 1364.74 684.47 1365.81 684.391C1449.17 679.073 1532.54 656.849 1595.11 614.027Z" fill="white" fill-opacity="0.2"/>
<path d="M1595.12 580.173C1541.01 622.945 1467.44 650.359 1390.63 660.733C1354.29 665.537 1317.09 667.381 1280.22 666.404C1274.09 666.121 1266.75 665.895 1260.68 665.546C1257.52 665.324 1247.11 664.63 1244.44 664.444C1239.86 664.05 1232.88 663.356 1228.25 662.936C1220.83 662.161 1209.85 660.865 1202.5 659.773C1196.77 658.932 1188.99 657.848 1183.32 656.8C1157.96 652.518 1132.65 646.833 1108.39 639.826C1076.55 630.651 1043.39 620.181 1011.31 611.581C982.82 603.892 953.898 596.925 924.307 592.103C899.132 587.87 873.166 584.835 847.481 582.986L841.024 582.504L839.411 582.38L837.792 582.292C829.123 581.796 817.339 581.155 808.658 580.92C794.511 580.367 779.05 580.31 764.873 580.332C721.181 580.739 677.185 583.667 633.998 588.697C434.305 612.147 245.381 668.934 51.7194 710.344C35.0354 713.936 18.3176 717.436 1.56018 720.824C18.2629 717.285 34.9224 713.636 51.5457 709.893C309.132 653.889 589.079 557.793 860.855 580.964C884.516 583.057 908.359 586.207 931.55 590.21C959.059 595.107 986.087 601.557 1012.63 608.834C1042.59 616.978 1073.95 626.719 1103.6 635.566C1137.81 645.701 1173.29 653.372 1209.47 658.304C1209.47 658.308 1222.26 659.888 1222.26 659.888L1225.47 660.286C1231.41 660.905 1238.81 661.613 1244.76 662.17C1297.35 666.47 1351.09 665.086 1403 657.304C1475.04 646.205 1543.52 619.973 1595.12 580.173Z" fill="white" fill-opacity="0.2"/>
<path d="M1598.23 542.629C1553.95 583.659 1493.04 614.014 1426.5 630.417C1376.4 642.657 1323.17 646.909 1270.67 645.772C1223.5 644.445 1176.64 638.154 1131.7 627.298C1128.55 626.484 1117.81 623.737 1114.56 622.892C1111.85 622.114 1106.56 620.61 1103.79 619.818C1059.04 606.613 1014.32 593.116 968.221 582.791C941.187 576.612 913.309 571.737 885.454 568.189C827.34 561 767.999 559.563 709.327 563.088C674.575 565.163 639.881 569.304 605.685 574.391C417.771 602.265 235.676 657.017 52.2562 697.463C35.4687 701.196 18.6475 704.841 1.78674 708.38C18.5909 704.691 35.3523 700.9 52.0774 697.016C236.197 654.907 415.709 599.951 604.935 571.515C639.212 566.34 674.123 562.19 708.999 560.076C767.999 556.475 827.686 557.886 886.117 565.185C914.13 568.773 942.19 573.701 969.359 579.929C1015.57 590.299 1060.29 603.95 1105.09 617.265C1107.8 618.044 1113.09 619.57 1115.78 620.344C1119.01 621.185 1129.63 623.936 1132.79 624.755C1177.41 635.624 1223.91 642.078 1270.77 643.547C1322.99 644.852 1375.94 640.906 1425.88 628.979C1492.44 613.076 1553.4 583.114 1598.23 542.629Z" fill="white" fill-opacity="0.2"/>
<path d="M1594.72 509.924C1589.62 515.317 1584.16 520.519 1578.39 525.527C1575.74 527.902 1572.46 530.822 1569.68 532.989C1566.83 535.312 1563.51 538.077 1560.63 540.227C1560.63 540.227 1551.23 547.203 1551.23 547.203C1547.26 549.985 1543 552.781 1538.98 555.541C1537.69 556.355 1532.85 559.394 1531.36 560.301C1525.86 563.831 1518.84 567.693 1513.11 570.967C1508.53 573.311 1504.07 575.709 1499.51 578.027L1488.34 583.331C1487.4 583.765 1486.48 584.233 1485.53 584.636C1483.91 585.313 1478.66 587.609 1476.92 588.343C1473.83 589.737 1468.61 591.82 1465.3 593.072C1461.38 594.581 1457.51 596.169 1453.48 597.509C1413.83 611.877 1370.34 620.406 1326.66 623.821C1274.17 628.13 1220.45 625.462 1169.04 616.434C1143.35 612.05 1117.88 605.786 1093.41 598.504C1036.59 581.354 978.955 564.048 919.251 553.648C885.085 547.769 850.291 544.102 815.315 542.483C762.814 540.16 710.031 542.438 658.134 548.804C606.29 555.462 554.853 564.636 504.147 575.138C336.242 610.417 169.637 660.02 1.99799 695.998C136.732 665.546 268.425 628.267 402.185 595.523C472.253 578.443 543.189 563.181 615.316 551.825C680.997 541.279 748.45 536.329 815.556 539.395C850.76 541.045 885.771 544.765 920.154 550.702C971.676 559.708 1021.31 573.745 1070.31 588.524C1084.9 592.842 1104.77 599.199 1119.4 602.862C1133.47 606.622 1148.91 610.024 1163.43 612.771C1166.62 613.328 1173.02 614.496 1176.21 615.058C1179.86 615.69 1185.37 616.456 1189.08 617.04C1193.42 617.787 1203.98 619.013 1208.49 619.588C1210.43 619.858 1213.03 620.096 1214.99 620.287C1251.74 624.113 1289.46 624.684 1326.39 621.813C1361.12 619.243 1395.89 613.461 1428.52 604.043L1440.72 600.345C1441.23 600.19 1441.74 600.039 1442.24 599.876L1443.74 599.367L1446.73 598.345L1452.72 596.301C1458.71 594.342 1464.58 591.882 1470.42 589.723C1475.06 587.861 1480.21 585.587 1484.78 583.694C1490.37 581.217 1494.07 579.332 1498.8 577.2C1503.36 574.917 1507.88 572.55 1512.43 570.25C1516.44 568.043 1521.68 565.061 1525.64 562.863C1528.71 560.934 1535.2 557.072 1538.42 555.037C1542.42 552.308 1546.73 549.547 1550.72 546.796L1560.19 539.899C1564.4 536.851 1565.63 535.617 1569.34 532.755L1571.61 530.954C1572.37 530.353 1573.14 529.76 1573.84 529.123C1580.98 522.983 1588.38 516.564 1594.72 509.924Z" fill="white" fill-opacity="0.2"/>
<path d="M1595.18 471.785C1585.56 482.993 1575.43 494.109 1564.02 504.346L1559.77 508.217C1557.58 510.3 1553.31 513.622 1550.88 515.701C1549.38 516.909 1547.85 518.28 1546.35 519.382C1512.4 545.867 1471.36 567.392 1426.6 582.115C1372.04 600.23 1311.67 607.33 1252.29 606.073C1247.45 605.892 1240.45 605.618 1235.61 605.432C1232.76 605.242 1226.92 604.852 1223.97 604.653C1221.96 604.507 1219.26 604.37 1217.32 604.167C1216.05 604.069 1203.28 602.809 1202.4 602.747C1198.06 602.225 1191.93 601.451 1187.57 600.92C1185.55 600.698 1179.86 599.796 1177.73 599.482C1173.86 598.911 1168.42 598.097 1164.67 597.372C1162.4 596.978 1157.09 595.996 1154.92 595.616C1152.89 595.266 1141.08 592.793 1138.8 592.316C1135.09 591.59 1129.77 590.188 1126.04 589.352C1122.33 588.555 1117.06 587.127 1113.37 586.153C1084.23 578.363 1055.5 568.609 1026.59 560.438C984.234 548.176 941.052 537.209 896.551 530.494C892.328 529.893 886.129 529.004 881.888 528.397C861.957 525.854 841.182 523.841 820.999 522.828C763.653 519.701 705.72 522.806 649.348 531.255C601.627 538.51 554.257 547.831 507.603 558.311C371.731 589.387 239.095 628.086 103.907 660.763C70.1422 669.04 36.2392 677.003 2.1781 684.563C36.1127 676.693 69.8941 668.456 103.567 659.985C276.43 617.349 444.85 563.354 622.484 532.503C689.649 520.744 759.142 515.741 827.95 520.121C846.05 521.209 864.726 523.102 882.586 525.389C888.258 526.23 894.985 527.123 900.622 528.013C961.669 537.568 1019.96 554.856 1077.45 572.661C1091.11 576.952 1106.86 581.668 1120.82 585.242C1131.72 587.98 1144.61 590.9 1155.79 593.054C1157.97 593.466 1163.24 594.404 1165.46 594.815C1172.24 596.102 1179.68 597.106 1186.54 598.199C1191.53 598.832 1197.89 599.646 1202.89 600.269C1206.29 600.575 1217.6 601.782 1220.98 602.003C1225.34 602.3 1231.48 602.751 1235.84 603.047C1238.62 603.171 1241.69 603.286 1244.12 603.392L1250.74 603.671L1252.4 603.742C1257.46 603.808 1263.91 603.901 1268.98 603.963C1318.09 603.751 1367.59 597.881 1413.49 584.481L1425.77 580.664C1426.79 580.341 1427.82 580.035 1428.83 579.699C1433.18 578.142 1439.49 576.027 1443.88 574.413C1449.2 572.267 1456.23 569.755 1461.49 567.392L1467.25 564.911L1470.14 563.668C1492.85 553.458 1514.44 541.239 1533.84 527.685C1557.34 511.207 1577.68 492.039 1595.18 471.785Z" fill="white" fill-opacity="0.2"/>
<path d="M1595.21 431.786C1580.09 452.467 1562.84 472.619 1542.15 490.429C1515.48 513.357 1484.08 533.232 1449.12 548.654C1358.66 589.511 1246.08 596.199 1145.27 575.868C1138.05 574.315 1129.73 572.617 1122.6 570.803C1116.46 569.374 1109.51 567.529 1103.42 565.84C1101.5 565.309 1098.93 564.645 1097.08 564.075C1036.93 545.663 977.084 525.889 913.849 514.215C837.903 499.984 757.94 498.316 680.804 507.942C676.006 508.473 672.117 509.092 667.583 509.698C661.776 510.455 653.629 511.764 647.846 512.693C640.233 513.883 629.2 515.954 621.645 517.241C575.929 525.672 530.724 535.727 486.001 546.804C324.37 587.755 165.69 635.385 2.34808 672.583C36.5644 664.378 70.6397 655.84 104.59 647.028C206.465 620.605 307.195 591.82 408.523 564.238C510.054 537.577 612.876 509.928 720.331 501.001C737.54 499.657 756.914 498.94 774.275 498.807C891.214 497.878 980.615 524.005 1085.96 557.7C1089.58 558.793 1100.94 562.296 1104.7 563.238C1117.1 566.733 1130.21 569.909 1142.97 572.577C1283.18 602.025 1430.69 578.137 1532.3 497.401C1557.17 477.919 1577.59 455.273 1595.21 431.786Z" fill="white" fill-opacity="0.2"/>
<path d="M1595.28 388.669C1575.84 418.712 1554.01 448.271 1524.49 473.424C1481.59 510.176 1425.98 538.895 1364.25 554.365C1272.72 577.403 1171.15 570.387 1082.88 542.536C1026.39 524.593 969.858 506.067 910.37 494.556C826.935 478.087 738.338 478.127 654.38 492.539C576.862 506 501.333 525.567 426.706 546.19C303.05 580.96 179.82 616.779 54.4796 648.015C37.1927 652.323 19.8546 656.512 2.49597 660.653C106.314 635.031 208.622 606.109 310.705 576.833C424.449 544.226 537.923 509.699 656.855 489.053C705.908 480.945 756.415 477.468 806.588 479.361C841.798 480.794 877.248 484.904 911.379 491.61C957.757 500.67 1002.55 513.844 1046.62 527.84C1067.09 534.33 1087.28 541.218 1108.1 546.853C1109.94 547.327 1120.65 550.021 1122.6 550.521C1127.99 551.781 1133.49 552.967 1138.89 554.188C1211.95 569.481 1291.03 570.299 1363.41 552.445C1424.9 537.32 1480.42 509.035 1523.52 472.782C1553.25 447.857 1575.38 418.488 1595.28 388.669Z" fill="white" fill-opacity="0.2"/>
<path d="M1595.16 342.127C1573.19 380.52 1547.79 418.311 1513.26 451.232C1459.67 501.776 1379.99 536.52 1295.19 546.411C1230.76 554.122 1164.29 547.72 1103.03 531.339C1070.4 522.62 1038.9 510.862 1006.79 501.232C960.901 487.098 913.854 474.557 865.037 467.685C786.645 456.735 705.421 461.53 628.995 478.131C611.146 481.767 593.455 485.82 575.811 489.978C487.6 511.101 401.998 537.763 315.812 563.106C212.282 593.435 108.266 622.941 2.61755 648.842C72.7627 630.966 142.272 611.705 211.366 591.648C332.649 557.236 451.292 517.392 574.676 487.288C592.354 483.086 610.079 478.985 627.962 475.304C716.219 455.965 810.541 452.64 899.795 470.352C959.341 481.989 1015.98 500.515 1072.13 519.103C1081.31 522.085 1094.84 526.243 1104.28 528.672C1164.96 545.022 1230.82 551.507 1294.72 544.097C1378.99 534.533 1458.26 500.347 1512.06 450.506C1546.89 417.852 1572.6 380.262 1595.16 342.127Z" fill="white" fill-opacity="0.2"/>
<path d="M1597.14 286.735C1572.62 336.916 1543.08 386.426 1500.07 429.265C1448.55 480.697 1371.33 517.887 1286.51 528.053C1215.84 536.816 1142.82 527.606 1077 507.173C1059.44 501.696 1042.32 495.645 1024.91 489.969C975.166 473.62 924.395 458.443 871.365 449.365C790.558 435.736 705.708 440.875 626.912 459.2C613.844 462.089 599.232 465.56 586.31 468.802C569.272 473.036 549.583 478.259 532.727 482.913C506.098 490.332 479.639 498.109 453.298 506.098C304.515 552.348 155.387 598.509 2.71149 637.07C20.591 632.355 38.4487 627.599 56.2442 622.711C145.287 598.416 233.279 571.989 320.855 544.854C395.279 521.753 469.104 497.348 544.842 476.698C566.526 470.733 590.165 464.734 612.196 459.522C695.72 438.812 785.9 431.687 872.251 446.348C925.521 455.498 976.556 470.78 1026.49 487.235C1061.04 498.75 1095.3 511.083 1131.97 518.263C1183.02 528.831 1237.17 531.928 1289.47 525.177C1372.34 514.839 1447.65 478.419 1498.57 428.401C1541.99 385.901 1571.87 336.618 1597.14 286.735Z" fill="white" fill-opacity="0.2"/>
<path d="M1596.83 228.984C1570.95 290.703 1539.31 352.256 1488.75 405.085C1465.05 429.428 1438.09 452.415 1405.27 469.995C1303.69 523.85 1182.73 524.235 1070.8 488.88C1064.31 486.903 1057.16 484.47 1050.74 482.276C1004.57 466.271 957.951 450.759 909.438 439.271C898.733 436.752 887.173 434.286 876.316 432.186C871.682 431.363 865.113 430.198 860.456 429.395C857.042 428.882 849.693 427.804 846.244 427.287C765.717 416.359 687.854 423.268 610.859 443.288C593.386 447.698 573.336 453.009 556.09 457.932C371.446 513.308 191.41 577.638 2.77374 625.418C21.0223 620.463 39.2452 615.456 57.4039 610.32C184.66 574.612 309.52 534.361 433.691 492.981C478.109 478.383 522.963 464.177 568.442 451.509C585.826 446.724 605.879 441.42 623.522 437.187C627.194 436.234 633.581 434.804 637.458 433.939L644.45 432.365L651.512 430.96C724.413 416.146 802.224 415.022 875.542 428.872C887.114 431.012 899.255 433.669 910.658 436.335C957.012 447.345 1001.67 462.009 1045.77 477.277C1063.24 483.426 1081.17 489.181 1099.38 493.906C1212.77 524.102 1333.14 514.679 1426.4 454.775C1453.74 436.811 1476.92 415.418 1497.48 392.945C1542.53 342.997 1571.93 286.089 1596.83 228.984Z" fill="white" fill-opacity="0.2"/>
<path d="M1594.98 167.769C1567 243.295 1534.08 319.816 1473.52 384.428C1442.01 418.2 1402.58 448.498 1354.62 468.904C1284.58 499.303 1198.51 501.679 1121.84 485.576C1092.91 479.671 1064.93 471.398 1037.85 461.803C992.903 445.982 947.229 430.992 899.86 419.897C819.785 400.238 732.502 397.784 650.943 413.774C650.943 413.774 643.787 415.258 643.787 415.258L640.203 415.999L638.42 416.373L636.649 416.795C608.436 423.471 580.17 431.524 552.73 439.812C442.261 473.761 335.723 514.468 225.174 548.539C151.801 571.684 77.6974 593.656 2.80518 613.846C114.695 582.641 224.887 547.973 333.624 510.995C396.977 489.328 459.729 466.4 523.794 445.9C556.328 435.489 589.603 425.713 623.053 417.046C626.015 416.338 632.455 414.78 635.546 414.04C637.435 413.562 640.778 412.89 642.743 412.475C649.482 410.977 657.694 409.486 664.521 408.288C742.555 395.041 825.064 398.347 901.08 416.942C948.719 428.136 994.439 443.178 1039.53 459.081C1066.42 468.633 1094.19 476.835 1122.86 482.754C1198.63 498.821 1283.65 496.622 1353.06 466.803C1400.72 446.709 1440.01 416.726 1471.54 383.365C1532.46 319.122 1566.01 242.945 1594.98 167.769Z" fill="white" fill-opacity="0.2"/>
<path d="M1595.48 96.299C1557.78 199.787 1522.18 309.243 1428.44 393.108C1381.9 434.131 1319.4 468.139 1247.14 475.822C1175.05 484.045 1102.69 468.076 1037.39 445.951C1018.68 439.553 1000.21 432.953 981.366 426.819C963.951 421.111 945.815 415.524 928.008 410.531C898.094 402.224 867.436 395.001 836.126 390.375C831.721 389.727 825.48 389.052 821.04 388.473C816.582 387.984 810.342 387.491 805.86 387.054C682.135 377.465 562.597 413.081 453.587 453.601C380.176 481.174 306.465 508.486 231.044 532.874C155.849 557.589 79.7445 580.858 2.80133 602.295C98.5989 574.749 193.136 544.672 286.302 512.406C364.72 485.916 439.865 454.33 518.371 427.985C608.348 397.884 706.993 376.41 806.271 384.044C809.978 384.368 816.101 384.948 819.703 385.266C823.222 385.623 829.586 386.466 833.07 386.875C862.168 390.84 890.68 397.302 918.559 404.658C930.336 407.832 943 411.45 954.572 415.006C973.553 420.799 992.498 427.076 1011.09 433.505C1083.99 459.883 1164.59 482.324 1246.61 473.092C1318.05 465.587 1379.94 432.084 1426.2 391.656C1520.13 308.29 1556.47 199.278 1595.48 96.299Z" fill="white" fill-opacity="0.2"/>
<path d="M1594.51 34.8052C1542.17 157.404 1513.61 294.932 1390.98 391.293C1282.08 474.928 1161.52 472.04 1026.89 426.998C960.391 404.222 893.39 379.991 820.665 371.198C638.631 349.598 476.188 430.358 319.511 487.677C215.659 525.619 109.463 560.129 1.64648 591.125C99.2686 562.217 195.603 530.658 290.1 496.334C385.154 462.87 475.007 420.823 573.6 393.214C660.615 367.788 756.515 355.833 848.455 372.202C865.072 375.095 881.659 378.71 897.813 382.831C932.706 391.654 966.497 402.82 999.9 414.384C1037.75 427.801 1076.5 440.157 1117.18 447.697C1165.09 456.736 1216.19 458.617 1264.01 448.349C1306.71 439.065 1345.03 420.487 1377.4 397.786C1507.31 305.749 1540.49 157.616 1594.51 34.8052Z" fill="white" fill-opacity="0.2"/>
<path d="M1578.34 14.0758C1519.81 137.09 1494.52 282.179 1366.73 377.955C1329.31 405.449 1282.94 427.396 1231.17 435.004C1135.86 449.196 1044.71 419.037 960.121 389.413C943.651 383.953 926.471 378.514 909.62 373.719C895.337 369.636 879.999 365.676 865.318 362.465C858.485 360.929 849.71 359.193 842.742 357.954C838.496 357.135 831.868 356.136 827.545 355.428C758.679 345.244 686.769 349.996 619.909 365.477C613.973 366.755 607.234 368.562 601.379 369.995C551.383 383.865 501.345 398.436 454.375 417.421C372.302 451.661 289.41 485.125 204.028 514.516C161.521 529.322 118.375 543.633 75.1524 557.231C51.1094 564.827 26.916 572.152 2.67706 579.381C94.4373 551.308 184.998 520.917 273.615 487.576C296.599 478.949 320.525 469.729 343.139 460.642C379.923 445.851 416.244 430.403 452.846 415.298C489.563 400.211 528.26 388.125 567.181 376.744C649.975 351.004 739.593 339.307 828.325 352.451C830.959 352.864 837.334 353.898 839.857 354.297C842.226 354.733 848.842 355.931 851.312 356.384C853.851 356.898 860.233 358.196 862.685 358.692C865.078 359.222 871.506 360.656 873.982 361.205C896.27 366.408 918.67 372.784 940.185 379.586C956.983 384.918 973.758 390.574 990.304 396.306C1064.67 422.464 1147.62 444.341 1230.46 432.241C1281.58 424.824 1327.34 403.175 1364.42 376.162C1491.85 281.418 1518.49 136.006 1578.34 14.0758Z" fill="white" fill-opacity="0.2"/>
<path d="M1552.42 14.6777C1498.03 124.726 1472.71 251.178 1369.6 343.017C1326.42 380.942 1267.43 411.46 1200.43 417.472C1112.38 426.005 1028.12 398.651 949.845 371.6C936.096 367.047 921.509 362.39 907.514 358.295C881.507 350.648 854.784 343.909 827.521 339.348C745.535 325.321 658.445 333.031 580.845 356.652C571.569 359.434 561.821 362.613 552.662 365.605C515.94 377.718 477.776 391.421 441.487 404.328C423.161 411.049 405.397 418.619 387.822 426.405C335.492 450.465 281.293 472.233 226.287 492.579C171.302 512.985 115.508 532.14 59.1331 550.255C40.3383 556.285 21.4606 562.164 2.55334 567.985C21.3818 562.022 40.178 555.997 58.8877 549.826C170.987 512.702 281.776 472.682 386.317 424.48C403.914 416.614 421.703 408.963 440.081 402.156C447.54 399.429 460.106 394.945 467.755 392.211C503.189 379.573 539.81 366.439 575.899 355.16C586.421 351.942 597.508 348.718 608.337 346.094C684.628 326.989 767.372 323.563 845.223 339.437C876.721 345.775 907.467 354.515 937.41 364.189C946.513 367.125 956.49 370.434 965.494 373.491C1047.09 402.027 1139.26 428.195 1229.78 410.349C1288.89 398.309 1339.23 368.317 1376.95 332.605C1396.09 314.661 1412.43 295.056 1426.77 274.729C1483.96 192.652 1508.9 100.878 1552.42 14.6777Z" fill="white" fill-opacity="0.2"/>
<path d="M1525.92 14.1998C1475.52 112.211 1452.18 220.442 1371.08 307.969C1343.3 337.17 1307.5 362.631 1265.06 379.287C1256.14 382.769 1246.86 385.915 1237.43 388.527C1233.59 389.68 1227.14 391.207 1223.11 392.193C1223.11 392.194 1215.81 393.696 1215.81 393.696C1213.88 394.134 1210.52 394.727 1208.46 395.05C1206 395.448 1203.54 395.892 1201.07 396.253L1193.6 397.2L1191.73 397.437C1191.26 397.505 1190.34 397.604 1189.86 397.645C1184.98 398.145 1179.73 398.58 1174.84 398.883C1092.33 403.911 1013.65 379.5 939.967 354.407C898.892 340.883 856.678 328.632 812.764 321.546C739.64 309.702 662.363 314.564 592.181 333.785C586.427 335.265 580.338 337.18 574.749 338.848C574.75 338.848 573.014 339.37 573.014 339.37L571.301 339.932L564.456 342.193C555.317 345.199 546.293 348.486 537.283 351.722C501.245 364.798 465.889 378.937 430.096 392.515C412.177 399.253 394.238 405.88 377.367 413.916C356.082 423.846 334.646 433.622 312.831 442.889C212.769 485.802 108.417 522.961 2.34369 556.59C11.5128 553.564 20.7109 550.591 29.8523 547.521C112.226 520.139 193.47 490.597 272.314 457.834C289.486 450.705 307.563 442.986 324.521 435.517C350.614 424.296 375.405 411.364 401.897 400.671C446.179 383.737 491.097 365.71 535.72 349.278C548.033 344.79 560.689 340.26 573.335 336.272C634.842 317.025 702.482 308.646 768.879 313.431C839.258 318.151 905.267 339.105 969.042 360.776C1044.36 385.833 1128.74 406.505 1211.3 391.772C1216.84 390.695 1217.35 390.528 1222.08 389.587L1229.17 387.864C1230.35 387.57 1231.54 387.305 1232.7 386.988L1236.19 386.002L1239.68 385.016L1241.43 384.523C1242.01 384.364 1242.59 384.194 1243.16 384.003C1247.71 382.514 1252.33 381.122 1256.76 379.431L1260.13 378.212L1261.8 377.604C1262.35 377.391 1262.9 377.164 1263.45 376.945C1287.66 367.493 1310.07 355.024 1329.65 340.729C1358.39 319.844 1381.45 294.835 1400.42 268.426C1456.91 188.206 1481.97 98.3076 1525.92 14.1998Z" fill="white" fill-opacity="0.2"/>
<path d="M1496.36 14.2573C1462.76 83.5811 1439.63 155.74 1400.31 223.481C1372.88 270.695 1334.85 316.343 1278.23 346.52C1275.6 347.879 1271.5 349.973 1269.06 351.205C1265.89 352.669 1262.78 354.186 1259.63 355.594C1255.53 357.371 1250.76 359.411 1246.66 360.939C1244.52 361.757 1242.14 362.713 1240.05 363.422C1238.22 364.026 1233.19 365.791 1231.63 366.304L1229.92 366.824L1226.49 367.865C1221.67 369.408 1216.67 370.617 1211.73 371.939C1208.91 372.58 1204.84 373.483 1201.98 374.13C1143.33 386.148 1080.96 379.308 1023.94 365.52C991.278 357.708 959.546 347.479 928.213 337.066C903.561 329.062 878.486 321.747 852.854 315.761C827.363 309.734 801.004 305.113 774.551 302.297C707.093 295.406 637.013 300.267 573.511 319.202C568.141 320.711 561.921 322.838 556.686 324.537C526.926 335.214 497.784 347.001 468.716 358.704C410.525 382.219 353.589 407.538 297.153 433.368C287.668 437.551 274.893 443.232 265.393 447.268C227.464 463.593 187.8 479.365 148.676 494.003C100.57 512.061 51.4384 529.07 2.16479 545.203C82.5387 518.086 161.884 489.106 238.717 456.669C257.295 448.83 277.587 439.942 295.838 431.707C380.273 392.573 466.094 354.867 555.153 322C621.264 299.214 695.855 292.088 767.782 298.604C823.949 303.592 878.111 317.396 929.814 334.266C1022.93 365.85 1132.34 396.272 1231.92 363.312C1231.92 363.312 1238.56 361.048 1238.56 361.048C1239.11 360.856 1239.67 360.68 1240.21 360.474L1241.84 359.854C1247.46 357.783 1252.59 355.664 1257.91 353.382C1264.27 350.56 1270.3 347.592 1276.33 344.479C1349.15 305.851 1389.89 243.144 1420.3 181.809C1447.99 126.575 1468.69 69.5005 1496.36 14.2573Z" fill="white" fill-opacity="0.2"/>
<path d="M1467.39 14.3061C1427.75 95.4721 1403.71 182.053 1344.58 257.057C1309.2 301.174 1259.47 337.433 1193.26 353.25C1128.2 368.885 1057.95 359.853 994.727 343.525C958.285 334.342 923.456 322.14 887.929 311.227C821.82 291.146 750.943 276.556 679.132 279.715C657.835 280.67 636.42 283.453 615.815 287.611C592.267 292.3 569.202 298.993 547.249 306.919C498.696 325.071 452.872 348.259 406.123 368.885C372.954 383.364 338.738 396.448 306.516 412.084L294.376 417.904L288.305 420.813C277.139 426.066 262.771 432.665 251.463 437.751C216.764 453.249 180.324 468.364 144.459 482.276C97.7156 500.493 49.8832 517.595 1.89496 533.839C80.1469 506.549 157.371 477.437 231.744 444.544C256.062 433.786 281.429 421.978 305.051 410.381C345.376 390.631 388.527 374.886 429.083 355.598C461.491 340.619 494.657 324.861 527.985 311.242C553.313 300.874 580.177 292.331 607.838 286.204C629.745 281.458 652.533 278.144 675.273 276.897C748.854 273.013 821.75 287.726 889.443 308.388C924.882 319.298 959.681 331.521 996.006 340.698C1058.52 356.864 1127.83 366.062 1192.2 350.721C1298.17 325.443 1354.27 252.005 1392 178.116C1419.89 124.266 1440.46 68.4212 1467.39 14.3061Z" fill="white" fill-opacity="0.2"/>
<path d="M1437.77 14.3458C1418.79 54.2565 1403.02 94.9722 1384.57 135.02C1366.15 175.05 1345.64 215.023 1314.7 250.633C1300.53 266.944 1284.02 282.188 1264.88 295.339C1245.75 308.456 1223.84 319.547 1200.22 327.517C1196.64 328.798 1192.48 329.967 1188.81 331.138C1184.19 332.409 1178.41 334.011 1173.73 335.019C1167.04 336.616 1160.05 337.906 1153.15 338.953C1150.87 339.335 1148.41 339.686 1146.19 339.931C1054.06 350.931 964.32 323.064 881.155 296.405C820.776 277.932 756.767 264.276 691.326 263.042C686.863 262.874 681.748 262.94 677.343 262.949C668.076 262.936 658.703 263.356 649.477 264.033C626.437 265.829 603.368 269.7 581.425 275.296C563.887 279.702 546.458 285.404 530.048 291.814C499.101 304.261 469.963 319.072 440.613 333.527C397.603 354.926 354.945 376.902 309.812 395.735C256.314 417.594 205.676 443.378 152.314 465.476C119.422 479.033 86.048 491.906 52.3595 504.297C35.5087 510.477 18.5677 516.516 1.57062 522.457C52.2751 504.191 102.471 485.076 151.564 464.453C204.657 441.99 255.058 416.042 308.462 393.907C316.425 390.526 324.885 386.859 332.728 383.283C392.992 356.012 449.462 324.304 509.84 297.113C529.989 288.093 551.461 280.285 573.521 274.287C604.465 265.798 637.318 260.737 670.246 260.007C743.405 258.437 815.415 272.862 882.674 293.583C965.206 320.036 1054.18 347.973 1145.6 337.288C1146.75 337.146 1147.9 337.037 1149.04 336.867L1152.45 336.339L1155.87 335.813C1161.53 334.897 1167.19 333.807 1172.72 332.509L1176.06 331.743L1177.73 331.361C1178.28 331.226 1178.82 331.071 1179.37 330.928L1185.95 329.173C1186.49 329.023 1187.04 328.887 1187.58 328.727L1189.19 328.233L1192.43 327.245C1280.36 300.356 1329.5 237.915 1363.31 174.276C1391.42 121.868 1411.7 67.3152 1437.77 14.3458Z" fill="white" fill-opacity="0.2"/>
<path d="M1406.23 17.1285C1388.23 56.1677 1372.76 95.8527 1354.25 134.764C1335.82 173.657 1314.55 212.391 1282.1 245.967C1241.26 288.876 1180.28 318.585 1109.71 323.009C1026.55 328.292 946.454 304.738 871.055 281.144C864.743 279.166 852.027 275.411 845.622 273.624C785.959 257.114 722.659 246.573 658.92 246.909C622.642 246.931 586.354 252.248 552.637 262.334C533.64 267.961 515.307 275.008 497.963 283.108C434.6 313.816 376.396 350.371 312.121 380.082C209.821 425.469 108.23 472.2 1.18811 511.066C103.586 472.904 200.8 427.532 298.938 383.605C367.716 352.794 428.855 313.431 496.012 280.75C513.52 272.522 532.029 265.356 551.225 259.631C585.332 249.333 622.126 243.945 658.885 243.896C723.17 243.511 786.921 254.057 847.024 270.766C853.411 272.553 866.298 276.366 872.597 278.344C948.507 302.101 1029.12 326.043 1112.79 320.115C1181.3 315.096 1239.85 286.333 1279.94 244.768C1312.5 211.497 1333.97 172.975 1352.8 134.37C1371.06 97.0913 1388.27 54.4778 1406.23 17.1285Z" fill="white" fill-opacity="0.2"/>
<path d="M1376.76 14.3945C1339.6 94.0299 1310.6 195.35 1229.7 256.083L1227.3 257.866C1226.66 258.348 1220.82 262.339 1219.85 263.037C1217.65 264.484 1214.16 266.643 1212.11 267.957C1209.38 269.509 1206.77 271.097 1204.08 272.606L1198.56 275.539C1197.22 276.322 1194.44 277.622 1192.94 278.357C1175.04 287.147 1155.28 293.862 1134.81 298.44C1132.83 298.861 1127.14 299.997 1125.03 300.418C1121.9 300.944 1118.29 301.55 1115.13 302.064C1113.28 302.323 1107.13 303.099 1105.14 303.363L1098.44 304.005C1069.41 306.59 1039.84 305.071 1011.13 301.254C949.164 293.057 891.097 274.207 832.267 258.171C807.139 251.518 781.22 245.75 755.248 241.366C707.093 233.169 657.078 229.165 607.785 232.487C604.729 232.748 600.927 233.111 597.874 233.381C594.32 233.788 592.635 234.014 589.656 234.363C587.03 234.655 585.522 234.943 583.115 235.283L579.849 235.765L578.217 236.009L576.596 236.296L570.117 237.446L568.497 237.734L566.893 238.066L563.683 238.729C559.607 239.521 554.865 240.671 550.926 241.6C547.39 242.445 543.419 243.573 539.924 244.493C535.964 245.674 529.969 247.409 526.057 248.767C520.249 250.647 513.634 253.053 508.061 255.296C504.123 256.787 500.132 258.578 496.419 260.171C493.187 261.582 489.665 263.316 486.497 264.785L485.117 265.484L479.595 268.293L478.216 268.996L476.87 269.735C468.859 274.083 460.681 278.879 452.889 283.444C382.752 325.377 313.813 368.657 233.781 399.762C225.972 403.038 218.143 406.303 210.406 409.65C187.183 419.769 165.326 431.509 142.27 441.881C96.143 462.557 48.7924 481.639 0.743164 499.639C48.4643 481.192 95.6075 461.846 141.47 440.879C164.37 430.382 186.135 418.444 209.305 408.222C217.05 404.822 224.842 401.526 232.631 398.211C248.208 391.59 263.798 384.999 279.05 378.006C340.266 350.024 394.398 314.487 450.677 281.307C457.596 277.251 464.915 272.885 472.013 268.983C473.177 268.359 475.036 267.297 476.096 266.722C477.921 265.771 482.635 263.387 484.474 262.436C487.661 260.954 491.285 259.158 494.513 257.742C498.077 256.172 502.719 254.155 506.296 252.774C508.223 252.031 510.402 251.093 512.288 250.43C514.833 249.545 519.025 247.913 521.427 247.143C523.704 246.373 526.896 245.338 529.152 244.582C531.213 243.945 536.482 242.388 538.561 241.755C541.48 240.968 545.18 239.972 548.1 239.189C551.183 238.477 556.317 237.172 559.384 236.544C562.459 235.933 566.1 235.097 569.166 234.562C571.809 234.12 576.552 233.191 579.038 232.85C582.145 232.403 585.891 231.784 588.988 231.421C591.646 231.129 596.505 230.461 599.003 230.267C601.509 230.032 604.911 229.727 607.386 229.506C608.19 229.47 614.783 229.033 615.803 228.979C644.679 227.533 674.457 228.466 703.169 231.249C743.177 235.12 782.633 242.423 820.888 252.014C901.525 272.96 981.26 302.118 1068.13 302.585C1080.21 302.676 1092.66 302.011 1104.63 300.767L1111.19 299.931L1114.47 299.511L1117.72 298.989C1119.89 298.631 1122.07 298.299 1124.23 297.927L1130.66 296.662C1131.74 296.441 1132.82 296.259 1133.88 296.007C1154.07 291.566 1173.59 285.014 1191.28 276.406L1194.09 275.066C1195.04 274.623 1195.92 274.114 1196.84 273.645L1202.3 270.775C1204.09 269.779 1205.84 268.744 1207.61 267.735L1210.25 266.209C1211.12 265.687 1211.96 265.139 1212.81 264.603L1217.92 261.379L1222.84 257.994L1225.3 256.3L1227.69 254.544C1308.67 194.302 1338.42 93.5079 1376.76 14.3945Z" fill="white" fill-opacity="0.2"/>
<path d="M1344.25 17.1017C1310.46 91.8755 1283.8 181.283 1207.95 238.623C1206.74 239.534 1204.51 241.122 1203.19 242.038C1201.67 243.082 1199.88 244.427 1198.34 245.374C1190.19 250.731 1181.32 255.928 1172.19 260.33C1168.03 262.458 1162.5 264.825 1158.11 266.727C1156.48 267.346 1151.12 269.487 1149.37 270.164C1145.73 271.42 1140.99 273.168 1137.38 274.238C1127.41 277.414 1116.7 280.117 1106.21 282.073C1099.9 283.324 1093.35 284.298 1086.89 285.059C1084.82 285.311 1082.39 285.629 1080.38 285.78C1056.53 288.058 1032.12 287.438 1008.31 285.16C945.387 279.002 886.099 260.684 826.231 245.962C772.639 232.823 717.709 221.8 661.483 217.712L648.521 216.951L646.902 216.854C642.509 216.695 636.672 216.504 632.291 216.35C628.062 216.314 621.921 216.257 617.674 216.221C613.533 216.274 607.175 216.425 603.064 216.491C595.229 216.841 586.616 217.217 578.815 217.916C565.563 219.198 552.023 221.211 539.208 224.078L533.002 225.476L526.866 227.042L523.801 227.834C516.909 229.771 509.503 231.992 502.867 234.389C493.103 237.774 483.573 241.799 474.493 246.139C467.25 249.682 460.149 253.411 453.463 257.539C419.842 278.361 388.012 300.732 354.678 321.88C328.07 338.861 300.472 355.077 271.121 369.295C241.881 383.607 211.572 396.587 181.504 409.847C151.3 422.928 122.106 437.263 91.9276 450.368C61.8153 463.568 31.1739 476.065 0.231079 488.115C30.9632 475.778 61.4184 463.036 91.3774 449.66C121.402 436.353 150.439 421.818 180.482 408.54C210.397 395.129 240.587 382.028 269.649 367.596C298.797 353.272 326.174 337.076 352.606 320.037C385.774 298.772 417.564 276.291 451.16 255.384C464.732 247.046 479.714 239.897 495.312 233.925C500.87 231.824 507.476 229.576 513.269 227.754C516.125 226.887 519.563 225.927 522.471 225.069C524.181 224.609 529.952 223.14 531.806 222.653C539.961 220.733 548.884 218.906 557.247 217.606C563.91 216.5 571.533 215.642 578.333 214.943C586.303 214.226 594.86 213.841 602.893 213.483C607.797 213.421 614.443 213.187 619.287 213.213C622.953 213.24 628.748 213.284 632.408 213.319C637.476 213.518 643.758 213.642 648.784 213.912C709.849 216.951 769.507 228.847 827.474 243.091C887.331 257.817 946.067 276.127 1008.78 282.435C1032.29 284.74 1056.38 285.39 1079.95 283.214L1081.56 283.081C1082.1 283.037 1082.63 282.957 1083.16 282.9L1086.36 282.524C1092.71 281.794 1099.18 280.86 1105.41 279.653C1115.75 277.764 1126.34 275.123 1136.17 272.04L1139.16 271.119L1142.11 270.098L1148 268.063L1153.77 265.824C1158.3 264.117 1160.96 262.794 1165.09 261.056C1166.93 260.206 1168.74 259.313 1170.57 258.441L1173.3 257.127C1176.47 255.508 1180.85 253.212 1183.87 251.46C1188.57 248.793 1193.25 245.873 1197.71 242.976L1198.9 242.149L1201.29 240.485L1203.67 238.826C1204.46 238.273 1205.27 237.729 1206.02 237.137L1210.57 233.646C1283.05 176.775 1310.02 89.9158 1344.25 17.1017Z" fill="white" fill-opacity="0.2"/>
<path d="M1313.88 14.3987C1276.89 98.25 1244.98 205.675 1132.88 250.169L1127.17 252.398L1121.33 254.429C1119.42 255.123 1117.33 255.809 1115.44 256.371L1109.48 258.189C1107.86 258.684 1105.13 259.374 1103.43 259.83C1102.06 260.18 1100.11 260.715 1098.88 261.033C1094.24 262.046 1089.67 263.201 1084.96 264.011C1082.88 264.395 1080.8 264.794 1078.71 265.165L1072.4 266.103C1070.33 266.43 1068.09 266.74 1066.07 266.943C1034.33 270.743 1001.78 269.085 970.209 265.147C911.274 257.671 855.101 241.397 798.136 228.488C720.753 211.183 639.939 196.748 558.765 202.791C553.046 203.273 547.245 203.884 541.538 204.627C506.274 209.471 472.432 220.508 443.972 236.986L439.039 239.977C438.221 240.476 437.39 240.967 436.582 241.481L434.205 243.055C432.626 244.108 431.028 245.143 429.461 246.218C384.092 277.702 342.056 312.124 293.645 341.112C256.81 362.984 216.849 381.785 175.723 398.687C160.784 404.835 145.87 411.001 131.68 418.053C103.169 432.104 73.9948 445.375 44.382 458.056C29.5725 464.389 14.643 470.559 -0.348877 476.64C14.5442 470.422 29.3711 464.117 44.0732 457.65C73.5072 444.767 102.51 431.313 130.826 417.077C144.989 409.899 159.889 403.606 174.751 397.358C213.789 381.1 251.589 362.998 286.861 342.399C337.087 312.636 380.174 276.839 426.987 244.192C433.081 239.985 440.131 235.548 446.874 231.877C472.004 218.039 501.053 208.329 531.371 203.136C553.341 199.46 575.997 198.336 598.396 198.354C701.521 198.557 799.491 226.06 896.663 248.811C921.051 254.305 945.721 259.202 970.819 262.422C1002.02 266.386 1034.15 268.08 1065.55 264.453C1070.16 263.98 1073.69 263.338 1078.02 262.745C1084.71 261.613 1091.34 260.259 1097.91 258.746C1100.81 257.954 1105.38 256.857 1108.36 255.982L1114.25 254.208C1115.23 253.907 1116.22 253.637 1117.19 253.305L1120.07 252.314L1125.84 250.337L1131.47 248.156L1134.29 247.063C1135.24 246.709 1136.14 246.28 1137.06 245.891L1142.55 243.511C1143.01 243.308 1143.48 243.122 1143.93 242.905L1145.26 242.264L1147.93 240.976L1150.6 239.689C1151.49 239.26 1152.39 238.84 1153.24 238.366L1158.42 235.606C1159.28 235.137 1160.16 234.699 1160.99 234.212L1163.5 232.739L1168.5 229.802C1176.66 224.755 1184.39 219.238 1191.64 213.452C1257.46 159.532 1282.71 82.2362 1313.88 14.3987Z" fill="white" fill-opacity="0.2"/>
<path d="M1281.49 14.3857C1256.43 73.6633 1235.05 136.188 1184.09 186.388C1128.4 240.676 1048.89 258.463 960.872 248.921C861.91 238.344 769.454 207.033 671.009 194.567C621.317 187.689 570.135 184.552 519.921 189.777C517.146 190.17 513.578 190.577 510.821 191.02C510.216 191.148 503.922 192.143 503.295 192.272C497.847 193.311 492.342 194.51 486.997 195.802C485.356 196.284 479.958 197.638 478.287 198.155C476.918 198.584 473.951 199.46 472.566 199.894C470.176 200.557 466.388 201.986 464.108 202.716C462.218 203.326 460.389 204.132 458.581 204.782C455.263 205.963 450.962 207.901 447.75 209.232C444.913 210.603 440.098 212.713 437.356 214.235L434.808 215.54L433.534 216.195L432.299 216.894C425.788 220.459 419.197 224.613 413.351 228.772C361.188 268.952 314.437 313.865 253.876 347.367C213.953 369.944 170.895 389.116 127.304 407.325C101.154 418.266 67.5543 434.224 41.9495 446.023C27.7671 452.538 13.4823 458.93 -1.00439 465.05C40.5005 447.056 84.9341 424.187 126.542 406.307C198.736 375.772 269.385 341.681 325.985 295.6C351.876 275.3 376.362 254 402.039 233.531C406.293 230.099 410.773 226.706 415.45 223.569C416.228 223.038 416.993 222.499 417.783 221.977L420.204 220.464C422.844 218.747 427.231 216.204 430.095 214.611C431.404 213.824 433.836 212.629 435.24 211.891C438.127 210.364 442.737 208.184 445.816 206.764C449.109 205.379 453.51 203.415 456.836 202.207C458.582 201.535 460.727 200.69 462.46 200.093C464.704 199.372 468.903 197.801 471.068 197.195C472.525 196.735 475.434 195.868 476.89 195.408C478.645 194.855 483.858 193.541 485.756 192.993C491.198 191.666 496.808 190.445 502.361 189.383C503.072 189.232 509.118 188.268 510.032 188.1C512.848 187.653 516.458 187.224 519.31 186.826C570.025 181.509 621.592 184.614 671.748 191.52C770.169 204.034 862.626 235.389 961.335 246.241C1048.48 255.827 1126.5 238.765 1182.24 185.295C1233.51 135.502 1255.5 73.2784 1281.49 14.3857Z" fill="white" fill-opacity="0.2"/>
<path d="M1248.36 14.359C1223.78 75.1893 1200.03 142.372 1138.83 188.609C1136.24 190.391 1132.52 193.147 1129.85 194.855C1127.48 196.341 1125.18 197.85 1122.84 199.296C1120.86 200.407 1117.36 202.45 1115.54 203.477C1113.33 204.662 1109.03 206.874 1106.73 208.055L1105.43 208.657C1102.89 209.803 1100.13 211.174 1097.61 212.253C1095.49 213.156 1091.52 214.753 1089.56 215.58C1053.83 229.453 1014.19 234.969 974.204 233.708C949.827 233.049 925.615 230.395 901.742 226.714C886.052 224.445 847 216.721 830.876 213.704C723.903 194.205 608.653 165.11 497.595 175.461C475.763 177.585 454.392 182.619 434.89 190.321L429.628 192.506L428.312 193.05L427.031 193.643L424.47 194.824L421.908 196.005C421.046 196.39 420.243 196.841 419.407 197.257L414.441 199.805C406.503 204.18 398.526 209.188 391.739 214.567C386.365 218.654 380.768 223.972 375.918 228.311C334.841 265.926 295.629 305.644 244.691 336.217C206.842 359.332 165.503 378.811 123.427 397.157C83.0555 414.874 38.634 435.683 -1.74231 453.383C38.2518 435.271 82.5388 414.144 122.64 396.149C164.344 377.525 205.504 357.863 242.99 334.645C268.069 319.247 290.674 301.784 311.678 283.267C337.474 260.781 361.066 236.752 386.965 214.31C393.214 209.311 400.119 204.459 407.351 200.287L412.249 197.5C415.373 195.868 419.301 193.811 422.476 192.386L425.088 191.174L426.394 190.568L427.735 190.007L433.101 187.764C440.161 184.959 447.976 182.327 455.484 180.217C487.123 171.228 521.47 170.135 554.931 170.263C600.604 171.02 645.952 176.713 690.435 184.234C754.274 195.001 838.754 213.147 902.482 224.011C945.669 230.678 990.75 234.513 1034.33 227.803L1040.21 226.816C1041.19 226.648 1042.18 226.502 1043.15 226.312C1047.22 225.498 1053.55 224.233 1057.63 223.171C1067.14 220.902 1076.61 217.978 1085.55 214.655L1088.26 213.669L1090.91 212.585L1096.21 210.422C1097.11 210.077 1097.94 209.648 1098.81 209.267L1101.39 208.091C1105.9 206.082 1107.55 205.14 1111.5 203.145C1112.33 202.711 1113.19 202.313 1113.99 201.853L1116.4 200.491L1121.23 197.761C1122.79 196.81 1124.32 195.828 1125.88 194.864L1128.19 193.413C1128.58 193.165 1128.98 192.935 1129.35 192.678L1130.46 191.909L1134.9 188.83L1137.12 187.286C1198.65 141.293 1222.69 74.9416 1248.36 14.359Z" fill="white" fill-opacity="0.2"/>
<path d="M1214.63 14.3148C1191 76.2156 1163.22 148.879 1090.27 187.958L1085.39 190.528C1082.1 192.059 1078.48 193.873 1075.24 195.231C1073.79 195.832 1069.96 197.46 1068.74 197.969C1065.67 199.141 1062.46 200.336 1059.39 201.455C1057.16 202.203 1053.24 203.468 1051.2 204.153L1048.42 204.959L1042.85 206.564C1040.34 207.254 1036.95 208.051 1034.38 208.705C1010.71 214.27 985.77 216.823 960.995 216.686C906.722 216.535 850.449 204.574 797.561 196.031C742.989 187.162 666.844 172.918 612.577 166.043C561.413 159.58 508.667 156.457 457.344 163.544L454.491 164.026L451.638 164.513C447.035 165.309 447.033 165.442 443.154 166.198C438.478 167.246 433.859 168.436 429.316 169.755L427.945 170.14L426.598 170.569L421.216 172.294C416.775 173.825 412.425 175.483 408.168 177.266C398.903 181.159 389.934 185.959 381.876 191.157L377.56 194.134C376.092 195.103 374.757 196.173 373.385 197.217C370.229 199.513 368.257 201.384 365.478 203.707C362.069 206.874 357.946 210.939 354.749 214.257C320.87 248.961 290.011 285.899 248.39 315.805C174.815 368.226 83.1364 402.293 -2.56512 441.618C10.8312 435.33 24.2885 429.113 37.833 423.006C110.11 390.419 185.371 358.415 246.446 314.272C289.207 283.236 320.186 244.821 355.369 209.055C357.28 207.104 360.57 203.888 362.68 201.933L366.638 198.544C377.953 189.091 391.597 181.013 406.292 174.754C410.63 172.918 415.131 171.197 419.624 169.635C421.066 169.149 425.29 167.813 426.5 167.41C427.135 167.242 429.962 166.424 430.701 166.22C438.953 163.836 447.919 162.022 456.559 160.624C508.364 153.422 561.623 156.497 613.258 162.991C667.366 169.865 744.068 184.269 798.423 193.178C851.042 201.822 906.986 213.806 961.018 214.191C985.465 214.416 1010.11 211.992 1033.51 206.591L1036.3 205.905L1039.09 205.22C1040.02 204.981 1040.97 204.782 1041.88 204.507L1047.37 202.946L1050.13 202.163L1052.82 201.287L1058.22 199.535C1060 198.92 1061.75 198.248 1063.51 197.611L1066.15 196.638C1066.59 196.474 1067.04 196.323 1067.47 196.147L1068.75 195.611L1073.9 193.479C1075.65 192.798 1077.29 191.988 1078.96 191.219L1083.96 188.892C1160.5 150.852 1189.37 77.2154 1214.63 14.3148Z" fill="white" fill-opacity="0.2"/>
<path d="M1180.08 14.2573C1160.71 67.7797 1137.27 126.009 1079.98 163.677C1074 167.384 1067.89 171.029 1061.39 174.148L1056.52 176.532C1054.5 177.439 1050.86 179 1049 179.832C1046.75 180.77 1042.32 182.455 1039.99 183.371L1038.67 183.827C1035.98 184.729 1033.4 185.685 1030.73 186.534C1028.48 187.197 1024.72 188.374 1022.66 188.98C967.165 204.507 910.974 200.933 853.986 193.152C823.697 188.954 793.531 184.583 763.336 180.058C701.157 170.834 639.447 159.443 576.803 152.268C562.19 150.596 545.847 149.176 531.133 148.216C498.887 146.274 465.846 146.318 433.785 149.764C407.486 152.41 382.284 161.031 362.1 173.993L359.924 175.377C359.211 175.846 358.534 176.351 357.838 176.833L355.762 178.301C355.076 178.792 354.358 179.266 353.719 179.792L349.781 182.889C349.106 183.393 348.523 183.959 347.896 184.495L346.041 186.122C345.431 186.667 344.788 187.193 344.203 187.759L342.472 189.458C339.083 192.665 335.669 196.66 332.79 200.106C308.138 229.435 285.697 260.162 256.793 287.394C237.579 305.624 215.001 321.703 190.933 336.224C130.641 372.48 61.2958 398.564 -3.48389 429.744C73.2709 391.67 157.733 360.832 223.786 311.764C269.66 278.352 299.005 235.168 332.83 194.97C333.539 194.125 336.291 191.161 336.927 190.409C337.211 190.108 337.515 189.825 337.807 189.529L339.58 187.777C340.696 186.622 342.032 185.375 343.233 184.34C344.46 183.252 345.82 182.013 347.061 181.009L351.092 177.819C353.045 176.315 355.408 174.714 357.446 173.272C359.131 172.21 361.358 170.755 363.019 169.711C363.018 169.711 364.18 169.043 364.18 169.043L368.828 166.375C378.273 161.292 388.644 156.873 399.439 153.622C408.465 150.874 417.855 148.729 427.469 147.512C430.817 146.946 441.071 146.088 444.724 145.694C475.299 143.208 506.617 143.429 537.222 145.57C549.963 146.407 564.739 147.787 577.403 149.207C669.812 160.496 761.893 178.182 854.62 190.484C911.186 198.31 966.473 202.185 1021.69 187.016L1024.35 186.224L1029.68 184.645C1031.45 184.101 1033.17 183.477 1034.92 182.898L1037.53 182.017L1038.84 181.575L1040.11 181.084L1045.22 179.129C1046.07 178.792 1046.94 178.501 1047.76 178.129L1050.24 177.058L1055.22 174.913L1060.04 172.586C1066.53 169.534 1072.56 165.973 1078.48 162.354C1136.07 124.925 1159.65 67.5939 1180.08 14.2573Z" fill="white" fill-opacity="0.2"/>
<path d="M1144.89 14.1823C1117.4 96.096 1074.56 168.273 951.64 181.292C910.634 185.676 868.949 181.982 828.108 178.279C794.833 174.926 761.277 170.374 728.367 165.477C654.973 154.737 581.999 141.47 507.499 135.993C497.189 135.325 484.302 134.613 473.996 134.449C455.572 134.003 436.511 134.37 418.18 135.825C413.064 136.153 406.65 136.834 401.558 137.391C398.02 137.705 394.056 138.329 390.639 138.825C356.476 144.686 326.055 162.106 309.862 185.632C265.981 249.054 243.823 289.04 166.853 335.876C114.878 367.716 54.5707 392.836 -3.11981 418.293C73.0665 383.496 153.903 350.12 214.084 299.679C254.72 266.17 278.916 224.118 306.684 184.362C316.767 169.751 332.158 157.267 350.519 148.371C352.355 147.557 354.816 146.402 356.629 145.602C356.876 145.491 362.413 143.315 362.937 143.102C364.21 142.642 368.345 141.253 369.425 140.873C371.317 140.333 374.169 139.47 376.074 138.926C378.074 138.426 380.882 137.767 382.863 137.276L384.244 137.002L389.773 135.931C392.042 135.6 396.041 134.971 398.177 134.746C402.507 134.295 407.847 133.675 412.159 133.286C443.76 130.499 476.196 130.778 507.864 132.945C627.282 141.899 742.602 169.706 861.975 178.58C917.819 183.146 973.377 182.42 1023.94 161.646C1095.45 132.317 1124.79 70.1864 1144.89 14.1823Z" fill="white" fill-opacity="0.2"/>
<path d="M1108.85 14.0845C1103.08 31.3812 1096.7 48.6911 1087.72 65.2225C1075.05 88.7477 1057.53 111.317 1032.93 128.902C1005.55 148.499 969.242 159.801 932.331 164.411C930.096 164.667 926.225 165.096 924.178 165.331C919.902 165.698 914.77 166.185 910.517 166.397C866.738 168.75 822.882 164.411 779.472 160.571C699.943 152.692 621.475 140.049 542.371 130.273C485.166 123.345 426.59 118.555 368.991 125.296C361.76 126.013 354.824 127.123 348.023 128.826L345.495 129.499L344.23 129.831C343.807 129.941 343.387 130.056 342.98 130.193L338.049 131.781C320.089 138.023 304.852 148.118 293.764 160.438C293.763 160.438 290.897 163.871 290.897 163.871L290.185 164.729L289.538 165.618L288.245 167.397C285.64 170.953 283.543 174.727 281.389 178.487C247.132 239.737 229.517 278.113 160.677 323.918C111.815 356.48 53.6293 381.774 -2.18042 406.951C53.1664 381.155 110.789 355.55 159.219 322.686C215.222 284.784 237.826 251.77 265.502 200.274C270.998 190.289 277.729 177.576 283.744 167.95C284.693 166.552 286.064 164.751 287.052 163.349L287.783 162.46L290.729 158.908C298.498 150.277 308.276 142.5 319.617 136.506C321.775 135.391 324.341 134.051 326.618 133.086C331.143 131.012 336.604 129.012 341.55 127.486C342.875 127.053 345.374 126.442 346.782 126.048C349.215 125.345 352.258 124.819 354.787 124.248C380.785 120.076 407.548 118.931 434.07 119.05C477.995 119.479 521.443 124.319 564.598 129.985C636.367 139.337 707.755 150.507 779.941 157.886C823.134 161.792 866.732 166.339 910.283 164.176C949.839 162.013 989.7 153.024 1021.24 134.445L1023.4 133.193C1024.11 132.772 1024.78 132.308 1025.47 131.87L1029.59 129.198C1030.28 128.765 1030.93 128.291 1031.59 127.818L1033.55 126.398L1035.52 124.982C1036.17 124.509 1036.84 124.053 1037.45 123.545L1041.19 120.567L1043.05 119.072L1044.83 117.519L1048.38 114.41C1049.55 113.366 1050.63 112.269 1051.76 111.198L1053.45 109.583L1054.28 108.778C1054.56 108.504 1054.82 108.221 1055.09 107.947L1058.27 104.616C1083.64 77.6354 1097.81 45.8157 1108.85 14.0845Z" fill="white" fill-opacity="0.2"/>
<path d="M1071.77 13.9701C1066.75 29.5371 1061 45.051 1052.62 59.8085C1045.97 71.4782 1037.95 82.7808 1028.27 93.1765L1027.51 94.0081C1025.08 96.4057 1022.82 98.8919 1020.22 101.192L1016.85 104.306L1013.28 107.301C1008.55 111.318 1003.35 115.003 997.994 118.546L993.841 121.081C992.445 121.935 991.02 122.806 989.6 123.536L985.254 125.89C984.081 126.518 982.022 127.482 980.755 128.075L978.491 129.15C977.389 129.756 972.855 131.556 971.517 132.136C969.94 132.791 968.35 133.472 966.79 134.012C963.669 135.131 960.203 136.493 957.106 137.422C929.327 146.588 898.892 150.53 868.72 151.22C797.76 151.255 727.211 143.133 657.078 135.887C616.501 131.397 571.801 125.806 531.112 120.829C489.286 115.728 447.183 110.739 404.801 110.044C380.209 109.588 355.352 110.725 331.13 113.994C313.932 115.857 297.654 121.767 284.82 130.623C271.918 139.426 262.364 150.923 256.97 163.385C255.444 167.123 251.984 174.882 250.412 178.633C213.407 267.205 172.572 308.65 70.4007 360.958C46.9445 372.967 22.8046 384.174 -1.32147 395.389C10.6252 389.644 22.5835 383.912 34.4569 378.084C105.125 343.812 176.201 303.651 212.837 244.905C228.423 221.021 239.603 195.519 250.347 170.193C252.46 165.469 254.677 159.373 257.414 154.94C270.196 132.397 297.826 114.556 330.435 111.084C383.077 103.851 437.164 107.164 489.734 112.853C580.415 123.342 671.701 136.029 762.908 143.518C783.759 145.226 805.397 146.818 826.325 147.96C869.999 150.693 915.462 148.964 956.197 135.825C960.18 134.622 964.35 133.034 968.168 131.636L970.491 130.685L975.136 128.792C975.922 128.486 976.65 128.119 977.4 127.774L979.647 126.73L981.893 125.686C984.533 124.479 988.046 122.488 990.568 121.165L992.639 119.927L996.78 117.458C1002.12 113.994 1007.32 110.393 1012.06 106.456L1015.64 103.519L1019.03 100.458C1021.63 98.1973 1023.92 95.7466 1026.36 93.3844L1027.12 92.566L1028.64 90.9292C1050.18 67.9614 1062.71 41.0564 1071.77 13.9701Z" fill="white" fill-opacity="0.2"/>
<path d="M1033.56 13.8371C1029.02 28.3557 1023.37 42.83 1014.9 56.3665C1010.87 62.7544 1006.28 69.2483 1001.15 75.1761L998.322 78.4496L995.313 81.6391C994.305 82.6964 993.325 83.7758 992.234 84.7844C990.82 86.1026 988.756 88.2083 987.383 89.3762C941.24 132.06 867.875 137.387 799.643 135.67C773.935 135.117 747.74 133.941 722.137 132.184C646.978 127.066 571.296 117.608 496.663 109.013C450.812 103.705 404.727 98.166 358.273 98.2678C348.31 98.3386 337.382 98.6306 327.456 99.3118L322.341 99.6922L317.226 100.068C312.326 100.59 306.844 101.099 301.972 101.727L291.871 103.138C285.191 104.041 278.824 105.682 272.792 107.925C254.576 114.733 240.988 127.398 233.816 141.611C231.984 145.172 230.58 148.884 229.491 152.613C219.131 189.44 207.897 226.958 182.952 259.972C148.424 305.64 91.2952 338.135 34.2033 366.723C22.693 372.451 11.0777 378.055 -0.549561 383.642C62.1536 352.389 127.201 319.952 169.89 272.212C196.876 241.954 210.456 206.418 220.636 171.113C221.995 166.844 223.668 160.262 224.963 155.878C225.578 153.555 226.461 150.445 227.244 148.203C233.428 130.291 248.836 113.733 271.083 105.35C277.365 102.979 284.201 101.214 291.091 100.263L301.318 98.8075C304.056 98.3961 308.747 97.9891 311.609 97.6529C317.271 96.9938 323.982 96.5912 329.699 96.1444C340.666 95.5649 352.5 95.1668 363.446 95.2863C421.549 95.5959 480.765 104.368 538.155 110.769C623.188 120.718 708.471 130.813 794.575 133.18C845.499 134.679 899.402 133.693 944.994 114.543C973.647 102.638 995.607 82.9707 1010.67 61.3122C1021.16 46.3822 1028.15 30.1915 1033.56 13.8371Z" fill="white" fill-opacity="0.2"/>
<path d="M994.035 13.6732C991.014 23.5115 987.16 33.3011 981.794 42.5732C973.805 56.5079 962.907 69.6551 949.182 80.7896C944.613 84.5365 939.674 88.0356 934.53 91.2826L933.568 91.9019C933.163 92.1452 931.064 93.3529 930.565 93.6493C929.146 94.4323 927.908 95.2506 926.524 95.9452L922.348 98.104C921.251 98.6923 919.298 99.6257 918.078 100.152C900.81 108.137 881.348 113.202 861.635 116.458C825.339 122.306 787.971 122.045 751.066 121.24C667.12 119.391 583.767 110.751 500.724 101.864C446.029 96.4053 375.95 86.5227 321.13 86.9076C299.491 86.9562 277.735 88.4824 256.563 91.8444C245.299 93.2777 234.54 96.9582 225.976 102.7C211.121 112.587 203.131 127.287 201.308 142C199.233 157.129 196.882 172.232 193.341 187.224C185.578 221.238 170.397 254.017 142.065 281.506C104.082 318.947 51.6972 345.887 0.141235 371.64C51.013 345.351 102.906 318.07 140.282 280.493C167.966 253.19 182.78 220.428 190.184 186.808C192.961 174.479 195.066 161.743 196.777 149.273C196.777 149.273 197.801 141.73 197.801 141.73C199.633 126.367 207.979 110.968 223.498 100.586C231.881 94.9675 242.279 91.0481 253.273 89.376C269.771 86.6731 286.562 84.9301 303.409 84.2887C304.924 84.1693 309.368 84.1162 310.991 84.0675C314.178 83.9967 318.025 83.864 321.103 83.8994C354.742 83.7357 388.419 86.6952 421.598 90.2032C529.934 101.683 641.969 115.9 751.171 118.878C787.848 119.824 825.034 120.298 861.148 114.728C880.686 111.618 899.965 106.739 917.163 99.0108L919.315 98.0553C920.031 97.7368 920.711 97.3652 921.409 97.0246L925.568 94.9277C926.272 94.5915 926.928 94.1978 927.597 93.8218L929.591 92.6893L931.592 91.5524L932.594 90.9862L933.556 90.3802C938.736 87.1995 943.657 83.7756 948.226 80.1128C963.212 68.244 974.843 53.9952 983.236 38.9104C987.817 30.7619 991.178 22.2508 994.035 13.6732Z" fill="white" fill-opacity="0.2"/>
<path d="M952.942 13.4832C927.973 97.5822 811.767 109.654 714.741 107.797C655.97 106.912 597.334 102.838 539.003 97.6972C488.036 93.101 434.583 87.7173 383.715 82.3072C351.453 78.8699 319.171 75.6716 286.616 75.5478C267.18 75.4637 247.69 76.5254 228.592 79.3035C222.315 80.2148 215.863 81.2897 209.792 82.6655C203.803 84.1342 198.211 86.4522 193.419 89.5134C178.678 98.9359 172.842 114.078 172.442 128.261C172.379 133.113 172.579 138.112 172.533 142.996C173.025 225.042 147.953 271.146 63.5881 324.074C43.4938 336.655 22.2424 348.134 0.753235 359.306C21.9785 347.871 42.9906 336.176 62.8886 323.446C145.944 269.969 170.183 224.476 169.088 143C169.105 138.041 168.871 133.197 168.918 128.208C169.165 118.183 171.925 108.053 178.356 99.1747C184.754 90.2256 195.687 83.037 208.601 79.9316C215.009 78.4541 221.333 77.4057 227.852 76.4236C250.415 73.066 273.513 72.1902 296.467 72.6502C339.037 73.588 380.975 79.1 423.038 83.3512C513.28 92.4905 604.289 102.108 695.28 104.979C796.282 108.584 924.389 102.594 952.942 13.4832Z" fill="white" fill-opacity="0.2"/>
<path d="M909.907 13.2577C885.343 86.4345 772.023 95.4368 687.748 95.021C579.619 94.5565 471.702 84.1298 364.599 73.7208C305.443 67.5807 244.588 57.6009 185.479 68.7442C181.726 69.4697 177.829 70.3234 174.143 71.217C144.726 77.7154 138.899 101.236 142.809 121.506C152.773 177.603 151.535 230.006 103.437 276.618C75.2509 304.34 38.5317 326.212 1.28333 346.608C36.704 326.481 71.7916 305.225 99.0915 278.64C148.82 231.028 149.895 179.315 139.351 121.855C135.209 101.095 141.195 76.7953 170.659 69.0715C172.742 68.5141 175.439 67.9036 177.558 67.3905C238.941 53.7345 303.399 64.2143 365.163 70.6729C472.105 81.1261 579.836 91.7518 687.766 92.7958C771.812 93.5434 883.882 85.802 909.907 13.2577Z" fill="white" fill-opacity="0.2"/>
<path d="M865.676 10.5502C838.848 79.9139 721.58 82.9751 642.063 82.7008C530.027 82.2717 418.241 71.8628 307.148 61.7989C258.01 57.5742 208.243 51.8765 158.883 56.8354C149.772 57.7998 140.616 59.2729 131.771 61.1707C107.94 66.2225 105.967 84.4659 109.317 100.312C110.167 104.833 111.785 109.504 113.222 113.954C127.543 156.855 134.452 204.525 107.932 245.581C101.192 256.198 92.5967 266.169 83.0162 275.446C59.9257 297.688 31.2678 316.197 1.73566 333.395C21.1543 321.677 40.1234 309.459 57.4331 295.981C78.9221 279.215 98.0369 260.215 109.745 238.49C131.074 198.96 123.57 154.856 109.88 114.582C103.887 97.4583 97.7249 72.3405 121.728 61.3388C127.305 58.8394 133.624 57.7954 139.828 56.6187C158.119 53.2744 177.023 52.0003 195.808 51.9163C245.776 51.9428 295.212 57.8618 344.708 62.1218C443.339 71.0222 542.713 79.5777 642.092 80.4757C721.457 81.0685 837.457 79.2459 865.676 10.5502Z" fill="white" fill-opacity="0.2"/>
<path d="M816.547 12.6778C788.903 63.2186 687.314 69.2525 624.167 70.7123C551.502 71.6722 478.755 67.9696 406.453 62.9708C334.477 58.1888 261.823 50.2704 189.702 46.9659C158.374 46.0413 126.135 43.2544 95.4995 49.4829C88.6135 50.9118 81.3416 52.6238 76.7789 56.9413C64.5548 68.6597 75.0539 88.9158 81.1322 101.43C93.8396 127.119 104.419 153.904 105.558 181.495C106.104 195.248 104.267 209.156 99.403 222.436C91.104 244.568 74.2279 264.333 54.4156 281.599C38.573 295.441 20.686 307.864 2.10614 319.57C20.3822 307.625 37.9821 295.021 53.5878 281.068C76.8076 260.374 95.7864 235.853 100.95 208.688C106.482 181.641 100.358 154.077 89.7802 128.141C86.2574 119.439 82.2038 110.862 77.9092 102.346C72.6007 91.7337 66.9568 80.3869 67.61 68.6818C68.0502 61.2279 72.4098 54.1853 81.3334 50.465C85.5324 48.6646 89.9773 47.7047 94.4778 46.7226C125.584 40.2551 158.176 43.0288 189.934 43.9489C237.616 45.9086 287.035 50.5225 334.602 54.4375C406.751 60.3564 479.055 65.6737 551.584 67.8148C599.831 69.0623 648.456 70.0222 696.324 64.6297C742.455 59.4053 796.3 47.7268 816.547 12.6778Z" fill="white" fill-opacity="0.2"/>
<path d="M764.533 12.3064C751.799 27.6787 729.616 36.6234 707.679 42.7635C651.817 58.2554 591.429 59.755 532.529 59.4674C449.78 58.9985 367.168 53.3627 284.956 46.8156C238.544 43.175 190.404 38.7159 143.948 36.6765C120.522 35.8051 96.8204 34.5708 73.4642 36.2872C64.7662 36.9818 56.1353 38.1452 47.7807 40.0739C39.302 41.8345 32.5733 44.8427 31.0283 51.9339C30.1556 56.1054 31.1781 60.4495 32.7084 64.5282C34.2992 68.7086 36.5303 72.7828 39.0041 76.773C41.4816 80.772 44.24 84.6825 47.0031 88.624C63.345 112.406 77.5801 137.417 83.4015 163.995C86.3242 177.191 87.0052 190.891 84.7992 204.189C82.7997 217.566 76.9513 230.532 68.9152 242.485C52.7506 266.435 28.4114 286.576 2.39612 304.658C27.8562 286.266 51.8446 265.97 67.5275 241.967C95.3798 200.902 83.6015 154.121 59.458 113.773C54.6772 105.669 49.4487 97.6882 43.9616 89.845C35.8609 78.1487 19.6581 57.2777 30.9076 44.7409C34.1565 41.2152 39.2257 39.0786 44.5268 37.8665L46.6723 37.3489C60.964 34.0179 75.9993 32.7793 90.894 32.5227C155.657 32.1998 221.025 38.7026 285.379 43.812C390.92 52.0621 497.115 60.1221 603.316 56.393C652.222 54.1723 736.367 45.2762 764.533 12.3064Z" fill="white" fill-opacity="0.2"/>
<path d="M705.55 12.7799C690.617 23.096 671.783 29.5812 652.656 34.2084C589.202 49.563 521.585 49.0853 455.65 48.2625C357.919 46.6567 260.228 38.4064 163.07 30.6959C128.751 28.0461 94.3828 26.0157 59.9103 25.1044C48.451 24.7992 36.9974 24.6885 25.7028 25.5865C17.2697 26.2899 8.92401 27.5241 1.03872 29.8643C-22.4207 35.7522 -6.90206 55.7872 1.93179 66.2448C6.53204 71.7081 11.8659 76.9015 16.4916 82.3913C45.834 116.803 71.4907 156.444 66.6757 198.425C62.3811 233.629 33.9038 263.852 2.58684 288.845C33.9746 262.821 62.7991 231.324 64.9319 195.076C67.3422 156.842 44.8126 120.855 18.2979 89.2392C9.28744 78.034 -2.1018 68.2133 -9.71036 56.2428C-14.8163 48.3288 -19.029 37.0219 -8.39363 30.5323C-5.47371 28.6478 -1.8131 27.6259 1.71782 26.604C9.31236 24.5603 17.3065 23.3438 25.2817 22.6758C48.4377 20.955 71.4728 22.5563 94.5875 23.3393C163.219 26.52 232.356 33.7527 300.836 38.2959C369.538 43.1487 438.451 46.5505 507.466 46.5372C556.171 46.4355 605.562 44.4183 652.362 33.5094C671.513 29.0636 690.388 22.8748 705.55 12.7799Z" fill="white" fill-opacity="0.2"/>
<path d="M640.133 11.9748C621.927 19.9109 601.579 24.9185 581.185 28.5902C536.029 36.7121 489.323 38.0171 443.09 38.0569C353.343 38.1144 263.598 32.3946 174.406 25.3609C124.665 21.4371 73.6221 16.8807 23.749 15.1112C7.30112 14.6423 -10.0234 12.9613 -26.2749 14.5848C-33.047 15.2793 -39.6886 16.5666 -45.7579 18.8714L-47.5504 19.5791L-48.4461 19.933C-50.9031 21.0301 -53.2182 22.4767 -54.6241 24.2638C-63.7759 36.1946 -36.0186 56.8488 -25.8717 65.3998C-22.0652 68.4168 -18.2178 71.7876 -14.8612 75.1275C18.1911 106.991 47.2304 144.381 48.4837 185.866C48.4581 188.312 48.5101 191.405 48.2214 193.846L47.9066 197.031L47.8271 197.828L47.6841 198.62C43.5238 225.697 24.699 250.063 2.67459 271.124C24.2442 249.643 42.7246 224.958 46.1836 197.704C50.6752 152.489 18.5614 110.942 -17.4743 76.6758C-27.8804 66.6429 -40.691 58.3352 -50.3312 47.7095C-59.0836 38.3666 -67.1937 24.9052 -50.357 17.469C-32.973 9.93103 -12.1471 10.5504 7.16803 11.4218C18.1109 11.9792 29.8778 12.2579 40.7661 12.7932C84.9195 14.744 130.747 18.8094 174.824 22.3572C252.839 28.546 331.044 34.0225 409.486 35.5841C454.228 36.3759 499.237 36.7741 543.727 32.6777C557.608 31.386 571.43 29.5413 585.045 27.126C604.026 23.7065 622.994 19.1368 640.133 11.9748Z" fill="white" fill-opacity="0.2"/>
<path d="M555.663 12.9656C530.041 19.1013 503.416 22.5738 476.732 24.7813C417.874 29.2404 358.541 27.931 299.548 25.9978C235.243 23.64 170.826 19.0658 106.848 13.8591C58.8431 9.90434 10.8378 5.72391 -37.4084 4.04733C-48.0976 3.57399 -58.734 2.72021 -69.3873 3.052C-79.6817 3.36166 -90.3861 4.83917 -98.7748 9.46637C-100.713 10.5413 -102.194 11.926 -102.93 13.5318C-106.252 21.5741 -93.1129 32.6776 -86.3355 38.3576C-77.318 45.7584 -67.1086 52.3719 -57.2535 59.2065C-55.6288 60.3566 -53.1143 62.3341 -51.5594 63.6214C-15.3231 93.0655 19.413 127.11 28.0072 167.804C34.3939 196.178 22.5914 224.98 3.36193 249.258C19.048 228.241 29.9447 204.375 28.0712 180.009C24.2119 134.905 -14.3076 97.0867 -53.9806 65.3378C-55.3297 64.2407 -58.0237 62.1129 -59.5616 61.0733C-73.4996 51.5269 -88.2552 42.3433 -99.3895 30.7046C-104.058 25.5377 -109.145 19.1366 -106.51 12.6161C-105.512 10.3733 -103.437 8.4843 -101.064 7.16605C-91.9674 2.09206 -80.5469 0.424332 -69.5521 0.0837097C-58.7193 -0.270187 -47.9228 0.583633 -37.1846 1.0437C11.1334 2.64951 59.2644 6.80774 107.28 10.8554C213.914 19.5568 321.052 27.1391 428.414 25.7589C444.502 25.52 460.576 24.8742 476.603 23.7992C503.286 21.866 529.914 18.6854 555.663 12.9656Z" fill="white" fill-opacity="0.2"/>
<rect x="-107.232" y="533.076" width="1705.46" height="319.846" fill="url(#paint0_linear_9_632)"/>
<defs>
<linearGradient id="paint0_linear_9_632" x1="969.342" y1="852.922" x2="969.342" y2="533.076" gradientUnits="userSpaceOnUse">
<stop/>
<stop offset="1" stop-opacity="0"/>
</linearGradient>
</defs>
</svg>
