<svg viewBox="0 0 1599 966" fill="none" xmlns="http://www.w3.org/2000/svg">
<g clip-path="url(#clip0_391_1154)">
<path d="M1590.14 970.37L1606.86 957.248L1609.09 960.784L1590.14 970.37Z" fill="white" fill-opacity="0.2"/>
<path d="M1562.27 970.531L1606.87 940.087L1609.08 943.653L1562.27 970.531Z" fill="white" fill-opacity="0.2"/>
<path d="M1534.61 970.531C1558.47 954.405 1582.59 938.639 1606.89 923.135L1609.06 926.72C1584.07 941.014 1559.23 955.584 1534.61 970.531Z" fill="white" fill-opacity="0.2"/>
<path d="M1506.67 970.531C1539.55 948.374 1572.97 926.995 1606.75 906.196L1608.89 909.804C1574.44 929.37 1540.31 949.547 1506.67 970.531Z" fill="white" fill-opacity="0.2"/>
<path d="M1478.82 970.531C1520.73 942.229 1563.54 915.225 1606.92 889.185L1609.03 892.805C1565 917.607 1521.5 943.396 1478.82 970.531Z" fill="white" fill-opacity="0.2"/>
<path d="M1450.8 970.531C1501.59 935.832 1553.79 903.186 1606.94 872.156L1609.01 875.8C1555.24 905.574 1502.36 936.993 1450.8 970.531Z" fill="white" fill-opacity="0.2"/>
<path d="M1422.87 970.531C1482.46 929.4 1544.04 891.135 1606.95 855.21L1609 858.866C1545.49 893.523 1483.24 930.555 1422.87 970.531Z" fill="white" fill-opacity="0.2"/>
<path d="M1394.84 970.531C1463.08 922.651 1534.04 878.624 1606.98 838.133L1608.97 841.813C1535.5 881.011 1463.87 923.806 1394.84 970.531Z" fill="white" fill-opacity="0.2"/>
<path d="M1366.89 970.531C1443.72 915.877 1524.04 866.094 1606.99 821.134L1608.96 824.832C1525.49 868.482 1444.52 917.026 1366.89 970.531Z" fill="white" fill-opacity="0.2"/>
<path d="M1338.89 970.531C1424.18 908.805 1513.8 853.032 1607.01 804.027L1608.94 807.743C1515.19 855.45 1424.93 909.984 1338.89 970.531Z" fill="white" fill-opacity="0.2"/>
<path d="M1310.96 970.531C1404.62 901.726 1503.53 839.952 1607.03 786.986L1608.92 790.726C1504.91 842.381 1405.37 902.911 1310.96 970.531Z" fill="white" fill-opacity="0.2"/>
<path d="M1283.01 970.531C1384.91 894.42 1492.93 826.196 1607.06 769.813L1608.89 773.577C1494.32 828.631 1385.66 895.605 1283.01 970.531Z" fill="white" fill-opacity="0.2"/>
<path d="M1255.11 970.531C1365.22 887.108 1482.33 812.41 1607.08 752.712L1608.87 756.5C1483.71 814.845 1365.96 888.299 1255.11 970.531Z" fill="white" fill-opacity="0.2"/>
<path d="M1227.2 970.531C1293.67 919.336 1362.05 870.325 1433.85 826.824C1489.7 792.957 1547.71 762.585 1607.11 735.438L1608.84 739.255C1549.31 765.792 1491.12 795.566 1435.06 828.841C1362.9 871.641 1294.11 919.988 1227.2 970.531Z" fill="white" fill-opacity="0.2"/>
<path d="M1199.34 970.531C1270.31 915.028 1342.92 861.194 1420.06 814.462C1480.07 778.094 1542.88 746.352 1607.14 718.235L1608.81 722.082C1544.44 749.577 1481.48 780.709 1421.28 816.479C1343.79 862.504 1270.76 915.68 1199.34 970.531Z" fill="white" fill-opacity="0.2"/>
<path d="M1171.56 970.531C1247.1 910.815 1324.04 852.326 1406.46 802.268C1470.55 763.303 1537.96 729.819 1607.18 700.954L1608.77 704.832C1539.49 733.056 1471.94 765.93 1407.67 804.29C1324.92 853.637 1247.55 911.462 1171.56 970.531Z" fill="white" fill-opacity="0.2"/>
<path d="M1143.8 970.531C1226.14 904.838 1309.71 839.958 1400.17 785.651C1466.17 746.01 1535.71 712.233 1607.21 683.74L1608.74 687.641C1537.2 715.512 1467.55 748.685 1401.41 787.734C1310.61 841.298 1226.6 905.502 1143.8 970.531Z" fill="white" fill-opacity="0.2"/>
<path d="M1115.82 970.531C1229.28 877.954 1346.44 787.704 1478.23 722.549C1498.52 712.491 1519.17 702.773 1539.94 693.738C1562.13 684.045 1584.58 674.932 1607.25 666.393L1608.71 670.325C1586.05 678.672 1563.6 687.599 1541.39 697.101C1520.62 705.963 1499.95 715.506 1479.63 725.391C1347.51 789.535 1229.85 878.863 1115.82 970.531Z" fill="white" fill-opacity="0.2"/>
<path d="M1087.92 970.531C1136.55 928.987 1187.34 890.052 1238.4 851.56C1289.62 813.23 1342.63 777.185 1398.13 745.304C1442.55 719.874 1488.54 696.969 1535.68 677.014C1559.27 667.022 1583.15 657.717 1607.28 649.119L1608.67 653.068C1584.56 661.481 1560.69 670.594 1537.1 680.395C1489.94 699.985 1443.92 722.507 1399.43 747.578C1343.79 779.034 1290.6 814.684 1239.18 852.613C1187.87 890.746 1136.83 929.322 1087.92 970.531Z" fill="white" fill-opacity="0.2"/>
<path d="M1066.4 970.531C1112.65 922.681 1168.11 882.836 1220.68 842.196C1316.42 768.945 1419.93 705.011 1531.88 659.656C1556.7 649.502 1581.86 640.174 1607.32 631.707L1608.63 635.686C1583.21 643.955 1558.07 653.086 1533.25 663.049C1421.23 707.59 1317.51 770.752 1221.47 843.243C1168.65 883.536 1112.97 922.98 1066.4 970.531Z" fill="white" fill-opacity="0.2"/>
<path d="M1045.36 970.531C1089.34 915.656 1148.37 876.093 1203 832.778C1324.34 738.142 1459.68 659.578 1607.37 614.361L1608.59 618.37C1581.87 626.483 1555.46 635.626 1529.42 645.732C1411.85 690.956 1303.56 757.379 1203.79 833.819C1148.91 876.781 1089.67 915.949 1045.36 970.531Z" fill="white" fill-opacity="0.2"/>
<path d="M1031.62 970.531C1070.11 908.057 1131.67 866.19 1187.96 821.2C1312.98 722.429 1453.26 640.251 1607.41 596.887C1607.41 596.887 1608.54 600.921 1608.54 600.921C1454.56 643.237 1314.08 724.452 1188.76 822.235C1132.23 866.866 1070.47 908.314 1031.62 970.531Z" fill="white" fill-opacity="0.2"/>
<path d="M1018.18 970.531C1031.66 943.731 1048.53 918.474 1069.42 896.874C1095.53 869.828 1125.98 847.581 1155 823.856C1160.02 819.752 1167.45 813.906 1172.59 809.795C1301.35 706.806 1446.81 620.99 1607.45 579.478C1607.45 579.478 1608.5 583.535 1608.5 583.535C1448.08 623.994 1302.43 708.847 1173.4 810.824C1168.23 814.923 1160.81 820.679 1155.75 824.772C1126.6 848.317 1096.05 870.367 1069.8 897.233C1048.8 918.702 1031.81 943.826 1018.18 970.531Z" fill="white" fill-opacity="0.2"/>
<path d="M1009.14 970.531C1024.58 935.12 1045.49 901.924 1072.21 873.927C1077.5 868.284 1082.98 862.815 1088.58 857.484C1145.59 805.331 1207.12 758.067 1270.97 714.543C1373.64 645.744 1486.83 590.488 1607.5 561.963C1607.5 561.964 1608.44 566.045 1608.44 566.045C1487.99 593.809 1374.9 648.251 1272.14 716.284C1208.15 759.372 1146.36 806.277 1089.12 858.052C1083.5 863.348 1078 868.775 1072.69 874.375C1045.84 902.193 1024.77 935.24 1009.14 970.531Z" fill="white" fill-opacity="0.2"/>
<path d="M1000.87 970.531C1037.64 864.874 1097.85 820.805 1182.03 754.555C1219.86 725.337 1258.96 697.622 1299.9 672.88C1340.65 647.898 1382.37 624.162 1426.08 604.667C1484.17 578.28 1544.99 557.59 1607.56 544.539L1608.39 548.643C1534.4 563.609 1462.75 589.513 1394.94 622.678C1359.23 640.209 1324.89 660.422 1290.91 681.089C1239.98 712.251 1191.98 747.967 1145.36 785.239C1075.63 839.964 1031.31 885.074 1000.87 970.531Z" fill="white" fill-opacity="0.2"/>
<path d="M992.897 970.531C1019.3 880.209 1057.53 829.894 1129.75 771.183C1180.7 729.855 1233.08 689.669 1289.72 656.371C1317.99 639.677 1345.93 622.337 1375.16 607.294C1448.47 570.1 1526.63 542.159 1607.6 527.19L1608.35 531.311C1527.75 545.761 1449.66 573.209 1376.47 609.861C1343.62 626.627 1312.18 646.073 1280.32 664.652C1274.35 668.206 1265.41 673.789 1259.42 677.595C1214.62 706.375 1172.07 738.836 1130.58 772.194C1058.2 830.349 1019.65 880.652 992.897 970.531Z" fill="white" fill-opacity="0.2"/>
<path d="M986.321 970.531C1023.55 826.531 1082.61 781.607 1195.79 696.024C1263.53 645.643 1336.31 601.669 1413.82 567.931C1444.71 554.548 1476.74 542.655 1508.91 532.732C1541.23 522.774 1574.18 514.657 1607.66 509.452L1608.29 513.592C1575.02 518.588 1542.21 526.487 1509.98 536.237C1477.89 545.955 1445.91 557.642 1415.07 570.815C1337.64 604.039 1264.71 647.575 1196.87 697.496C1083.32 782.45 1024.25 826.902 986.321 970.531Z" fill="white" fill-opacity="0.2"/>
<path d="M981.061 970.597C996.445 903.252 1021.88 836.488 1066.9 783.192C1089.03 756.374 1115.85 733.948 1142.98 712.413C1196.95 668.936 1253.88 628.661 1314.48 594.922C1367.39 565.228 1423.26 540.255 1480.99 521.495C1522.29 508.076 1564.53 497.29 1607.72 491.825L1608.23 495.981C1565.37 501.183 1523.21 511.719 1482.08 524.859C1391.34 553.792 1305.92 598.084 1227.4 651.74C1198.97 671.079 1170.88 692.296 1143.96 713.645C1116.75 735.013 1089.93 757.212 1067.7 783.862C1022.47 836.859 996.768 903.414 981.061 970.597Z" fill="white" fill-opacity="0.2"/>
<path d="M975.778 970.531C992.843 884.069 1022.59 794.489 1089.09 733.254C1108.42 715.117 1129.84 698.28 1150.51 681.681C1167.74 667.943 1185.9 654.235 1203.9 641.466C1252.8 606.528 1304.7 575.293 1358.87 549.202C1405.07 527.043 1453.35 508.747 1502.69 494.915C1537.06 485.272 1572.15 477.782 1607.78 474.253L1608.17 478.423C1572.85 481.747 1537.93 489.012 1503.68 498.446C1453.37 512.261 1404.19 530.8 1357.1 553.242C1302.03 579.735 1249.33 611.453 1199.61 646.959C1183.51 658.471 1167.07 670.755 1151.56 683.016C1130.85 699.482 1109.35 716.218 1089.98 734.205C1023.31 795.022 993.256 884.284 975.778 970.531Z" fill="white" fill-opacity="0.2"/>
<path d="M970.782 970.531C985.92 878.881 1014.83 784.461 1081.78 716.978C1112.31 686.019 1146.84 659.321 1181.63 633.358C1269.77 568.069 1367.92 515.048 1473.21 483.395C1517.07 470.197 1561.98 459.924 1607.83 456.648L1608.12 460.827C1562.69 463.847 1517.87 473.869 1474.23 486.78C1360.24 520.393 1254.85 579.225 1160.83 651.327C1132.76 672.826 1105.03 694.995 1080.33 720.359C1014.8 787.315 986.195 880.18 970.782 970.531Z" fill="white" fill-opacity="0.2"/>
<path d="M965.923 970.531C977.07 896.568 994.638 821.912 1032.44 756.649C1051.21 724.093 1075.28 694.516 1103.75 669.906C1160.75 620.966 1221.99 576.803 1287.6 540.097C1294.53 536.163 1305.32 530.554 1312.41 526.703C1319.7 523.168 1330.38 517.512 1337.64 514.126C1341.73 512.236 1352.82 507.037 1356.81 505.189C1362.82 502.464 1373.38 498.036 1379.45 495.377C1386.91 492.263 1398.11 487.928 1405.65 484.951C1416.6 480.98 1431.13 475.665 1442.29 472.214C1482.49 459.135 1523.73 448.485 1565.66 442.721C1579.67 440.786 1593.76 439.566 1607.9 438.945L1608.05 443.131C1594.06 443.681 1580.07 444.826 1566.19 446.679C1519.81 452.763 1474.31 465.141 1429.95 479.736C1423.61 481.969 1412.96 485.791 1406.78 487.97C1397.89 491.446 1386.12 495.868 1377.4 499.61C1374.77 500.749 1363.54 505.495 1361.24 506.489C1355.49 508.99 1344.71 514.075 1338.88 516.725C1331.69 520.093 1320.9 525.602 1313.67 529.145C1306.57 533.028 1295.81 538.437 1288.87 542.386C1223.24 578.706 1161.89 622.516 1104.78 671.097C1076.33 695.456 1052.21 724.793 1033.35 757.182C995.284 822.211 977.411 896.67 965.923 970.531Z" fill="white" fill-opacity="0.2"/>
<path d="M962.656 970.531C977.1 866.86 1000.91 757.78 1071.45 676.781C1103.54 640.718 1142.5 611.68 1181.25 583.236C1286.4 506.775 1407.53 450.958 1535.87 428.036C1554.85 424.821 1574.22 422.447 1593.46 421.607C1598.34 421.31 1603.24 421.315 1607.96 421.188C1607.96 421.189 1607.99 425.377 1607.99 425.377C1603.58 425.438 1597.92 425.505 1593.64 425.726C1574.56 426.474 1555.35 428.738 1536.52 431.843C1408.52 454.116 1287.61 509.212 1182.47 584.937C1143.7 613.128 1104.69 641.927 1072.53 677.732C1001.76 758.295 977.573 867.076 962.656 970.531Z" fill="white" fill-opacity="0.2"/>
<path d="M959.395 970.531C972.116 873.412 988.379 772.542 1041.84 688.479C1063.03 654.917 1091.55 626.711 1122.6 602.268C1168.99 565.373 1217.41 530.868 1269.37 502.177C1338.48 463.599 1413.06 435.077 1490.21 417.401C1528.81 408.571 1568.31 402.653 1608.03 403.486L1607.92 407.673C1588.31 407.215 1568.65 408.299 1549.13 410.73C1412.24 429.307 1282.14 486.794 1170.93 567.988C1139.32 591.445 1107.13 614.684 1079.6 642.968C996.23 730.232 975.102 855.276 959.395 970.531Z" fill="white" fill-opacity="0.2"/>
<path d="M955.548 970.531C970.249 851.859 987.625 723.758 1067.48 629.331C1087.31 606.229 1110.25 586.065 1134 567.127C1197.62 517.023 1267.67 474.72 1342.25 443.059C1370.29 431.313 1398.99 421.065 1428.21 412.634C1467.18 401.434 1506.78 392.026 1547.17 387.654C1567.36 385.411 1587.75 384.685 1608.1 385.711L1607.86 389.892C1587.79 388.795 1567.61 389.42 1547.58 391.558C1507.45 395.726 1467.93 404.937 1429.14 415.905C1395.17 425.565 1361.84 437.635 1329.49 451.792C1260.22 482.402 1194.88 522.054 1135.22 568.665C1111.47 587.432 1088.51 607.444 1068.67 630.355C988.571 724.296 970.764 852.105 955.548 970.531Z" fill="white" fill-opacity="0.2"/>
<path d="M951.694 970.531C965.947 848.706 979.649 717.487 1055.66 616.473C1094.07 567.055 1145.28 529.605 1197.59 496.13C1275.95 445.097 1362.42 406.308 1453.53 384.735C1483.82 377.3 1514.57 371.296 1545.66 368.515C1566.4 366.564 1587.33 366.301 1608.16 367.978L1607.79 372.151C1587.27 370.414 1566.57 370.577 1546 372.426C1515.1 375.059 1484.49 380.907 1454.37 388.168C1363.47 409.287 1277.18 447.579 1198.86 498.119C1146.58 531.266 1095.38 568.36 1056.9 617.436C980.613 717.996 966.462 848.927 951.694 970.531Z" fill="white" fill-opacity="0.2"/>
<path d="M947.296 970.531C960.813 855.473 971.404 735.067 1028.7 631.988C1054.52 585.236 1093.08 546.855 1135.1 514.493C1181.68 479.159 1231.6 448.084 1284.18 422.481C1365.63 383.419 1453.98 357.295 1544.21 350.127C1565.45 348.625 1586.88 348.212 1608.2 350.426L1607.75 354.591C1586.8 352.329 1565.59 352.64 1544.48 354.046C1454.69 360.808 1366.62 386.477 1285.4 425.017C1232.89 450.321 1182.95 481.122 1136.38 516.153C1094.39 548.215 1055.86 586.248 1029.96 632.694C972.32 735.414 961.274 855.659 947.296 970.531Z" fill="white" fill-opacity="0.2"/>
<path d="M942.898 970.531C956.852 852.494 965.343 729.783 1018.98 621.648C1053.28 552.756 1113.3 501.16 1176.62 459.46C1285.06 386.924 1411.87 339.022 1542.72 331.812C1564.47 330.645 1586.42 330.262 1608.23 332.901L1607.72 337.059C1586.31 334.378 1564.58 334.654 1542.92 335.731C1412.62 342.39 1286.2 389.628 1177.91 461.425C1112.47 504.124 1050.34 557.625 1016.71 629.619C965.762 735.767 957.038 855.288 942.898 970.531Z" fill="white" fill-opacity="0.2"/>
<path d="M937.944 970.531C951.784 858.262 959.443 741.038 1001.16 634.914C1020.16 585.442 1049.26 539.714 1087.26 502.659C1115.31 475.418 1147.5 452.908 1180.16 431.618C1287.57 361.891 1413.01 317.29 1541.5 312.586C1563.85 311.779 1586.35 311.803 1608.55 315.171L1607.9 319.312C1586.02 315.907 1563.76 315.794 1541.64 316.512C1413.7 320.694 1288.69 364.649 1181.48 433.65C1148.83 454.748 1116.68 477.044 1088.63 504.067C1050.66 540.801 1021.52 586.23 1002.41 635.411C960.322 741.248 952.203 858.465 937.944 970.531Z" fill="white" fill-opacity="0.2"/>
<path d="M933.031 970.531C950.258 836.907 955.793 693.337 1016.39 570.636C1053.7 496.017 1101.2 457.545 1169.47 413.006C1279.02 340.966 1408.17 296.126 1539.77 293.385C1562.66 292.93 1585.72 293.325 1608.35 297.382L1607.6 301.499C1585.3 297.424 1562.49 296.945 1539.84 297.31C1403.05 299.602 1269.07 347.734 1156.55 424.459C1094.59 465.28 1051.73 504.105 1017.8 571.348C989.51 627.279 973.498 688.778 962.165 750.181C948.888 823.043 942.605 897.149 933.031 970.531Z" fill="white" fill-opacity="0.2"/>
<path d="M927.048 970.531C941.965 863.844 948.146 755.237 976.149 650.824C990.462 597.333 1010.79 544.73 1042.87 499.245C1074.54 453.186 1120.35 419.557 1166.47 389.128C1230.16 347.758 1300.24 316.045 1373.66 296.485C1427.31 282.214 1482.78 274.022 1538.35 274.07C1561.77 273.998 1585.36 274.806 1608.41 279.599L1607.54 283.692C1584.86 278.893 1561.53 278.013 1538.35 277.995C1404.72 277.882 1271.5 322.459 1160.52 396.004C1117.02 424.802 1074.39 457.015 1044.37 500.303C1012.24 545.489 991.778 597.894 977.316 651.141C948.942 755.405 942.36 863.946 927.048 970.531Z" fill="white" fill-opacity="0.2"/>
<path d="M921.16 970.531C938.249 858.543 943.67 744.467 971.661 634.334C984.909 582.307 1003.28 530.971 1032.52 485.646C1062.14 438.48 1106.56 403.141 1152.36 372.574C1260.41 300.518 1388.73 257.071 1518.95 254.749C1548.9 254.606 1579.12 254.983 1608.47 261.828L1607.48 265.903C1596.01 263.138 1584.26 261.457 1572.45 260.386C1424.09 248.76 1272.91 294.564 1150.01 377.099C1078.44 424.556 1034.42 469.66 1000.9 549.831C986.967 582.626 976.885 617.376 968.562 652.003C943.838 756.691 937.741 864.485 921.16 970.531Z" fill="white" fill-opacity="0.2"/>
<path d="M913.651 970.531C944.239 802.369 940.056 583.443 1043.79 442.337C1066.03 413.063 1093.61 388.196 1123.25 366.624C1222.13 294.654 1340.23 248.933 1462.12 237.547C1498.72 234.244 1535.59 234.082 1572.19 237.523C1584.4 238.815 1596.58 240.814 1608.53 243.991L1607.42 248.03C1595.78 244.889 1583.81 242.878 1571.76 241.556C1535.48 238.013 1498.76 238.049 1462.45 241.197C1341.1 252.093 1223.32 297.233 1124.64 368.53C1095.06 389.9 1067.58 414.494 1045.35 443.53C941.45 583.829 944.795 802.758 913.651 970.531Z" fill="white" fill-opacity="0.2"/>
<path d="M905.639 974.636C910.521 950.133 914.692 925.271 918.354 900.571C943.545 739.973 944.819 527.502 1055.42 399.958C1084.3 366.66 1120.43 340.649 1157.53 317.301C1258.75 254.396 1376.78 217.711 1496.13 215.408C1527.55 215.246 1559.19 215.862 1590.13 221.714C1596.33 222.941 1602.49 224.413 1608.58 226.202L1607.38 230.217C1601.45 228.446 1595.42 226.986 1589.33 225.759C1571.01 222.091 1552.31 220.649 1533.65 219.847C1508.68 218.723 1483.69 218.938 1458.78 220.889C1352.82 229.092 1249.26 263.683 1158.87 319.467C1143.12 329.281 1127.23 339.955 1112.29 350.989C1004.81 427.366 969.836 553.447 949.139 677.248C932.673 776.066 925.714 876.386 905.639 974.636Z" fill="white" fill-opacity="0.2"/>
<path d="M896.173 974.701C919.91 874.914 926.952 772.105 942.509 670.941C954.441 595.233 970.177 518.709 1003.85 449.346C1026.3 403.176 1058.72 361.466 1100 330.669C1202.14 252.865 1327.18 205.391 1455.35 196.727C1480.98 194.95 1506.76 195.022 1532.39 196.488C1551.66 197.547 1570.97 199.276 1589.88 203.399C1596.19 204.781 1602.45 206.426 1608.63 208.413L1607.32 212.392C1601.31 210.435 1595.18 208.802 1588.99 207.426C1570.33 203.297 1551.23 201.52 1532.16 200.407C1506.65 198.863 1481.1 198.708 1455.59 200.383C1327.98 208.574 1203.37 255.438 1101.43 332.548C1060.29 363.022 1027.98 404.316 1005.5 450.156C971.673 519.228 955.703 595.603 943.545 671.102C927.646 772.2 920.245 875.004 896.173 974.701Z" fill="white" fill-opacity="0.2"/>
<path d="M887.874 970.531C919.377 853.619 924.02 731.883 944.993 613.038C955.787 552.02 969.974 491.009 995.548 434.308C1013.72 394.176 1038.23 356.135 1071.31 326.654C1177.58 236.906 1313.96 183.922 1452.71 176.203C1485.4 174.366 1518.22 175.515 1550.79 178.734C1562.18 179.913 1573.65 181.595 1584.86 184C1592.91 185.753 1600.87 187.907 1608.68 190.63L1607.28 194.573C1598.22 191.348 1588.67 188.93 1579.23 187.004C1563.3 183.88 1547.12 182.145 1530.93 180.984C1504.95 179.016 1478.92 178.483 1452.9 179.865C1314.8 187.081 1178.9 239.396 1072.83 328.353C1039.86 357.547 1015.44 395.204 997.211 435.067C971.518 491.528 957.157 552.403 946.183 613.248C924.822 732.009 919.76 853.738 887.874 970.531Z" fill="white" fill-opacity="0.2"/>
<path d="M875.805 970.531C939.966 776.221 910.527 524.073 1025.88 352.239C1063.63 296.341 1121.06 257.657 1180.23 227.279C1275.3 178.22 1382.72 152.832 1489.73 155.279C1521.51 156.464 1553.43 158.498 1584.52 165.565C1592.72 167.515 1600.81 169.885 1608.72 172.847L1607.23 176.76C1599.53 173.846 1591.59 171.494 1583.57 169.562C1552.84 162.465 1521.08 160.353 1489.63 159.079C1383.18 156.29 1276.22 181.224 1181.48 229.726C1122.54 259.752 1065.32 297.981 1027.6 353.436C912.089 524.263 940.505 776.862 875.805 970.531Z" fill="white" fill-opacity="0.2"/>
<path d="M863.754 970.531C912.077 841.987 913.382 702.791 937.621 568.939C951.832 488.623 972.355 407.309 1016.57 337.777C1031.32 314.782 1048.46 293.08 1068.43 274.381C1098.6 246.414 1134.31 225.287 1170.77 206.66C1270.96 154.914 1385.03 129.681 1497.71 135.707C1525 137.466 1552.42 139.841 1579.16 145.915C1589.16 148.296 1599.22 151.216 1608.77 155.076L1607.19 158.953C1597.89 155.165 1588.02 152.245 1578.24 149.894C1551.8 143.803 1524.54 141.355 1497.49 139.53C1385.41 133.182 1271.85 157.948 1172.01 209.113C1135.69 227.518 1100.1 248.413 1070.04 276.105C1050.14 294.618 1033.07 316.111 1018.33 338.908C974.043 408.073 953.34 489.118 938.907 569.168C914.249 702.923 912.484 842.154 863.754 970.531Z" fill="white" fill-opacity="0.2"/>
<path d="M847.592 970.531C944.304 757.188 887.323 438.627 1054.31 261.254C1084.84 229.804 1122.58 206.456 1161.22 186.304C1260.27 134.331 1373.44 109.744 1485.15 115.105C1513 116.799 1541.1 119.276 1568.47 124.93C1582.21 127.803 1595.8 131.722 1608.81 137.263L1607.14 141.104C1594.49 135.671 1581.17 131.776 1567.63 128.898C1540.5 123.207 1512.59 120.658 1484.95 118.893C1373.88 113.221 1261.18 137.346 1162.48 188.745C1124.01 208.658 1086.41 231.737 1055.98 262.887C889.136 439.046 944.837 757.99 847.592 970.531Z" fill="white" fill-opacity="0.2"/>
<path d="M830.904 970.531C941.283 761.125 881.645 439.295 1036.46 252.697C1067.69 215.587 1108.82 188.434 1151.35 165.966C1252.43 112.389 1368.68 88.2034 1482.76 95.0546C1511.29 97.077 1539.88 99.8953 1567.85 106.094C1581.88 109.307 1595.71 113.52 1608.85 119.479L1607.1 123.279C1594.26 117.421 1580.7 113.245 1566.94 110.049C1539.22 103.815 1510.83 100.936 1482.52 98.8422C1369.06 91.6799 1253.34 115.411 1152.63 168.401C1110.29 190.594 1069.32 217.448 1038.22 254.187C883.452 439.553 941.767 761.975 830.904 970.531Z" fill="white" fill-opacity="0.2"/>
<path d="M809.495 970.531C844.074 922.98 860.313 865.364 873.962 808.945C890.913 738.525 900.481 664.957 910.964 593.248C928.059 476.887 945.393 354.711 1013.04 255.366C1028.62 232.772 1046.46 211.554 1067.54 193.885C1078.81 184.491 1090.92 176.233 1103.2 168.257C1164.82 128.754 1233.93 101.29 1305.59 86.6358C1377.27 71.8924 1451.47 69.2416 1523.92 79.8385C1545.66 82.9679 1567.35 87.3897 1588.22 94.4204C1595.19 96.76 1602.08 99.3868 1608.8 102.48L1607.16 106.011C1600.62 102.971 1593.86 100.374 1587 98.0464C1566.35 91.0337 1544.96 86.6178 1523.39 83.4466C1451.35 72.7061 1377.56 75.1414 1306.2 89.6156C1234.82 104 1165.95 131.153 1104.51 170.304C1092.31 178.184 1080.21 186.382 1069.03 195.656C1046.71 214.301 1027.84 236.931 1011.73 261.086C946.369 359.306 929.226 479.085 912.047 593.407C901.379 665.095 891.589 738.645 874.435 809.059C860.625 865.454 844.218 923.07 809.495 970.531Z" fill="white" fill-opacity="0.2"/>
<path d="M784.55 970.531C826.076 926.642 846.725 868.087 862.599 810.89C885.588 727.659 897.352 631.755 910.15 545.996C927.263 428.563 949.929 305.46 1024.72 209.61C1037.27 193.274 1051.55 177.951 1068.35 165.852C1184.71 79.7188 1334.08 43.2311 1477.55 55.1085C1507.44 57.6934 1537.28 62.2169 1566.22 70.3246C1580.7 74.4892 1595 79.2042 1608.74 85.4809L1607.22 88.73C1593.75 82.5371 1579.52 77.7981 1565.28 73.6754C1536.6 65.5557 1506.93 60.9843 1477.26 58.3516C1334.49 46.1691 1185.7 82.1421 1069.65 167.599C1052.97 179.548 1038.84 194.627 1026.32 210.842C951.479 306.292 928.646 429.032 911.257 546.161C898.315 631.928 886.258 727.671 863.03 811.01C847.006 868.194 826.201 926.738 784.55 970.531Z" fill="white" fill-opacity="0.2"/>
<path d="M749.289 970.531C805.181 927.539 824.789 881.933 846.324 817.334C862.24 773.972 872.424 728.73 880.4 683.309C893.714 608.06 903.078 530.438 916.373 455.251C930.662 375.932 951.377 296.108 993.34 226.519C1007.23 203.387 1023.11 181.289 1042.15 162.082C1053.06 151.114 1065.12 141.367 1077.73 132.476C1194.18 52.6552 1340.36 21.4689 1479.99 35.6619C1508.74 38.7494 1537.45 43.5482 1565.23 51.7576C1580.06 56.2273 1594.7 61.2595 1608.7 67.973L1607.25 70.9289C1593.51 64.2992 1578.93 59.249 1564.32 54.8152C1534.93 46.0912 1504.44 41.065 1473.94 38.0732C1351.87 26.4771 1225.36 49.6933 1118.04 109.876C1076.93 132.368 1040.9 159.85 1013.89 198.606C931.488 312.694 917.026 457.118 895.928 592.272C884.05 667.662 873.328 745.651 846.713 817.472C825.041 881.981 805.313 927.641 749.289 970.531Z" fill="white" fill-opacity="0.2"/>
<path d="M704.101 970.531C748.068 944.778 781.738 918.725 806.42 873.286C844.822 803.357 863.215 724.559 877.414 646.642C903.646 506.716 909.043 359.061 974.192 229.792C988.69 201.442 1006.12 174.373 1027.11 150.391C1037.55 138.31 1048.86 126.917 1061.59 117.26C1165.01 41.9387 1295.45 8.8318 1422.41 11.8894C1470.17 13.4152 1518.14 19.2312 1563.98 33.119C1579.24 37.9238 1594.32 43.291 1608.66 50.4833L1607.3 53.1459C1593.2 46.0375 1578.18 40.6523 1563.13 35.8894C1517.58 21.9896 1469.84 16.1138 1422.34 14.5042C1319.35 11.7518 1214.81 32.9574 1123.37 81.1369C1093.84 97.131 1064.1 114.136 1040.53 138.417C1003.06 176.886 975.76 224.239 955.943 273.909C897.663 422.962 899.111 586.54 857.878 740.057C845.522 786.052 829.983 831.737 806.665 873.424C798.761 887.228 790.001 900.625 779.476 912.58C758.252 936.419 731.482 954.501 704.101 970.531Z" fill="white" fill-opacity="0.2"/>
<path d="M650.62 967.802C695.646 948.009 739.23 922.058 771.524 884.332C814.402 833.831 836.391 769.484 853.378 706.387C865.675 658.543 874.339 609.849 882.321 561.125C903.215 432.033 916.337 296.515 983.808 181.553C1000.74 153.292 1020.86 126.546 1045.53 104.574C1062.56 89.5318 1081.45 76.7389 1101.19 65.5377C1210.7 3.12936 1341.02 -18.555 1465.69 -5.13389C1498.46 -1.48393 1531.15 4.42182 1562.62 14.4502C1578.34 19.5961 1593.9 25.3044 1608.61 32.9753L1607.35 35.3568C1592.85 27.7637 1577.36 22.0433 1561.82 16.9394C1530.57 6.91095 1498.01 0.969324 1465.42 -2.71056C1341.22 -16.2992 1211.31 5.09197 1102.08 67.0935C1096.7 70.1092 1091.42 73.2864 1086.2 76.5654C985.675 138.118 941.714 256.766 916.696 366.6C888.203 495.08 881.1 628.308 839.945 753.921C803.739 862.588 757.271 921.508 650.62 967.802Z" fill="white" fill-opacity="0.2"/>
<path d="M671.784 930.064C694.037 917.762 715.434 903.797 735.311 887.922C761.776 866.657 783.796 840.048 799.694 810.052C898.004 619.243 868.726 390.559 958.964 196.877C987.266 135.33 1031.09 79.1563 1090.85 45.6844C1127.57 24.3291 1166.98 7.70685 1207.69 -4.34401C1211.8 -5.5108 1215.75 -6.81523 1219.76 -8.24529C1262.31 -23.3238 1425.89 -83.1832 1470.84 -99.5183C1520.91 -117.511 1600.61 -146.962 1650.48 -163.955C1654.56 -165.271 1658.58 -166.761 1662.78 -167.785L1663.23 -165.439C1659.18 -164.404 1655.22 -163.016 1651.24 -161.699C1601.67 -144.808 1521.91 -115.662 1471.55 -97.5498C1425.34 -80.9514 1263.38 -21.7322 1220.32 -6.64768C1216.33 -5.22359 1212.23 -3.87733 1208.17 -2.73447C1167.56 9.22065 1128.24 25.7412 1091.6 46.9708C1032.02 80.2394 988.331 136.108 960.041 197.385C869.594 390.86 898.5 619.566 799.916 810.166C783.963 840.162 761.878 866.764 735.371 888C715.476 903.856 694.055 917.792 671.784 930.064Z" fill="white" fill-opacity="0.2"/>
<path d="M689.477 890.519C729.753 866.112 765.6 832.91 788.314 791.294C805.546 760.915 818.818 728.437 829.654 695.276C875.679 554.26 879.305 403.657 921.453 261.684C945.166 183.755 980.535 105.029 1043.97 51.4287C1082.12 19.7817 1129.05 0.861752 1176.1 -13.2833C1177.6 -13.6723 1183.4 -15.4613 1184.98 -15.8622C1188.98 -17.2504 1195.75 -19.8652 1199.35 -21.2235C1293.5 -57.4478 1450.09 -118.289 1544.09 -154.639C1567.96 -163.799 1609.25 -179.907 1633.24 -188.882L1634.7 -189.415L1635.43 -189.678L1636.24 -189.942L1636.78 -187.919C1636.06 -187.692 1634.7 -187.189 1633.97 -186.92C1609.82 -177.927 1569.41 -162.232 1544.8 -152.808C1450.76 -116.613 1294.07 -55.9102 1199.87 -19.8533C1197.33 -19.0216 1187.69 -15.1023 1185.38 -14.4681C1183.77 -13.9834 1178.24 -12.4457 1176.5 -11.9071C1129.6 2.13026 1082.82 20.9007 1044.76 52.3801C981.438 105.753 946.094 184.239 922.321 261.942C880.005 403.821 876.17 554.438 829.953 695.378C819.069 728.539 805.75 761.011 788.463 791.378C765.696 832.981 729.8 866.154 689.477 890.519Z" fill="white" fill-opacity="0.2"/>
<path d="M704.053 850.19C729.22 830.612 753.567 809.011 772.092 782.869C790.348 756.476 802.764 726.636 814.109 696.766C825.495 666.83 834.536 636.057 842.273 604.99C873.352 480.726 881.148 351.336 919.706 228.817C944.023 153.364 979.003 76.6193 1041.85 25.6275C1061.99 9.87282 1084.55 -2.53702 1107.35 -13.9776C1263.8 -74.7046 1451.1 -145.873 1607.63 -206.229L1613.23 -208.395L1618.78 -210.573L1619.51 -208.934C1616.41 -207.665 1611.46 -205.822 1608.27 -204.572C1451.75 -144.443 1264.32 -73.442 1107.86 -12.9424C1085.12 -1.56769 1062.6 10.7764 1042.51 26.4592C979.763 77.2595 944.807 153.807 920.448 229.05C881.759 351.491 873.812 480.852 842.59 605.068C834.818 636.135 825.729 666.908 814.312 696.844C802.925 726.714 790.468 756.548 772.17 782.929C753.609 809.065 729.256 830.618 704.053 850.19Z" fill="white" fill-opacity="0.2"/>
<path d="M717.792 803.812C726.312 795.853 735.21 788.141 743.006 779.441C766.683 753.442 784.011 722.381 798.085 690.334C872.849 517.485 863.383 321.137 936.311 147.674C957.666 97.7113 986.094 49.0711 1028.11 13.7203C1035.6 7.46151 1043.42 1.60959 1051.45 -3.94314C1053.09 -5.10394 1055.02 -5.70828 1056.75 -6.5759C1168.38 -54.3066 1321.75 -115.656 1435.13 -162.579C1479.02 -180.553 1553.88 -211.201 1597.31 -229.367L1602.69 -231.653L1605.36 -232.814C1606.23 -233.203 1607.17 -233.604 1607.94 -234.004L1608.68 -232.706C1607.11 -231.88 1604.89 -231.007 1603.27 -230.283C1557.56 -211.004 1482.37 -180.577 1435.63 -161.37C1326 -116.093 1175.69 -55.8863 1067.83 -10.3934C1064.26 -8.86758 1060.67 -7.3358 1057.11 -5.75614C1055.51 -5.01418 1053.38 -4.18243 1051.95 -3.20711C913.088 89.9327 888.544 312.694 860.068 465.375C842.937 556.883 823.299 650.274 777.196 732.153C765.492 752.383 751.587 771.453 734.916 787.883C729.28 793.269 723.518 798.522 717.792 803.812Z" fill="white" fill-opacity="0.2"/>
<path d="M1555.71 -4.7868C1562.67 -2.59084 1569.55 -0.203397 1576.36 2.40543C1586.7 6.36654 1597.69 10.8781 1607.98 16.5386" fill="white" fill-opacity="0.2"/>
<path d="M1555.71 -4.7868C1562.67 -2.59084 1569.55 -0.203397 1576.36 2.40543C1586.7 6.36654 1597.69 10.8781 1607.98 16.5386" stroke="white" stroke-opacity="0.2" stroke-width="5.33333" stroke-miterlimit="10"/>
<path d="M728.628 760.892C752.179 735.593 772.068 706.74 786.542 675.327C862.45 511.049 857.872 323.8 919.533 154.992C937.902 104.245 962.818 55.1564 998.216 14.1033C1003.91 7.53931 1009.87 1.20273 1016.08 -4.86458C1016.12 -4.94237 1311.39 -121.801 1311.44 -121.867C1391.62 -153.801 1518.13 -203.77 1597.17 -235.979L1601.75 -237.888L1604.02 -238.857C1604.77 -239.186 1605.54 -239.515 1606.22 -239.856L1606.81 -238.821C1604.34 -237.607 1600.21 -235.979 1597.62 -234.878C1519.02 -202.866 1391.97 -152.814 1311.82 -120.916C1311.87 -120.898 1015.96 -3.87737 1016.62 -4.18851C1010.43 1.83692 1004.51 8.12567 998.844 14.6477C963.464 55.5931 938.548 104.574 920.155 155.213C858.339 323.931 862.701 511.196 786.632 675.369C772.116 706.77 752.203 735.611 728.628 760.892Z" fill="white" fill-opacity="0.2"/>
<path d="M738.854 715.034C748.355 702.079 757.301 688.706 765.552 674.926C781.289 646.899 793.753 617.125 804.337 586.812C854.611 442.273 860.517 286.426 911.078 141.972C918.976 119.192 928.221 96.8676 939.099 75.3448C953.645 46.6597 971.081 19.2132 992.394 -4.94238C1089.59 -43.3747 1341.12 -142.995 1435.16 -180.434C1472.33 -195.225 1536.48 -220.793 1573.29 -235.841L1577.87 -237.75C1579.37 -238.396 1580.95 -239.031 1582.36 -239.725L1582.81 -238.947C1580.3 -237.744 1576.26 -236.117 1573.64 -235.016C1536.92 -219.925 1473.1 -194.722 1435.47 -179.662C1342.57 -142.69 1089.02 -42.4472 992.634 -4.34403C972.026 19.2491 953.926 47.1204 939.596 75.5961C928.711 97.083 919.455 119.39 911.545 142.133C860.876 286.534 854.833 442.364 804.439 586.848C793.824 617.161 781.337 646.923 765.576 674.938C757.319 688.718 748.361 702.085 738.854 715.034Z" fill="white" fill-opacity="0.2"/>
<path d="M749.301 664.18C847.772 498.02 843.212 296.999 905.992 118.133C915.189 92.0389 926.097 66.4294 939.183 42.0404C947.96 25.8071 957.708 10.0405 968.532 -4.91239C968.562 -5.08591 1263.71 -121.663 1263.8 -121.771C1339.64 -151.892 1465.44 -201.681 1540.24 -231.946C1540.24 -231.952 1549.42 -235.71 1549.42 -235.71L1554 -237.612C1555.51 -238.259 1557.07 -238.893 1558.5 -239.599L1558.8 -239.078C1554.04 -236.859 1545.48 -233.484 1540.46 -231.402C1466.13 -201.304 1339.85 -151.443 1263.98 -121.298C1264.02 -121.31 968.418 -4.40981 968.873 -4.66112C958.055 10.2618 948.307 26.0105 939.524 42.2259C926.438 66.5909 915.518 92.1706 906.309 118.247C843.44 297.047 847.844 498.101 749.301 664.18Z" fill="white" fill-opacity="0.2"/>
<path d="M761.154 605.834C771.536 581.202 781.923 556.541 791.09 531.427C794.871 521.027 798.934 508.734 802.273 498.166C840.711 375.199 852.966 245.726 891.553 122.8C905.567 78.2109 923.793 34.6208 949.025 -4.84664C949.049 -4.91845 1242.03 -121.616 1242.08 -121.663C1321.51 -153.472 1447.26 -203.482 1525.61 -235.572L1530.15 -237.481C1531.66 -238.127 1533.19 -238.749 1534.64 -239.467L1534.79 -239.21C1532.22 -237.942 1528.38 -236.446 1525.72 -235.297C1447.83 -203.351 1321.63 -153.281 1242.17 -121.424C1242.19 -121.424 948.966 -4.59531 949.205 -4.73293C942.007 6.53408 935.365 18.1421 929.22 30.0135C912.328 62.6238 899.368 97.2985 888.747 132.428C852.427 252.5 839.784 378.405 802.303 498.174C798.964 508.733 794.895 521.025 791.108 531.432C781.935 556.544 771.541 581.205 761.154 605.834Z" fill="white" fill-opacity="0.2"/>
<path d="M7.85693 -4.62532L-8.85451 8.49658L-11.0959 4.96033L7.85693 -4.62532Z" fill="white" fill-opacity="0.2"/>
<path d="M35.7332 -4.78679L-8.87693 25.6575L-11.0735 22.0913L35.7332 -4.78679Z" fill="white" fill-opacity="0.2"/>
<path d="M63.3961 -4.78675C39.5252 11.3389 15.4048 27.1055 -8.89195 42.6089L-11.0586 39.0248C13.9337 24.7301 38.7721 10.1601 63.3961 -4.78675Z" fill="white" fill-opacity="0.2"/>
<path d="M91.3291 -4.78686C58.4486 17.3702 25.0287 38.7494 -8.75711 59.5482L-10.8896 55.9402C23.5653 36.374 57.689 16.1974 91.3291 -4.78686Z" fill="white" fill-opacity="0.2"/>
<path d="M119.182 -4.78685C77.269 23.5153 34.4649 50.5191 -8.92235 76.5594L-11.0281 72.9394C33.0073 48.1376 76.5037 22.3425 119.182 -4.78685Z" fill="white" fill-opacity="0.2"/>
<path d="M147.2 -4.78682C96.4133 29.9118 44.2101 62.558 -8.93983 93.5886L-11.0105 89.9447C42.7559 60.1706 95.6391 28.7509 147.2 -4.78682Z" fill="white" fill-opacity="0.2"/>
<path d="M175.128 -4.7868C115.541 36.3441 53.9607 74.6089 -8.95421 110.534L-10.9961 106.878C52.509 72.2214 114.758 35.1893 175.128 -4.7868Z" fill="white" fill-opacity="0.2"/>
<path d="M203.159 -4.78682C134.92 43.0935 63.9598 87.1204 -8.97399 127.611L-10.9766 123.931C62.5064 84.733 134.128 41.9387 203.159 -4.78682Z" fill="white" fill-opacity="0.2"/>
<path d="M231.108 -4.78679C154.283 49.8669 73.9649 99.65 -8.99077 144.61L-10.9597 140.913C72.5091 97.2626 153.481 48.7181 231.108 -4.78679Z" fill="white" fill-opacity="0.2"/>
<path d="M259.11 -4.78683C173.824 56.9394 84.201 112.712 -9.01248 161.717L-10.9377 158.001C82.8068 110.295 173.075 55.7607 259.11 -4.78683Z" fill="white" fill-opacity="0.2"/>
<path d="M287.044 -4.78672C193.377 64.0181 94.4716 125.792 -9.03197 178.759L-10.9187 175.019C93.0841 123.363 192.629 62.8333 287.044 -4.78672Z" fill="white" fill-opacity="0.2"/>
<path d="M314.993 -4.7868C213.082 71.3239 105.067 139.548 -9.05708 195.931L-10.8933 192.168C103.684 137.113 212.34 70.1391 314.993 -4.7868Z" fill="white" fill-opacity="0.2"/>
<path d="M342.888 -4.78676C232.778 78.6358 115.673 153.334 -9.07973 213.032C-9.07949 213.032 -10.8706 209.245 -10.8706 209.245C114.293 150.899 232.041 77.4451 342.888 -4.78676Z" fill="white" fill-opacity="0.2"/>
<path d="M370.797 -4.78672C304.332 46.4085 235.957 95.4197 164.155 138.92C108.297 172.787 50.2909 203.159 -9.114 230.307L-10.8364 226.489C48.6921 199.952 106.883 170.178 162.943 136.904C235.098 94.1033 303.886 45.7563 370.797 -4.78672Z" fill="white" fill-opacity="0.2"/>
<path d="M398.66 -4.78676C327.687 50.7166 255.077 104.551 177.936 151.282C117.927 187.65 55.1221 219.393 -9.14451 247.509L-10.8057 243.662C53.5656 216.168 116.525 185.035 176.725 149.266C254.209 103.24 327.242 50.0644 398.66 -4.78676Z" fill="white" fill-opacity="0.2"/>
<path d="M426.442 -4.78674C350.898 54.929 273.953 113.418 191.545 163.477C127.448 202.441 60.0359 235.925 -9.17773 264.784C-9.17749 264.784 -10.7727 260.913 -10.7727 260.913C58.5111 232.688 126.061 199.815 190.33 161.454C273.078 112.108 350.452 54.2828 426.442 -4.78674Z" fill="white" fill-opacity="0.2"/>
<path d="M454.198 -4.78675C371.859 60.9066 288.295 125.786 197.834 180.093C131.832 219.734 62.2933 253.511 -9.20801 282.005L-10.7424 278.103C60.8058 250.226 130.444 217.059 196.596 178.011C287.396 124.446 371.403 60.2424 454.198 -4.78675Z" fill="white" fill-opacity="0.2"/>
<path d="M482.179 -4.78678C368.716 87.7906 251.561 178.04 119.772 243.195C99.4753 253.254 78.8284 262.971 58.0648 272.006C35.8705 281.699 13.4217 290.812 -9.24544 299.345L-10.7046 295.42C11.9555 287.073 34.4055 278.145 56.6096 268.643C77.3828 259.782 98.0488 250.238 118.366 240.347C250.486 176.209 368.154 86.8811 482.179 -4.78678Z" fill="white" fill-opacity="0.2"/>
<path d="M510.08 -4.78683C461.448 36.7569 410.661 75.6918 359.601 114.184C308.376 152.509 255.372 188.559 199.867 220.44C155.447 245.87 109.459 268.775 62.3173 288.724C38.732 298.722 14.8522 308.027 -9.28042 316.625L-10.6699 312.676C13.4426 304.263 37.3125 295.15 60.898 285.349C108.063 265.765 154.08 243.237 198.572 218.166C254.21 186.711 307.402 151.061 358.82 113.131C410.132 74.9978 461.17 36.4218 510.08 -4.78683Z" fill="white" fill-opacity="0.2"/>
<path d="M531.6 -4.78677C485.349 43.0636 429.886 82.908 377.318 123.548C281.577 196.799 178.072 260.733 66.126 306.094C41.3015 316.242 16.1356 325.571 -9.32279 334.037L-10.6272 330.058C14.7935 321.789 39.9354 312.652 64.7492 302.696C176.773 258.154 280.49 194.992 376.529 122.501C429.355 82.208 485.027 42.7645 531.6 -4.78677Z" fill="white" fill-opacity="0.2"/>
<path d="M552.641 -4.78684C508.661 50.0882 449.627 89.6514 395.004 132.96C273.656 227.602 138.321 306.166 -9.36294 351.384C-9.3627 351.384 -10.5879 347.375 -10.5879 347.375C16.1312 339.261 42.5399 330.118 68.5791 320.012C186.151 274.788 294.436 208.365 394.208 131.925C449.086 88.9633 508.331 49.7951 552.641 -4.78684Z" fill="white" fill-opacity="0.2"/>
<path d="M566.377 -4.78678C527.889 57.6874 466.327 99.5543 410.041 144.545C285.018 243.315 144.734 325.493 -9.41082 368.857C-9.4104 368.857 -10.54 364.823 -10.54 364.823C143.44 322.507 283.923 241.293 409.238 143.509C465.772 98.8782 527.53 57.4301 566.377 -4.78678Z" fill="white" fill-opacity="0.2"/>
<path d="M579.816 -4.7868C566.334 22.0135 549.472 47.27 528.577 68.8706C502.465 95.9163 472.018 118.163 442.995 141.888C437.982 145.993 430.552 151.838 425.412 155.949C296.649 258.932 151.19 344.754 -9.45566 386.266C-9.45548 386.267 -10.4951 382.209 -10.4951 382.209C149.924 341.75 295.569 256.898 424.602 154.92C429.775 150.821 437.191 145.065 442.258 140.972C471.399 117.427 501.954 95.3777 528.201 68.5116C549.203 47.0427 566.185 21.9178 579.816 -4.7868Z" fill="white" fill-opacity="0.2"/>
<path d="M588.861 -4.78677C573.42 30.6238 552.512 63.8206 525.786 91.8176C520.497 97.46 515.022 102.923 509.422 108.26C452.407 160.413 390.88 207.677 327.029 251.201C224.367 320 111.172 375.256 -9.50523 403.781C-9.50541 403.78 -10.4451 399.699 -10.4451 399.699C110.008 371.935 223.093 317.493 325.866 249.46C389.849 206.373 451.634 159.468 508.882 107.692C514.502 102.396 519.998 96.9694 525.311 91.3688C552.164 63.5513 573.235 30.5042 588.861 -4.78677Z" fill="white" fill-opacity="0.2"/>
<path d="M597.125 -4.78682C560.358 100.871 500.15 144.939 415.971 211.189C378.135 240.407 339.037 268.123 298.102 292.865C257.347 317.846 215.626 341.583 171.92 361.077C113.83 387.464 53.0112 408.154 -9.55517 421.205L-10.395 417.102C63.6038 402.135 135.251 376.231 203.056 343.067C238.773 325.535 273.105 305.322 307.087 284.655C358.025 253.493 406.027 217.777 452.642 180.506C522.377 125.78 566.689 80.6702 597.125 -4.78682Z" fill="white" fill-opacity="0.2"/>
<path d="M605.103 -4.78685C578.7 85.5348 540.47 135.85 468.245 194.561C417.303 235.889 364.925 276.075 308.283 309.373C280.009 326.067 252.074 343.408 222.836 358.45C149.531 395.645 71.3682 423.585 -9.60094 438.554L-10.3494 434.433C70.2438 419.983 148.344 392.536 221.528 355.883C254.383 339.123 285.815 319.671 317.681 301.092C323.65 297.538 332.591 291.955 338.582 288.15C383.384 259.369 425.924 226.908 467.418 193.55C539.801 135.396 578.352 85.092 605.103 -4.78685Z" fill="white" fill-opacity="0.2"/>
<path d="M611.685 -4.7868C574.451 139.213 515.391 184.138 402.216 269.72C334.475 320.102 261.691 364.075 184.179 397.814C153.289 411.196 121.258 423.089 89.0901 433.012C56.7733 442.97 23.8227 451.087 -9.65904 456.293L-10.2913 452.153C22.9744 447.156 55.7877 439.257 88.0196 429.507C120.114 419.789 152.093 408.102 182.935 394.929C260.36 361.705 333.286 318.169 401.128 268.248C514.68 183.294 573.747 138.842 611.685 -4.7868Z" fill="white" fill-opacity="0.2"/>
<path d="M616.939 -4.85262C601.555 62.4922 576.127 129.257 531.102 182.552C508.967 209.37 482.156 231.797 455.02 253.331C401.053 296.808 344.118 337.083 283.516 370.822C230.614 400.516 174.74 425.489 117.01 444.249C75.7097 457.668 33.4683 468.454 -9.71819 473.919L-10.2322 469.763C32.6327 464.561 74.7924 454.025 115.926 440.886C206.658 411.952 292.082 367.661 370.604 314.004C399.027 294.666 427.124 273.448 454.045 252.099C481.247 230.731 508.073 208.533 530.299 181.882C575.526 128.886 601.232 62.3306 616.939 -4.85262Z" fill="white" fill-opacity="0.2"/>
<path d="M622.222 -4.78682C605.157 81.6754 575.409 171.255 508.913 232.491C489.581 250.627 468.166 267.464 447.492 284.063C430.262 297.801 412.096 311.509 394.101 324.278C345.203 359.216 293.301 390.451 239.135 416.543C192.928 438.701 144.651 456.997 95.3053 470.829C60.9424 480.473 25.8541 487.962 -9.77488 491.491L-10.1755 487.321C25.1559 483.998 60.0658 476.732 94.3234 467.298C144.633 453.484 193.808 434.944 240.903 412.503C295.969 386.009 348.669 354.292 398.388 318.785C414.486 307.273 430.937 294.989 446.436 282.728C467.146 266.262 488.653 249.526 508.018 231.539C574.688 170.717 604.744 81.46 622.222 -4.78682Z" fill="white" fill-opacity="0.2"/>
<path d="M627.218 -4.78674C612.08 86.8632 583.172 181.284 516.227 248.766C485.692 279.725 451.157 306.423 416.373 332.386C328.227 397.675 230.084 450.697 124.79 482.349C80.9279 495.547 36.0211 505.82 -9.83368 509.096L-10.1167 504.917C35.3129 501.897 80.1321 491.875 123.777 478.964C237.758 445.351 343.152 386.52 437.17 314.417C465.241 292.919 492.963 270.749 517.666 245.385C583.196 178.429 611.805 85.5648 627.218 -4.78674Z" fill="white" fill-opacity="0.2"/>
<path d="M632.077 -4.78673C620.93 69.1759 603.362 143.833 565.558 209.095C546.791 241.652 522.721 271.228 494.244 295.839C437.254 344.778 376.005 388.941 310.401 425.647C303.474 429.581 292.685 435.19 285.594 439.042C278.299 442.576 267.621 448.233 260.36 451.618C256.269 453.508 245.183 458.708 241.192 460.555C235.179 463.281 224.625 467.708 218.551 470.368C211.089 473.481 199.891 477.816 192.344 480.793C181.4 484.764 166.869 490.079 155.711 493.531C115.505 506.609 74.269 517.259 32.3407 523.023C18.3306 524.958 4.23604 526.179 -9.89822 526.799L-10.052 522.614C3.9413 522.064 17.9271 520.919 31.8143 519.065C78.1846 512.981 123.683 500.604 168.05 486.008C174.391 483.775 185.042 479.953 191.213 477.775C200.114 474.298 211.884 469.876 220.6 466.134C223.231 464.995 234.46 460.249 236.761 459.256C242.507 456.755 253.287 451.669 259.12 449.02C266.309 445.651 277.096 440.143 284.333 436.599C291.428 432.716 302.192 427.307 309.13 423.358C374.76 387.039 436.111 343.228 493.22 294.648C521.673 270.289 545.788 240.945 564.653 208.563C602.716 143.533 620.589 69.0741 632.077 -4.78673Z" fill="white" fill-opacity="0.2"/>
<path d="M635.344 -4.7868C620.9 98.8841 597.083 207.964 526.548 288.963C494.455 325.026 455.502 354.064 416.751 382.508C311.604 458.97 190.468 514.786 62.1288 537.708C43.1549 540.923 23.7775 543.298 4.54112 544.138C-0.337813 544.434 -5.24455 544.429 -9.96548 544.556C-9.96548 544.555 -9.98511 540.367 -9.98511 540.367C-5.57599 540.306 0.0815017 540.239 4.36301 540.018C23.4365 539.27 42.6477 537.006 61.4832 533.901C189.479 511.628 310.39 456.533 415.529 380.807C454.302 352.616 493.305 323.818 525.466 288.012C596.234 207.45 620.427 98.6687 635.344 -4.7868Z" fill="white" fill-opacity="0.2"/>
<path d="M638.605 -4.78679C625.884 92.3321 609.621 193.203 556.158 277.266C534.971 310.821 506.456 339.034 475.407 363.476C429.015 400.371 380.586 434.876 328.629 463.567C259.525 502.145 184.942 530.667 107.793 548.343C69.1912 557.173 29.6919 563.092 -10.0295 562.258L-9.92136 558.071C9.69252 558.529 29.3562 557.445 48.8667 555.014C185.763 536.437 315.864 478.95 427.075 397.756C458.681 374.3 490.873 351.061 518.398 322.776C601.77 235.512 622.898 110.468 638.605 -4.78679Z" fill="white" fill-opacity="0.2"/>
<path d="M642.453 -4.78681C627.751 113.885 610.375 241.987 530.516 336.413C510.687 359.515 487.752 379.679 464.001 398.617C400.384 448.722 330.328 491.024 255.749 522.685C227.716 534.432 199.004 544.679 169.797 553.11C130.822 564.31 91.2203 573.719 50.8314 578.091C30.64 580.333 10.2483 581.059 -10.0969 580.034L-9.85363 575.852C10.2118 576.949 30.3885 576.324 50.4199 574.186C90.5538 570.018 130.067 560.807 168.859 549.839C202.83 540.18 236.156 528.109 268.513 513.952C337.78 483.342 403.12 443.691 462.781 397.08C486.528 378.313 509.487 358.301 529.325 335.39C609.429 241.448 627.236 113.64 642.453 -4.78681Z" fill="white" fill-opacity="0.2"/>
<path d="M646.306 -4.7868C632.053 117.038 618.351 248.257 542.343 349.272C503.932 398.69 452.718 436.139 400.406 469.614C322.046 520.647 235.58 559.437 144.464 581.009C114.185 588.445 83.428 594.448 52.344 597.23C31.6038 599.18 10.6667 599.444 -10.1611 597.766L-9.78908 593.593C10.731 595.33 31.4331 595.167 52.0008 593.318C82.8925 590.685 113.509 584.838 143.628 577.577C234.528 556.458 320.82 518.165 399.143 467.625C451.423 434.478 502.623 397.385 541.101 348.308C617.388 247.743 631.539 116.817 646.306 -4.7868Z" fill="white" fill-opacity="0.2"/>
<path d="M650.704 -4.78674C637.187 110.271 626.596 230.678 569.296 333.756C543.482 380.508 504.923 418.889 462.896 451.252C416.319 486.586 366.393 517.66 313.818 543.263C232.368 582.325 144.015 608.449 53.792 615.617C32.5492 617.119 11.1172 617.532 -10.1985 615.318L-9.75211 611.153C11.2023 613.415 32.4132 613.104 53.5206 611.698C143.314 604.936 231.384 579.267 312.598 540.727C365.109 515.423 415.045 484.622 461.621 449.591C503.609 417.529 542.147 379.496 568.041 333.05C625.681 230.331 636.726 110.085 650.704 -4.78674Z" fill="white" fill-opacity="0.2"/>
<path d="M655.102 -4.78688C641.148 113.251 632.658 235.961 579.02 344.096C544.716 412.989 484.694 464.585 421.383 506.284C312.937 578.821 186.131 626.723 55.2787 633.933C33.5301 635.099 11.578 635.482 -10.2354 632.844L-9.71598 628.685C11.6885 631.366 33.4209 631.09 55.0755 630.013C185.378 623.354 311.801 576.116 420.084 504.32C485.53 461.62 547.653 408.12 581.292 336.126C632.239 229.984 640.963 110.456 655.102 -4.78688Z" fill="white" fill-opacity="0.2"/>
<path d="M660.056 -4.78667C646.216 107.483 638.557 224.706 596.838 330.83C577.839 380.302 548.738 426.03 510.736 463.085C482.685 490.326 450.499 512.837 417.839 534.126C310.427 603.853 184.992 648.455 56.5005 653.158C34.1534 653.966 11.6478 653.942 -10.5496 650.573L-9.90513 646.432C11.9776 649.837 34.2389 649.951 56.3659 649.233C184.299 645.05 309.306 601.095 416.521 532.094C449.165 510.996 481.32 488.7 509.368 461.677C547.338 424.943 576.486 379.514 595.591 330.334C637.678 224.497 645.797 107.279 660.056 -4.78667Z" fill="white" fill-opacity="0.2"/>
<path d="M664.969 -4.78687C647.742 128.838 642.207 272.407 581.604 395.107C544.306 469.727 496.799 508.199 428.532 552.738C318.981 624.778 189.825 669.619 58.231 672.359C35.34 672.814 12.2844 672.419 -10.3533 668.362L-9.59833 664.245C12.7032 668.32 35.504 668.799 58.1599 668.434C194.947 666.142 328.932 618.01 441.453 541.285C503.412 500.464 546.27 461.639 580.202 394.396C608.49 338.465 624.502 276.966 635.835 215.563C649.112 142.702 655.395 68.5953 664.969 -4.78687Z" fill="white" fill-opacity="0.2"/>
<path d="M670.952 -4.78686C656.035 101.9 649.854 210.507 621.851 314.92C607.539 368.412 587.213 421.014 555.131 466.499C523.458 512.558 477.646 546.188 431.529 576.616C367.839 617.987 297.762 649.699 224.34 669.26C170.69 683.53 115.224 691.728 59.6541 691.674C36.2311 691.746 12.636 690.938 -10.4111 686.145L-9.54095 682.052C13.1476 686.851 36.4765 687.731 59.6493 687.749C193.279 687.862 326.502 643.285 437.48 569.741C480.982 540.942 523.613 508.729 553.635 465.441C585.762 420.255 606.222 367.85 620.685 314.603C649.059 210.34 655.64 101.798 670.952 -4.78686Z" fill="white" fill-opacity="0.2"/>
<path d="M676.84 -4.78686C659.751 107.201 654.33 221.278 626.339 331.411C613.091 383.437 594.719 434.773 565.483 480.099C535.858 527.265 491.443 562.603 445.639 593.17C337.593 665.227 209.268 708.673 79.0503 710.995C49.1017 711.138 18.8757 710.755 -10.4661 703.916L-9.48578 699.841C1.98905 702.606 13.7376 704.287 25.5469 705.358C173.91 716.984 325.093 671.18 447.996 588.645C519.558 541.188 563.586 496.084 597.106 415.913C611.033 383.119 621.115 348.368 629.438 313.735C654.162 209.053 660.26 101.26 676.84 -4.78686Z" fill="white" fill-opacity="0.2"/>
<path d="M684.349 -4.78681C653.761 163.375 657.944 382.302 554.213 523.408C531.969 552.682 504.385 577.549 474.746 599.12C375.875 671.09 257.773 716.811 135.88 728.197C99.2866 731.5 62.4046 731.668 25.8088 728.221C13.5986 726.929 1.41537 724.93 -10.5232 721.753L-9.42773 717.714C2.22081 720.856 14.1905 722.866 26.2419 724.188C62.5219 727.731 99.2345 727.695 135.55 724.547C256.899 713.651 374.68 668.512 473.361 597.215C502.941 575.844 530.423 551.25 552.652 522.215C656.55 381.915 653.205 162.986 684.349 -4.78681Z" fill="white" fill-opacity="0.2"/>
<path d="M692.361 -8.89149C687.479 15.6111 683.308 40.4727 679.646 65.1728C654.456 225.771 653.181 438.243 542.574 565.787C513.7 599.085 477.573 625.095 440.47 648.443C339.247 711.348 221.215 748.033 101.866 750.337C70.4466 750.498 38.8175 749.882 7.86504 744.03C1.66577 742.803 -4.49541 741.331 -10.5771 739.542L-9.37434 735.527C-3.44525 737.298 2.58364 738.758 8.66743 739.985C26.992 743.653 45.6911 745.095 64.3499 745.897C89.3241 747.022 114.306 746.806 139.225 744.856C245.18 736.652 348.744 702.061 439.124 646.277C454.881 636.464 470.773 625.789 485.708 614.755C593.188 538.378 628.164 412.297 648.861 288.497C665.328 189.678 672.286 89.3583 692.361 -8.89149Z" fill="white" fill-opacity="0.2"/>
<path d="M701.827 -8.95729C678.091 90.8303 671.048 193.64 655.491 294.803C643.56 370.511 627.823 447.035 594.148 516.398C571.705 562.568 539.28 604.278 497.996 635.076C395.856 712.88 270.82 760.353 142.645 769.017C117.019 770.794 91.2437 770.723 65.6144 769.257C46.3403 768.197 27.0275 766.468 8.1272 762.346C1.81363 760.963 -4.4539 759.318 -10.6277 757.331L-9.32417 753.352C-3.31025 755.309 2.81915 756.936 9.01234 758.319C27.6705 762.447 46.7699 764.224 65.8334 765.337C91.352 766.881 116.899 767.037 142.405 765.361C270.016 757.164 394.625 710.307 496.573 633.197C537.711 602.723 570.022 561.429 592.503 515.588C626.327 446.517 642.297 370.141 654.456 294.642C670.354 193.544 677.756 90.7405 701.827 -8.95729Z" fill="white" fill-opacity="0.2"/>
<path d="M710.126 -4.78687C678.623 112.126 673.98 233.861 653.007 352.706C642.213 413.724 628.026 474.735 602.453 531.436C584.281 571.568 559.774 609.61 526.687 639.085C420.424 728.832 284.041 781.822 145.294 789.541C112.6 791.378 79.7767 790.229 47.2106 787.01C35.8222 785.831 24.3497 784.15 13.1423 781.744C5.08668 779.991 -2.86889 777.837 -10.6755 775.114L-9.27599 771.165C-0.224444 774.396 9.33051 776.814 18.7672 778.74C34.7052 781.864 50.8746 783.599 67.0688 784.76C93.0506 786.729 119.084 787.261 145.1 785.879C283.201 778.663 419.102 726.349 525.173 637.391C558.147 608.197 582.566 570.541 600.789 530.677C626.482 474.216 640.843 413.341 651.817 352.497C673.178 233.735 678.24 112.006 710.126 -4.78687Z" fill="white" fill-opacity="0.2"/>
<path d="M722.195 -4.78683C658.034 189.523 687.473 441.671 572.122 613.505C534.367 669.403 476.941 708.087 417.769 738.465C322.707 787.524 215.275 812.913 108.263 810.459C76.4875 809.28 44.5729 807.246 13.4797 800.18C5.28012 798.229 -2.80702 795.859 -10.7217 792.898L-9.22974 788.984C-1.53224 791.898 6.41256 794.25 14.4296 796.183C45.1548 803.279 76.9231 805.391 108.367 806.666C214.817 809.454 321.782 784.521 416.522 736.018C475.465 705.993 532.683 667.764 570.4 612.308C685.911 441.482 657.495 188.883 722.195 -4.78683Z" fill="white" fill-opacity="0.2"/>
<path d="M734.246 -4.78676C685.923 123.758 684.619 262.953 660.379 396.805C646.168 477.121 625.645 558.435 581.433 627.967C566.676 650.962 549.539 672.664 529.565 691.363C499.402 719.33 463.694 740.458 427.229 759.085C327.045 810.83 212.969 836.063 100.29 830.037C72.9969 828.278 45.579 825.903 18.8331 819.835C8.84359 817.448 -1.21602 814.528 -10.7656 810.669L-9.18627 806.791C0.110642 810.579 9.9816 813.499 19.7654 815.85C46.2013 821.936 73.4618 824.389 100.512 826.214C212.589 832.562 326.148 807.797 425.988 756.631C462.307 738.226 497.896 717.331 527.962 689.64C547.859 671.126 564.932 649.634 579.668 626.836C623.958 557.671 644.661 476.627 659.093 396.576C683.751 262.821 685.516 123.59 734.246 -4.78676Z" fill="white" fill-opacity="0.2"/>
<path d="M750.408 -4.78686C653.696 208.556 710.677 527.117 543.697 704.491C513.163 735.94 475.417 759.288 436.779 779.441C337.732 831.414 224.553 856 112.856 850.639C84.9933 848.945 56.9003 846.468 29.5256 840.814C15.7896 837.942 2.20041 834.022 -10.8098 828.482L-9.14076 824.64C3.50393 830.073 16.8278 833.969 30.3707 836.847C57.4986 842.537 85.4085 845.086 113.056 846.851C224.127 852.524 336.821 828.398 435.517 776.999C473.987 757.086 511.585 734.007 542.021 702.857C708.864 526.698 653.163 207.755 750.408 -4.78686Z" fill="white" fill-opacity="0.2"/>
<path d="M767.096 -4.78685C656.717 204.619 716.355 526.45 561.541 713.047C530.315 750.157 489.182 777.31 446.648 799.779C345.576 853.355 229.319 877.541 115.237 870.69C86.7056 868.667 58.123 865.849 30.1525 859.65C16.1255 856.437 2.29256 852.224 -10.8521 846.265C-10.8523 846.265 -9.09929 842.465 -9.09929 842.465C3.74381 848.323 17.3026 852.5 31.0587 855.695C58.7795 861.93 87.1759 864.802 115.482 866.902C228.939 874.064 344.662 850.334 445.369 797.343C487.705 775.15 528.678 748.296 559.779 711.563C714.548 526.191 656.233 203.77 767.096 -4.78685Z" fill="white" fill-opacity="0.2"/>
<path d="M788.505 -4.78675C753.926 42.7645 737.687 100.38 724.038 156.799C707.087 227.219 697.519 300.787 687.036 372.496C669.941 488.857 652.607 611.034 584.956 710.378C569.384 732.972 551.543 754.19 530.458 771.859C519.189 781.254 507.078 789.511 494.798 797.487C433.18 836.99 364.075 864.455 292.408 879.108C220.732 893.852 146.528 896.503 74.081 885.906C52.3399 882.776 30.6451 878.355 9.77819 871.324C2.81226 868.984 -4.08331 866.358 -10.7944 863.264L-9.15859 859.734C-2.62061 862.773 4.13986 865.37 11.0018 867.698C31.6462 874.711 53.0348 879.126 74.6058 882.298C146.65 893.038 220.448 890.603 291.801 876.129C363.175 861.744 432.045 834.585 493.486 795.441C505.694 787.56 517.792 779.363 528.978 770.088C551.289 751.444 570.162 728.814 586.273 704.658C651.631 606.432 668.774 486.66 685.953 372.337C696.622 300.649 706.411 227.1 723.566 156.685C737.376 100.29 753.782 42.6747 788.505 -4.78675Z" fill="white" fill-opacity="0.2"/>
<path d="M813.45 -4.78683C771.925 39.1025 751.275 97.6575 735.401 154.854C712.412 238.085 700.649 333.99 687.85 419.749C670.737 537.181 648.071 660.284 573.278 756.135C560.731 772.47 546.447 787.794 529.648 799.892C413.286 886.025 263.916 922.513 120.454 910.636C90.558 908.051 60.7186 903.527 31.7811 895.42C17.296 891.255 3.00585 886.54 -10.7336 880.269C-10.7336 880.263 -9.21693 877.014 -9.21693 877.014C4.25538 883.207 18.4801 887.946 32.7263 892.069C61.4025 900.188 91.0708 904.76 120.737 907.393C263.515 919.575 412.299 883.602 528.354 798.145C545.031 786.19 559.157 771.117 571.681 754.902C646.521 659.453 669.355 536.713 686.743 419.584C699.685 333.816 711.742 238.073 734.97 154.734C750.994 97.5497 771.799 39.0067 813.45 -4.78683Z" fill="white" fill-opacity="0.2"/>
<path d="M848.711 -4.78675C792.825 38.205 773.211 83.8116 751.676 148.41C735.76 191.773 725.576 237.014 717.6 282.435C704.286 357.684 694.922 435.306 681.627 510.493C667.338 589.812 646.623 669.637 604.66 739.225C590.775 762.358 574.889 784.455 555.85 803.656C544.947 814.63 532.881 824.377 520.268 833.269C403.824 913.089 257.639 944.275 118.009 930.082C89.2552 926.995 60.5497 922.196 32.7741 913.987C17.9431 909.511 3.30044 904.485 -10.6987 897.771L-9.254 894.815C4.49457 901.445 19.0725 906.495 33.6791 910.929C63.0712 919.653 93.5645 924.679 124.056 927.671C246.132 939.261 372.64 916.051 479.959 855.868C521.071 833.37 557.1 805.894 584.116 767.138C666.512 653.05 680.974 508.626 702.072 373.472C713.95 298.082 724.672 220.093 751.287 148.272C772.96 83.7578 792.687 38.1033 848.711 -4.78675Z" fill="white" fill-opacity="0.2"/>
<path d="M893.899 -4.78684C849.932 20.9663 816.263 47.0187 791.581 92.4577C753.178 162.381 734.785 241.185 720.586 319.102C694.354 459.028 688.957 606.684 623.808 735.952C609.31 764.302 591.877 791.366 570.89 815.354C560.451 827.435 549.142 838.827 536.404 848.485C432.995 923.806 302.543 956.912 175.585 953.855C127.823 952.329 79.8594 946.513 34.0181 932.625C18.7569 927.82 3.67784 922.453 -10.657 915.261L-9.29638 912.598C4.80373 919.707 19.8217 925.092 34.8731 929.855C80.4213 943.755 128.163 949.63 175.657 951.24C278.656 953.992 383.188 932.787 474.624 884.607C504.159 868.613 533.905 851.608 557.47 827.327C594.941 788.859 622.24 741.499 642.058 691.835C700.337 542.782 698.889 379.204 740.122 225.687C752.478 179.692 768.017 134.007 791.335 92.3201C799.239 78.5161 807.999 65.1189 818.524 53.1638C839.748 29.3254 866.518 11.2431 893.899 -4.78684Z" fill="white" fill-opacity="0.2"/>
<path d="M947.404 -2.09421C902.402 17.7412 858.794 43.65 826.501 81.3822C783.611 131.877 761.621 196.23 744.628 259.327C732.332 307.171 723.667 355.865 715.679 404.592C694.785 533.688 681.669 669.206 614.198 784.18C597.275 812.44 577.15 839.186 552.481 861.164C535.448 876.206 516.557 888.999 496.825 900.2C387.31 962.615 256.987 984.299 132.315 970.878C99.5387 967.228 66.8476 961.322 35.3818 951.294C19.6532 946.148 4.10022 940.44 -10.6072 932.769L-9.34477 930.388C5.14433 937.981 20.6447 943.701 36.1774 948.811C67.4376 958.833 99.9905 964.775 132.586 968.455C256.786 982.043 386.705 960.646 495.935 898.639C501.313 895.629 506.592 892.452 511.81 889.173C612.338 827.614 656.293 708.96 681.304 599.126C709.798 470.639 716.906 337.406 758.067 211.794C794.315 103.031 840.724 44.3082 947.404 -2.09421Z" fill="white" fill-opacity="0.2"/>
<path d="M926.3 35.5124C872.113 66.4414 828.068 99.3509 798.366 155.578C699.996 346.382 729.286 575.095 639.066 768.802C610.776 830.361 566.956 886.546 507.199 920.036C470.475 941.391 431.061 958.019 390.347 970.076C386.24 971.243 382.286 972.547 378.283 973.977C335.732 989.056 172.131 1048.92 127.181 1065.25C77.1009 1083.25 -2.60564 1112.71 -52.4841 1129.7C-56.559 1131.02 -60.5815 1132.51 -64.7791 1133.53L-65.2327 1131.18C-61.1776 1130.15 -57.2226 1128.76 -53.2402 1127.44C-3.67099 1110.55 76.0981 1081.4 126.467 1063.29C172.68 1046.69 334.654 987.464 377.721 972.374C381.711 970.956 385.814 969.609 389.87 968.467C430.483 956.506 469.806 939.985 506.45 918.743C566.031 885.463 609.705 829.583 637.989 768.293C728.424 574.795 699.494 346.058 798.144 155.459C827.937 99.2611 872.059 66.3756 926.3 35.5124Z" fill="white" fill-opacity="0.2"/>
<path d="M908.624 74.9678C866.572 100.464 829.696 135.803 806.791 179.656C790.982 208.473 778.614 239.072 768.406 270.283C722.339 411.314 718.719 561.94 676.583 703.94C652.876 781.882 617.525 860.625 554.104 914.256C515.956 945.927 469.026 964.853 421.973 979.01C420.467 979.399 414.67 981.182 413.086 981.583C409.104 982.959 402.305 985.592 398.715 986.944C304.543 1023.17 147.938 1084.03 53.9264 1120.38C30.0504 1129.54 -11.2458 1145.65 -35.246 1154.63C-35.2462 1154.63 -36.7016 1155.16 -36.7016 1155.16L-37.4356 1155.42L-38.2422 1155.69L-38.7798 1153.66C-38.0629 1153.44 -36.7016 1152.93 -35.9675 1152.66C-11.8136 1143.67 28.5964 1127.97 53.2198 1118.55C147.27 1082.35 303.982 1021.64 398.191 985.574C400.73 984.742 410.377 980.817 412.693 980.194C414.298 979.794 419.819 978.106 421.565 977.633C468.474 963.59 515.258 944.802 553.31 913.304C616.616 859.901 651.948 781.403 675.715 703.677C718.019 561.777 721.848 411.136 768.107 270.187C778.363 238.971 790.773 208.377 806.623 179.566C829.594 135.737 866.53 100.416 908.624 74.9678Z" fill="white" fill-opacity="0.2"/>
<path d="M893.959 115.512C869.044 135.396 844.409 156.661 825.92 182.857C807.664 209.251 795.242 239.091 783.898 268.96C769.681 306.393 759.06 345.089 750.18 384.1C719.545 518.444 712.089 658.974 660.08 787.812C642.854 830.438 620.768 871.689 590.689 906.681C574.996 924.9 556.926 941.218 536.528 954.028C521.729 963.429 506.392 971.991 490.657 979.716C451.86 995.04 377.463 1023.33 337.94 1038.6C240.281 1076.06 86.8691 1134.84 -9.6295 1171.97L-15.2278 1174.14L-20.7762 1176.32L-21.5071 1174.68C-18.4143 1173.41 -13.4557 1171.57 -10.2704 1170.31C85.7029 1133.48 239.904 1074.67 337.459 1037.34C377.428 1022 451.15 993.98 490.15 978.687C505.858 970.992 521.169 962.465 535.945 953.107C556.279 940.368 574.265 924.164 589.929 906.022C621.289 869.625 643.954 826.435 661.528 781.924C711.676 654.624 719.479 516.395 749.839 384.021C758.761 345.005 769.429 306.31 783.694 268.883C795.081 239.019 807.539 209.179 825.842 182.797C844.361 156.613 869.008 135.384 893.959 115.512Z" fill="white" fill-opacity="0.2"/>
<path d="M880.358 161.382C874.656 166.708 869.014 172.081 863.419 177.52C852.308 188.47 842.423 200.61 833.573 213.451C794.429 271.994 773.696 340.583 757.139 408.423C714.596 581.406 708.08 855.126 551.506 966.205C549.603 967.545 547.716 968.934 545.763 970.202C544.345 970.944 542.883 971.584 541.43 972.236C429.786 1019.94 276.327 1081.4 162.928 1128.3C116.452 1147.39 41.2603 1178.03 -4.68088 1197.4C-4.68111 1197.4 -7.35831 1198.56 -7.35831 1198.56C-8.22963 1198.95 -9.17324 1199.35 -9.9417 1199.75L-10.6841 1198.45C-9.18909 1197.7 -6.82257 1196.7 -5.26825 1196.03C40.4993 1176.74 115.642 1146.31 162.434 1127.09C276.449 1079.96 428.943 1019.17 541.066 971.423C542.589 970.722 544.154 970.082 545.61 969.257C547.411 968.006 549.213 966.761 550.991 965.487C707.344 854.809 714.183 581.184 756.876 408.36C773.504 340.518 794.309 271.934 833.519 213.421C842.387 200.587 852.284 188.452 863.413 177.508C869.002 172.075 874.656 166.702 880.358 161.382Z" fill="white" fill-opacity="0.2"/>
<path d="M42.2886 970.531C35.3322 968.335 28.4423 965.948 21.6367 963.339C11.2975 959.378 0.309577 954.866 -9.97534 949.206" fill="white" fill-opacity="0.2"/>
<path d="M42.2886 970.531C35.3322 968.335 28.4423 965.948 21.6367 963.339C11.2975 959.378 0.309577 954.866 -9.97534 949.206" stroke="white" stroke-opacity="0.2" stroke-width="5.33333" stroke-miterlimit="10"/>
<path d="M869.564 204.051C849.459 226.633 831.497 251.387 817.417 278.187C768.945 375.511 751.569 484.139 732.218 590.107C711.03 705.927 686.869 834.615 616.017 931.321C605.72 945.256 594.392 958.45 581.977 970.549C581.909 970.764 286.679 1087.47 286.557 1087.61C206.472 1119.5 79.8049 1169.55 0.830934 1201.72L-3.74601 1203.63L-6.02303 1204.6C-6.77612 1204.93 -7.54069 1205.26 -8.22107 1205.6L-8.81494 1204.56C-6.32361 1203.33 -2.22441 1201.74 0.376089 1200.62C78.9151 1168.63 206.077 1118.54 286.179 1086.66C286.103 1086.67 582.057 969.597 581.38 969.933C593.774 957.876 605.085 944.736 615.371 930.842C641.77 895.174 661.456 854.959 676.804 813.427C703.449 741.283 718.121 665.508 731.805 590.032C751.269 484.074 768.765 375.432 817.34 278.151C831.455 251.357 849.429 226.627 869.564 204.051Z" fill="white" fill-opacity="0.2"/>
<path d="M858.997 251.429C849.465 264.335 840.358 277.589 832.131 291.375C812.577 326.444 797.983 364.069 785.932 402.313C743.796 536.524 735.245 678.935 690.764 812.518C681.956 839.198 671.569 865.394 658.86 890.477C644.326 919.132 626.901 946.555 605.606 970.686C508.44 1009.11 256.855 1108.74 162.837 1146.18C125.694 1160.95 61.5031 1186.54 24.7065 1201.59C24.706 1201.59 20.1291 1203.49 20.1291 1203.49C18.625 1204.14 17.048 1204.77 15.6391 1205.47L15.1936 1204.69C17.7801 1203.43 21.6914 1201.9 24.365 1200.76C61.0675 1185.67 124.907 1160.46 162.53 1145.4C255.41 1108.44 508.997 1008.19 605.367 970.088C625.956 946.513 644.044 918.672 658.363 890.226C671.084 865.179 681.483 839.013 690.303 812.362C734.887 678.833 743.563 536.437 785.806 402.274C797.893 364.033 812.517 326.42 832.107 291.357C840.34 277.577 849.453 264.329 858.997 251.429Z" fill="white" fill-opacity="0.2"/>
<path d="M848.849 300.817C749.708 468.816 754.716 672.347 690.142 852.679C675.105 894.378 655.485 934.66 629.426 970.627C629.397 970.74 334.263 1087.42 334.195 1087.49C254.181 1119.32 127.497 1169.33 48.5823 1201.45L44.0084 1203.36C43.2495 1203.69 42.4789 1204 41.7295 1204.33L39.499 1205.34L39.2021 1204.82C41.629 1203.67 45.8109 1201.97 48.3554 1200.9C126.834 1168.96 253.979 1118.9 334.027 1087.07C334.002 1087.07 629.504 970.25 629.169 970.435C655.228 934.51 674.854 894.259 689.896 852.589C754.548 672.305 749.642 468.75 848.849 300.817Z" fill="white" fill-opacity="0.2"/>
<path d="M836.714 360.539C826.321 385.133 815.85 409.735 806.719 434.836C797.684 459.971 789.965 485.571 783.114 511.387C753.124 624.317 739.685 741.313 703.323 852.607C693.875 881.101 682.722 909.176 668.906 935.838C662.755 947.71 656.137 959.36 648.909 970.597C552.351 1009.05 302.886 1108.52 209.486 1145.96C172.513 1160.78 108.991 1186.26 72.3926 1201.32L67.8481 1203.23C66.345 1203.87 64.8072 1204.49 63.3592 1205.21L63.2102 1204.95C65.6395 1203.78 69.7203 1202.12 72.2783 1201.05C108.752 1185.96 172.017 1160.77 209.388 1145.72C301.662 1108.73 553.146 1008.57 648.855 970.465C655.88 959.384 662.707 947.59 668.786 935.779C682.602 909.128 693.768 881.053 703.21 852.571C739.596 741.29 753.064 624.305 783.084 511.378C789.941 485.564 797.666 459.965 806.707 434.831C815.844 409.732 826.315 385.132 836.714 360.539Z" fill="white" fill-opacity="0.2"/>
<rect y="666" width="1600" height="300" fill="url(#paint0_linear_391_1154)"/>
</g>
<defs>
<linearGradient id="paint0_linear_391_1154" x1="1010" y1="966" x2="1010" y2="666" gradientUnits="userSpaceOnUse">
<stop/>
<stop offset="1" stop-opacity="0"/>
</linearGradient>
<clipPath id="clip0_391_1154">
<rect width="1600" height="965.744" fill="white" transform="translate(-1)"/>
</clipPath>
</defs>
</svg>
