<svg fill="none" viewBox="0 0 1600 971" xmlns="http://www.w3.org/2000/svg" xmlns:xlink="http://www.w3.org/1999/xlink"><linearGradient id="a" gradientUnits="userSpaceOnUse" x1="1010" x2="1010" y1="971" y2="671"><stop offset="0"/><stop offset="1" stop-opacity="0"/></linearGradient><clipPath id="b"><path d="m0 0h1600v971h-1600z"/></clipPath><clipPath id="c"><path d="m-97 0h1795v1081h-1795z"/></clipPath><g clip-path="url(#b)"><path d="m0 0h1600v971h-1600z" fill="#000"/><g clip-path="url(#c)"><g fill="#fff" fill-opacity=".2"><path d="m1908.15 1079.32c-82.21 26.01-172.45 34.61-261.11 32.82-83.37-1.86-166.26-11.98-246.97-27.59-80.67-16.2-157.37-41.31-235.13-63.74-54.46-15.36-110.09-28.559-166.908-37.958-10.793-1.811-25.825-3.94-36.641-5.555-7.436-.935-21.274-2.718-28.663-3.647-139.796-16.108-282.384-13.777-422.847-3.49-99.332 7.414-197.726 21.277-294.892 38.37-129.8504 22.39-257.1651 52.73-387.881 72.39 85.3299-13.73 173.631456-32.42 257.9916-50.01 155.2174-31.88 313.2984-58.812 474.1074-67.754 134.189-8.042 270.321-7.887 403.132 10.229 58.791 8.152 116.711 20.233 173.011 35.295 99.06 26.83 194.93 61.44 298 78.99 155.28 26.68 323.94 37.28 474.8-8.35z"/><path d="m1908.16 1036.26c-174.93 64.85-407.04 47.58-586.61.37-42.01-10.77-82.73-24.97-124.12-36.966-77.54-22.604-157.62-40.973-239.764-51.058-115.027-14.388-232.425-14.965-348.542-8.994-44.115 2.313-88.735 5.527-132.54 10.056-221.08 21.219-432.2963 77.042-649.141 113.282 65.078-11.03 129.4309-24.3 193.6038-37.98 133.3102-28.698 268.5632-56.223 405.3822-73.173 60.278-7.495 121.398-12.745 182.34-15.999 116.48-6.121 234.352-5.665 349.761 8.885 82.49 10.188 162.91 28.656 240.66 51.56 41.3 12.077 81.94 26.327 123.84 37.207 178.71 47.61 409.89 65.85 585.13 2.81z"/><path d="m1909.37 999.324c-46.23 19.486-97.03 32.586-148.97 40.116-112.59 16.22-229.28 9.18-340.43-10-54.34-9.64-107.58-22.82-158.85-39.486-81.72-26.394-166.16-48.6-253.29-62.204-263.136-38.603-535.305-9.122-792.599 39.86-129.7175 24.283-256.8127 56.24-387.449 77.78 173.47152-31.04 341.845-76.563 516.677-103.725 87.102-14.088 175.655-24.773 264.416-30.277 238.262-15.756 434.365 1.708 654.105 75.33 122.34 39.842 255.93 61.022 389.32 59.532 88.78-1.29 178.53-14.74 257.07-46.926z"/><path d="m1908.17 964.373c-77.7 33.076-166.52 50.887-255.66 52.577-86.39 1.23-173.11-6.5-256.9-22.444-18.86-3.542-37.82-7.592-56.4-11.936-15.58-3.71-32.37-7.881-47.57-12.122-93.59-26.4-186.48-56.141-284.99-70.379-65.301-9.843-132.173-14.216-198.694-15.375-77.643-1.074-155.906 2.423-233.034 9.144-77.232 6.623-154.258 17.267-230.099 30-174.181 28.593-342.88565 73.195-516.67 102.952 130.1267-23.2 256.9741-55.366 386.048-81.524 193.296-39.878 392.792-67.363 593.854-64.565 55.643.889 111.699 4.183 166.654 10.979 55.141 6.641 109.301 17.51 162.051 31.275 68.61 17.337 134.84 39.89 203.77 56.453 100.66 24.022 206.26 36.542 311.94 35.572 88.87-1.05 177.67-18.379 255.7-50.607z"/><path d="m-171.461 1007.77c212.8553-38.949 419.427-96.734 635.032-127.357 180.669-25.651 368.427-36.976 550.109-10.408 73.53 10.76 144.23 30.341 213.85 50.655 22.62 6.622 50.49 14.867 73.2 21.086 50.3 13.316 102.17 23.891 154.71 30.82 78.14 10.298 158.96 13.033 237.53 8.083l7.04-1.062c1.18-.167 2.35-.375 3.53-.508l3.55-.392c51.86-5.562 103.18-15.531 150.88-32.077 17.34-6 34.15-12.883 50.2-20.677-15.93 7.938-32.64 14.982-49.91 21.15-43.22 15.427-89.65 25.339-136.69 31.471-5.75.814-11.86 1.437-17.66 2.147-1.92.265-8.41 1.309-10.54 1.644-129.19 9.069-260.75-3.116-383.53-34.639-4.28-1.09-10.04-2.504-14.16-3.675-8.19-2.302-20.07-5.504-28.05-7.858-78.71-22.795-157.78-46.639-240.38-60.064-58.225-9.393-117.762-14.429-177.229-16.368-74.431-2.302-149.243.243-223.307 6.047-28.111 2.163-60.853 5.359-88.761 8.544-241.83 27.006-471.9631 91.939-709.414 133.438z"/><path d="m-171.105 990.277c289.337-55.2 571.045-141.209 871.194-157.721 114.277-6.444 230.612-4.003 342.641 15.399 81.96 14.233 159.83 38.856 238.1 61.425 9 2.562 22.44 6.272 31.5 8.476 4.47 1.13 11.38 2.948 15.89 3.934 5.23 1.177 18.84 4.431 24.03 5.458 18.23 3.854 38.25 7.765 56.8 10.644 12.62 2.129 28.34 4.246 41.08 5.914 6.03.692 18.82 2.123 24.82 2.798 55.14 5.429 111.48 7.264 166.99 4.558 11.55-.41 26.06-1.489 37.54-2.279l2.08-.144 2.07-.208 8.29-.837c2.77-.294 5.54-.525 8.3-.865 10.48-1.379 22.44-3.029 32.83-4.846 32.6-5.47 64.88-13.091 95.43-23.285l3.84-1.275c1.27-.421 2.56-.837 3.81-1.304l7.55-2.729 3.78-1.361 3.72-1.454c19.89-7.662 39.01-16.495 56.99-26.522-17.82 10.195-36.81 19.206-56.61 27.064-42.13 16.644-87.96 27.848-134.48 35.002-4.33.727-12.01 1.731-16.52 2.383-5.49.652-13.12 1.437-18.7 2.042-3.64.289-18.95 1.431-22.99 1.743-7.54.577-17.49.929-25.13 1.373-75.32 3.271-151.7-.987-225.54-12.739-20.11-3.04-41.44-7.229-61.2-11.331-5.36-1.217-18.78-4.263-24.15-5.481-5.75-1.407-14.15-3.571-19.94-5.013-55.29-14.712-109.48-32.204-165.02-46.224-29.02-7.442-58.43-14.175-88.19-19.667-13.31-2.418-27.44-4.593-40.86-6.612-120.709-16.95-244.984-16.154-366.704-5.994-278.78 22.777-541.981 100.686-813.241 149.678z"/><path d="m1908.35 844.014c-91.88 56.891-212.8 79.767-329.85 81.728l-8.42.173c-2.32.052-6.04.012-8.43 0l-16.85-.08c-1.41.011-2.81-.041-4.21-.087-2.35-.063-10.1-.306-12.63-.375-5.33-.15-11.71-.34-16.83-.681-6.64-.363-19-.98-25.2-1.563-6.26-.531-14.77-1.114-20.94-1.748-7.96-.871-21.38-2.135-29.19-3.231-6.23-.842-14.62-1.812-20.75-2.746-7.82-1.235-21.2-3.156-28.86-4.604-7.68-1.396-17.02-2.937-24.56-4.541-6.18-1.269-18.6-3.698-24.37-5.094-5.07-1.16-13.13-2.988-18.16-4.137-11.64-2.936-26.41-6.617-37.81-9.928-83.7-23.845-166.53-50.603-254.51-64.132-11.05-1.858-25.89-3.773-37.063-5.267-9.149-.993-19.866-2.36-29.038-3.197l-16.645-1.546c-1.385-.121-2.769-.265-4.161-.375-7.665-.548-17.373-1.292-25.038-1.829-7.565-.375-21.709-1.275-29.29-1.523-5.699-.196-15.169-.571-20.937-.773-6.555-.156-15.176-.306-20.967-.438-9.271-.197-20.088-.122-29.359-.202-5.745.052-19.461.219-25.167.271-6.334.144-14.703.386-20.968.536-187.83 5.833-371.334 41.095-550.973 80.811-107.56 23.81-214.49996 49.31-322.805 71.188-21.663 4.367-43.371 8.607-65.131 12.686 313.498-61.524 619.468-160.167 947.117-168.867 11.131-.375 26.652-.491 37.904-.623 9.325.069 20.187.005 29.489.184 4.085.104 17.609.335 21.059.421 5.99.225 15.024.548 21.044.785 2.165.069 6.281.254 8.415.387 6.464.369 19.116.998 25.213 1.465 6.15.444 14.878 1.108 20.975 1.552 5.599.508 19.491 1.817 25.098 2.336 9.225 1.074 19.981 2.181 29.168 3.399 3.519.461 17.69 2.417 20.75 2.815 2.39.369 9.83 1.563 12.38 1.962 88.22 13.569 171.34 40.639 255.05 64.702 11.35 3.312 26.03 7.022 37.58 9.952 7.33 1.697 16.73 3.866 24.05 5.568 6.14 1.246 20.1 4.223 26.3 5.394 5.63 1.027 14.71 2.677 20.38 3.715 7.45 1.281 21.23 3.427 28.73 4.547 7.32.94 17.4 2.377 24.78 3.259l16.61 1.8 4.15.45c1.39.15 2.76.312 4.16.416 7.29.577 17.63 1.546 25.01 2.059l16.72.998 4.19.248c1.39.087 2.78.179 4.18.214 7.17.214 17.85.687 25.14.836l16.78.162 4.19.041c1.4.011 2.8.034 4.2 0l8.39-.133 8.39-.139 4.19-.063c112.65-2.85 228.15-25.189 317.33-79.138z"/><path d="m1908.16 800.802c-81.99 57.52-192.58 87.146-302.97 94.357-8.11.416-21.53 1.322-29.53 1.5-6.37.15-14.86.508-21.14.566-2.58.011-18.19.052-21.14.063-8.06-.115-17.25-.369-25.37-.536-12.07-.514-30.05-1.46-42.17-2.493-7.69-.496-17.47-1.575-25.2-2.325-2.61-.271-5.86-.554-8.37-.888-24.72-2.919-50.32-6.739-74.59-11.475-12.59-2.418-28.16-5.798-40.69-8.735-7.38-1.737-16.69-4.194-24.1-6.041-50.11-13.886-99.73-29.209-150.41-41.74-145.35-38.02-295.909-47.297-448.449-35.066-297.333 25.356-576.244 113.067-864.464 168.631 43.436-8.885 86.6547-18.364 129.7437-28.16 236.6303-53.891 470.8583-119.569 717.3633-142.923 78.324-7.102 157.734-8.671 236.372-3.525 10.051.75 23.835 1.742 33.642 2.734 112.452 9.474 219.522 38.914 324.082 70.138 62.75 18.317 128.54 31.027 195.48 36.491 11.81 1.05 30.03 2.077 41.94 2.619 7.69.19 17.46.525 25.24.663l16.83.029 4.21.006c6.75-.035 14.46-.335 21.04-.462 9.16-.178 16.87-.767 25.22-1.136l4.2-.214c1.39-.086 2.79-.207 4.18-.311 108.72-6.935 217.45-35.92 299.05-91.767z"/><path d="m1908.17 756.65c-70.56 55.783-166.52 91.536-266.69 105.065-47.39 6.265-95.91 8.671-143.99 7.396-8-.369-17.57-.664-25.48-1.119-4.13-.289-17.7-1.195-21.19-1.437-5.97-.513-15.07-1.419-21.11-1.967-9.67-1.01-23.99-2.7-33.59-4.125-7.47-1.097-17.61-2.51-25-3.877-33.08-5.585-66.1-12.999-97.73-22.137-41.53-11.966-84.78-25.622-126.6-36.837-37.17-10.027-74.89-19.114-113.48-25.402-32.83-5.522-66.695-9.479-100.192-11.891l-8.422-.629-2.104-.161-2.111-.116c-11.306-.646-26.674-1.482-37.995-1.788-18.451-.721-38.615-.796-57.104-.768-56.982.531-114.361 4.35-170.685 10.91-260.436 30.583-506.827 104.644-759.396 158.65-21.759 4.685-43.562 9.248-65.417 13.668 21.783-4.616 43.51-9.375 65.19-14.256 335.939-73.04 701.041-198.366 1055.485-168.147 30.858 2.729 61.951 6.837 92.201 12.058 35.88 6.387 71.13 14.799 105.74 24.289 39.07 10.621 79.98 23.325 118.64 34.864 44.62 13.217 90.89 23.221 138.07 29.654 0 .006 16.69 2.066 16.69 2.066l4.18.519c7.75.808 17.4 1.731 25.17 2.458 68.58 5.607 138.66 3.802 206.37-6.347 93.95-14.475 183.26-48.687 250.55-100.593z"/><path d="m1912.23 707.686c-57.75 53.51-137.19 93.099-223.97 114.491-65.33 15.964-134.76 21.508-203.23 20.026-61.51-1.731-122.63-9.935-181.24-24.093-4.1-1.061-18.12-4.644-22.35-5.746-3.53-1.016-10.43-2.977-14.05-4.01-58.37-17.221-116.69-34.823-176.81-48.289-35.25-8.06-71.61-14.417-107.939-19.044-75.792-9.375-153.182-11.25-229.701-6.652-45.324 2.705-90.571 8.106-135.168 14.74-245.074 36.353-482.559 107.759-721.771 160.508-21.894 4.869-43.832 9.623-65.822 14.239 21.916-4.812 43.776-9.756 65.589-14.822 240.125-54.918 474.241-126.59 721.025-163.675 44.704-6.75 90.234-12.162 135.719-14.919 76.947-4.696 154.789-2.856 230.994 6.663 36.534 4.679 73.134 11.106 108.564 19.229 60.26 13.524 118.59 31.328 177.02 48.693 3.53 1.016 10.43 3.006 13.94 4.016 4.21 1.096 18.05 4.684 22.19 5.752 58.19 14.175 118.83 22.592 179.94 24.508 68.1 1.702 137.17-3.444 202.3-18.999 86.8-20.74 166.31-59.816 224.77-112.616z"/><path d="m1907.66 665.033c-6.67 7.033-13.78 13.818-21.3 20.348-3.46 3.099-7.73 6.906-11.36 9.733-3.72 3.029-8.05 6.635-11.8 9.439-.01 0-12.27 9.098-12.27 9.098-5.17 3.629-10.73 7.275-15.97 10.875-1.69 1.062-8 5.025-9.94 6.208-7.18 4.604-16.33 9.641-23.81 13.91-5.96 3.058-11.78 6.184-17.73 9.208l-14.57 6.917c-1.22.565-2.42 1.177-3.66 1.702-2.12.883-8.96 3.877-11.23 4.835-4.04 1.817-10.84 4.534-15.15 6.167-5.12 1.967-10.17 4.039-15.42 5.787-51.71 18.738-108.43 29.862-165.39 34.315-68.47 5.62-138.53 2.141-205.57-9.634-33.51-5.718-66.72-13.887-98.63-23.383-74.1-22.368-149.28-44.937-227.14-58.501-44.561-7.667-89.938-12.45-135.552-14.562-68.471-3.029-137.31-.057-204.993 8.245-67.615 8.682-134.697 20.648-200.827 34.344-218.978 46.01-436.2618 110.702-654.893 157.623 175.7179-39.715 347.469-88.333 521.916-131.038 91.381-22.275 183.895-42.179 277.962-56.989 85.66-13.754 173.63-20.21 261.148-16.212 45.913 2.152 91.573 7.004 136.419 14.747 67.19 11.746 131.92 30.052 195.82 49.327 19.04 5.631 44.95 13.921 64.02 18.698 18.36 4.904 38.5 9.341 57.43 12.924 4.16.727 12.51 2.25 16.67 2.982 4.76.825 11.95 1.824 16.78 2.585 5.66.975 19.44 2.573 25.32 3.323 2.53.352 5.91.664 8.48.912 47.93 4.99 97.12 5.734 145.28 1.99 45.3-3.352 90.64-10.892 133.2-23.175l15.91-4.823c.66-.202 1.33-.398 1.98-.612l1.96-.663 3.9-1.333 7.81-2.665c7.81-2.556 15.46-5.764 23.08-8.579 6.06-2.429 12.77-5.395 18.73-7.864 7.29-3.231 12.12-5.688 18.28-8.469 5.96-2.977 11.85-6.064 17.78-9.064 5.24-2.879 12.06-6.767 17.23-9.635 4-2.515 12.47-7.552 16.66-10.205 5.22-3.56 10.85-7.16 16.05-10.749l12.35-8.994c5.49-3.975 7.09-5.585 11.94-9.317l2.96-2.349c.98-.784 1.99-1.557 2.9-2.388 9.31-8.008 18.97-16.379 27.24-25.039z"/><path d="m1908.25 615.293c-12.55 14.616-25.75 29.115-40.63 42.465l-5.55 5.048c-2.86 2.717-8.42 7.05-11.59 9.762-1.96 1.575-3.96 3.363-5.92 4.8-44.26 34.541-97.79 62.614-156.16 81.814-71.17 23.626-149.9 32.885-227.34 31.247-6.31-.237-15.44-.594-21.75-.837-3.72-.248-11.34-.756-15.18-1.015-2.62-.191-6.14-.369-8.68-.635-1.66-.127-18.31-1.771-19.45-1.852-5.67-.68-13.65-1.69-19.34-2.382-2.64-.289-10.06-1.466-12.83-1.875-5.05-.745-12.15-1.806-17.04-2.752-2.96-.514-9.89-1.795-12.71-2.291-2.66-.456-18.06-3.681-21.02-4.304-4.85-.946-11.79-2.775-16.66-3.865-4.83-1.039-11.71-2.902-16.52-4.171-37.99-10.16-75.46-22.881-113.17-33.537-55.24-15.993-111.56-30.295-169.596-39.053-5.507-.784-13.593-1.944-19.124-2.734-25.993-3.318-53.088-5.943-79.41-7.264-74.79-4.079-150.344-.029-223.864 10.991-62.237 9.461-124.016 21.617-184.86 35.285-177.203 40.529-350.184 90.999-526.4932 133.617-44.0354 10.794-88.2508 21.179-132.6728 31.039 44.257-10.264 88.3139-21.006 132.2292-32.055 225.4438-55.604 445.0948-126.024 676.7618-166.259 87.595-15.335 178.227-21.86 267.964-16.149 23.606 1.419 47.963 3.889 71.256 6.871 7.397 1.097 16.171 2.262 23.519 3.422 79.62 12.461 155.64 35.008 230.61 58.229 17.83 5.596 38.36 11.747 56.57 16.408 14.22 3.571 31.02 7.379 45.6 10.189 2.86.536 9.72 1.759 12.62 2.296 8.84 1.679 18.55 2.988 27.49 4.413 6.51.825 14.81 1.887 21.33 2.7 4.43.399 19.18 1.974 23.59 2.262 5.69.387 13.69.975 19.38 1.362 3.63.161 7.63.311 10.79.45l8.64.363 2.17.092c6.6.087 15.01.208 21.62.289 64.05-.277 128.6-7.933 188.47-25.408l16.01-4.979c1.33-.421 2.67-.819 3.99-1.258 5.67-2.031 13.9-4.788 19.63-6.894 6.94-2.798 16.11-6.075 22.96-9.156l7.52-3.237 3.76-1.621c29.62-13.315 57.78-29.25 83.08-46.927 30.65-21.491 57.19-46.489 80-72.904z"/><path d="m1908.28 563.126c-19.71 26.973-42.21 53.254-69.19 76.482-34.79 29.902-75.73 55.823-121.33 75.935-117.97 53.285-264.79 62.009-396.27 35.493-9.42-2.025-20.27-4.24-29.57-6.606-8-1.863-17.07-4.269-25.01-6.473-2.5-.692-5.86-1.558-8.26-2.302-78.46-24.012-156.51-49.801-238.98-65.026-99.044-18.56-203.33-20.735-303.93-8.181-6.257.693-11.329 1.5-17.242 2.291-7.573.986-18.198 2.694-25.741 3.906-9.929 1.551-24.317 4.252-34.17 5.93-59.622 10.997-118.578 24.11-176.905 38.557-210.796 53.406-417.7432 115.524-630.77 164.038 44.624-10.702 89.0642-21.837 133.342-33.329 132.863-34.46 264.234-72.001 396.384-107.973 132.414-34.771 266.513-70.829 406.653-82.472 22.444-1.754 47.71-2.688 70.353-2.861 152.509-1.212 269.106 32.862 406.496 76.806 4.72 1.425 19.53 5.995 24.43 7.224 16.18 4.557 33.27 8.7 49.92 12.179 182.85 38.406 375.24 7.252 507.76-98.044 32.43-25.408 59.06-54.942 82.03-85.574z"/><path d="m1908.38 506.895c-25.35 39.18-53.83 77.731-92.33 110.535-55.95 47.932-128.46 85.386-208.97 105.562-119.37 30.046-251.84 20.896-366.95-15.428-73.68-23.4-147.41-47.562-224.99-62.573-108.818-21.48-224.365-21.428-333.861-2.631-101.097 17.556-199.601 43.073-296.928 69.97-161.27 45.347-321.9836 92.061-485.45 132.798-22.546 5.619-45.158 11.083-67.797 16.483 135.3975-33.416 268.8258-71.136 401.961-109.317 148.342-42.526 296.333-87.555 451.442-114.48 63.974-10.576 129.844-15.11 195.278-12.641 45.921 1.869 92.155 7.229 136.665 15.975 60.49 11.816 118.9 28.997 176.39 47.251 26.69 8.463 53.02 17.446 80.17 24.796 2.4.618 16.37 4.131 18.92 4.783 7.02 1.644 14.2 3.191 21.24 4.783 95.28 19.944 198.42 21.012 292.81-2.273 80.19-19.726 152.6-56.614 208.82-103.894 38.77-32.508 67.63-70.811 93.58-109.699z"/><path d="m1908.22 446.195c-28.64 50.072-61.77 99.358-106.81 142.292-69.88 65.919-173.81 111.231-284.39 124.132-84.03 10.055-170.73 1.707-250.62-19.657-42.55-11.371-83.64-26.706-125.52-39.265-59.84-18.433-121.2-34.789-184.867-43.752-102.236-14.281-208.168-8.026-307.841 13.624-23.278 4.743-46.351 10.027-69.361 15.45-115.043 27.549-226.684 62.321-339.086 95.373-135.022 39.554-270.6779 78.036-408.462 111.815 91.4818-23.314 182.134-48.434 272.245-74.592 158.175-44.879 312.907-96.843 473.823-136.103 23.055-5.481 46.171-10.829 69.494-15.629 115.103-25.223 238.116-29.559 354.515-6.459 77.66 15.176 151.53 39.338 224.76 63.581 11.97 3.888 29.62 9.311 41.93 12.479 79.14 21.323 165.03 29.781 248.37 20.117 109.9-12.473 213.28-57.058 283.44-122.06 45.43-42.586 78.96-91.611 108.38-141.346z"/><path d="m1910.81 373.955c-31.98 65.444-70.5 130.014-126.6 185.884-67.19 67.077-167.89 115.579-278.52 128.837-92.16 11.429-187.4-.583-273.24-27.231-22.9-7.143-45.22-15.035-67.93-22.437-64.88-21.322-131.09-41.116-200.253-52.955-105.388-17.775-216.046-11.072-318.811 12.827-17.043 3.768-36.1 8.295-52.952 12.523-22.221 5.522-47.899 12.334-69.882 18.403-34.729 9.675-69.236 19.818-103.59 30.237-194.04 60.318-388.5302 120.521-587.646 170.812 23.318-6.15 46.607-12.352 69.8161-18.727 116.1279-31.685 230.8849-66.151 345.0999-101.54 97.063-30.128 193.344-61.957 292.119-88.888 28.281-7.779 59.11-15.603 87.843-22.4 108.929-27.009 226.541-36.302 339.158-17.182 69.478 11.934 136.028 31.864 201.158 53.325 45.06 15.017 89.73 31.102 137.57 40.466 66.58 13.782 137.19 17.821 205.4 9.017 108.07-13.483 206.29-60.982 272.71-126.214 56.62-55.428 95.59-119.702 128.55-184.757z"/><path d="m1910.4 298.636c-33.75 80.493-75.01 160.77-140.95 229.669-30.92 31.747-66.07 61.726-108.87 84.654-132.49 70.236-290.24 70.738-436.21 24.629-8.47-2.578-17.8-5.752-26.17-8.613-60.2-20.874-121.01-41.104-184.28-56.086-13.96-3.286-29.037-6.502-43.197-9.24-6.043-1.074-14.61-2.593-20.684-3.641-4.452-.668-14.037-2.075-18.535-2.748-105.021-14.252-206.569-5.242-306.985 20.867-22.787 5.751-48.936 12.679-71.428 19.099-240.809 72.22-475.6082 156.118-721.624 218.432 23.799-6.462 47.565-12.993 71.2474-19.691 165.9646-46.57 328.8046-99.064 490.7456-153.03 57.93-19.039 116.428-37.567 175.74-54.088 22.672-6.24 48.825-13.157 71.835-18.678 4.788-1.243 13.119-3.108 18.175-4.237l9.118-2.051 9.21-1.834c95.077-19.32 196.556-20.785 292.176-2.723 15.092 2.791 30.926 6.257 45.796 9.734 60.46 14.359 118.7 33.483 176.22 53.395 22.77 8.02 46.15 15.526 69.91 21.687 147.88 39.382 304.87 27.093 426.5-51.033 35.64-23.428 65.88-51.329 92.69-80.638 58.75-65.142 97.09-139.359 129.57-213.835z"/><path d="m1907.99 218.801c-36.49 98.499-79.42 198.296-158.41 282.563-41.09 44.044-92.51 83.558-155.06 110.171-91.34 39.646-203.59 42.744-303.59 21.744-37.72-7.702-74.22-18.491-109.54-31.004-58.62-20.634-118.18-40.184-179.96-54.654-104.433-25.638-218.267-28.839-324.634-7.985 0 0-9.332 1.935-9.332 1.935l-4.674.967-2.326.487-2.31.55c-36.794 8.707-73.658 19.209-109.445 30.019-144.071 44.275-283.016 97.364-427.192 141.799-95.6919 30.185-192.3364 58.842-290.009 85.173 145.9237-40.697 289.635-85.911 431.447-134.137 82.624-28.258 164.464-58.159 248.015-84.896 42.431-13.576 85.828-26.327 129.453-37.63 3.863-.923 12.262-2.955 16.293-3.92 2.463-.623 6.823-1.5 9.386-2.041 8.789-1.954 19.499-3.899 28.403-5.461 101.77-17.277 209.376-12.965 308.515 11.286 62.13 14.599 121.76 34.217 180.57 54.958 35.06 12.456 71.28 23.154 108.67 30.873 98.82 20.954 209.69 18.087 300.23-20.803 62.15-26.206 113.39-65.31 154.51-108.818 79.46-83.784 123.21-183.133 160.99-281.176z"/><path d="m1908.64 125.591c-49.17 134.967-95.59 277.718-217.85 387.093-60.7 53.502-142.21 97.854-236.45 107.873-94.01 10.725-188.38-10.101-273.54-38.956-24.41-8.345-48.5-16.952-73.07-24.952-22.71-7.444-46.37-14.731-69.59-21.243-39.014-10.833-78.998-20.253-119.831-26.286-5.745-.846-13.884-1.725-19.675-2.481-5.814-.638-13.953-1.281-19.797-1.851-161.36-12.505-317.259 33.944-459.428 86.789-95.742 35.961-191.874 71.581-290.236 103.387-98.0684 32.233-197.3223 62.58-297.67 90.538 124.9372-35.926 248.2306-75.151 369.736-117.233 102.271-34.546 200.274-75.741 302.66-110.1 117.347-39.256 245.997-67.262 375.473-57.306 4.835.422 12.821 1.178 17.518 1.594 4.59.465 12.89 1.565 17.433 2.098 37.95 5.171 75.134 13.599 111.497 23.193 15.36 4.138 31.87 8.857 46.96 13.495 24.76 7.554 49.47 15.741 73.72 24.126 95.06 34.402 200.18 63.669 307.15 51.628 93.18-9.787 173.9-53.482 234.22-106.207 122.51-108.724 169.9-250.895 220.77-385.199z"/><path d="m1907.37 45.3923c-68.25 159.8907-105.51 339.2527-265.43 464.9247-142.03 109.075-299.26 105.309-474.84 46.566-86.73-29.704-174.109-61.306-268.956-72.774-237.404-28.169-449.26 77.155-653.594 151.91-135.442 49.483-273.9406 94.49-414.553 134.915 127.3167-37.702 252.9547-78.86 376.195-123.624 123.968-43.644 241.152-98.481 369.735-134.489 113.484-33.159 238.554-48.75 358.461-27.402 21.671 3.773 43.304 8.487 64.371 13.862 45.511 11.506 89.581 26.07 133.141 41.151 49.36 17.497 99.9 33.613 152.95 43.445 62.48 11.789 129.14 14.242 191.49.851 55.69-12.108 105.67-36.337 147.89-65.943 169.42-120.033 212.7-313.225 283.14-473.3927z"/><path d="m1886.29 18.3573c-76.34 160.4327-109.32 349.6547-275.98 474.5647-48.8 35.856-109.27 64.479-176.79 74.401-124.3 18.509-243.18-20.823-353.5-59.459-21.48-7.12-43.88-14.213-65.86-20.467-18.629-5.325-38.633-10.49-57.779-14.677-8.912-2.004-20.356-4.267-29.443-5.883-5.539-1.068-14.183-2.371-19.821-3.295-89.813-13.282-183.597-7.084-270.794 13.106-7.742 1.667-16.531 4.023-24.167 5.892-65.204 18.09-130.462 37.093-191.72 61.852-107.038 44.655-215.143 88.298-326.4972 126.629-55.4372 19.31-111.7074 37.974-168.077 55.709-31.3568 9.906-62.9088 19.46-94.5208 28.887 119.6718-36.612 237.7788-76.247 353.352-119.731 29.975-11.25 61.179-23.275 90.672-35.126 47.973-19.29 95.341-39.437 143.078-59.137 47.885-19.676 98.353-35.437 149.113-50.281 107.978-33.57 224.856-48.825 340.579-31.682 3.434.538 11.75 1.887 15.039 2.407 3.09.568 11.719 2.131 14.94 2.721 3.312.671 11.635 2.364 14.832 3.011 3.121.691 11.505 2.561 14.733 3.277 29.068 6.786 58.281 15.101 86.341 23.972 21.91 6.955 43.79 14.33 65.37 21.807 96.98 34.115 205.16 62.646 313.2 46.865 66.67-9.674 126.35-37.907 174.72-73.138 166.18-123.563 200.92-313.205 278.98-472.2247z"/><path d="m1852.48 19.1421c-70.93 143.5229-103.96 308.4389-238.42 428.2139-56.32 49.461-133.26 89.262-220.63 97.103-114.83 11.129-224.72-24.546-326.81-59.825-17.93-5.939-36.96-12.012-55.21-17.353-33.917-9.972-68.768-18.762-104.323-24.711-106.926-18.293-220.507-8.238-321.71 22.568-12.098 3.629-24.812 7.774-36.757 11.676-47.891 15.798-97.664 33.67-144.992 50.502-23.901 8.766-47.068 18.638-69.989 28.793-68.248 31.379-138.933 59.768-210.671 86.303-71.7101 26.613-144.475 51.594-217.9983 75.22-24.5117 7.863-49.1317 15.531-73.7907 23.123 24.556-7.777 49.07-15.635 73.4706-23.683 146.1976-48.416 290.6874-100.609 427.0264-163.474 22.95-10.259 46.15-20.236 70.118-29.114 9.729-3.557 26.116-9.405 36.092-12.97 46.213-16.483 93.973-33.612 141.04-48.322 13.722-4.196 28.182-8.401 42.304-11.823 99.498-24.916 207.41-29.384 308.943-8.682 41.078 8.266 81.177 19.665 120.227 32.28 11.87 3.829 24.89 8.145 36.63 12.132 106.41 37.216 226.62 71.344 344.67 48.07 77.09-15.702 142.75-54.817 191.94-101.392 24.96-23.402 46.28-48.971 64.97-75.481 74.59-107.043 107.11-226.733 163.87-339.1539z"/><path d="m1817.92 18.519c-65.73 127.825-96.16 268.977-201.94 383.129-36.23 38.082-82.91 71.288-138.27 93.011-11.62 4.541-23.73 8.644-36.03 12.05-5.01 1.505-13.42 3.495-18.68 4.782 0 0-9.51 1.96-9.51 1.96-2.52.571-6.91 1.345-9.59 1.765-3.21.52-6.42 1.099-9.64 1.569l-9.74 1.235-2.43.309c-.62.089-1.82.219-2.44.272-6.37.652-13.22 1.219-19.6 1.615-107.6 6.556-210.22-25.28-306.31-58.005-53.57-17.639-108.628-33.616-165.9-42.857-95.367-15.447-196.15-9.105-287.68 15.962-7.504 1.929-15.445 4.428-22.734 6.603.001 0-2.263.681-2.263.681l-2.234.733-8.927 2.949c-11.919 3.92-23.689 8.206-35.438 12.426-47.001 17.055-93.111 35.494-139.792 53.202-23.37 8.787-46.765 17.43-68.768 27.911-27.76 12.95-55.717 25.701-84.166 37.786-130.5 55.966-266.5929 104.428-404.932 148.287 11.958-3.947 23.954-7.824 35.876-11.828 107.43-35.712 213.3864-74.239 316.214-116.968 22.395-9.297 45.971-19.364 68.087-29.106 34.03-14.633 66.362-31.5 100.912-45.445 57.753-22.084 116.333-45.595 174.529-67.026 16.059-5.853 32.565-11.761 49.058-16.962 80.216-25.101 168.431-36.029 255.024-29.788 91.787 6.155 177.874 33.483 261.044 61.745 98.23 32.68 208.28 59.64 315.95 40.426 7.23-1.405 7.89-1.623 14.06-2.851l9.25-2.246c1.53-.384 3.09-.729 4.61-1.143l4.55-1.286 4.55-1.286 2.27-.642c.77-.208 1.52-.43 2.26-.679 5.94-1.942 11.96-3.757 17.75-5.963l4.38-1.589 2.19-.794c.72-.277 1.43-.573 2.15-.859 31.57-12.327 60.8-28.588 86.33-47.232 37.49-27.238 67.56-59.854 92.3-94.297 73.67-104.62 106.36-221.864 163.67-331.556z"/><path d="m1779.37 18.5941c-43.81 90.4109-73.98 184.5199-125.26 272.8649-35.78 61.576-85.37 121.109-159.22 160.466-3.42 1.772-8.78 4.503-11.96 6.11-4.14 1.909-8.19 3.887-12.29 5.724-5.36 2.317-11.57 4.978-16.92 6.971-2.79 1.067-5.89 2.313-8.62 3.238-2.38.787-8.95 3.09-10.98 3.759l-2.23.678-4.48 1.357c-6.29 2.013-12.81 3.59-19.25 5.313-3.68.836-8.98 2.014-12.71 2.858-76.49 15.674-157.83 6.753-232.19-11.229-42.61-10.188-83.99-23.528-124.85-37.109-32.15-10.438-64.856-19.978-98.285-27.786-33.245-7.859-67.622-13.887-102.122-17.559-87.977-8.988-179.374-2.647-262.192 22.047-7.003 1.969-15.115 4.742-21.942 6.958-38.813 13.925-76.819 29.296-114.729 44.56-75.891 30.668-150.147 63.688-223.749 97.376-12.37 5.455-29.032 12.864-41.421 18.127-49.466 21.291-101.1962 41.861-152.2203 60.951-62.7387 23.551-126.8157 45.734-191.0767 66.774 104.8218-35.366 208.302-73.16 308.507-115.464 24.228-10.223 50.693-21.816 74.496-32.555 110.118-51.038 222.044-100.213 338.193-143.078 86.221-29.716 183.5-39.011 277.307-30.513 73.252 6.505 143.888 24.509 211.324 46.51 121.43 41.191 264.12 80.867 393.99 37.881 0 .001 8.66-2.952 8.66-2.952.72-.251 1.46-.48 2.16-.749l2.12-.809c7.34-2.7 14.02-5.464 20.96-8.44 8.29-3.68 16.15-7.551 24.02-11.611 94.98-50.378 148.11-132.159 187.77-212.151 36.11-72.035 63.11-146.4708 99.19-218.5179z"/><path d="m1741.59 18.6578c-51.69 105.8552-83.06 218.7722-160.17 316.5902-46.14 57.538-110.99 104.825-197.34 125.454-84.85 20.391-176.47 8.612-258.93-12.683-47.52-11.976-92.95-27.89-139.28-42.123-86.219-26.189-178.656-45.216-272.31-41.097-27.775 1.246-55.704 4.875-82.577 10.298-30.71 6.115-60.791 14.844-89.422 25.181-63.322 23.673-123.085 53.915-184.053 80.815-43.259 18.883-87.883 35.947-129.907 56.339l-15.832 7.591-7.917 3.793c-14.563 6.852-33.301 15.457-48.05 22.09-45.254 20.212-92.7782 39.925-139.5514 58.069-60.9625 23.758-123.3446 46.062-185.9296 67.247 102.0544-35.591 202.7686-73.558 299.765-116.457 31.714-14.03 64.797-29.43 95.605-44.554 52.592-25.758 108.868-46.292 161.76-71.447 42.266-19.535 85.52-40.086 128.986-57.849 33.033-13.522 68.068-24.662 104.143-32.653 28.571-6.19 58.29-10.511 87.947-12.138 95.964-5.066 191.033 14.123 279.316 41.07 46.217 14.228 91.607 30.17 138.977 42.138 81.53 21.083 171.92 33.078 255.88 13.071 138.2-32.966 211.36-128.743 260.57-225.108 36.38-70.23 63.2-143.0613 98.32-213.6372z"/><path d="m1702.96 18.7094c-24.75 52.0506-45.31 105.1516-69.39 157.3806-24.02 52.207-50.76 104.338-91.11 150.781-18.48 21.271-40.02 41.152-64.98 58.305-24.94 17.106-53.52 31.57-84.32 41.965-4.67 1.671-10.1 3.195-14.89 4.722-6.02 1.658-13.56 3.748-19.66 5.063-8.73 2.082-17.85 3.765-26.84 5.13-2.98.498-6.19.956-9.08 1.275-120.15 14.346-237.19-21.997-345.656-56.765-78.745-24.093-162.224-41.902-247.57-43.512-5.822-.219-12.492-.133-18.237-.121-12.086-.018-24.31.53-36.343 1.413-30.048 2.343-60.133 7.391-88.751 14.689-22.873 5.746-45.604 13.183-67.006 21.542-40.36 16.233-78.361 35.55-116.639 54.402-56.092 27.909-111.727 56.569-170.588 81.131-69.771 28.507-135.8127 62.135-205.4054 90.954-42.8972 17.682-86.4232 34.471-130.3586 50.63-21.977 8.06-44.071 15.935-66.238 23.683 66.128-23.821 131.5914-48.75 195.6175-75.647 69.2438-29.295 134.9755-63.137 204.6245-92.004 10.385-4.41 21.419-9.192 31.647-13.856 78.595-35.567 152.241-76.919 230.986-112.381 26.277-11.764 54.281-21.946 83.051-29.77 40.357-11.071 83.202-17.671 126.147-18.623 95.413-2.048 189.327 16.766 277.044 43.789 107.635 34.5 223.685 70.934 342.905 57 1.49-.186 3-.329 4.48-.55l4.46-.688 4.45-.687c7.39-1.194 14.77-2.616 21.98-4.309l4.35-.998 2.18-.499c.72-.176 1.43-.378 2.14-.565l8.58-2.289c.71-.195 1.43-.372 2.13-.581l2.1-.644 4.22-1.289c114.68-35.068 178.77-116.502 222.86-199.499 36.66-68.349 63.11-139.496 97.11-208.5776z"/><path d="m1661.83 22.3386c-23.48 50.9141-43.65 102.6704-67.79 153.4174-24.04 50.724-51.78 101.24-94.1 145.029-53.27 55.962-132.79 94.707-224.83 100.477-108.46 6.89-212.91-23.828-311.249-54.6-8.231-2.579-24.815-7.477-33.168-9.808-77.811-21.531-160.365-35.279-243.493-34.84-47.313.028-94.639 6.963-138.613 20.117-24.775 7.339-48.685 16.529-71.304 27.093-82.637 40.049-158.546 87.723-242.371 126.471-133.418 59.193-265.9115 120.139-405.513 170.827 133.5446-49.77 260.3292-108.943 388.319-166.232 89.699-40.183 169.435-91.519 257.02-134.141 22.834-10.731 46.973-20.077 72.008-27.543 44.482-13.431 92.468-20.458 140.408-20.521 83.839-.502 166.982 13.252 245.367 35.042 8.331 2.331 25.137 7.304 33.352 9.883 98.997 30.984 204.137 62.208 313.257 54.478 89.35-6.546 165.71-44.058 218-98.267 42.46-43.391 70.45-93.63 95.02-143.979 23.81-48.618 46.25-104.1932 69.68-152.9034z"/><path d="m1623.39 18.7728c-48.46 103.8592-86.29 235.9992-191.8 315.2062l-3.12 2.325c-.83.629-8.45 5.833-9.72 6.744-2.87 1.887-7.42 4.702-10.1 6.416-3.55 2.025-6.95 4.096-10.46 6.063l-7.2 3.825c-1.75 1.021-5.37 2.717-7.34 3.675-23.33 11.464-49.11 20.222-75.8 26.193-2.58.548-10 2.031-12.76 2.579-4.09.686-8.78 1.477-12.91 2.146-2.41.338-10.43 1.35-13.03 1.695l-8.74.838c-37.86 3.371-76.42 1.389-113.86-3.589-80.82-10.69-156.55-35.273-233.275-56.187-32.771-8.677-66.574-16.2-100.446-21.918-62.803-10.69-128.031-15.911-192.318-11.579-3.986.341-8.944.814-12.926 1.166-4.635.53-6.832.825-10.717 1.28-3.425.381-5.393.756-8.532 1.201l-4.258.628-2.13.318-2.113.375-8.45 1.5-2.112.375-2.093.432-4.187.866c-5.316 1.032-11.5 2.533-16.637 3.744-4.612 1.102-9.79 2.573-14.349 3.773-5.164 1.541-12.982 3.802-18.084 5.573-7.576 2.452-16.202 5.591-23.471 8.516-5.135 1.944-10.34 4.281-15.183 6.358-4.215 1.84-8.808 4.102-12.94 6.017l-1.8.912-7.202 3.663-1.798.917-1.755.964c-10.448 5.671-21.114 11.925-31.276 17.879-91.471 54.688-181.38 111.133-285.756 151.699-10.184 4.274-20.396 8.531-30.485 12.897-30.2873 13.197-58.7926 28.507-88.8623 42.034-60.1577 26.966-121.9117 51.852-184.5767 75.327 62.237-24.058 123.7206-49.289 183.5333-76.634 29.8662-13.689 58.2514-29.259 88.4697-42.59 10.1-4.434 20.263-8.733 30.421-13.057 20.315-8.634 40.647-17.23 60.539-26.351 79.836-36.493 150.435-82.84 223.832-126.112 9.024-5.29 18.569-10.984 27.826-16.073 1.519-.813 3.942-2.198 5.325-2.948 2.38-1.24 8.529-4.35 10.927-5.59 4.156-1.933 8.882-4.276 13.093-6.122 4.647-2.048 10.701-4.679 15.366-6.479 2.513-.969 5.355-2.192 7.815-3.057 3.319-1.154 8.786-3.283 11.919-4.287 2.97-1.004 7.133-2.354 10.074-3.34 2.689-.831 9.561-2.862 12.272-3.687 3.807-1.027 8.632-2.325 12.44-3.346 4.022-.929 10.717-2.631 14.717-3.45 4.01-.796 8.759-1.887 12.757-2.585 3.447-.577 9.633-1.788 12.876-2.233 4.051-.582 8.937-1.39 12.976-1.863 3.466-.381 9.804-1.252 13.061-1.506 3.268-.306 7.706-.704 10.934-.992 1.048-.046 9.646-.618 10.977-.687 37.659-1.886 76.495-.669 113.94 2.96 52.178 5.048 103.636 14.573 153.527 27.081 105.165 27.318 209.155 65.345 322.455 65.954 15.75.118 31.99-.748 47.6-2.37l8.55-1.091 4.28-.548 4.24-.681c2.83-.467 5.66-.9 8.49-1.384l8.39-1.65c1.4-.289 2.81-.525 4.19-.854 26.34-5.793 51.79-14.337 74.86-25.564l3.67-1.748c1.23-.577 2.39-1.241 3.58-1.852l7.13-3.744c2.33-1.298 4.61-2.648 6.92-3.964l3.45-1.99c1.13-.681 2.22-1.396 3.33-2.095l6.67-4.205 6.42-4.414 3.2-2.21 3.12-2.29c105.62-78.566 144.41-210.02 194.41-313.1982z"/><path d="m1581 22.3036c-44.08 97.5184-78.84 214.1224-177.76 288.9034-1.58 1.189-4.49 3.26-6.21 4.454-1.99 1.362-4.33 3.116-6.33 4.35-10.63 6.987-22.2 13.766-34.11 19.506-5.42 2.775-12.64 5.862-18.35 8.343-2.13.807-9.12 3.6-11.41 4.482-4.74 1.639-10.92 3.918-15.63 5.314-13.01 4.142-26.97 7.667-40.65 10.217-8.23 1.633-16.78 2.902-25.2 3.895-2.7.328-5.87.744-8.49.94-31.11 2.971-62.93 2.164-93.99-.808-82.07-8.031-159.387-31.921-237.466-51.121-69.894-17.135-141.533-31.512-214.861-36.843l-16.906-.993-2.111-.127c-5.73-.207-13.341-.455-19.055-.657-5.515-.046-13.525-.121-19.063-.168-5.4.07-13.693.266-19.055.352-10.218.456-21.45.947-31.625 1.858-17.282 1.673-34.941 4.298-51.653 8.037l-8.095 1.823-8.002 2.042-3.998 1.033c-8.988 2.527-18.647 5.423-27.301 8.55-12.735 4.414-25.164 9.664-37.005 15.323-9.446 4.621-18.707 9.485-27.427 14.868-43.848 27.156-85.36 56.331-128.833 83.913-34.702 22.146-70.695 43.295-108.974 61.837-38.134 18.666-77.662 35.594-116.8764 52.887-39.3922 17.06-77.4656 35.756-116.8242 52.847-39.2719 17.215-79.2334 33.514-119.5884 49.229 40.08-16.09 79.799-32.708 118.8709-50.152 39.1581-17.356 77.0265-36.312 116.2091-53.629 39.014-17.49 78.387-34.575 116.289-53.398 38.014-18.681 73.719-39.803 108.191-62.025 43.257-27.734 84.718-57.053 128.533-84.319 17.699-10.875 37.239-20.198 57.582-27.987 7.249-2.74 15.864-5.671 23.418-8.048 3.725-1.131 8.21-2.383 12.002-3.502 2.23-.6 9.757-2.515 12.175-3.15 10.635-2.504 22.272-4.887 33.179-6.583 8.689-1.442 18.632-2.561 27.5-3.473 10.394-.935 21.554-1.436 32.031-1.904 6.395-.081 15.062-.386 21.381-.352 4.781.035 12.339.093 17.112.139 6.609.259 14.802.421 21.357.773 79.64 3.963 157.444 19.477 233.044 38.054 78.064 19.206 154.665 43.085 236.455 51.312 30.66 3.006 62.08 3.854 92.82 1.016l2.1-.173c.7-.058 1.39-.162 2.09-.237l4.17-.49c8.29-.952 16.72-2.169 24.85-3.744 13.48-2.464 27.28-5.908 40.1-9.929l3.91-1.2 3.85-1.333 7.68-2.654 7.52-2.919c5.91-2.227 9.39-3.952 14.76-6.22 2.41-1.107 4.76-2.273 7.15-3.409l3.56-1.714c4.14-2.111 9.86-5.106 13.79-7.39 6.13-3.479 12.24-7.287 18.05-11.066l1.55-1.079 3.12-2.169 3.1-2.163c1.04-.722 2.09-1.431 3.06-2.204l5.95-4.552c94.51-74.17 129.69-187.451 174.34-282.4134z"/><path d="m1541.39 18.7784c-48.24 109.3576-89.86 249.4586-236.07 307.4866l-7.44 2.908-7.61 2.648c-2.49.906-5.22 1.8-7.69 2.533l-7.77 2.371c-2.1.646-5.67 1.546-7.89 2.14-1.79.456-4.33 1.154-5.93 1.57-6.05 1.321-12.01 2.826-18.16 3.882-2.71.502-5.42 1.021-8.14 1.506l-8.23 1.223c-2.7.427-5.63.831-8.26 1.096-41.4 4.956-83.84 2.793-125.02-2.342-76.87-9.75-150.125-30.975-224.418-47.81-100.92-22.57-206.316-41.395-312.182-33.514-7.459.629-15.025 1.425-22.467 2.394-45.991 6.318-90.127 20.712-127.244 42.203l-6.434 3.9c-1.067.652-2.151 1.292-3.204 1.961l-3.1 2.054c-2.06 1.373-4.143 2.723-6.187 4.125-59.169 41.06-113.992 85.952-177.129 123.758-48.039 28.526-100.155 53.045-153.7907 75.089-19.4834 8.017-38.934 16.059-57.44059 25.256-37.18301 18.326-75.23161 35.634-113.85171 52.171-19.315 8.26-38.785 16.307-58.337 24.238 19.423-8.11 38.76-16.333 57.934-24.767 38.3872-16.801 76.2119-34.348 113.14092-52.914 18.47138-9.362 37.90358-17.569 57.28608-25.717 50.913-21.204 100.212-44.812 146.212-71.677 65.504-38.817 121.697-85.502 182.749-128.079 7.949-5.487 17.143-11.273 25.937-16.062 32.773-18.046 70.659-30.71 110.199-37.483 28.653-4.794 58.201-6.26 87.413-6.237 134.493.266 262.264 36.133 388.994 65.805 31.81 7.165 63.98 13.552 96.71 17.752 40.69 5.169 82.6 7.379 123.55 2.648 6.01-.617 10.61-1.454 16.26-2.227 8.73-1.477 17.37-3.242 25.94-5.215 3.79-1.033 9.75-2.464 13.64-3.606l7.68-2.314c1.27-.392 2.57-.744 3.82-1.176l3.76-1.293 7.52-2.579 7.35-2.844 3.68-1.425c1.24-.461 2.41-1.021 3.61-1.529l7.16-3.104c.6-.265 1.21-.507 1.79-.79l1.74-.837 3.49-1.679 3.48-1.678c1.16-.56 2.33-1.108 3.44-1.725l6.76-3.6c1.11-.612 2.27-1.183 3.36-1.818l3.26-1.921 6.53-3.831c10.64-6.583 20.72-13.777 30.17-21.323 85.85-70.322 118.78-171.129 159.43-259.6016z"/><path d="m1499.15 18.7615c-32.69 77.3087-60.57 158.8515-127.04 224.3225-72.62 70.8-176.32 93.999-291.11 81.554-129.064-13.794-249.644-54.629-378.034-70.887-64.807-8.971-131.558-13.062-197.045-6.248-3.619.513-8.273 1.044-11.869 1.621-.789.167-8.997 1.465-9.816 1.633-7.104 1.356-14.284 2.919-21.255 4.604-2.139.629-9.179 2.394-11.359 3.069-1.786.56-5.655 1.702-7.461 2.267-3.117.866-8.058 2.729-11.031 3.681-2.465.796-4.85 1.846-7.208 2.694-4.328 1.541-9.937 4.068-14.125 5.804-3.701 1.789-9.98 4.541-13.556 6.525l-3.324 1.702-1.662.854-1.61.912c-8.491 4.65-17.087 10.067-24.712 15.49-68.029 52.403-129.001 110.977-207.984 154.67-52.066 29.445-108.2211 54.449-165.07194 78.197-34.10406 14.268-77.92456 35.081-111.31806 50.469-18.496 8.496-37.126 16.833-56.019 24.814 54.129-23.467 112.0789-53.293 166.34339-76.611 94.15391-39.823 186.29261-84.285 260.10961-144.382 33.767-26.475 65.701-54.254 99.188-80.949 5.548-4.477 11.39-8.902 17.49-12.992 1.015-.693 2.013-1.397 3.043-2.077l3.158-1.973c3.442-2.239 9.164-5.556 12.899-7.633 1.707-1.027 4.878-2.585 6.71-3.548 3.766-1.991 9.777-4.835 13.793-6.687 4.295-1.806 10.034-4.367 14.372-5.942 2.277-.877 5.074-1.979 7.335-2.758 2.926-.94 8.403-2.989 11.226-3.779 1.9-.6 5.695-1.731 7.593-2.331 2.288-.721 9.088-2.434 11.563-3.15 7.098-1.731 14.414-3.323 21.656-4.708.927-.196 8.812-1.453 10.004-1.673 3.672-.582 8.381-1.142 12.1-1.661 66.142-6.935 133.395-2.885 198.807 6.121 128.359 16.321 248.939 57.214 377.67 71.366 113.66 12.502 215.41-9.75 288.11-79.483 66.86-64.94 95.53-146.0908 129.44-222.8975z"/><path d="m1455.94 18.7267c-32.06 79.3337-63.03 166.9523-142.85 227.2533-3.38 2.325-8.23 5.919-11.71 8.146-3.09 1.938-6.09 3.906-9.15 5.792-2.57 1.448-7.15 4.114-9.51 5.452-2.89 1.546-8.5 4.431-11.49 5.971l-1.7.785c-3.31 1.494-6.91 3.283-10.2 4.69-2.76 1.177-7.94 3.26-10.49 4.339-46.61 18.093-98.3 25.287-150.45 23.643-31.79-.86-63.37-4.322-94.51-9.122-20.459-2.959-71.389-13.033-92.418-16.967-139.513-25.431-289.819-63.376-434.66-49.876-28.471 2.769-56.344 9.335-81.778 19.379l-6.863 2.85-1.715.71-1.671.773-3.34 1.54-3.341 1.541c-1.125.502-2.173 1.09-3.263 1.633l-6.476 3.323c-10.352 5.706-20.755 12.236-29.607 19.252-7.009 5.331-14.308 12.265-20.634 17.925-53.572 49.056-104.711 100.856-171.144 140.728-49.362 30.147-103.2746 55.551-158.1503 79.477-52.6511 23.106-110.5847 50.245-163.2427 73.329 52.159-23.622 109.9176-51.175 162.2169-74.643 54.3892-24.289 108.07-49.932 156.9581-80.213 32.708-20.082 62.189-42.856 89.582-67.006 33.643-29.325 64.41-60.664 98.187-89.932 8.15-6.519 17.155-12.848 26.587-18.288l6.389-3.635c4.074-2.129 9.197-4.812 13.337-6.669l3.407-1.581 1.702-.791 1.75-.732 6.998-2.925c9.207-3.658 19.4-7.091 29.192-9.843 41.263-11.723 86.057-13.148 129.696-12.981 59.566.987 118.708 8.412 176.722 18.22 83.258 14.042 193.434 37.708 276.549 51.877 56.32 8.695 115.12 13.697 171.95 4.945l7.67-1.287c1.28-.219 2.58-.41 3.84-.658 5.3-1.061 13.55-2.711 18.88-4.096 12.4-2.96 24.75-6.773 36.41-11.106l3.54-1.286 3.46-1.414 6.91-2.821c1.17-.45 2.25-1.01 3.38-1.506l3.37-1.534c5.88-2.62 8.04-3.849 13.19-6.45 1.08-.566 2.2-1.085 3.24-1.685l3.15-1.777 6.29-3.56c2.04-1.24 4.04-2.521 6.07-3.779l3.02-1.892c.5-.323 1.02-.623 1.51-.958l1.44-1.003 5.8-4.016 2.89-2.013c80.24-59.984 111.59-146.5177 145.08-225.5283z"/><path d="m1411.94 18.6691c-30.81 80.7299-67.04 175.4959-162.18 226.4629l-6.37 3.352c-4.28 1.996-9 4.361-13.24 6.132-1.88.785-6.88 2.908-8.48 3.572-3.99 1.528-8.18 3.086-12.19 4.546-2.9.975-8.02 2.625-10.68 3.519l-3.62 1.05-7.26 2.094c-3.28.9-7.71 1.939-11.06 2.793-30.86 7.257-63.39 10.586-95.7 10.407-70.78-.196-144.171-15.796-213.148-26.937-71.171-11.567-170.478-30.144-241.251-39.11-66.728-8.429-135.518-12.502-202.452-3.259l-3.721.629-3.721.634c-6.003 1.039-6.006 1.212-11.065 2.198-6.098 1.368-12.123 2.92-18.047 4.639l-1.788.502-1.757.559-7.02 2.25c-5.791 1.997-11.464 4.16-17.016 6.485-12.083 5.077-23.78 11.337-34.29 18.116l-5.628 3.883c-1.915 1.263-3.656 2.659-5.445 4.021-4.116 2.994-6.688 5.434-10.313 8.463-4.445 4.131-9.823 9.433-13.992 13.76-44.184 45.26-84.429 93.434-138.711 132.437-95.9558 68.366-215.5208 112.796-327.291 164.083 17.471-8.201 35.022-16.309 52.686-24.273 94.263-42.501 192.4169-84.24 272.069-141.81 55.768-40.476 96.17-90.577 142.056-137.222 2.491-2.544 6.783-6.738 9.534-9.288l5.163-4.419c14.757-12.33 32.55-22.864 51.716-31.028 5.657-2.394 11.527-4.638 17.386-6.675 1.881-.635 7.39-2.377 8.968-2.902.828-.219 4.515-1.286 5.479-1.552 10.763-3.109 22.456-5.475 33.724-7.298 67.563-9.392 137.022-5.383 204.363 3.087 70.567 8.965 170.601 27.75 241.489 39.369 68.624 11.274 141.583 26.903 212.053 27.405 31.88.294 64.03-2.868 94.54-9.912l3.64-.894 3.64-.895c1.21-.311 2.45-.571 3.64-.928l7.17-2.037 3.58-1.021 3.52-1.143 7.04-2.284c2.32-.802 4.6-1.679 6.9-2.51l3.44-1.269c.58-.214 1.16-.41 1.72-.64l1.68-.699 6.71-2.78c2.28-.889 4.42-1.945 6.6-2.948l6.52-3.035c99.82-49.61 137.47-145.646 170.41-227.6799z"/><path d="m1366.89 18.594c-25.27 69.8028-55.84 145.744-130.55 194.87-7.8 4.834-15.77 9.588-24.24 13.656l-6.35 3.109c-2.65 1.183-7.38 3.22-9.82 4.304-2.93 1.223-8.71 3.421-11.75 4.616l-1.72.594c-3.51 1.177-6.87 2.423-10.35 3.531-2.93.865-7.84 2.4-10.53 3.19-72.37 20.25-145.66 15.589-219.979 5.441-39.502-5.475-78.844-11.175-118.223-17.077-81.094-12.029-161.575-26.885-243.273-36.243-19.059-2.181-40.372-4.033-59.561-5.285-42.056-2.533-85.147-2.475-126.961 2.019-34.298 3.45-67.166 14.695-93.489 31.599l-2.839 1.806c-.93.611-1.812 1.269-2.72 1.898l-2.708 1.915c-.894.64-1.831 1.258-2.664 1.944l-5.136 4.039c-.88.658-1.64 1.396-2.459 2.094l-2.418 2.123c-.796.71-1.635 1.396-2.397 2.135l-2.258 2.215c-4.42 4.183-8.872 9.393-12.627 13.887-32.151 38.251-61.417 78.324-99.114 113.84-25.058 23.775-54.504 44.745-85.8936 63.683-78.63138 47.284-169.0701 81.302-253.5544 121.967 100.102-49.656 210.2556-89.874 296.4-153.868 59.828-43.575 98.1-99.895 142.213-152.32.925-1.102 4.514-4.968 5.344-5.948.37-.393.767-.762 1.148-1.148l2.312-2.285c1.456-1.506 3.198-3.133 4.764-4.483 1.601-1.419 3.374-3.034 4.993-4.344l5.257-4.16c2.547-1.961 5.629-4.05 8.287-5.931 2.197-1.384 5.101-3.282 7.268-4.644-.001 0 1.514-.871 1.514-.871l6.062-3.479c12.317-6.629 25.844-12.392 39.921-16.633 11.772-3.583 24.019-6.381 36.557-7.967 4.367-.739 17.74-1.858 22.504-2.371 39.876-3.243 80.72-2.954 120.634-.162 16.616 1.09 35.888 2.89 52.404 4.742 120.517 14.724 240.608 37.789 361.54 53.834 73.772 10.206 145.872 15.26 217.892-4.523l3.47-1.033 6.95-2.06c2.31-.709 4.56-1.523 6.84-2.279l3.4-1.148 1.71-.577 1.66-.64 6.66-2.55c1.1-.439 2.24-.819 3.3-1.304l3.25-1.396 6.48-2.798 6.3-3.035c8.45-3.981 16.32-8.625 24.05-13.344 75.1-48.814 105.85-123.5845 132.5-193.145z"/><path d="m1321 18.4961c-35.86 106.8299-91.74 200.9619-252.04 217.9409-53.48 5.718-107.845.9-161.109-3.929-43.396-4.373-87.159-10.309-130.08-16.696-95.719-14.008-190.89-31.31-288.052-38.452-13.445-.872-30.252-1.8-43.693-2.014-24.028-.583-48.887-.104-72.794 1.794-6.673.427-15.038 1.316-21.679 2.043-4.613.409-9.784 1.223-14.24 1.869-44.555 7.644-84.229 30.364-105.347 61.045-57.23 82.715-86.128 134.863-186.5103 195.946-67.7851 41.525-146.4367 74.285-221.6747 107.486 99.3602-45.381 204.786-88.909 283.272-154.694 52.998-43.702 84.553-98.545 120.768-150.394 13.15-19.056 33.222-35.337 57.168-46.939 2.395-1.061 5.604-2.567 7.968-3.611.323-.145 7.544-2.983 8.227-3.26 1.661-.6 7.054-2.412 8.462-2.908 2.468-.704 6.187-1.829 8.671-2.538 2.609-.652 6.271-1.512 8.855-2.152l1.801-.358 7.21-1.396c2.959-.433 8.175-1.252 10.961-1.546 5.647-.589 12.612-1.396 18.235-1.904 41.213-3.635 83.516-3.271 124.816-.444 155.743 11.677 306.141 47.942 461.825 59.516 72.83 5.954 145.29 5.007 211.23-22.085 93.26-38.251 131.52-119.2805 157.75-192.3199z"/><path d="m1273.99 18.3687c-7.52 22.558-15.85 45.1333-27.55 66.6932-16.53 30.6811-39.38 60.1161-71.46 83.0491-35.71 25.558-83.06 40.299-131.2 46.31-2.92.335-7.97.894-10.64 1.2-5.57.479-12.27 1.114-17.81 1.391-57.099 3.069-114.294-2.591-170.909-7.599-103.72-10.275-206.056-26.763-309.222-39.514-74.605-9.034-151-15.282-226.12-6.49-9.43.935-18.476 2.383-27.345 4.604l-3.297.877-1.65.433c-.552.144-1.099.294-1.63.473l-6.431 2.071c-23.423 8.14-43.295 21.306-57.756 37.373-.001 0-3.738 4.477-3.738 4.477l-.93 1.12-.843 1.159-1.687 2.319c-3.397 4.639-6.132 9.56-8.94 14.464-44.678 79.882-67.652 129.931-157.4308 189.668-63.7247 42.468-139.6102 75.455-212.3962 108.291 72.183-33.643 147.3328-67.037 210.4938-109.897 73.0382-49.431 102.5182-92.488 138.6122-159.648 7.168-13.021 15.947-29.602 23.792-42.156 1.237-1.823 3.025-4.172 4.314-6l.953-1.16 3.842-4.633c10.132-11.256 22.885-21.398 37.676-29.216 2.813-1.453 6.16-3.201 9.13-4.459 5.901-2.706 13.023-5.314 19.474-7.304 1.728-.566 4.987-1.362 6.823-1.875 3.174-.918 7.142-1.604 10.441-2.348 33.906-5.441 68.809-6.935 103.399-6.779 57.285.559 113.95 6.871 170.232 14.261 93.6 12.197 186.703 26.764 280.846 36.387 56.332 5.095 113.191 11.026 169.987 8.204 51.59-2.821 103.58-14.544 144.72-38.775l2.8-1.633c.93-.548 1.8-1.154 2.7-1.725l5.37-3.484c.91-.566 1.76-1.183 2.61-1.8l2.57-1.852 2.56-1.847c.85-.617 1.73-1.211 2.52-1.875l4.87-3.882 2.44-1.95 2.32-2.025 4.62-4.056c1.53-1.362 2.94-2.793 4.42-4.189l2.19-2.106 1.1-1.05c.36-.357.69-.726 1.04-1.084l4.16-4.344c33.08-35.187 51.56-76.6861 65.96-118.0693z"/><path d="m1225.64 18.2194c-6.56 20.3022-14.05 40.5352-24.99 59.7816-8.66 15.2194-19.13 29.96-31.76 43.518l-.98 1.084c-3.17 3.127-6.12 6.37-9.5 9.37l-4.41 4.061-4.65 3.906c-6.17 5.239-12.95 10.045-19.94 14.666l-5.41 3.306c-1.82 1.113-3.68 2.25-5.53 3.202l-5.67 3.069c-1.53.819-4.22 2.077-5.87 2.85l-2.95 1.402c-1.44.79-7.35 3.138-9.1 3.894-2.05.854-4.13 1.742-6.16 2.446-4.07 1.46-8.59 3.237-12.63 4.448-36.23 11.954-75.92 17.095-115.273 17.995-92.544.046-184.553-10.546-276.019-19.997-52.92-5.855-111.217-13.148-164.282-19.638-54.55-6.652-109.459-13.16-164.733-14.066-32.072-.594-64.491.889-96.081 5.152-22.428 2.429-43.658 10.137-60.396 21.687-16.827 11.481-29.286 26.475-36.321 42.727-1.991 4.875-6.504 14.995-8.554 19.887-48.26 115.513-101.517 169.565-234.7664 237.784-30.5916 15.662-62.0736 30.278-93.5386 44.904 15.581-7.492 31.176-14.967 46.661-22.568 92.164-44.697 184.8606-97.074 232.641-173.69 20.326-31.148 34.908-64.408 48.918-97.438 2.757-6.161 5.648-14.111 9.217-19.892 16.67-29.401 52.705-52.668 95.233-57.197 68.655-9.433 139.194-5.112 207.755 2.308 118.265 13.679 237.317 30.225 356.268 39.992 27.194 2.227 55.413 4.304 82.707 5.793 56.959 3.565 116.254 1.31 169.374-15.825 5.2-1.57 10.64-3.641 15.62-5.464l3.02-1.24 6.06-2.47c1.03-.398 1.98-.876 2.96-1.326l2.93-1.362 2.93-1.362c3.44-1.575 8.02-4.171 11.31-5.896l2.7-1.615 5.4-3.219c6.97-4.518 13.75-9.214 19.93-14.349l4.66-3.831 4.42-3.992c3.4-2.948 6.39-6.144 9.57-9.225l.99-1.067 1.98-2.135c28.1-29.9542 44.43-65.0431 56.26-100.3686z"/><path d="m1175.8 18.0459c-5.92 18.9349-13.29 37.812-24.33 55.4661-5.27 8.3309-11.25 16.8002-17.94 24.5311l-3.69 4.2689-3.92 4.16c-1.32 1.379-2.6 2.787-4.02 4.102-1.84 1.719-4.53 4.465-6.32 5.989-60.18 55.668-155.865 62.614-244.852 60.375-33.528-.721-67.691-2.256-101.081-4.546-98.022-6.675-196.724-19.01-294.059-30.22-59.799-6.923-119.901-14.146-180.487-14.013-12.992.092-27.245.473-40.19 1.361l-6.671.497-6.671.49c-6.39.681-13.54 1.344-19.894 2.163l-13.173 1.841c-8.712 1.177-17.016 3.317-24.883 6.242-23.757 8.879-41.477 25.397-50.831 43.933-2.389 4.645-4.221 9.485-5.641 14.349-13.512 48.029-28.162 96.959-60.6948 140.015-45.0307 59.56-119.5375 101.94-193.9952 139.223-15.012 7.47-30.16 14.778-45.324 22.065 81.7758-40.759 166.60928-83.063 222.2836-145.324 35.1949-39.462 52.9064-85.807 66.1824-131.852 1.772-5.567 3.954-14.152 5.643-19.869.802-3.029 1.954-7.085 2.974-10.01 8.065-23.36 28.161-44.955 57.175-55.887 8.192-3.093 17.108-5.395 26.093-6.635l13.339-1.898c3.57-.537 9.689-1.068 13.421-1.506 7.384-.86 16.137-1.385 23.593-1.967 14.303-.756 29.737-1.275 44.011-1.12 75.777.404 153.006 11.845 227.853 20.193 110.898 12.975 222.122 26.141 334.418 29.227 66.413 1.956 136.711.669 196.171-24.306 37.37-15.525 66.01-41.175 85.66-69.4219 13.67-19.4714 22.79-40.5871 29.85-61.9162z"/><path d="m1124.25 17.8323c-3.94 12.8309-8.97 25.5983-15.96 37.6908-10.42 18.1733-24.64 35.3197-42.54 49.8409-5.96 4.887-12.4 9.45-19.1 13.685l-1.26.808c-.53.317-3.27 1.892-3.92 2.279-1.85 1.021-3.46 2.088-5.27 2.994l-5.44 2.815c-1.43.768-3.98 1.985-5.57 2.671-22.52 10.414-47.903 17.02-73.613 21.266-47.336 7.627-96.071 7.287-144.202 6.237-109.481-2.412-218.188-13.679-326.491-25.27-71.333-7.119-162.727-20.008-234.223-19.506-28.221.064-56.595 2.054-84.207 6.439-14.69 1.869-28.722 6.669-39.891 14.158-19.374 12.894-29.7946 32.065-32.172 51.254-2.7057 19.731-5.7724 39.427-10.3905 58.98-10.1242 44.36-29.922 87.11-66.8732 122.961-49.5363 48.829-117.8553 83.964-185.0933 117.551 66.346-34.286 134.0233-69.866 182.7686-118.872 36.1044-35.609 55.4249-78.336 65.0817-122.183 3.6213-16.079 6.366-32.689 8.5974-48.952.0007 0 1.3356-9.837 1.3356-9.837 2.3897-20.037 13.2743-40.12 33.5147-53.66 10.932-7.327 24.493-12.439 38.831-14.62 21.516-3.525 43.415-5.798 65.386-6.634 1.977-.156 7.772-.225 9.889-.289 4.157-.092 9.173-.265 13.188-.219 43.871-.214 87.792 3.646 131.063 8.221 141.289 14.972 287.404 33.514 429.823 37.397 47.833 1.234 96.331 1.852 143.43-5.412 25.48-4.056 50.628-10.419 73.048-20.498l2.81-1.246c.94-.416 1.82-.9 2.73-1.344l5.43-2.735c.91-.439 1.77-.952 2.64-1.442l2.6-1.477 2.61-1.483 1.31-.739 1.26-.79c6.75-4.148 13.17-8.614 19.13-13.391 19.54-15.4786 34.71-34.0615 45.66-53.7349 5.97-10.627 10.35-21.7271 14.08-32.9138z"/><path d="m1070.66 17.5844c-32.57 109.6806-184.12 125.4246-310.659 123.0016-76.649-1.154-153.121-6.467-229.194-13.171-66.471-5.995-136.183-13.016-202.524-20.072-42.076-4.482-84.177-8.6537-126.635-8.8152-25.347-.1096-50.766 1.275-75.673 4.8982-8.187 1.188-16.602 2.59-24.519 4.385-7.8105 1.915-15.1036 4.938-21.354 8.93-19.2249 12.289-26.8362 32.037-27.3579 50.534-.0819 6.329.1797 12.848.1193 19.217.641 107.004-32.0563 167.131-142.0838 236.159-26.2066 16.408-53.9226 31.379-81.9476 45.948 27.681-14.913 55.085-30.165 81.0353-46.767 108.3191-69.743 139.9317-129.075 138.5035-235.334.0214-6.467-.2838-12.785-.2226-19.292.3221-13.074 3.9219-26.285 12.3097-37.864 8.3434-11.672 22.6022-21.047 39.4442-25.097 8.3579-1.927 16.6049-3.294 25.1079-4.5749 29.425-4.3789 59.549-5.5212 89.486-4.9212 55.519 1.2231 110.214 8.4121 165.071 13.9561 117.692 11.919 236.385 24.462 355.052 28.206 131.726 4.702 298.801-3.11 336.041-119.3266z"/><path d="m1014.53 17.2904c-32.034 95.4356-179.824 107.1766-289.733 106.6336-141.019-.605-281.764-14.204-421.445-27.7788-77.15-8.0077-156.516-21.0233-233.6045-6.4904-4.895.9462-9.9766 2.0596-14.7843 3.225-38.3657 8.4752-45.96396 39.1502-40.8648 65.5852 12.9943 73.161 11.3803 141.504-51.3492 202.295-36.7592 36.155-84.6472 64.68-133.2262 91.279 46.195-26.248 91.9554-53.971 127.5594-88.642 64.8545-62.095 66.2575-129.538 52.50586-204.476-5.40213-27.075 2.40424-58.766 40.83104-68.8393 2.7172-.727 6.2344-1.5231 8.9982-2.1924 80.0535-17.8098 164.1195-4.1423 244.6705 4.2809 139.471 13.6328 279.972 27.4908 420.732 28.8518 109.611.976 255.771-9.121 289.71-103.7316z"/><path d="m956.847 13.7593c-34.989 90.4627-187.927 94.4547-291.632 94.0977-146.114-.56-291.904-14.1351-436.789-27.2602-64.085-5.5097-128.9903-12.9406-193.3644-6.4732-11.8829 1.2577-23.8231 3.1789-35.358628 5.6539-31.080972 6.5886-33.653472 30.3815-29.284772 51.0465 1.1084 5.897 3.2189 11.989 5.093 17.793 18.67796 55.951 27.68762 118.121-6.8984 171.666-8.7908 13.846-20.0005 26.85-32.4953 38.948-30.1142 29.008-67.4895 53.146-106.0045 75.576 25.325-15.283 50.065-31.216 72.6395-48.795 28.0256-21.865 52.9548-46.645 68.2248-74.978 27.81614-51.554 18.0301-109.074.176-161.598-7.8164-22.333-15.853-55.091 15.4513-69.4393 7.27322-3.2596 15.51411-4.6212 23.6058-6.1558 23.8544-4.3616 48.509-6.0232 73.0082-6.1328 65.1664.0346 129.6414 7.754 194.1914 13.3098 128.634 11.6078 258.235 22.7661 387.843 23.9371 103.507.773 254.792-1.604 291.594-91.1957z"/><path d="m892.774 16.5342c-36.053 65.9143-168.543 73.7836-250.898 75.6875-94.768 1.2519-189.644-3.577-283.939-10.0963-93.87-6.2366-188.623-16.5637-282.6826-20.8733-40.8563-1.2058-82.90217-4.8405-122.8566 3.2827-8.9806 1.8635-18.4645 4.0962-24.4151 9.7271-15.9425 15.2828-2.2497 41.7001 5.6775 58.0221 16.5728 33.502 30.3703 68.435 31.8558 104.418.7114 17.937-1.6836 36.076-8.0274 53.395-10.8234 28.864-32.8329 54.641-58.6716 77.159-20.662 18.052-43.99 34.255-68.221 49.521 23.835-15.578 46.789-32.017 67.141-50.213 30.2832-26.989 55.0349-58.968 61.7695-94.398 7.2143-35.273-.7718-71.222-14.5678-105.047-4.5943-11.348-9.8809-22.535-15.4819-33.641-6.9233-13.841-14.2838-28.639-13.432-43.9045.574-9.7212 6.2598-18.9059 17.8978-23.7579 5.4763-2.3481 11.2731-3.6001 17.1427-4.8808 40.56864-8.4348 83.0742-4.8174 124.492-3.6174 62.1867 2.5558 126.6367 8.5732 188.6727 13.679 94.096 7.7193 188.393 14.6541 282.984 17.4464 62.922 1.6269 126.339 2.8789 188.767-4.1539 60.164-6.8136 130.387-22.0445 156.793-67.7547z"/><path d="m824.938 16.0498c-16.608 20.0483-45.538 31.7138-74.148 39.7217-72.854 20.2041-151.61 22.1598-228.427 21.7848-107.92-.6115-215.661-7.9616-322.88-16.5002-60.53-4.7481-123.313-10.5636-183.8999-13.2232-30.5516-1.1366-61.4627-2.7462-91.9234-.5077-11.3438.9057-22.6 2.423-33.4957 4.9385-11.058 2.2961-19.833 6.2193-21.848 15.4675-1.138 5.4405.195 11.1059 2.191 16.4252 2.074 5.452 4.984 10.7655 8.211 15.9696 3.231 5.215 6.828 10.315 10.432 15.456 21.3124 31.016 39.8775 63.635 47.4697 98.297 3.8118 17.21 4.6999 35.078 1.8229 52.42-2.6077 17.446-10.2351 34.356-20.7155 49.945-21.0821 31.235-52.8241 57.503-86.7531 81.085 33.205-23.986 64.49-50.456 84.9432-81.76 36.3245-53.556 20.9634-114.567-10.5241-167.189-6.2351-10.569-13.0541-20.977-20.2101-31.206-10.565-15.254-31.696-42.4735-17.025-58.8237 4.237-4.5982 10.849-7.3847 17.762-8.9655l2.798-.675c18.6392-4.3443 38.248-5.9597 57.6733-6.2943 84.4627-.4211 169.7137 8.0597 253.6437 14.7232 137.644 10.7598 276.142 21.2715 414.647 16.408 63.782-2.8962 173.522-14.4983 210.256-57.4969z"/><path d="m748.014 16.6672c-19.476 13.454-44.039 21.9119-68.984 27.9466-82.755 20.0252-170.94 19.4021-256.931 18.329-127.459-2.0942-254.866-12.854-381.5766-22.9099-44.75909-3.4558-89.581-6.1039-134.5393-7.2924-14.9451-.398-29.8831-.5423-44.6131.6289-10.998.9173-21.882 2.5269-32.166 5.5789-30.595 7.6789-10.356 33.8081 1.165 47.4468 5.999 7.1251 12.956 13.8979 18.988 21.0579 38.268 44.879 71.7289 96.578 65.4494 151.329-5.6009 45.912-42.7404 85.328-83.5834 117.924 40.935-33.94 78.5275-75.018 81.3091-122.291 3.1435-49.865-26.2391-96.798-60.8191-138.031-11.751-14.614-26.605-27.4216-36.528-43.0334-6.659-10.3212-12.153-25.0675 1.717-33.5311 3.809-2.4577 8.583-3.7905 13.188-5.1232 9.904-2.6654 20.33-4.252 30.731-5.1231 30.2-2.2443 60.2416-.1558 90.3874.8654 89.5076 4.1481 179.6756 13.5809 268.9856 19.506 89.599 6.329 179.474 10.7655 269.483 10.7482 63.52-.1327 127.935-2.7635 188.97-16.9906 24.976-5.7981 49.593-13.8694 69.367-27.035z"/><path d="m662.698 15.6172c-23.744 10.3501-50.281 16.8809-76.879 21.6694-58.891 10.5925-119.805 12.2944-180.101 12.3463-117.045.075-234.089-7.3847-350.4121-16.5579-64.87055-5.1173-131.4402-11.0597-196.4839-13.3674-21.451-.6115-44.045-2.8039-65.24-.6866-8.832.9058-17.494 2.5847-25.409 5.5905l-2.338.923-1.168.4616c-3.205 1.4308-6.224 3.3174-8.057 5.6482-11.936 15.5598 24.264 42.4966 37.498 53.6487 4.964 3.9347 9.982 8.3309 14.36 12.6867 43.106 41.5563 80.978 90.3183 82.613 144.4233-.034 3.19.034 7.223-.342 10.408l-.411 4.153-.104 1.039-.186 1.033c-5.426 35.313-29.977 67.091-58.701 94.558 28.131-28.015 52.233-60.208 56.744-95.753 5.858-58.968-36.024-113.153-83.021-157.842-13.572-13.0848-30.279-23.9196-42.852-37.7774-11.414-12.1848-21.991-29.7408-.033-39.439 22.672-9.8309 49.832-9.0232 75.023-7.8866 14.271.7269 29.617 1.0904 43.818 1.7885 57.5836 2.5442 117.35042 7.8462 174.8354 12.4732 101.7456 8.0712 203.7396 15.2136 306.0416 17.2502 58.352 1.0327 117.051 1.552 175.074-3.7904 18.103-1.6846 36.13-4.0904 53.887-7.2405 24.754-4.4596 49.492-10.4194 71.844-19.7598z"/><path d="m552.535 16.9095c-33.416 8.002-68.14 12.5309-102.941 15.4098-76.761 5.8154-154.142 4.1077-231.081 1.5865-83.865-3.075-167.8762-9.0405-251.3146-15.831-62.607-5.1577-125.2144-10.60977-188.1364-12.79633-13.941-.61731-27.812-1.7308-41.706-1.29809-13.426.40384-27.386 2.33081-38.327 8.36552-2.528 1.4019-4.46 3.2077-5.42 5.302-4.332 10.4886 12.804 24.9695 21.643 32.3773 11.761 9.6521 25.076 18.2772 37.928 27.1908 2.119 1.5 5.399 4.0789 7.427 5.7578 47.258 38.4002 92.56 82.8012 103.769 135.8732 8.329 37.004-7.063 74.568-32.142 106.23 20.457-27.41 34.669-58.535 32.225-90.313-5.033-58.824-55.269-108.145-107.01-149.5518-1.76-1.4307-5.273-4.2058-7.279-5.5616-18.177-12.4502-37.421-24.4272-51.943-39.6063-6.089-6.7385-12.722-15.0867-9.286-23.5906 1.301-2.925 4.008-5.3886 7.103-7.10787 11.863-6.61741 26.758-8.792394 41.097-9.236638 14.128-.461548 28.208.652008 42.213 1.252018 63.015 2.09423 125.7868 7.51733 188.4081 12.79619 139.0689 11.3483 278.7979 21.2369 418.8159 19.4369 20.982-.3116 41.945-1.1539 62.847-2.5558 34.8-2.5212 69.527-6.6693 103.11-14.129z"/></g><path d="m0 671h1600v300h-1600z" fill="url(#a)"/></g></g></svg>