<svg width="1600" height="971" viewBox="0 0 1600 971" fill="none" xmlns="http://www.w3.org/2000/svg">
<g clip-path="url(#clip0_391_714)">
<rect width="1600" height="971" fill="black"/>
<g clip-path="url(#clip1_391_714)">
<path d="M1908.15 1079.32C1825.94 1105.33 1735.7 1113.93 1647.04 1112.14C1563.67 1110.28 1480.78 1100.16 1400.07 1084.55C1319.4 1068.35 1242.7 1043.24 1164.94 1020.81C1110.48 1005.45 1054.85 992.251 998.032 982.852C987.239 981.041 972.207 978.912 961.391 977.297C953.955 976.362 940.117 974.579 932.728 973.65C792.932 957.542 650.344 959.873 509.881 970.16C410.549 977.574 312.155 991.437 214.989 1008.53C85.1386 1030.92 -42.1761 1061.26 -172.892 1080.92C-87.5621 1067.19 0.739456 1048.5 85.0996 1030.91C240.317 999.03 398.398 972.098 559.207 963.156C693.396 955.114 829.528 955.269 962.339 973.385C1021.13 981.537 1079.05 993.618 1135.35 1008.68C1234.41 1035.51 1330.28 1070.12 1433.35 1087.67C1588.63 1114.35 1757.29 1124.95 1908.15 1079.32Z" fill="white" fill-opacity="0.2"/>
<path d="M1908.16 1036.26C1733.23 1101.11 1501.12 1083.84 1321.55 1036.63C1279.54 1025.86 1238.82 1011.66 1197.43 999.664C1119.89 977.06 1039.81 958.691 957.666 948.606C842.639 934.218 725.241 933.641 609.124 939.612C565.009 941.925 520.389 945.139 476.584 949.668C255.504 970.887 44.2877 1026.71 -172.557 1062.95C-107.479 1051.92 -43.1261 1038.65 21.0468 1024.97C154.357 996.272 289.61 968.747 426.429 951.797C486.707 944.302 547.827 939.052 608.769 935.798C725.249 929.677 843.121 930.133 958.53 944.683C1041.02 954.871 1121.44 973.339 1199.19 996.243C1240.49 1008.32 1281.13 1022.57 1323.03 1033.45C1501.74 1081.06 1732.92 1099.3 1908.16 1036.26Z" fill="white" fill-opacity="0.2"/>
<path d="M1909.37 999.324C1863.14 1018.81 1812.34 1031.91 1760.4 1039.44C1647.81 1055.66 1531.12 1048.62 1419.97 1029.44C1365.63 1019.8 1312.39 1006.62 1261.12 989.954C1179.4 963.56 1094.96 941.354 1007.83 927.75C744.694 889.147 472.525 918.628 215.231 967.61C85.5135 991.893 -41.5817 1023.85 -172.218 1045.39C1.25353 1014.35 169.627 968.827 344.459 941.665C431.561 927.577 520.114 916.892 608.875 911.388C847.137 895.632 1043.24 913.096 1262.98 986.718C1385.32 1026.56 1518.91 1047.74 1652.3 1046.25C1741.08 1044.96 1830.83 1031.51 1909.37 999.324Z" fill="white" fill-opacity="0.2"/>
<path d="M1908.17 964.374C1830.47 997.449 1741.65 1015.26 1652.51 1016.95C1566.12 1018.18 1479.4 1010.45 1395.61 994.506C1376.75 990.964 1357.79 986.914 1339.21 982.57C1323.63 978.86 1306.84 974.689 1291.64 970.448C1198.05 944.048 1105.16 914.307 1006.65 900.069C941.349 890.226 874.477 885.853 807.956 884.694C730.313 883.621 652.05 887.117 574.922 893.838C497.69 900.461 420.664 911.105 344.823 923.838C170.642 952.431 1.93735 997.033 -171.847 1026.79C-41.7203 1003.59 85.1271 971.424 214.201 945.266C407.497 905.388 606.993 877.903 808.055 880.701C863.698 881.59 919.754 884.884 974.709 891.68C1029.85 898.321 1084.01 909.19 1136.76 922.956C1205.37 940.292 1271.6 962.845 1340.53 979.408C1441.19 1003.43 1546.79 1015.95 1652.47 1014.98C1741.34 1013.93 1830.14 996.601 1908.17 964.374Z" fill="white" fill-opacity="0.2"/>
<path d="M-171.461 1007.77C41.3943 968.821 247.966 911.036 463.571 880.413C644.24 854.762 831.998 843.437 1013.68 870.005C1087.21 880.765 1157.91 900.346 1227.53 920.659C1250.15 927.282 1278.02 935.527 1300.73 941.746C1351.03 955.062 1402.9 965.637 1455.44 972.566C1533.58 982.864 1614.4 985.599 1692.97 980.648L1700.01 979.587C1701.19 979.42 1702.36 979.212 1703.54 979.079L1707.09 978.687C1758.95 973.125 1810.27 963.156 1857.97 946.61C1875.31 940.61 1892.12 933.727 1908.17 925.933C1892.24 933.871 1875.53 940.915 1858.26 947.083C1815.04 962.51 1768.61 972.422 1721.57 978.554C1715.82 979.368 1709.71 979.991 1703.91 980.701C1701.99 980.966 1695.5 982.01 1693.37 982.345C1564.18 991.414 1432.62 979.229 1309.84 947.706C1305.56 946.615 1299.8 945.202 1295.68 944.031C1287.49 941.729 1275.61 938.527 1267.63 936.173C1188.92 913.378 1109.85 889.534 1027.25 876.109C969.025 866.716 909.488 861.68 850.021 859.741C775.59 857.439 700.778 859.984 626.714 865.788C598.603 867.951 565.861 871.147 537.953 874.332C296.123 901.338 65.9899 966.271 -171.461 1007.77Z" fill="white" fill-opacity="0.2"/>
<path d="M-171.105 990.277C118.232 935.077 399.94 849.068 700.089 832.556C814.366 826.112 930.701 828.552 1042.73 847.955C1124.69 862.187 1202.56 886.811 1280.83 909.38C1289.83 911.942 1303.27 915.652 1312.33 917.856C1316.8 918.986 1323.71 920.804 1328.22 921.79C1333.45 922.967 1347.06 926.221 1352.25 927.248C1370.48 931.102 1390.5 935.013 1409.05 937.892C1421.67 940.021 1437.39 942.138 1450.13 943.806C1456.16 944.498 1468.95 945.929 1474.95 946.604C1530.09 952.033 1586.43 953.867 1641.94 951.162C1653.49 950.752 1668 949.673 1679.48 948.883L1681.56 948.739L1683.63 948.531L1691.92 947.694C1694.69 947.4 1697.46 947.169 1700.22 946.829C1710.7 945.45 1722.66 943.8 1733.05 941.983C1765.65 936.513 1797.93 928.892 1828.48 918.698L1832.32 917.423C1833.59 917.002 1834.88 916.586 1836.13 916.119L1843.68 913.39L1847.46 912.029L1851.18 910.575C1871.07 902.913 1890.19 894.08 1908.17 884.053C1890.35 894.248 1871.36 903.259 1851.56 911.117C1809.43 927.761 1763.6 938.965 1717.08 946.119C1712.75 946.846 1705.07 947.85 1700.56 948.502C1695.07 949.154 1687.44 949.939 1681.86 950.544C1678.22 950.833 1662.91 951.975 1658.87 952.287C1651.33 952.864 1641.38 953.215 1633.74 953.66C1558.42 956.931 1482.04 952.673 1408.2 940.921C1388.09 937.881 1366.76 933.692 1347 929.59C1341.64 928.373 1328.22 925.327 1322.85 924.109C1317.1 922.702 1308.7 920.538 1302.91 919.096C1247.62 904.384 1193.43 886.892 1137.89 872.872C1108.87 865.43 1079.46 858.697 1049.7 853.205C1036.39 850.787 1022.26 848.612 1008.84 846.593C888.131 829.643 763.856 830.439 642.136 840.599C363.356 863.376 100.155 941.285 -171.105 990.277Z" fill="white" fill-opacity="0.2"/>
<path d="M1908.35 844.014C1816.47 900.905 1695.55 923.781 1578.5 925.742L1570.08 925.915C1567.76 925.967 1564.04 925.927 1561.65 925.915L1544.8 925.835C1543.39 925.846 1541.99 925.794 1540.59 925.748C1538.24 925.685 1530.49 925.442 1527.96 925.373C1522.63 925.223 1516.25 925.033 1511.13 924.692C1504.49 924.329 1492.13 923.712 1485.93 923.129C1479.67 922.598 1471.16 922.015 1464.99 921.381C1457.03 920.51 1443.61 919.246 1435.8 918.15C1429.57 917.308 1421.18 916.338 1415.05 915.404C1407.23 914.169 1393.85 912.248 1386.19 910.8C1378.51 909.404 1369.17 907.863 1361.63 906.259C1355.45 904.99 1343.03 902.561 1337.26 901.165C1332.19 900.005 1324.13 898.177 1319.1 897.028C1307.46 894.092 1292.69 890.411 1281.29 887.1C1197.59 863.255 1114.76 836.497 1026.78 822.968C1015.73 821.11 1000.89 819.195 989.717 817.701C980.568 816.708 969.851 815.341 960.679 814.504L944.034 812.958C942.649 812.837 941.265 812.693 939.873 812.583C932.208 812.035 922.5 811.291 914.835 810.754C907.27 810.379 893.126 809.479 885.545 809.231C879.846 809.035 870.376 808.66 864.608 808.458C858.053 808.302 849.432 808.152 843.641 808.02C834.37 807.823 823.553 807.898 814.282 807.818C808.537 807.87 794.821 808.037 789.115 808.089C782.781 808.233 774.412 808.475 768.147 808.625C580.317 814.458 396.813 849.72 217.174 889.436C109.614 913.246 2.67405 938.746 -105.631 960.624C-127.294 964.991 -149.002 969.231 -170.762 973.31C142.736 911.786 448.706 813.143 776.355 804.443C787.486 804.068 803.007 803.952 814.259 803.82C823.584 803.889 834.446 803.825 843.748 804.004C847.833 804.108 861.357 804.339 864.807 804.425C870.797 804.65 879.831 804.973 885.851 805.21C888.016 805.279 892.132 805.464 894.266 805.597C900.73 805.966 913.382 806.595 919.479 807.062C925.629 807.506 934.357 808.17 940.454 808.614C946.053 809.122 959.945 810.431 965.552 810.95C974.777 812.024 985.533 813.131 994.72 814.349C998.239 814.81 1012.41 816.766 1015.47 817.164C1017.86 817.533 1025.3 818.727 1027.85 819.126C1116.07 832.695 1199.19 859.765 1282.9 883.828C1294.25 887.14 1308.93 890.85 1320.48 893.78C1327.81 895.477 1337.21 897.646 1344.53 899.348C1350.67 900.594 1364.63 903.571 1370.83 904.742C1376.46 905.769 1385.54 907.419 1391.21 908.457C1398.65 909.738 1412.44 911.884 1419.94 913.004C1427.26 913.944 1437.34 915.381 1444.72 916.263L1461.33 918.063L1465.48 918.513C1466.87 918.663 1468.24 918.825 1469.64 918.929C1476.93 919.506 1487.27 920.475 1494.65 920.988L1511.37 921.986L1515.56 922.234C1516.95 922.321 1518.34 922.413 1519.74 922.448C1526.91 922.662 1537.59 923.135 1544.88 923.284L1561.66 923.446L1565.85 923.487C1567.25 923.498 1568.65 923.521 1570.05 923.487L1578.44 923.354L1586.83 923.215L1591.02 923.152C1703.67 920.302 1819.17 897.963 1908.35 844.014Z" fill="white" fill-opacity="0.2"/>
<path d="M1908.16 800.802C1826.17 858.322 1715.58 887.948 1605.19 895.159C1597.08 895.575 1583.66 896.48 1575.66 896.659C1569.29 896.809 1560.8 897.167 1554.52 897.225C1551.94 897.236 1536.33 897.277 1533.38 897.288C1525.32 897.173 1516.13 896.919 1508.01 896.752C1495.94 896.238 1477.96 895.292 1465.84 894.259C1458.15 893.763 1448.37 892.684 1440.64 891.934C1438.03 891.663 1434.78 891.38 1432.27 891.046C1407.55 888.127 1381.95 884.307 1357.68 879.571C1345.09 877.153 1329.52 873.773 1316.99 870.836C1309.61 869.099 1300.3 866.642 1292.89 864.795C1242.78 850.909 1193.16 835.585 1142.48 823.055C997.129 785.035 846.571 775.758 694.031 787.989C396.698 813.345 117.787 901.056 -170.433 956.62C-126.997 947.735 -83.7783 938.256 -40.6893 928.46C195.941 874.569 430.169 808.891 676.674 785.537C754.998 778.435 834.408 776.865 913.045 782.012C923.097 782.762 936.882 783.754 946.688 784.746C1059.14 794.22 1166.21 823.66 1270.77 854.884C1333.52 873.201 1399.31 885.911 1466.25 891.375C1478.06 892.425 1496.28 893.452 1508.19 893.994C1515.88 894.184 1525.65 894.519 1533.43 894.657L1550.26 894.686L1554.47 894.692C1561.22 894.657 1568.93 894.357 1575.51 894.23C1584.67 894.052 1592.38 893.463 1600.73 893.094L1604.93 892.88C1606.32 892.794 1607.72 892.673 1609.11 892.569C1717.83 885.634 1826.56 856.649 1908.16 800.802Z" fill="white" fill-opacity="0.2"/>
<path d="M1908.17 756.65C1837.61 812.433 1741.65 848.185 1641.48 861.715C1594.09 867.98 1545.57 870.386 1497.49 869.111C1489.49 868.742 1479.92 868.447 1472.01 867.992C1467.88 867.703 1454.31 866.797 1450.82 866.555C1444.85 866.041 1435.75 865.136 1429.71 864.588C1420.04 863.578 1405.72 861.888 1396.12 860.463C1388.65 859.366 1378.51 857.953 1371.12 856.586C1338.04 851.001 1305.02 843.587 1273.39 834.449C1231.86 822.483 1188.61 808.827 1146.79 797.612C1109.62 787.585 1071.9 778.498 1033.31 772.21C1000.48 766.688 966.616 762.731 933.118 760.319L924.696 759.69L922.592 759.529L920.481 759.413C909.175 758.767 893.807 757.93 882.486 757.625C864.035 756.904 843.871 756.829 825.382 756.857C768.4 757.388 711.021 761.207 654.697 767.767C394.261 798.35 147.87 872.411 -104.699 926.417C-126.458 931.102 -148.261 935.665 -170.116 940.085C-148.333 935.469 -126.606 930.71 -104.926 925.829C231.013 852.789 596.115 727.463 950.559 757.682C981.417 760.411 1012.51 764.519 1042.76 769.74C1078.64 776.127 1113.88 784.539 1148.5 794.029C1187.57 804.65 1228.48 817.354 1267.14 828.893C1311.76 842.11 1358.03 852.114 1405.21 858.547C1405.21 858.553 1421.9 860.613 1421.9 860.613L1426.08 861.132C1433.83 861.94 1443.48 862.863 1451.25 863.59C1519.83 869.197 1589.91 867.392 1657.62 857.243C1751.57 842.768 1840.88 808.556 1908.17 756.65Z" fill="white" fill-opacity="0.2"/>
<path d="M1912.23 707.686C1854.48 761.196 1775.04 800.785 1688.26 822.177C1622.93 838.141 1553.5 843.685 1485.03 842.203C1423.52 840.472 1362.4 832.268 1303.79 818.11C1299.69 817.049 1285.67 813.466 1281.44 812.364C1277.91 811.348 1271.01 809.387 1267.39 808.354C1209.02 791.133 1150.7 773.531 1090.58 760.065C1055.33 752.005 1018.97 745.648 982.641 741.021C906.849 731.645 829.459 729.77 752.94 734.369C707.616 737.074 662.369 742.474 617.772 749.109C372.698 785.462 135.213 856.868 -103.999 909.617C-125.893 914.486 -147.831 919.24 -169.821 923.856C-147.905 919.044 -126.045 914.1 -104.232 909.034C135.893 854.116 370.009 782.444 616.793 745.359C661.497 738.609 707.027 733.197 752.512 730.44C829.459 725.743 907.301 727.584 983.506 737.103C1020.04 741.782 1056.64 748.209 1092.07 756.332C1152.33 769.856 1210.66 787.66 1269.09 805.025C1272.62 806.041 1279.52 808.031 1283.03 809.041C1287.24 810.137 1301.08 813.725 1305.22 814.793C1363.41 828.968 1424.05 837.385 1485.16 839.301C1553.26 841.003 1622.33 835.856 1687.46 820.302C1774.26 799.562 1853.77 760.486 1912.23 707.686Z" fill="white" fill-opacity="0.2"/>
<path d="M1907.66 665.033C1900.99 672.066 1893.88 678.851 1886.36 685.381C1882.9 688.48 1878.63 692.287 1875 695.114C1871.28 698.143 1866.95 701.749 1863.2 704.553C1863.19 704.553 1850.93 713.651 1850.93 713.651C1845.76 717.28 1840.2 720.926 1834.96 724.526C1833.27 725.588 1826.96 729.551 1825.02 730.734C1817.84 735.338 1808.69 740.375 1801.21 744.644C1795.25 747.702 1789.43 750.828 1783.48 753.852L1768.91 760.769C1767.69 761.334 1766.49 761.946 1765.25 762.471C1763.13 763.354 1756.29 766.348 1754.02 767.306C1749.98 769.123 1743.18 771.84 1738.87 773.473C1733.75 775.44 1728.7 777.512 1723.45 779.26C1671.74 797.998 1615.02 809.122 1558.06 813.575C1489.59 819.195 1419.53 815.716 1352.49 803.941C1318.98 798.223 1285.77 790.054 1253.86 780.558C1179.76 758.19 1104.58 735.621 1026.72 722.057C982.159 714.39 936.782 709.607 891.168 707.495C822.697 704.466 753.858 707.438 686.175 715.74C618.56 724.422 551.478 736.388 485.348 750.084C266.37 796.094 49.0862 860.786 -169.545 907.707C6.1729 867.992 177.924 819.374 352.371 776.669C443.752 754.394 536.265 734.49 630.333 719.68C715.993 705.926 803.963 699.47 891.481 703.468C937.394 705.62 983.054 710.472 1027.9 718.215C1095.09 729.961 1159.82 748.267 1223.72 767.542C1242.76 773.173 1268.67 781.463 1287.74 786.24C1306.1 791.144 1326.24 795.581 1345.17 799.164C1349.33 799.891 1357.68 801.414 1361.84 802.146C1366.6 802.971 1373.79 803.97 1378.62 804.731C1384.28 805.706 1398.06 807.304 1403.94 808.054C1406.47 808.406 1409.85 808.718 1412.42 808.966C1460.35 813.956 1509.54 814.7 1557.7 810.956C1603 807.604 1648.34 800.064 1690.9 787.781L1706.81 782.958C1707.47 782.756 1708.14 782.56 1708.79 782.346L1710.75 781.683L1714.65 780.35L1722.46 777.685C1730.27 775.129 1737.92 771.921 1745.54 769.106C1751.6 766.677 1758.31 763.711 1764.27 761.242C1771.56 758.011 1776.39 755.554 1782.55 752.773C1788.51 749.796 1794.4 746.709 1800.33 743.709C1805.57 740.83 1812.39 736.942 1817.56 734.074C1821.56 731.559 1830.03 726.522 1834.22 723.869C1839.44 720.309 1845.07 716.709 1850.27 713.12L1862.62 704.126C1868.11 700.151 1869.71 698.541 1874.56 694.809L1877.52 692.46C1878.5 691.676 1879.51 690.903 1880.42 690.072C1889.73 682.064 1899.39 673.693 1907.66 665.033Z" fill="white" fill-opacity="0.2"/>
<path d="M1908.25 615.293C1895.7 629.909 1882.5 644.408 1867.62 657.758L1862.07 662.806C1859.21 665.523 1853.65 669.856 1850.48 672.568C1848.52 674.143 1846.52 675.931 1844.56 677.368C1800.3 711.909 1746.77 739.982 1688.4 759.182C1617.23 782.808 1538.5 792.067 1461.06 790.429C1454.75 790.192 1445.62 789.835 1439.31 789.592C1435.59 789.344 1427.97 788.836 1424.13 788.577C1421.51 788.386 1417.99 788.208 1415.45 787.942C1413.79 787.815 1397.14 786.171 1396 786.09C1390.33 785.41 1382.35 784.4 1376.66 783.708C1374.02 783.419 1366.6 782.242 1363.83 781.833C1358.78 781.088 1351.68 780.027 1346.79 779.081C1343.83 778.567 1336.9 777.286 1334.08 776.79C1331.42 776.334 1316.02 773.109 1313.06 772.486C1308.21 771.54 1301.27 769.711 1296.4 768.621C1291.57 767.582 1284.69 765.719 1279.88 764.45C1241.89 754.29 1204.42 741.569 1166.71 730.913C1111.47 714.92 1055.15 700.618 997.114 691.86C991.607 691.076 983.521 689.916 977.99 689.126C951.997 685.808 924.902 683.183 898.58 681.862C823.79 677.783 748.236 681.833 674.716 692.853C612.479 702.314 550.7 714.47 489.856 728.138C312.653 768.667 139.672 819.137 -36.6372 861.755C-80.6726 872.549 -124.888 882.934 -169.31 892.794C-125.053 882.53 -80.9962 871.788 -37.0808 860.739C188.363 805.135 408.014 734.715 639.681 694.48C727.276 679.145 817.908 672.62 907.645 678.331C931.251 679.75 955.608 682.22 978.901 685.202C986.298 686.299 995.072 687.464 1002.42 688.624C1082.04 701.085 1158.06 723.632 1233.03 746.853C1250.86 752.449 1271.39 758.6 1289.6 763.261C1303.82 766.832 1320.62 770.64 1335.2 773.45C1338.06 773.986 1344.92 775.209 1347.82 775.746C1356.66 777.425 1366.37 778.734 1375.31 780.159C1381.82 780.984 1390.12 782.046 1396.64 782.86C1401.07 783.258 1415.82 784.833 1420.23 785.121C1425.92 785.508 1433.92 786.096 1439.61 786.483C1443.24 786.644 1447.24 786.794 1450.4 786.933L1459.04 787.296L1461.21 787.388C1467.81 787.475 1476.22 787.596 1482.83 787.677C1546.88 787.4 1611.43 779.744 1671.3 762.269L1687.31 757.29C1688.64 756.869 1689.98 756.471 1691.3 756.032C1696.97 754.001 1705.2 751.244 1710.93 749.138C1717.87 746.34 1727.04 743.063 1733.89 739.982L1741.41 736.745L1745.17 735.124C1774.79 721.809 1802.95 705.874 1828.25 688.197C1858.9 666.706 1885.44 641.708 1908.25 615.293Z" fill="white" fill-opacity="0.2"/>
<path d="M1908.28 563.126C1888.57 590.099 1866.07 616.38 1839.09 639.608C1804.3 669.51 1763.36 695.431 1717.76 715.543C1599.79 768.829 1452.97 777.552 1321.49 751.036C1312.07 749.011 1301.22 746.796 1291.92 744.43C1283.92 742.567 1274.85 740.161 1266.91 737.957C1264.41 737.265 1261.05 736.399 1258.65 735.655C1180.19 711.643 1102.14 685.854 1019.67 670.629C920.626 652.069 816.34 649.894 715.74 662.448C709.483 663.141 704.411 663.948 698.498 664.739C690.925 665.725 680.3 667.433 672.757 668.645C662.828 670.197 648.44 672.897 638.587 674.575C578.965 685.572 520.009 698.685 461.682 713.132C250.886 766.538 43.9388 828.656 -169.088 877.17C-124.464 866.468 -80.0238 855.334 -35.746 843.841C97.117 809.381 228.488 771.84 360.638 735.869C493.052 701.097 627.151 665.039 767.291 653.396C789.735 651.642 815.001 650.708 837.644 650.535C990.153 649.323 1106.75 683.397 1244.14 727.341C1248.86 728.766 1263.67 733.336 1268.57 734.565C1284.75 739.122 1301.84 743.265 1318.49 746.744C1501.34 785.15 1693.73 753.996 1826.25 648.7C1858.68 623.292 1885.31 593.758 1908.28 563.126Z" fill="white" fill-opacity="0.2"/>
<path d="M1908.38 506.895C1883.03 546.075 1854.55 584.626 1816.05 617.43C1760.1 665.362 1687.59 702.816 1607.08 722.992C1487.71 753.038 1355.24 743.888 1240.13 707.564C1166.45 684.164 1092.72 660.002 1015.14 644.991C906.322 623.511 790.775 623.563 681.279 642.36C580.182 659.916 481.678 685.433 384.351 712.33C223.081 757.677 62.3674 804.391 -101.099 845.128C-123.645 850.747 -146.257 856.211 -168.896 861.611C-33.4985 828.195 99.9298 790.475 233.065 752.294C381.407 709.768 529.398 664.739 684.507 637.814C748.481 627.238 814.351 622.704 879.785 625.173C925.706 627.042 971.94 632.402 1016.45 641.148C1076.94 652.964 1135.35 670.145 1192.84 688.399C1219.53 696.862 1245.86 705.845 1273.01 713.195C1275.41 713.813 1289.38 717.326 1291.93 717.978C1298.95 719.622 1306.13 721.168 1313.17 722.761C1408.45 742.705 1511.59 743.773 1605.98 720.488C1686.17 700.762 1758.58 663.874 1814.8 616.593C1853.57 584.086 1882.43 545.783 1908.38 506.895Z" fill="white" fill-opacity="0.2"/>
<path d="M1908.22 446.195C1879.58 496.267 1846.45 545.553 1801.41 588.487C1731.53 654.406 1627.6 699.718 1517.02 712.619C1432.99 722.674 1346.29 714.326 1266.4 692.962C1223.85 681.591 1182.76 666.256 1140.88 653.697C1081.04 635.264 1019.68 618.908 956.013 609.945C853.777 595.664 747.845 601.919 648.172 623.569C624.894 628.312 601.821 633.596 578.811 639.019C463.768 666.568 352.127 701.34 239.725 734.392C104.703 773.946 -30.9529 812.428 -168.737 846.207C-77.2552 822.893 13.397 797.773 103.508 771.615C261.683 726.736 416.415 674.772 577.331 635.512C600.386 630.031 623.502 624.683 646.825 619.883C761.928 594.66 884.941 590.324 1001.34 613.424C1079 628.6 1152.87 652.762 1226.1 677.005C1238.07 680.893 1255.72 686.316 1268.03 689.484C1347.17 710.807 1433.06 719.265 1516.4 709.601C1626.3 697.128 1729.68 652.543 1799.84 587.541C1845.27 544.955 1878.8 495.93 1908.22 446.195Z" fill="white" fill-opacity="0.2"/>
<path d="M1910.81 373.955C1878.83 439.399 1840.31 503.969 1784.21 559.839C1717.02 626.916 1616.32 675.418 1505.69 688.676C1413.53 700.105 1318.29 688.093 1232.45 661.445C1209.55 654.302 1187.23 646.41 1164.52 639.008C1099.64 617.686 1033.43 597.892 964.267 586.053C858.879 568.278 748.221 574.981 645.456 598.88C628.413 602.648 609.356 607.175 592.504 611.403C570.283 616.925 544.605 623.737 522.622 629.806C487.893 639.481 453.386 649.624 419.032 660.043C224.992 720.361 30.5018 780.564 -168.614 830.855C-145.296 824.705 -122.007 818.503 -98.7979 812.128C17.33 780.443 132.087 745.977 246.302 710.588C343.365 680.46 439.646 648.631 538.421 621.7C566.702 613.921 597.531 606.097 626.264 599.3C735.193 572.291 852.805 562.998 965.422 582.118C1034.9 594.052 1101.45 613.982 1166.58 635.443C1211.64 650.46 1256.31 666.545 1304.15 675.909C1370.73 689.691 1441.34 693.73 1509.55 684.926C1617.62 671.443 1715.84 623.944 1782.26 558.712C1838.88 503.284 1877.85 439.01 1910.81 373.955Z" fill="white" fill-opacity="0.2"/>
<path d="M1910.4 298.636C1876.65 379.129 1835.39 459.406 1769.45 528.305C1738.53 560.052 1703.38 590.031 1660.58 612.959C1528.09 683.195 1370.34 683.697 1224.37 637.588C1215.9 635.01 1206.57 631.836 1198.2 628.975C1138 608.101 1077.19 587.871 1013.92 572.889C999.96 569.603 984.883 566.387 970.723 563.649C964.68 562.575 956.113 561.056 950.039 560.008C945.587 559.34 936.002 557.933 931.504 557.26C826.483 543.008 724.935 552.018 624.519 578.127C601.732 583.878 575.583 590.806 553.091 597.226C312.282 669.446 77.4828 753.344 -168.533 815.658C-144.734 809.196 -120.968 802.665 -97.2856 795.967C68.679 749.398 231.519 696.903 393.46 642.937C451.39 623.898 509.888 605.37 569.2 588.849C591.872 582.609 618.025 575.692 641.035 570.171C645.823 568.928 654.154 567.063 659.21 565.934L668.328 563.883L677.538 562.049C772.615 542.729 874.094 541.264 969.714 559.326C984.806 562.117 1000.64 565.583 1015.51 569.06C1075.97 583.419 1134.21 602.543 1191.73 622.455C1214.5 630.475 1237.88 637.981 1261.64 644.142C1409.52 683.524 1566.51 671.235 1688.14 593.109C1723.78 569.681 1754.02 541.78 1780.83 512.471C1839.58 447.329 1877.92 373.112 1910.4 298.636Z" fill="white" fill-opacity="0.2"/>
<path d="M1907.99 218.801C1871.5 317.3 1828.57 417.097 1749.58 501.364C1708.49 545.408 1657.07 584.922 1594.52 611.535C1503.18 651.181 1390.93 654.279 1290.93 633.279C1253.21 625.577 1216.71 614.788 1181.39 602.275C1122.77 581.641 1063.21 562.091 1001.43 547.621C896.997 521.983 783.163 518.782 676.796 539.636C676.796 539.636 667.464 541.571 667.464 541.571L662.79 542.538L660.464 543.025L658.154 543.575C621.36 552.282 584.496 562.784 548.709 573.594C404.638 617.869 265.693 670.958 121.517 715.393C25.8252 745.578 -70.8194 774.235 -168.492 800.566C-22.5683 759.869 121.143 714.655 262.955 666.429C345.579 638.171 427.419 608.27 510.97 581.533C553.401 567.957 596.798 555.206 640.423 543.903C644.286 542.98 652.685 540.948 656.716 539.983C659.179 539.36 663.539 538.483 666.102 537.942C674.891 535.988 685.601 534.043 694.505 532.481C796.275 515.204 903.881 519.516 1003.02 543.767C1065.15 558.366 1124.78 577.984 1183.59 598.725C1218.65 611.181 1254.87 621.879 1292.26 629.598C1391.08 650.552 1501.95 647.685 1592.49 608.795C1654.64 582.589 1705.88 543.485 1747 499.977C1826.46 416.193 1870.21 316.844 1907.99 218.801Z" fill="white" fill-opacity="0.2"/>
<path d="M1908.64 125.591C1859.47 260.558 1813.05 403.309 1690.79 512.684C1630.09 566.185 1548.58 610.538 1454.34 620.557C1360.33 631.282 1265.96 610.456 1180.8 581.601C1156.39 573.256 1132.3 564.649 1107.73 556.649C1085.02 549.205 1061.36 541.918 1038.14 535.406C999.126 524.573 959.142 515.153 918.309 509.12C912.564 508.274 904.425 507.395 898.634 506.639C892.82 506.001 884.681 505.358 878.837 504.788C717.477 492.283 561.578 538.732 419.409 591.577C323.667 627.538 227.535 663.158 129.173 694.964C31.1046 727.197 -68.1493 757.544 -168.497 785.502C-43.5598 749.576 79.7336 710.351 201.239 668.269C303.51 633.723 401.513 592.528 503.899 558.169C621.246 518.913 749.896 490.907 879.372 500.863C884.207 501.285 892.193 502.041 896.89 502.457C901.48 502.922 909.779 504.022 914.323 504.555C952.273 509.726 989.457 518.154 1025.82 527.748C1041.18 531.886 1057.69 536.605 1072.78 541.243C1097.54 548.797 1122.25 556.984 1146.5 565.369C1241.56 599.771 1346.68 629.038 1453.65 616.997C1546.83 607.21 1627.55 563.515 1687.87 510.79C1810.38 402.066 1857.77 259.895 1908.64 125.591Z" fill="white" fill-opacity="0.2"/>
<path d="M1907.37 45.3923C1839.12 205.283 1801.86 384.645 1641.94 510.317C1499.91 619.392 1342.68 615.626 1167.1 556.883C1080.37 527.179 992.991 495.577 898.144 484.109C660.74 455.94 448.884 561.264 244.55 636.019C109.108 685.502 -29.3906 730.509 -170.003 770.934C-42.6863 733.232 82.9517 692.074 206.192 647.31C330.16 603.666 447.344 548.829 575.927 512.821C689.411 479.662 814.481 464.071 934.388 485.419C956.059 489.192 977.692 493.906 998.759 499.281C1044.27 510.787 1088.34 525.351 1131.9 540.432C1181.26 557.929 1231.8 574.045 1284.85 583.877C1347.33 595.666 1413.99 598.119 1476.34 584.728C1532.03 572.62 1582.01 548.391 1624.23 518.785C1793.65 398.752 1836.93 205.56 1907.37 45.3923Z" fill="white" fill-opacity="0.2"/>
<path d="M1886.29 18.3573C1809.95 178.79 1776.97 368.012 1610.31 492.922C1561.51 528.778 1501.04 557.401 1433.52 567.323C1309.22 585.832 1190.34 546.5 1080.02 507.864C1058.54 500.744 1036.13 493.651 1014.16 487.397C995.531 482.072 975.528 476.907 956.381 472.72C947.469 470.716 936.025 468.453 926.938 466.837C921.399 465.769 912.755 464.466 907.117 463.542C817.304 450.26 723.52 456.458 636.323 476.648C628.581 478.315 619.792 480.671 612.156 482.54C546.952 500.63 481.694 519.633 420.436 544.392C313.398 589.047 205.293 632.69 93.9388 671.021C38.5016 690.331 -17.7686 708.995 -74.1382 726.73C-105.495 736.636 -137.047 746.19 -168.659 755.617C-48.9872 719.005 69.1198 679.37 184.693 635.886C214.668 624.636 245.872 612.611 275.365 600.76C323.338 581.47 370.706 561.323 418.443 541.623C466.328 521.947 516.796 506.186 567.556 491.342C675.535 457.772 792.412 442.517 908.135 459.66C911.569 460.198 919.885 461.547 923.174 462.067C926.264 462.635 934.893 464.198 938.113 464.788C941.426 465.459 949.749 467.152 952.946 467.799C956.067 468.49 964.451 470.36 967.679 471.076C996.747 477.862 1025.96 486.177 1054.02 495.048C1075.93 502.003 1097.81 509.378 1119.39 516.855C1216.37 550.97 1324.55 579.501 1432.59 563.72C1499.26 554.046 1558.94 525.813 1607.31 490.582C1773.49 367.019 1808.23 177.377 1886.29 18.3573Z" fill="white" fill-opacity="0.2"/>
<path d="M1852.48 19.1421C1781.55 162.665 1748.52 327.581 1614.06 447.356C1557.74 496.817 1480.8 536.618 1393.43 544.459C1278.6 555.588 1168.71 519.913 1066.62 484.634C1048.69 478.695 1029.66 472.622 1011.41 467.282C977.493 457.309 942.642 448.519 907.087 442.57C800.161 424.277 686.58 434.332 585.377 465.138C573.279 468.767 560.565 472.912 548.62 476.814C500.729 492.612 450.956 510.484 403.627 527.316C379.727 536.082 356.561 545.954 333.639 556.109C265.391 587.488 194.706 615.877 122.968 642.412C51.2579 669.025 -21.507 694.006 -95.0303 717.632C-119.542 725.495 -144.162 733.163 -168.821 740.755C-144.265 732.978 -119.751 725.12 -95.3504 717.072C50.8472 668.656 195.337 616.463 331.676 553.598C354.626 543.339 377.826 533.362 401.794 524.484C411.523 520.927 427.91 515.079 437.886 511.514C484.099 495.031 531.859 477.902 578.926 463.192C592.648 458.996 607.108 454.791 621.23 451.369C720.728 426.453 828.64 421.985 930.173 442.687C971.251 450.953 1011.35 462.352 1050.4 474.967C1062.27 478.796 1075.29 483.112 1087.03 487.099C1193.44 524.315 1313.65 558.443 1431.7 535.169C1508.79 519.467 1574.45 480.352 1623.64 433.777C1648.6 410.375 1669.92 384.806 1688.61 358.296C1763.2 251.253 1795.72 131.563 1852.48 19.1421Z" fill="white" fill-opacity="0.2"/>
<path d="M1817.92 18.5191C1752.19 146.344 1721.76 287.496 1615.98 401.648C1579.75 439.73 1533.07 472.936 1477.71 494.659C1466.09 499.2 1453.98 503.303 1441.68 506.709C1436.67 508.214 1428.26 510.204 1423 511.491C1423 511.491 1413.49 513.451 1413.49 513.451C1410.97 514.022 1406.58 514.796 1403.9 515.216C1400.69 515.736 1397.48 516.315 1394.26 516.785L1384.52 518.02L1382.09 518.329C1381.47 518.418 1380.27 518.548 1379.65 518.601C1373.28 519.253 1366.43 519.82 1360.05 520.216C1252.45 526.772 1149.83 494.936 1053.74 462.211C1000.17 444.572 945.112 428.595 887.84 419.354C792.473 403.907 691.69 410.249 600.16 435.316C592.656 437.245 584.715 439.744 577.426 441.919C577.427 441.919 575.163 442.6 575.163 442.6L572.929 443.333L564.002 446.282C552.083 450.202 540.313 454.488 528.564 458.708C481.563 475.763 435.453 494.202 388.772 511.91C365.402 520.697 342.007 529.34 320.004 539.821C292.244 552.771 264.287 565.522 235.838 577.607C105.338 633.573 -30.7549 682.035 -169.094 725.894C-157.136 721.947 -145.14 718.07 -133.218 714.067C-25.788 678.355 80.1684 639.827 182.996 597.098C205.391 587.801 228.967 577.734 251.083 567.992C285.113 553.359 317.445 536.492 351.995 522.547C409.748 500.463 468.328 476.952 526.524 455.521C542.583 449.668 559.088 443.76 575.582 438.559C655.798 413.458 744.013 402.53 830.606 408.771C922.393 414.926 1008.48 442.254 1091.65 470.516C1189.88 503.196 1299.93 530.156 1407.6 510.942C1414.83 509.537 1415.49 509.319 1421.66 508.091L1430.91 505.845C1432.44 505.461 1434 505.116 1435.52 504.702L1440.07 503.416L1444.62 502.131L1446.89 501.488C1447.66 501.28 1448.41 501.058 1449.15 500.809C1455.09 498.867 1461.11 497.052 1466.9 494.846L1471.28 493.257L1473.47 492.463C1474.19 492.187 1474.9 491.89 1475.62 491.604C1507.19 479.277 1536.42 463.016 1561.95 444.372C1599.44 417.134 1629.51 384.518 1654.25 350.075C1727.92 245.455 1760.61 128.211 1817.92 18.5191Z" fill="white" fill-opacity="0.2"/>
<path d="M1779.37 18.5941C1735.56 109.005 1705.39 203.114 1654.11 291.459C1618.33 353.035 1568.74 412.568 1494.89 451.925C1491.47 453.697 1486.11 456.428 1482.93 458.035C1478.79 459.944 1474.74 461.922 1470.64 463.759C1465.28 466.076 1459.07 468.737 1453.72 470.73C1450.93 471.797 1447.83 473.043 1445.1 473.968C1442.72 474.755 1436.15 477.058 1434.12 477.727L1431.89 478.405L1427.41 479.762C1421.12 481.775 1414.6 483.352 1408.16 485.075C1404.48 485.911 1399.18 487.089 1395.45 487.933C1318.96 503.607 1237.62 494.686 1163.26 476.704C1120.65 466.516 1079.27 453.176 1038.41 439.595C1006.26 429.157 973.554 419.617 940.125 411.809C906.88 403.95 872.503 397.922 838.003 394.25C750.026 385.262 658.629 391.603 575.811 416.297C568.808 418.266 560.696 421.039 553.869 423.255C515.056 437.18 477.05 452.551 439.14 467.815C363.249 498.483 288.993 531.503 215.391 565.191C203.021 570.646 186.359 578.055 173.97 583.318C124.504 604.609 72.7738 625.179 21.7497 644.269C-40.989 667.82 -105.066 690.003 -169.327 711.043C-64.5052 675.678 38.975 637.883 139.18 595.579C163.408 585.356 189.873 573.763 213.676 563.024C323.794 511.986 435.72 462.811 551.869 419.946C638.09 390.23 735.369 380.935 829.176 389.433C902.428 395.938 973.064 413.942 1040.5 435.943C1161.93 477.134 1304.62 516.81 1434.49 473.824C1434.49 473.825 1443.15 470.872 1443.15 470.872C1443.87 470.621 1444.61 470.392 1445.31 470.123L1447.43 469.314C1454.76 466.614 1461.45 463.85 1468.39 460.874C1476.68 457.194 1484.54 453.323 1492.41 449.263C1587.39 398.885 1640.52 317.104 1680.18 237.112C1716.29 165.077 1743.29 90.6412 1779.37 18.5941Z" fill="white" fill-opacity="0.2"/>
<path d="M1741.59 18.6578C1689.9 124.513 1658.53 237.43 1581.42 335.248C1535.28 392.786 1470.43 440.073 1384.08 460.702C1299.23 481.093 1207.61 469.314 1125.15 448.019C1077.63 436.043 1032.2 420.129 985.87 405.896C899.651 379.707 807.214 360.679 713.56 364.799C685.785 366.045 657.856 369.674 630.983 375.097C600.273 381.212 570.192 389.941 541.561 400.278C478.239 423.951 418.476 454.193 357.508 481.093C314.249 499.976 269.625 517.04 227.601 537.432L211.769 545.023L203.852 548.816C189.289 555.668 170.551 564.273 155.802 570.906C110.548 591.118 63.0239 610.831 16.2506 628.975C-44.7119 652.733 -107.094 675.037 -169.679 696.222C-67.6246 660.631 33.0896 622.664 130.086 579.765C161.8 565.735 194.883 550.335 225.691 535.211C278.283 509.453 334.559 488.919 387.451 463.764C429.717 444.229 472.971 423.678 516.437 405.915C549.47 392.393 584.505 381.253 620.58 373.262C649.151 367.072 678.87 362.751 708.527 361.124C804.491 356.058 899.56 375.247 987.843 402.194C1034.06 416.422 1079.45 432.364 1126.82 444.332C1208.35 465.415 1298.74 477.41 1382.7 457.403C1520.9 424.437 1594.06 328.66 1643.27 232.295C1679.65 162.065 1706.47 89.2337 1741.59 18.6578Z" fill="white" fill-opacity="0.2"/>
<path d="M1702.96 18.7094C1678.21 70.76 1657.65 123.861 1633.57 176.09C1609.55 228.297 1582.81 280.428 1542.46 326.871C1523.98 348.142 1502.44 368.023 1477.48 385.176C1452.54 402.282 1423.96 416.746 1393.15 427.142C1388.49 428.812 1383.06 430.336 1378.27 431.863C1372.25 433.521 1364.71 435.611 1358.61 436.926C1349.88 439.008 1340.76 440.691 1331.77 442.056C1328.79 442.554 1325.58 443.012 1322.69 443.331C1202.54 457.677 1085.5 421.334 977.034 386.566C898.289 362.473 814.81 344.664 729.464 343.054C723.642 342.835 716.972 342.921 711.227 342.933C699.141 342.915 686.917 343.463 674.884 344.346C644.836 346.689 614.751 351.737 586.133 359.035C563.26 364.781 540.529 372.218 519.127 380.577C478.767 396.811 440.766 416.127 402.488 434.979C346.396 462.888 290.761 491.548 231.9 516.11C162.129 544.617 96.0873 578.245 26.4946 607.064C-16.4026 624.746 -59.9286 641.535 -103.864 657.694C-125.841 665.754 -147.935 673.629 -170.102 681.377C-103.974 657.556 -38.5106 632.627 25.5155 605.73C94.7593 576.435 160.491 542.593 230.14 513.726C240.525 509.316 251.559 504.534 261.787 499.871C340.382 464.303 414.028 422.951 492.773 387.489C519.05 375.725 547.054 365.543 575.824 357.719C616.181 346.648 659.026 340.048 701.971 339.096C797.384 337.048 891.298 355.862 979.015 382.885C1086.65 417.385 1202.7 453.819 1321.92 439.885C1323.41 439.699 1324.92 439.556 1326.4 439.335L1330.86 438.647L1335.31 437.96C1342.7 436.766 1350.08 435.344 1357.29 433.651L1361.64 432.653L1363.82 432.154C1364.54 431.978 1365.25 431.776 1365.96 431.589L1374.54 429.3C1375.25 429.105 1375.97 428.928 1376.67 428.719L1378.77 428.075L1382.99 426.786C1497.67 391.718 1561.76 310.284 1605.85 227.287C1642.51 158.938 1668.96 87.791 1702.96 18.7094Z" fill="white" fill-opacity="0.2"/>
<path d="M1661.83 22.3386C1638.35 73.2527 1618.18 125.009 1594.04 175.756C1570 226.48 1542.26 276.996 1499.94 320.785C1446.67 376.747 1367.15 415.492 1275.11 421.262C1166.65 428.152 1062.2 397.434 963.861 366.662C955.631 364.083 939.046 359.185 930.693 356.854C852.882 335.323 770.328 321.575 687.2 322.014C639.887 322.042 592.561 328.977 548.587 342.131C523.812 349.47 499.902 358.66 477.283 369.224C394.646 409.273 318.737 456.947 234.912 495.695C101.494 554.888 -30.9995 615.834 -170.601 666.522C-37.0564 616.752 89.7282 557.579 217.718 500.29C307.417 460.107 387.153 408.771 474.738 366.149C497.572 355.418 521.711 346.071 546.746 338.606C591.228 325.175 639.214 318.148 687.154 318.085C770.993 317.583 854.136 331.337 932.521 353.127C940.852 355.458 957.658 360.431 965.873 363.01C1064.87 393.994 1170.01 425.218 1279.13 417.488C1368.48 410.942 1444.84 373.43 1497.13 319.221C1539.59 275.83 1567.58 225.591 1592.15 175.242C1615.96 126.624 1638.4 71.0488 1661.83 22.3386Z" fill="white" fill-opacity="0.2"/>
<path d="M1623.39 18.7728C1574.93 122.632 1537.1 254.772 1431.59 333.979L1428.47 336.304C1427.64 336.933 1420.02 342.137 1418.75 343.048C1415.88 344.935 1411.33 347.75 1408.65 349.464C1405.1 351.489 1401.7 353.56 1398.19 355.527L1390.99 359.352C1389.24 360.373 1385.62 362.069 1383.65 363.027C1360.32 374.491 1334.54 383.249 1307.85 389.22C1305.27 389.768 1297.85 391.251 1295.09 391.799C1291 392.485 1286.31 393.276 1282.18 393.945C1279.77 394.283 1271.75 395.295 1269.15 395.64L1260.41 396.478C1222.55 399.849 1183.99 397.867 1146.55 392.889C1065.73 382.199 990 357.616 913.275 336.702C880.504 328.025 846.701 320.502 812.829 314.784C750.026 304.094 684.798 298.873 620.511 303.205C616.525 303.546 611.567 304.019 607.585 304.371C602.95 304.902 600.753 305.196 596.868 305.651C593.443 306.032 591.475 306.407 588.336 306.852L584.078 307.48L581.948 307.798L579.835 308.173L571.385 309.673L569.273 310.048L567.18 310.48L562.993 311.346C557.677 312.378 551.493 313.879 546.356 315.09C541.744 316.192 536.566 317.663 532.007 318.863C526.843 320.404 519.025 322.665 513.923 324.436C506.347 326.888 497.721 330.027 490.452 332.952C485.317 334.896 480.112 337.233 475.269 339.31C471.054 341.15 466.461 343.412 462.329 345.327L460.529 346.239L453.327 349.902L451.529 350.819L449.774 351.783C439.326 357.454 428.66 363.708 418.498 369.662C327.027 424.35 237.118 480.795 132.742 521.361C122.558 525.635 112.346 529.892 102.257 534.258C71.9697 547.455 43.4644 562.765 13.3947 576.292C-46.763 603.258 -108.517 628.144 -171.182 651.619C-108.945 627.561 -47.4614 602.33 12.3513 574.985C42.2175 561.296 70.6027 545.726 100.821 532.395C110.921 527.961 121.084 523.662 131.242 519.338C151.557 510.704 171.889 502.108 191.781 492.987C271.617 456.494 342.216 410.147 415.613 366.875C424.637 361.585 434.182 355.891 443.439 350.802C444.958 349.989 447.381 348.604 448.764 347.854C451.144 346.614 457.293 343.504 459.691 342.264C463.847 340.331 468.573 337.988 472.784 336.142C477.431 334.094 483.485 331.463 488.15 329.663C490.663 328.694 493.505 327.471 495.965 326.606C499.284 325.452 504.751 323.323 507.884 322.319C510.854 321.315 515.017 319.965 517.958 318.979C520.647 318.148 527.519 316.117 530.23 315.292C534.037 314.265 538.862 312.967 542.67 311.946C546.692 311.017 553.387 309.315 557.387 308.496C561.397 307.7 566.146 306.609 570.144 305.911C573.591 305.334 579.777 304.123 583.02 303.678C587.071 303.096 591.957 302.288 595.996 301.815C599.462 301.434 605.8 300.563 609.057 300.309C612.325 300.003 616.763 299.605 619.991 299.317C621.039 299.271 629.637 298.699 630.968 298.63C668.627 296.744 707.463 297.961 744.908 301.59C797.086 306.638 848.544 316.163 898.435 328.671C1003.6 355.989 1107.59 394.016 1220.89 394.625C1236.64 394.743 1252.88 393.877 1268.49 392.255L1277.04 391.164L1281.32 390.616L1285.56 389.935C1288.39 389.468 1291.22 389.035 1294.05 388.551L1302.44 386.901C1303.84 386.612 1305.25 386.376 1306.63 386.047C1332.97 380.254 1358.42 371.71 1381.49 360.483L1385.16 358.735C1386.39 358.158 1387.55 357.494 1388.74 356.883L1395.87 353.139C1398.2 351.841 1400.48 350.491 1402.79 349.175L1406.24 347.185C1407.37 346.504 1408.46 345.789 1409.57 345.09L1416.24 340.885L1422.66 336.471L1425.86 334.261L1428.98 331.971C1534.6 253.405 1573.39 121.951 1623.39 18.7728Z" fill="white" fill-opacity="0.2"/>
<path d="M1581 22.3036C1536.92 119.822 1502.16 236.426 1403.24 311.207C1401.66 312.396 1398.75 314.467 1397.03 315.661C1395.04 317.023 1392.7 318.777 1390.7 320.011C1380.07 326.998 1368.5 333.777 1356.59 339.517C1351.17 342.292 1343.95 345.379 1338.24 347.86C1336.11 348.667 1329.12 351.46 1326.83 352.342C1322.09 353.981 1315.91 356.26 1311.2 357.656C1298.19 361.798 1284.23 365.323 1270.55 367.873C1262.32 369.506 1253.77 370.775 1245.35 371.768C1242.65 372.096 1239.48 372.512 1236.86 372.708C1205.75 375.679 1173.93 374.872 1142.87 371.9C1060.8 363.869 983.483 339.979 905.404 320.779C835.51 303.644 763.871 289.267 690.543 283.936L673.637 282.943L671.526 282.817C665.796 282.609 658.185 282.361 652.471 282.159C646.956 282.113 638.946 282.038 633.408 281.992C628.008 282.061 619.715 282.257 614.353 282.343C604.136 282.799 592.903 283.29 582.728 284.201C565.446 285.874 547.787 288.499 531.075 292.238L522.98 294.061L514.978 296.103L510.98 297.136C501.992 299.663 492.333 302.559 483.679 305.686C470.944 310.1 458.515 315.35 446.674 321.009C437.228 325.631 427.967 330.494 419.247 335.877C375.399 363.033 333.887 392.208 290.414 419.79C255.712 441.936 219.719 463.085 181.44 481.627C143.306 500.293 103.778 517.221 64.5636 534.515C25.1714 551.574 -12.902 570.27 -52.2606 587.361C-91.5325 604.576 -131.494 620.875 -171.849 636.59C-131.769 620.5 -92.05 603.882 -52.9781 586.438C-13.82 569.082 24.0484 550.126 63.231 532.809C102.245 515.319 141.618 498.234 179.52 479.411C217.534 460.73 253.239 439.608 287.711 417.386C330.968 389.652 372.429 360.333 416.244 333.067C433.943 322.192 453.483 312.869 473.826 305.08C481.075 302.34 489.69 299.409 497.244 297.032C500.969 295.901 505.454 294.649 509.246 293.53C511.476 292.93 519.003 291.015 521.421 290.38C532.056 287.876 543.693 285.493 554.6 283.797C563.289 282.355 573.232 281.236 582.1 280.324C592.494 279.39 603.654 278.888 614.131 278.42C620.526 278.34 629.193 278.034 635.512 278.068C640.293 278.103 647.851 278.161 652.624 278.207C659.233 278.466 667.426 278.628 673.981 278.98C753.621 282.943 831.425 298.457 907.025 317.034C985.089 336.24 1061.69 360.119 1143.48 368.346C1174.14 371.352 1205.56 372.2 1236.3 369.362L1238.4 369.189C1239.1 369.131 1239.79 369.027 1240.49 368.952L1244.66 368.462C1252.95 367.51 1261.38 366.293 1269.51 364.718C1282.99 362.254 1296.79 358.81 1309.61 354.789L1313.52 353.589L1317.37 352.256L1325.05 349.602L1332.57 346.683C1338.48 344.456 1341.96 342.731 1347.33 340.463C1349.74 339.356 1352.09 338.19 1354.48 337.054L1358.04 335.34C1362.18 333.229 1367.9 330.234 1371.83 327.95C1377.96 324.471 1384.07 320.663 1389.88 316.884L1391.43 315.805L1394.55 313.636L1397.65 311.473C1398.69 310.751 1399.74 310.042 1400.71 309.269L1406.66 304.717C1501.17 230.547 1536.35 117.266 1581 22.3036Z" fill="white" fill-opacity="0.2"/>
<path d="M1541.39 18.7784C1493.15 128.136 1451.53 268.237 1305.32 326.265L1297.88 329.173L1290.27 331.821C1287.77 332.727 1285.05 333.621 1282.58 334.354L1274.81 336.725C1272.71 337.371 1269.14 338.271 1266.92 338.865C1265.13 339.321 1262.59 340.019 1260.99 340.435C1254.94 341.756 1248.98 343.261 1242.83 344.317C1240.12 344.819 1237.41 345.338 1234.69 345.823L1226.46 347.046C1223.76 347.473 1220.83 347.877 1218.2 348.142C1176.8 353.098 1134.36 350.935 1093.18 345.8C1016.31 336.05 943.055 314.825 868.762 297.99C767.842 275.42 662.446 256.595 556.58 264.476C549.121 265.105 541.555 265.901 534.113 266.87C488.122 273.188 443.986 287.582 406.869 309.073L400.435 312.973C399.368 313.625 398.284 314.265 397.231 314.934L394.131 316.988C392.071 318.361 389.988 319.711 387.944 321.113C328.775 362.173 273.952 407.065 210.815 444.871C162.776 473.397 110.66 497.916 57.0243 519.96C37.5409 527.977 18.0903 536.019 -0.416288 545.216C-37.5993 563.542 -75.6478 580.85 -114.268 597.387C-133.583 605.647 -153.053 613.694 -172.605 621.625C-153.182 613.515 -133.845 605.292 -114.671 596.858C-76.2838 580.057 -38.4591 562.51 -1.53007 543.944C16.9413 534.582 36.3735 526.375 55.756 518.227C106.669 497.023 155.968 473.415 201.968 446.55C267.472 407.733 323.665 361.048 384.717 318.471C392.666 312.984 401.86 307.198 410.654 302.409C443.428 284.363 481.313 271.699 520.853 264.926C549.506 260.132 579.054 258.666 608.267 258.689C742.759 258.955 870.53 294.822 997.26 324.494C1029.07 331.659 1061.24 338.046 1093.97 342.246C1134.66 347.415 1176.57 349.625 1217.52 344.894C1223.53 344.277 1228.13 343.44 1233.78 342.667C1242.51 341.19 1251.15 339.425 1259.72 337.452C1263.51 336.419 1269.47 334.988 1273.36 333.846L1281.04 331.532C1282.31 331.14 1283.61 330.788 1284.86 330.356L1288.62 329.063L1296.14 326.484L1303.49 323.64L1307.17 322.215C1308.41 321.754 1309.58 321.194 1310.78 320.686L1317.94 317.582C1318.54 317.317 1319.15 317.075 1319.73 316.792L1321.47 315.955L1324.96 314.276L1328.44 312.598C1329.6 312.038 1330.77 311.49 1331.88 310.873L1338.64 307.273C1339.75 306.661 1340.91 306.09 1342 305.455L1345.26 303.534L1351.79 299.703C1362.43 293.12 1372.51 285.926 1381.96 278.38C1467.81 208.058 1500.74 107.251 1541.39 18.7784Z" fill="white" fill-opacity="0.2"/>
<path d="M1499.15 18.7615C1466.46 96.0701 1438.58 177.613 1372.11 243.084C1299.49 313.884 1195.79 337.083 1081 324.638C951.936 310.844 831.356 270.009 702.966 253.751C638.159 244.78 571.408 240.689 505.921 247.503C502.302 248.016 497.648 248.547 494.052 249.124C493.263 249.291 485.055 250.589 484.236 250.757C477.132 252.112 469.952 253.676 462.981 255.361C460.842 255.99 453.802 257.755 451.622 258.43C449.836 258.989 445.967 260.132 444.161 260.697C441.044 261.563 436.103 263.426 433.13 264.378C430.665 265.174 428.28 266.224 425.922 267.072C421.594 268.613 415.985 271.14 411.797 272.876C408.096 274.665 401.817 277.417 398.241 279.401L394.917 281.103L393.256 281.957L391.645 282.869C383.154 287.519 374.558 292.936 366.933 298.359C298.904 350.762 237.932 409.336 158.949 453.029C106.883 482.474 50.7279 507.477 -6.12293 531.226C-40.227 545.494 -84.0475 566.307 -117.441 581.695C-135.937 590.191 -154.567 598.528 -173.46 606.509C-119.331 583.042 -61.3811 553.216 -7.11661 529.898C87.0373 490.075 179.176 445.613 252.993 385.516C286.76 359.041 318.694 331.262 352.181 304.567C357.729 300.09 363.571 295.665 369.671 291.575C370.686 290.882 371.684 290.178 372.714 289.498L375.872 287.525C379.314 285.286 385.036 281.969 388.771 279.892C390.478 278.865 393.649 277.307 395.481 276.344C399.247 274.353 405.258 271.509 409.274 269.657C413.569 267.851 419.308 265.29 423.646 263.715C425.923 262.838 428.72 261.736 430.981 260.957C433.907 260.016 439.384 257.968 442.207 257.178C444.108 256.578 447.902 255.447 449.8 254.847C452.088 254.126 458.888 252.413 461.363 251.697C468.461 249.966 475.777 248.374 483.019 246.989C483.946 246.793 491.831 245.535 493.023 245.316C496.695 244.734 501.404 244.174 505.123 243.655C571.265 236.72 638.518 240.77 703.93 249.776C832.289 266.097 952.869 306.99 1081.6 321.142C1195.26 333.644 1297.01 311.392 1369.71 241.659C1436.57 176.719 1465.24 95.5682 1499.15 18.7615Z" fill="white" fill-opacity="0.2"/>
<path d="M1455.94 18.7267C1423.88 98.0604 1392.91 185.679 1313.09 245.98C1309.71 248.305 1304.86 251.899 1301.38 254.126C1298.29 256.064 1295.29 258.032 1292.23 259.918C1289.66 261.366 1285.08 264.032 1282.72 265.37C1279.83 266.916 1274.22 269.801 1271.23 271.341L1269.53 272.126C1266.22 273.62 1262.62 275.409 1259.33 276.817C1256.57 277.993 1251.39 280.076 1248.84 281.155C1202.23 299.248 1150.54 306.442 1098.39 304.798C1066.6 303.938 1035.02 300.476 1003.88 295.676C983.421 292.717 932.491 282.643 911.462 278.709C771.949 253.278 621.643 215.333 476.802 228.833C448.331 231.602 420.458 238.168 395.024 248.212L388.161 251.062L386.446 251.772L384.775 252.545L381.435 254.085L378.094 255.626C376.969 256.128 375.921 256.716 374.831 257.259L368.355 260.582C358.003 266.288 347.6 272.818 338.748 279.834C331.739 285.165 324.44 292.099 318.114 297.759C264.542 346.815 213.403 398.615 146.97 438.487C97.608 468.634 43.6954 494.038 -11.1803 517.964C-63.8314 541.07 -121.765 568.209 -174.423 591.293C-122.264 567.671 -64.5054 540.118 -12.2061 516.65C42.1831 492.361 95.8639 466.718 144.752 436.437C177.46 416.355 206.941 393.581 234.334 369.431C267.977 340.106 298.744 308.767 332.521 279.499C340.671 272.98 349.676 266.651 359.108 261.211L365.497 257.576C369.571 255.447 374.694 252.764 378.834 250.907L382.241 249.326L383.943 248.535L385.693 247.803L392.691 244.878C401.899 241.22 412.091 237.787 421.883 235.035C463.145 223.312 507.94 221.887 551.579 222.054C611.145 223.041 670.287 230.466 728.301 240.274C811.559 254.316 921.735 277.982 1004.85 292.151C1061.17 300.846 1119.97 305.848 1176.8 297.096L1184.47 295.809C1185.75 295.59 1187.05 295.399 1188.31 295.151C1193.61 294.09 1201.86 292.44 1207.19 291.055C1219.59 288.095 1231.94 284.282 1243.6 279.949L1247.14 278.663L1250.6 277.249L1257.51 274.428C1258.68 273.978 1259.76 273.418 1260.89 272.922L1264.26 271.388C1270.14 268.768 1272.3 267.539 1277.45 264.938C1278.53 264.372 1279.65 263.853 1280.69 263.253L1283.84 261.476L1290.13 257.916C1292.17 256.676 1294.17 255.395 1296.2 254.137L1299.22 252.245C1299.72 251.922 1300.24 251.622 1300.73 251.287L1302.17 250.284L1307.97 246.268L1310.86 244.255C1391.1 184.271 1422.45 97.7373 1455.94 18.7267Z" fill="white" fill-opacity="0.2"/>
<path d="M1411.94 18.6691C1381.13 99.3989 1344.9 194.165 1249.76 245.132L1243.39 248.484C1239.11 250.48 1234.39 252.845 1230.15 254.616C1228.27 255.401 1223.27 257.524 1221.67 258.187C1217.68 259.716 1213.49 261.274 1209.48 262.734C1206.58 263.709 1201.46 265.359 1198.8 266.253L1195.18 267.303L1187.92 269.397C1184.64 270.297 1180.21 271.336 1176.86 272.19C1146 279.447 1113.47 282.776 1081.16 282.597C1010.38 282.401 936.989 266.801 868.012 255.66C796.841 244.093 697.534 225.516 626.761 216.55C560.033 208.121 491.243 204.048 424.309 213.291L420.588 213.92L416.866 214.554C410.864 215.593 410.861 215.766 405.802 216.752C399.704 218.12 393.679 219.672 387.755 221.391L385.967 221.893L384.21 222.452L377.19 224.702C371.399 226.699 365.726 228.862 360.174 231.187C348.091 236.264 336.394 242.524 325.884 249.303L320.256 253.186C318.341 254.449 316.6 255.845 314.811 257.207C310.695 260.201 308.123 262.641 304.498 265.67C300.053 269.801 294.675 275.103 290.506 279.43C246.322 324.69 206.077 372.864 151.795 411.867C55.8392 480.233 -63.7258 524.663 -175.496 575.95C-158.025 567.749 -140.474 559.641 -122.81 551.677C-28.547 509.176 69.6069 467.437 149.259 409.867C205.027 369.391 245.429 319.29 291.315 272.645C293.806 270.101 298.098 265.907 300.849 263.357L306.012 258.938C320.769 246.609 338.562 236.074 357.728 227.91C363.385 225.516 369.255 223.272 375.114 221.235C376.995 220.6 382.504 218.858 384.082 218.333C384.91 218.114 388.597 217.047 389.561 216.781C400.324 213.672 412.017 211.306 423.285 209.483C490.848 200.091 560.307 204.1 627.648 212.57C698.215 221.535 798.249 240.32 869.137 251.939C937.761 263.213 1010.72 278.842 1081.19 279.343C1113.07 279.638 1145.22 276.476 1175.73 269.432L1179.37 268.538L1183.01 267.643C1184.22 267.332 1185.46 267.072 1186.65 266.715L1193.82 264.678L1197.4 263.657L1200.92 262.514L1207.96 260.23C1210.28 259.428 1212.56 258.551 1214.86 257.72L1218.3 256.451C1218.88 256.237 1219.46 256.041 1220.02 255.811L1221.7 255.112L1228.41 252.332C1230.69 251.443 1232.83 250.387 1235.01 249.384L1241.53 246.349C1341.35 196.739 1379 100.703 1411.94 18.6691Z" fill="white" fill-opacity="0.2"/>
<path d="M1366.89 18.594C1341.62 88.3968 1311.05 164.338 1236.34 213.464C1228.54 218.298 1220.57 223.052 1212.1 227.12L1205.75 230.229C1203.1 231.412 1198.37 233.449 1195.93 234.533C1193 235.756 1187.22 237.955 1184.18 239.149L1182.46 239.743C1178.95 240.92 1175.59 242.166 1172.11 243.274C1169.18 244.139 1164.27 245.674 1161.58 246.464C1089.21 266.714 1015.92 262.053 941.601 251.905C902.099 246.43 862.757 240.73 823.377 234.828C742.284 222.799 661.803 207.943 580.105 198.585C561.046 196.404 539.733 194.552 520.543 193.3C478.488 190.767 435.397 190.825 393.583 195.319C359.285 198.769 326.417 210.014 300.094 226.918L297.255 228.724C296.325 229.335 295.443 229.993 294.535 230.622L291.827 232.537C290.933 233.177 289.996 233.795 289.163 234.481L284.027 238.52C283.147 239.178 282.387 239.916 281.568 240.614L279.15 242.737C278.354 243.447 277.515 244.133 276.753 244.872L274.495 247.087C270.075 251.27 265.623 256.48 261.868 260.974C229.717 299.225 200.451 339.298 162.754 374.814C137.696 398.589 108.25 419.559 76.8604 438.497C-1.77098 485.781 -92.2097 519.799 -176.694 560.464C-76.592 510.808 33.5616 470.59 119.706 406.596C179.534 363.021 217.806 306.701 261.919 254.276C262.844 253.174 266.433 249.308 267.263 248.328C267.633 247.935 268.03 247.566 268.411 247.18L270.723 244.895C272.179 243.389 273.921 241.762 275.487 240.412C277.088 238.993 278.861 237.378 280.48 236.068L285.737 231.908C288.284 229.947 291.366 227.858 294.024 225.977C296.221 224.593 299.125 222.695 301.292 221.333C301.291 221.333 302.806 220.462 302.806 220.462L308.868 216.983C321.185 210.354 334.712 204.591 348.789 200.35C360.561 196.767 372.808 193.969 385.346 192.383C389.713 191.644 403.086 190.525 407.85 190.012C447.726 186.769 488.57 187.058 528.484 189.85C545.1 190.94 564.372 192.74 580.888 194.592C701.405 209.316 821.496 232.381 942.428 248.426C1016.2 258.632 1088.3 263.686 1160.32 243.903L1163.79 242.87L1170.74 240.81C1173.05 240.101 1175.3 239.287 1177.58 238.531L1180.98 237.383L1182.69 236.806L1184.35 236.166L1191.01 233.616C1192.11 233.178 1193.25 232.797 1194.31 232.312L1197.56 230.916L1204.04 228.118L1210.34 225.083C1218.79 221.102 1226.66 216.458 1234.39 211.739C1309.49 162.925 1340.24 88.1545 1366.89 18.594Z" fill="white" fill-opacity="0.2"/>
<path d="M1321 18.4961C1285.14 125.326 1229.26 219.458 1068.96 236.437C1015.48 242.155 961.115 237.337 907.851 232.508C864.456 228.135 820.692 222.199 777.771 215.812C682.052 201.804 586.881 184.502 489.719 177.36C476.274 176.488 459.467 175.56 446.026 175.346C421.998 174.763 397.139 175.242 373.232 177.14C366.559 177.567 358.194 178.456 351.553 179.183C346.94 179.592 341.769 180.406 337.313 181.052C292.758 188.696 253.084 211.416 231.966 242.097C174.736 324.812 145.838 376.96 45.4557 438.043C-22.3294 479.568 -100.981 512.328 -176.219 545.529C-76.8588 500.148 28.567 456.62 107.053 390.835C160.051 347.133 191.606 292.29 227.821 240.441C240.971 221.385 261.043 205.104 284.989 193.502C287.384 192.441 290.593 190.935 292.957 189.891C293.28 189.746 300.501 186.908 301.184 186.631C302.845 186.031 308.238 184.219 309.646 183.723C312.114 183.019 315.833 181.894 318.317 181.185C320.926 180.533 324.588 179.673 327.172 179.033L328.973 178.675L336.183 177.279C339.142 176.846 344.358 176.027 347.144 175.733C352.791 175.144 359.756 174.337 365.379 173.829C406.592 170.194 448.895 170.558 490.195 173.385C645.938 185.062 796.336 221.327 952.02 232.901C1024.85 238.855 1097.31 237.908 1163.25 210.816C1256.51 172.565 1294.77 91.5355 1321 18.4961Z" fill="white" fill-opacity="0.2"/>
<path d="M1273.99 18.3687C1266.47 40.9267 1258.14 63.502 1246.44 85.0619C1229.91 115.743 1207.06 145.178 1174.98 168.111C1139.27 193.669 1091.92 208.41 1043.78 214.421C1040.86 214.756 1035.81 215.315 1033.14 215.621C1027.57 216.1 1020.87 216.735 1015.33 217.012C958.231 220.081 901.036 214.421 844.421 209.413C740.701 199.138 638.365 182.65 535.199 169.899C460.594 160.865 384.199 154.617 309.079 163.409C299.649 164.344 290.603 165.792 281.734 168.013L278.437 168.89L276.787 169.323C276.235 169.467 275.688 169.617 275.157 169.796L268.726 171.867C245.303 180.007 225.431 193.173 210.97 209.24C210.969 209.24 207.232 213.717 207.232 213.717L206.302 214.837L205.459 215.996L203.772 218.315C200.375 222.954 197.64 227.875 194.832 232.779C150.154 312.661 127.18 362.71 37.4012 422.447C-26.3235 464.915 -102.209 497.902 -174.995 530.738C-102.812 497.095 -27.6622 463.701 35.4988 420.841C108.537 371.41 138.017 328.353 174.111 261.193C181.279 248.172 190.058 231.591 197.903 219.037C199.14 217.214 200.928 214.865 202.217 213.037L203.17 211.877L207.012 207.244C217.144 195.988 229.897 185.846 244.688 178.028C247.501 176.575 250.848 174.826 253.818 173.569C259.719 170.863 266.841 168.255 273.292 166.265C275.02 165.699 278.279 164.903 280.115 164.39C283.289 163.472 287.257 162.786 290.556 162.042C324.462 156.601 359.365 155.107 393.955 155.263C451.24 155.822 507.905 162.134 564.187 169.524C657.787 181.721 750.89 196.288 845.033 205.911C901.365 211.006 958.224 216.937 1015.02 214.115C1066.61 211.294 1118.6 199.571 1159.74 175.34L1162.54 173.707C1163.47 173.159 1164.34 172.553 1165.24 171.982L1170.61 168.498C1171.52 167.932 1172.37 167.315 1173.22 166.698L1175.79 164.846L1178.35 162.999C1179.2 162.382 1180.08 161.788 1180.87 161.124L1185.74 157.242L1188.18 155.292L1190.5 153.267L1195.12 149.211C1196.65 147.849 1198.06 146.418 1199.54 145.022L1201.73 142.916L1202.83 141.866C1203.19 141.509 1203.52 141.14 1203.87 140.782L1208.03 136.438C1241.11 101.251 1259.59 59.7519 1273.99 18.3687Z" fill="white" fill-opacity="0.2"/>
<path d="M1225.64 18.2194C1219.08 38.5216 1211.59 58.7546 1200.65 78.001C1191.99 93.2204 1181.52 107.961 1168.89 121.519L1167.91 122.603C1164.74 125.73 1161.79 128.973 1158.41 131.973L1154 136.034L1149.35 139.94C1143.18 145.179 1136.4 149.985 1129.41 154.606L1124 157.912C1122.18 159.025 1120.32 160.162 1118.47 161.114L1112.8 164.183C1111.27 165.002 1108.58 166.26 1106.93 167.033L1103.98 168.435C1102.54 169.225 1096.63 171.573 1094.88 172.329C1092.83 173.183 1090.75 174.071 1088.72 174.775C1084.65 176.235 1080.13 178.012 1076.09 179.223C1039.86 191.177 1000.17 196.318 960.817 197.218C868.273 197.264 776.264 186.672 684.798 177.221C631.878 171.366 573.581 164.073 520.516 157.583C465.966 150.931 411.057 144.423 355.783 143.517C323.711 142.923 291.292 144.406 259.702 148.669C237.274 151.098 216.044 158.806 199.306 170.356C182.479 181.837 170.02 196.831 162.985 213.083C160.994 217.958 156.481 228.078 154.431 232.97C106.171 348.483 52.9141 402.535 -80.3354 470.754C-110.927 486.416 -142.409 501.032 -173.874 515.658C-158.293 508.166 -142.698 500.691 -127.213 493.09C-35.049 448.393 57.6476 396.016 105.428 319.4C125.754 288.252 140.336 254.992 154.347 221.962C157.103 215.801 159.994 207.851 163.563 202.07C180.233 172.669 216.268 149.402 258.796 144.873C327.451 135.44 397.99 139.761 466.551 147.181C584.816 160.86 703.868 177.406 822.819 187.174C850.013 189.4 878.232 191.477 905.526 192.966C962.485 196.531 1021.78 194.275 1074.9 177.141C1080.1 175.571 1085.54 173.5 1090.52 171.677L1093.54 170.437L1099.6 167.967C1100.63 167.569 1101.58 167.091 1102.56 166.641L1105.49 165.279L1108.42 163.917C1111.86 162.342 1116.44 159.746 1119.73 158.021L1122.43 156.406L1127.83 153.187C1134.8 148.669 1141.58 143.973 1147.76 138.838L1152.42 135.007L1156.84 131.015C1160.24 128.067 1163.23 124.871 1166.41 121.79L1167.4 120.723L1169.38 118.588C1197.48 88.6338 1213.81 53.5449 1225.64 18.2194Z" fill="white" fill-opacity="0.2"/>
<path d="M1175.8 18.0459C1169.88 36.9808 1162.51 55.8579 1151.47 73.512C1146.2 81.8429 1140.22 90.3122 1133.53 98.0431L1129.84 102.312L1125.92 106.472C1124.6 107.851 1123.32 109.259 1121.9 110.574C1120.06 112.293 1117.37 115.039 1115.58 116.563C1055.4 172.231 959.715 179.177 870.728 176.938C837.2 176.217 803.037 174.682 769.647 172.392C671.625 165.717 572.923 153.382 475.588 142.172C415.789 135.249 355.687 128.026 295.101 128.159C282.109 128.251 267.856 128.632 254.911 129.52L248.24 130.017L241.569 130.507C235.179 131.188 228.029 131.851 221.675 132.67L208.502 134.511C199.79 135.688 191.486 137.828 183.619 140.753C159.862 149.632 142.142 166.15 132.788 184.687C130.399 189.331 128.567 194.171 127.147 199.035C113.635 247.064 98.985 295.994 66.4522 339.05C21.4215 398.61 -53.0853 440.99 -127.543 478.273C-142.555 485.743 -157.703 493.051 -172.867 500.338C-91.0912 459.579 -6.25772 417.275 49.4166 355.014C84.6115 315.552 102.323 269.207 115.599 223.162C117.371 217.595 119.553 209.01 121.242 203.293C122.044 200.264 123.196 196.208 124.216 193.283C132.281 169.923 152.377 148.328 181.391 137.396C189.583 134.303 198.499 132.001 207.484 130.761L220.823 128.863C224.393 128.326 230.512 127.795 234.244 127.357C241.628 126.497 250.381 125.972 257.837 125.39C272.14 124.634 287.574 124.115 301.848 124.27C377.625 124.674 454.854 136.115 529.701 144.463C640.599 157.438 751.823 170.604 864.119 173.69C930.532 175.646 1000.83 174.359 1060.29 149.384C1097.66 133.859 1126.3 108.209 1145.95 79.9621C1159.62 60.4907 1168.74 39.375 1175.8 18.0459Z" fill="white" fill-opacity="0.2"/>
<path d="M1124.25 17.8323C1120.31 30.6632 1115.28 43.4306 1108.29 55.5231C1097.87 73.6964 1083.65 90.8428 1065.75 105.364C1059.79 110.251 1053.35 114.814 1046.65 119.049L1045.39 119.857C1044.86 120.174 1042.12 121.749 1041.47 122.136C1039.62 123.157 1038.01 124.224 1036.2 125.13L1030.76 127.945C1029.33 128.713 1026.78 129.93 1025.19 130.616C1002.67 141.03 977.287 147.636 951.577 151.882C904.241 159.509 855.506 159.169 807.375 158.119C697.894 155.707 589.187 144.44 480.884 132.849C409.551 125.73 318.157 112.841 246.661 113.343C218.44 113.407 190.066 115.397 162.454 119.782C147.764 121.651 133.732 126.451 122.563 133.94C103.189 146.834 92.7684 166.005 90.391 185.194C87.6853 204.925 84.6186 224.621 80.0005 244.174C69.8763 288.534 50.0785 331.284 13.1273 367.135C-36.409 415.964 -104.728 451.099 -171.966 484.686C-105.62 450.4 -37.9427 414.82 10.8026 365.814C46.907 330.205 66.2275 287.478 75.8843 243.631C79.5056 227.552 82.2503 210.942 84.4817 194.679C84.4824 194.679 85.8173 184.842 85.8173 184.842C88.207 164.805 99.0916 144.722 119.332 131.182C130.264 123.855 143.825 118.743 158.163 116.562C179.679 113.037 201.578 110.764 223.549 109.928C225.526 109.772 231.321 109.703 233.438 109.639C237.595 109.547 242.611 109.374 246.626 109.42C290.497 109.206 334.418 113.066 377.689 117.641C518.978 132.613 665.093 151.155 807.512 155.038C855.345 156.272 903.843 156.89 950.942 149.626C976.422 145.57 1001.57 139.207 1023.99 129.128L1026.8 127.882C1027.74 127.466 1028.62 126.982 1029.53 126.537L1034.96 123.803C1035.87 123.364 1036.73 122.851 1037.6 122.36L1040.2 120.884L1042.81 119.401L1044.12 118.662L1045.38 117.872C1052.13 113.724 1058.55 109.258 1064.51 104.481C1084.05 89.0024 1099.22 70.4195 1110.17 50.7461C1116.14 40.1191 1120.52 29.019 1124.25 17.8323Z" fill="white" fill-opacity="0.2"/>
<path d="M1070.66 17.5844C1038.09 127.265 886.54 143.009 760.001 140.586C683.352 139.432 606.88 134.119 530.807 127.415C464.336 121.42 394.624 114.399 328.283 107.343C286.207 102.861 244.106 98.6893 201.648 98.5278C176.301 98.4182 150.882 99.8028 125.975 103.426C117.788 104.614 109.373 106.016 101.456 107.811C93.6455 109.726 86.3524 112.749 80.102 116.741C60.8771 129.03 53.2658 148.778 52.7441 167.275C52.6622 173.604 52.9238 180.123 52.8634 186.492C53.5044 293.496 20.8071 353.623 -89.2204 422.651C-115.427 439.059 -143.143 454.03 -171.168 468.599C-143.487 453.686 -116.083 438.434 -90.1327 421.832C18.1864 352.089 49.799 292.757 48.3708 186.498C48.3922 180.031 48.087 173.713 48.1482 167.206C48.4703 154.132 52.0701 140.921 60.4579 129.342C68.8013 117.67 83.0601 108.295 99.9021 104.245C108.26 102.318 116.507 100.951 125.01 99.6701C154.435 95.2912 184.559 94.1489 214.496 94.7489C270.015 95.972 324.71 103.161 379.567 108.705C497.259 120.624 615.952 133.167 734.619 136.911C866.345 141.613 1033.42 133.801 1070.66 17.5844Z" fill="white" fill-opacity="0.2"/>
<path d="M1014.53 17.2904C982.496 112.726 834.706 124.467 724.797 123.924C583.778 123.319 443.033 109.72 303.352 96.1452C226.202 88.1375 146.836 75.1219 69.7475 89.6548C64.8525 90.6009 59.7709 91.7144 54.9632 92.8798C16.5975 101.355 8.99923 132.03 14.0984 158.465C27.0927 231.626 25.4787 299.969 -37.2508 360.76C-74.01 396.915 -121.898 425.44 -170.477 452.039C-124.282 425.791 -78.5216 398.068 -42.9176 363.397C21.9369 301.302 23.3399 233.859 9.58825 158.921C4.18613 131.846 11.9925 100.155 50.4193 90.0817C53.1365 89.3547 56.6537 88.5586 59.4175 87.8893C139.471 70.0795 223.537 83.747 304.088 92.1702C443.559 105.803 584.06 119.661 724.82 121.023C834.431 121.998 980.591 111.901 1014.53 17.2904Z" fill="white" fill-opacity="0.2"/>
<path d="M956.847 13.7593C921.858 104.222 768.92 108.214 665.215 107.857C519.101 107.297 373.311 93.7219 228.426 80.5968C164.341 75.0871 99.4357 67.6562 35.0616 74.1236C23.1787 75.3813 11.2385 77.3025 -0.297028 79.7775C-31.378 86.3661 -33.9505 110.159 -29.5819 130.824C-28.4734 136.721 -26.3629 142.813 -24.4888 148.617C-5.81083 204.568 3.19882 266.738 -31.3872 320.283C-40.178 334.129 -51.3877 347.133 -63.8825 359.231C-93.9967 388.239 -131.372 412.377 -169.887 434.807C-144.562 419.524 -119.822 403.591 -97.2475 386.012C-69.2219 364.147 -44.2927 339.367 -29.0227 311.034C-1.20656 259.48 -10.9926 201.96 -28.8467 149.436C-36.6631 127.103 -44.6997 94.345 -13.3954 79.9967C-6.12217 76.7371 2.11871 75.3755 10.2104 73.8409C34.0648 69.4793 58.7194 67.8177 83.2186 67.7081C148.385 67.7427 212.86 75.4621 277.41 81.0179C406.044 92.6257 535.645 103.784 665.253 104.955C768.76 105.728 920.045 103.351 956.847 13.7593Z" fill="white" fill-opacity="0.2"/>
<path d="M892.774 16.5342C856.721 82.4485 724.231 90.3178 641.876 92.2217C547.108 93.4736 452.232 88.6447 357.937 82.1254C264.067 75.8888 169.314 65.5617 75.2544 61.2521C34.3981 60.0463 -7.64777 56.4116 -47.6022 64.5348C-56.5828 66.3983 -66.0667 68.631 -72.0173 74.2619C-87.9598 89.5447 -74.267 115.962 -66.3398 132.284C-49.767 165.786 -35.9695 200.719 -34.484 236.702C-33.7726 254.639 -36.1676 272.778 -42.5114 290.097C-53.3348 318.961 -75.3443 344.738 -101.183 367.256C-121.845 385.308 -145.173 401.511 -169.404 416.777C-145.569 401.199 -122.615 384.76 -102.263 366.564C-71.9798 339.575 -47.2281 307.596 -40.4935 272.166C-33.2792 236.893 -41.2653 200.944 -55.0613 167.119C-59.6556 155.771 -64.9422 144.584 -70.5432 133.478C-77.4665 119.637 -84.827 104.839 -83.9752 89.5736C-83.4012 79.8523 -77.7154 70.6676 -66.0774 65.8156C-60.6011 63.4675 -54.8043 62.2156 -48.9347 60.9348C-8.36605 52.5 34.1395 56.1174 75.5573 57.3174C137.744 59.8732 202.194 65.8906 264.23 70.9964C358.326 78.7157 452.623 85.6505 547.214 88.4428C610.136 90.0697 673.553 91.3217 735.981 84.2889C796.145 77.4754 866.368 62.2444 892.774 16.5342Z" fill="white" fill-opacity="0.2"/>
<path d="M824.938 16.0498C808.33 36.0981 779.4 47.7636 750.79 55.7714C677.936 75.9755 599.18 77.9313 522.363 77.5563C414.443 76.9448 306.702 69.5947 199.483 61.0561C138.953 56.308 76.17 50.4925 15.5831 47.8328C-14.9685 46.6963 -45.8796 45.0867 -76.3403 47.3252C-87.6841 48.2309 -98.9403 49.7482 -109.836 52.2637C-120.894 54.5598 -129.669 58.483 -131.684 67.7312C-132.822 73.1717 -131.489 78.8371 -129.493 84.1564C-127.419 89.6084 -124.509 94.9219 -121.282 100.126C-118.051 105.341 -114.454 110.441 -110.85 115.582C-89.5376 146.598 -70.9725 179.217 -63.3803 213.879C-59.5685 231.089 -58.6804 248.957 -61.5574 266.299C-64.1651 283.745 -71.7925 300.655 -82.2729 316.244C-103.355 347.479 -135.097 373.747 -169.026 397.329C-135.821 373.343 -104.536 346.873 -84.0828 315.569C-47.7583 262.013 -63.1194 201.002 -94.6069 148.38C-100.842 137.811 -107.661 127.403 -114.817 117.174C-125.382 101.92 -146.513 74.7005 -131.842 58.3503C-127.605 53.7521 -120.993 50.9656 -114.08 49.3848L-111.282 48.7098C-92.6428 44.3655 -73.034 42.7501 -53.6087 42.4155C30.854 41.9943 116.105 50.4752 200.035 57.1387C337.679 67.8985 476.177 78.4102 614.682 73.5466C678.464 70.6505 788.204 59.0484 824.938 16.0498Z" fill="white" fill-opacity="0.2"/>
<path d="M748.014 16.6672C728.538 30.1212 703.975 38.5791 679.03 44.6138C596.275 64.639 508.09 64.0159 422.099 62.9429C294.64 60.8486 167.233 50.0888 40.5224 40.0329C-4.2367 36.5771 -49.0586 33.929 -94.0169 32.7405C-108.962 32.3425 -123.9 32.1982 -138.63 33.3694C-149.628 34.2867 -160.512 35.8963 -170.796 38.9483C-201.391 46.6272 -181.152 72.7564 -169.631 86.3951C-163.632 93.5202 -156.675 100.293 -150.643 107.453C-112.375 152.332 -78.9141 204.031 -85.1936 258.782C-90.7945 304.694 -127.934 344.11 -168.777 376.706C-127.842 342.766 -90.2495 301.688 -87.4679 254.415C-84.3244 204.55 -113.707 157.617 -148.287 116.384C-160.038 101.77 -174.892 88.9624 -184.815 73.3506C-191.474 63.0294 -196.968 48.2831 -183.098 39.8195C-179.289 37.3618 -174.515 36.029 -169.91 34.6963C-160.006 32.0309 -149.58 30.4443 -139.179 29.5732C-108.979 27.3289 -78.9374 29.4174 -48.7916 30.4386C40.716 34.5867 130.884 44.0195 220.194 49.9446C309.793 56.2735 399.668 60.7101 489.677 60.6928C553.197 60.5601 617.612 57.9293 678.647 43.7022C703.623 37.9041 728.24 29.8328 748.014 16.6672Z" fill="white" fill-opacity="0.2"/>
<path d="M662.698 15.6171C638.954 25.9673 612.417 32.4981 585.819 37.2866C526.928 47.8791 466.014 49.581 405.718 49.6329C288.673 49.7079 171.629 42.2482 55.306 33.075C-9.56466 27.9577 -76.1343 22.0153 -141.178 19.7076C-162.629 19.0961 -185.223 16.9037 -206.418 19.021C-215.25 19.9268 -223.912 21.6057 -231.827 24.6115L-234.165 25.5345L-235.333 25.9961C-238.538 27.4269 -241.557 29.3135 -243.39 31.6443C-255.326 47.2041 -219.126 74.1409 -205.892 85.293C-200.928 89.2277 -195.91 93.6239 -191.532 97.9797C-148.426 139.536 -110.554 188.298 -108.919 242.403C-108.953 245.593 -108.885 249.626 -109.261 252.811L-109.672 256.964L-109.776 258.003L-109.962 259.036C-115.388 294.349 -139.939 326.127 -168.663 353.594C-140.532 325.579 -116.43 293.386 -111.919 257.841C-106.061 198.873 -147.943 144.688 -194.94 99.999C-208.512 86.9142 -225.219 76.0794 -237.792 62.2216C-249.206 50.0368 -259.783 32.4808 -237.825 22.7826C-215.153 12.9517 -187.993 13.7594 -162.802 14.896C-148.531 15.6229 -133.185 15.9864 -118.984 16.6845C-61.4004 19.2287 -1.63357 24.5307 55.8514 29.1577C157.597 37.2289 259.591 44.3713 361.893 46.4079C420.244 47.4406 478.944 47.9599 536.967 42.6175C555.07 40.9329 573.097 38.5271 590.854 35.377C615.608 30.9173 640.346 24.9577 662.698 15.6171Z" fill="white" fill-opacity="0.2"/>
<path d="M552.535 16.9095C519.119 24.9115 484.395 29.4404 449.594 32.3193C372.833 38.1347 295.452 36.427 218.513 33.9058C134.648 30.8308 50.6368 24.8653 -32.8016 18.0748C-95.4086 12.9171 -158.016 7.46503 -220.938 5.27847C-234.879 4.66115 -248.75 3.54768 -262.644 3.98037C-276.07 4.38423 -290.03 6.31117 -300.971 12.3459C-303.499 13.7478 -305.431 15.5536 -306.391 17.6479C-310.723 28.1365 -293.587 42.6174 -284.748 50.0252C-272.987 59.6773 -259.672 68.3024 -246.82 77.216C-244.701 78.716 -241.421 81.2949 -239.393 82.9738C-192.135 121.374 -146.833 165.775 -135.624 218.847C-127.295 255.851 -142.687 293.415 -167.766 325.077C-147.309 297.667 -133.097 266.542 -135.541 234.764C-140.574 175.94 -190.81 126.619 -242.551 85.2122C-244.311 83.7815 -247.824 81.0064 -249.83 79.6506C-268.007 67.2005 -287.251 55.2234 -301.773 40.0443C-307.862 33.3058 -314.495 24.9576 -311.059 16.4537C-309.758 13.5286 -307.051 11.0651 -303.956 9.34583C-292.093 2.72844 -277.198 0.55343 -262.859 0.109193C-248.731 -0.352351 -234.651 0.761192 -220.646 1.3612C-157.631 3.45546 -94.8592 8.87854 -32.2379 14.1575C106.831 25.5057 246.56 35.3943 386.578 33.5943C407.56 33.2827 428.523 32.4404 449.425 31.0385C484.225 28.5173 518.952 24.3692 552.535 16.9095Z" fill="white" fill-opacity="0.2"/>
<rect y="671" width="1600" height="300" fill="url(#paint0_linear_391_714)"/>
</g>
</g>
<defs>
<linearGradient id="paint0_linear_391_714" x1="1010" y1="971" x2="1010" y2="671" gradientUnits="userSpaceOnUse">
<stop/>
<stop offset="1" stop-opacity="0"/>
</linearGradient>
<clipPath id="clip0_391_714">
<rect width="1600" height="971" fill="white"/>
</clipPath>
<clipPath id="clip1_391_714">
<rect width="1795" height="1081" fill="white" transform="translate(-97)"/>
</clipPath>
</defs>
</svg>
