<svg fill="none" viewBox="0 0 1600 971" xmlns="http://www.w3.org/2000/svg" xmlns:xlink="http://www.w3.org/1999/xlink"><linearGradient id="a" gradientUnits="userSpaceOnUse" x1="1010" x2="1010" y1="971" y2="671"><stop offset="0"/><stop offset="1" stop-opacity="0"/></linearGradient><clipPath id="b"><path d="m0 0h1600v963.398h-1600z"/></clipPath><path d="m0 0h1600v971h-1600z" fill="#000"/><g clip-path="url(#b)" opacity=".2"><g fill="#c7c9d0"><path d="m1333.97-266.485c62.67 81.919 159.63 127.402 254.49 161.414 96.26 34.4016 196.58 54.9322 294.04 85.9105 15.67 5.17 31.41 10.81874 46.67 17.46678 5 2.148197 10.35 4.69133 15.21 7.12077 6.69 3.41078 13.29 7.09085 19.69 11.27355l-8.03 11.9078c-5.73-3.9194-11.81-7.4798-18.06-10.8247-4.62-2.4355-9.66-4.9487-14.37-7.0909-14.68-6.75573-29.81-12.53612-45.16-17.95149-96.52-32.85721-196.6-55.53011-292.13-91.91181-94.54-36.0945-191.15-83.8275-252.35-167.3145z"/><path d="m1341.31-226.776c60.21 83.738 155.78 132.0814 249.6 168.888 95.19 37.2434 194.86 60.74193 291.35 94.5985 15.52 5.6368 31.08 11.7463 46.14 18.8491 4.93 2.2918 10.2 4.9905 14.99 7.5636 6.58 3.6082 13.07 7.4798 19.34 11.848l-8.37 11.6684c-5.62-4.0869-11.59-7.8269-17.74-11.3573-4.54-2.5671-9.5-5.2299-14.15-7.5097-14.47-7.1926-29.43-13.4158-44.61-19.2859-95.51-35.7056-194.87-61.3344-289.28-100.5405-93.42-38.877-188.57-89.4582-247.27-174.7222z"/><path d="m1347.46-186.87c57.71 85.491 151.81 136.6473 244.49 176.2184 94.05 40.0559 192.97 66.4984 288.42 103.2033 15.34 6.0916 30.71 12.6623 45.55 20.2073 4.86 2.436 10.06 5.29 14.77 8.007 6.46 3.799 12.84 7.862 18.98 12.416l-8.72 11.417c-5.5-4.254-11.35-8.168-17.39-11.878-4.46-2.704-9.35-5.511-13.92-7.928-14.26-7.618-29.02-14.29-44.02-20.603-94.4-38.5237-192.96-67.0905-286.17-109.0731-92.23-41.6355-185.84-95.0174-241.99-181.9869z"/><path d="m1352.44-146.795c55.14 87.1601 147.68 141.08638 239.15 183.3921 92.81 42.8263 190.91 72.1949 285.23 111.7179 15.15 6.541 30.33 13.566 44.93 21.548 4.79 2.579 9.89 5.589 14.52 8.443 6.35 3.986 12.61 8.24 18.61 12.973l-9.05 11.148c-5.37-4.41-11.11-8.503-17.03-12.386-4.38-2.837-9.18-5.787-13.68-8.336-14.03-8.042-28.59-15.145-43.39-21.901-93.22-41.306-190.89-72.787-282.81-117.5162-90.96-44.35222-182.94-100.4866-236.48-189.0828z"/><path d="m1356.22-106.597c52.53 88.7647 143.43 145.4077 233.6 190.4121 91.51 45.5609 188.69 77.8259 281.79 120.1259 14.96 6.989 29.92 14.463 44.28 22.87 4.71 2.723 9.72 5.882 14.26 8.874 6.24 4.171 12.35 8.611 18.22 13.517l-9.38 10.879c-5.23-4.566-10.85-8.826-16.66-12.889-4.29-2.962-9-6.056-13.42-8.737-13.78-8.455-28.13-15.982-42.72-23.181-91.96-44.047-188.65-78.412-279.2-125.852-89.6-47.033-179.88-105.8721-230.77-196.019z"/><path d="m1358.81-66.2955c49.88 90.2781 139.05 149.5959 227.85 197.2575 90.12 48.253 186.29 83.384 278.1 128.431 14.74 7.432 29.47 15.342 43.58 24.175 4.63 2.86 9.55 6.163 13.99 9.292 6.11 4.357 12.1 8.97 17.81 14.05l-9.7 10.598c-5.09-4.721-10.58-9.149-16.26-13.38-4.21-3.088-8.82-6.319-13.17-9.131-13.52-8.856-27.63-16.809-42.01-24.438-90.6-46.758-186.23-83.978-275.34-134.08-88.16-49.6721-176.65-111.162-224.85-202.7745z"/><path d="m1360.2-25.94c47.18 91.7202 134.56 153.653 221.9 203.929 88.64 50.905 183.74 88.878 274.17 136.623 14.52 7.869 29.01 16.21 42.84 25.461 4.54 2.998 9.36 6.445 13.72 9.7 5.97 4.536 11.81 9.329 17.37 14.577l-10 10.303c-4.96-4.872-10.31-9.457-15.86-13.852-4.12-3.213-8.63-6.582-12.89-9.52-13.25-9.257-27.12-17.622-41.27-25.671-89.18-49.432-183.66-89.47-271.24-142.194-86.66-52.262-173.28-116.3493-218.74-209.356z"/><path d="m1360.4 14.4388c44.43 93.0782 129.93 157.5782 215.75 210.4212 87.09 53.514 181.02 94.294 270 144.702 14.27 8.293 28.51 17.062 42.07 26.717 4.44 3.129 9.16 6.72 13.41 10.104 5.84 4.712 11.54 9.674 16.94 15.086l-10.31 10.001c-4.8-5.017-10.02-9.759-15.44-14.319-4.02-3.333-8.43-6.833-12.6-9.898-12.97-9.643-26.58-18.419-40.49-26.883-87.68-52.055-180.92-94.875-266.91-150.178-85.06-54.812-169.74-121.442-212.42-215.7532z"/><path d="m1359.4 54.806c41.65 94.359 125.2 161.366 209.41 216.729 85.47 56.074 178.14 99.622 265.58 152.649 14.02 8.713 27.99 17.901 41.26 27.954 4.35 3.26 8.96 6.989 13.11 10.498 5.7 4.882 11.25 10.011 16.48 15.581l-10.59 9.691c-4.66-5.157-9.73-10.052-15.01-14.771-3.92-3.451-8.23-7.08-12.31-10.267-12.68-10.025-26.03-19.2-39.67-28.073-86.09-54.631-178.03-100.205-262.33-158.033-83.4-57.307-166.08-126.42-205.93-221.958z"/><path d="m1357.19 95.125c38.84 95.55 120.36 165.01 202.89 222.85 83.77 58.584 175.11 104.86 260.95 160.458 13.75 9.125 27.44 18.724 40.4 29.166 4.26 3.387 8.75 7.251 12.8 10.882 5.55 5.049 10.95 10.341 16.01 16.064l-10.88 9.372c-4.5-5.293-9.42-10.336-14.56-15.21-3.82-3.566-8.02-7.321-12-10.628-12.37-10.396-25.44-19.963-38.82-29.237-84.43-57.161-174.98-105.44-257.53-165.745-81.66-59.76-162.25-131.291-199.26-227.972z"/><path d="m1353.8 135.36c35.98 96.663 115.41 168.511 196.19 228.768 81.99 61.048 171.92 110.014 256.07 168.134 13.48 9.529 26.87 19.53 39.52 30.351 4.16 3.513 8.53 7.509 12.47 11.257 5.39 5.212 10.63 10.662 15.53 16.532l-11.16 9.047c-4.34-5.426-9.11-10.613-14.1-15.637-3.71-3.677-7.79-7.555-11.68-10.979-12.06-10.758-24.84-20.709-37.93-30.376-82.71-59.64-171.78-110.584-252.51-173.312-79.85-62.156-158.28-136.051-192.4-233.785z"/><path d="m1349.21 175.482c33.1 97.686 110.36 171.856 189.32 234.488 80.14 63.45 168.58 115.063 250.96 175.653 13.2 9.925 26.29 20.318 38.61 31.508 4.05 3.638 8.3 7.761 12.13 11.627 5.24 5.367 10.31 10.968 15.03 16.982l-11.41 8.712c-4.19-5.553-8.8-10.878-13.65-16.049-3.59-3.781-7.56-7.784-11.33-11.321-11.74-11.112-24.22-21.434-37.02-31.486-80.9-62.068-168.43-115.632-247.26-180.727-77.97-64.498-154.17-140.684-185.38-239.387z"/><path d="m1343.43 215.442c30.19 98.625 105.22 175.059 182.28 240.005 78.23 65.8 165.1 120.014 245.65 183.022 12.89 10.31 25.67 21.087 37.65 32.642 3.94 3.752 8.07 8 11.78 11.98 5.08 5.517 9.98 11.267 14.53 17.418l-11.68 8.372c-4.01-5.673-8.47-11.136-13.16-16.444-3.47-3.895-7.32-8.006-10.99-11.656-11.41-11.453-23.57-22.146-36.07-32.57-79.02-64.441-164.92-120.578-241.78-187.983-76.03-66.782-149.94-145.197-178.21-244.786z"/><path d="m1336.47 255.216c27.25 99.482 99.98 178.105 175.08 245.309 76.24 68.092 161.47 124.857 240.11 190.231 12.58 10.687 25.04 21.841 36.67 33.743 3.83 3.865 7.83 8.24 11.42 12.32 4.91 5.673 9.64 11.567 14 17.85l-11.92 8.013c-3.84-5.787-8.13-11.376-12.66-16.827-3.36-3.991-7.08-8.216-10.64-11.974-11.07-11.788-22.91-22.834-35.09-33.623-77.08-66.761-161.27-125.42-236.1-195.075-74.02-69.008-145.56-149.582-170.87-249.967z"/><path d="m1328.34 294.77c24.28 100.244 94.65 180.991 167.73 250.393 74.18 70.322 157.68 129.592 234.35 197.27 12.26 11.058 24.38 22.577 35.65 34.82 3.71 3.979 7.58 8.461 11.05 12.649 4.74 5.817 9.3 11.848 13.47 18.257l-12.15 7.659c-3.67-5.9-7.8-11.614-12.16-17.197-3.24-4.087-6.84-8.419-10.29-12.279-10.7-12.111-22.22-23.511-34.07-34.658-75.06-69.012-157.48-130.143-230.21-201.99-71.93-71.174-141.06-153.835-163.37-254.924z"/><path d="m1319.03 334.066c21.3 100.918 89.24 183.716 160.23 255.256 72.06 72.496 153.77 134.214 228.4 204.135 11.92 11.417 23.7 23.289 34.61 35.861 3.59 4.087 7.32 8.688 10.66 12.973 4.57 5.954 8.94 12.117 12.92 18.646l-12.37 7.3c-3.49-6.008-7.45-11.842-11.65-17.551-3.11-4.182-6.58-8.622-9.91-12.584-10.35-12.422-21.51-24.151-33.04-35.651-72.97-71.208-153.54-134.757-224.11-208.729-69.79-73.277-136.44-157.953-155.74-259.656z"/><path d="m1308.57 373.063c18.29 101.508 83.75 186.285 152.58 259.901 69.88 74.601 149.72 138.718 222.24 210.817 11.58 11.77 23 23.983 33.53 36.872 3.46 4.195 7.07 8.904 10.28 13.29 4.38 6.086 8.57 12.375 12.35 19.023l-12.57 6.923c-3.32-6.109-7.1-12.057-11.12-17.885-3-4.279-6.33-8.815-9.54-12.872-9.97-12.727-20.79-24.785-31.96-36.615-70.84-73.344-149.48-139.256-217.83-215.292-67.58-75.313-131.69-161.929-147.96-264.162z"/><path d="m1296.95 411.735c15.28 102.006 78.18 188.689 144.8 264.313 67.64 76.641 145.54 143.097 215.9 217.321 11.22 12.105 22.27 24.653 32.41 37.848 3.34 4.296 6.8 9.107 9.88 13.589 4.2 6.211 8.21 12.62 11.79 19.376l-12.78 6.552c-3.13-6.205-6.73-12.261-10.58-18.209-2.87-4.362-6.07-9-9.16-13.152-9.59-13.009-20.04-25.384-30.86-37.543-68.62-75.414-145.28-143.63-211.34-221.659-65.32-77.287-126.82-165.765-140.06-268.436z"/><path d="m1284.18 450.045c12.25 102.414 72.56 190.925 136.91 268.494 65.34 78.61 141.23 147.352 209.35 223.628 10.86 12.434 21.53 25.306 31.28 38.793 3.21 4.392 6.52 9.305 9.47 13.876 4.02 6.334 7.83 12.864 11.21 19.714l-12.97 6.17c-2.95-6.29-6.37-12.46-10.04-18.51-2.74-4.447-5.8-9.175-8.76-13.417-9.19-13.29-19.28-25.97-29.73-38.446-66.36-77.413-140.96-147.879-204.67-227.829-63-79.19-121.86-169.454-132.05-272.473z"/><path d="m1270.29 487.959c9.21 102.733 66.86 192.995 128.88 272.437 62.98 80.518 136.8 151.474 202.62 229.743 10.49 12.741 20.78 25.931 30.12 39.701 3.08 4.49 6.25 9.5 9.05 14.15 3.83 6.45 7.45 13.09 10.62 20.04l-13.14 5.78c-2.76-6.37-6-12.63-9.49-18.8-2.6-4.52-5.52-9.34-8.35-13.66-8.8-13.57-18.51-26.54-28.58-39.318-64.04-79.352-136.52-151.996-197.82-233.801-60.63-81.027-116.78-172.996-123.91-276.272z"/><path d="m1255.28 525.446c6.15 102.959 61.11 194.888 120.74 276.137 60.56 82.349 132.25 155.472 195.72 235.657 10.11 13.05 20 26.53 28.92 40.58 2.95 4.57 5.96 9.68 8.63 14.41 3.64 6.56 7.06 13.3 10.03 20.35l-13.32 5.39c-2.57-6.46-5.61-12.82-8.92-19.08-2.47-4.6-5.24-9.5-7.95-13.91-8.39-13.81-17.7-27.07-27.4-40.14-61.65-81.215-131.94-155.977-190.8-239.571-58.19-82.786-111.59-176.38-115.65-279.823z"/><path d="m1239.16 562.469c3.1 103.095 55.3 196.616 112.49 279.6 58.1 84.109 127.58 159.331 188.65 241.351 9.71 13.35 19.2 27.12 27.71 41.43 2.81 4.65 5.67 9.84 8.2 14.66 3.44 6.66 6.65 13.5 9.41 20.64l-13.46 4.99c-2.38-6.53-5.24-12.98-8.35-19.34-2.34-4.67-4.96-9.65-7.54-14.14-7.98-14.06-16.9-27.58-26.2-40.93-59.21-83.01-127.25-159.831-183.6-245.124-55.72-84.48-106.31-179.623-107.31-283.137z"/><path d="m1221.95 599c.04 103.143 49.45 198.173 104.15 282.814 55.58 85.796 122.8 163.036 181.41 246.846 9.31 13.63 18.38 27.67 26.47 42.23 2.66 4.74 5.37 10.01 7.76 14.89 3.24 6.77 6.25 13.7 8.79 20.91l-13.61 4.59c-2.18-6.6-4.84-13.12-7.77-19.57-2.19-4.74-4.67-9.8-7.11-14.36-7.56-14.29-16.07-28.07-24.97-41.7-56.73-84.73-122.46-163.528-176.26-250.461-53.18-86.089-100.93-182.692-98.86-286.189z"/><path d="m1203.67 634.999c-3.02 103.101 43.54 199.555 95.72 285.782 53 87.409 117.9 166.609 173.99 252.119 8.91 13.9 17.56 28.21 25.21 42.99 2.53 4.82 5.08 10.17 7.31 15.12 3.04 6.86 5.85 13.88 8.18 21.16l-13.74 4.19c-1.98-6.66-4.45-13.27-7.19-19.79-2.05-4.81-4.38-9.94-6.68-14.57-7.13-14.51-15.23-28.54-23.73-42.42-54.18-86.37-117.56-167.09-168.74-255.58-50.61-87.633-95.48-185.607-90.33-289.001z"/><path d="m1184.33 670.447c-6.08 102.964 37.6 200.752 87.19 288.493 50.39 88.94 112.91 170.04 166.45 257.17 8.49 14.16 16.71 28.72 23.91 43.72 2.38 4.89 4.78 10.31 6.87 15.33 2.83 6.95 5.42 14.05 7.53 21.39l-13.85 3.78c-1.78-6.71-4.05-13.39-6.6-20-1.91-4.86-4.08-10.06-6.24-14.75-6.7-14.71-14.38-28.98-22.46-43.11-51.6-87.94-112.54-170.5-161.1-260.472-47.98-89.094-89.92-188.36-81.7-291.551z"/><path d="m1163.94 705.303c-9.13 102.736 31.63 201.78 78.6 290.952 47.72 90.395 107.81 173.305 158.74 261.995 8.07 14.4 15.86 29.2 22.61 44.41 2.23 4.96 4.47 10.45 6.4 15.53 2.63 7.03 5.01 14.2 6.91 21.61l-13.97 3.36c-1.58-6.77-3.65-13.5-6-20.19-1.76-4.91-3.77-10.17-5.8-14.93-6.26-14.9-13.51-29.39-21.17-43.75-48.97-89.44-107.44-173.77-153.29-265.139-45.32-90.482-84.3-190.944-73.03-293.848z"/><path d="m1142.53 739.536c-12.18 102.419 25.63 202.631 69.93 293.154 45.02 91.77 102.63 176.43 150.9 266.59 7.64 14.64 14.99 29.66 21.29 45.07 2.08 5.02 4.15 10.57 5.94 15.7 2.42 7.11 4.58 14.35 6.26 21.81l-14.06 2.94c-1.38-6.81-3.26-13.6-5.4-20.35-1.62-4.96-3.48-10.28-5.36-15.1-5.82-15.08-12.63-29.78-19.86-44.36-46.3-90.85-102.24-176.88-145.37-269.57-42.61-91.787-78.59-193.357-64.27-295.884z"/><path d="m1120.11 773.124c-15.21 102.012 19.61 203.301 61.21 295.096 42.28 93.07 97.35 179.4 142.92 270.95 7.2 14.86 14.1 30.09 19.94 45.68 1.94 5.08 3.84 10.69 5.47 15.88 2.21 7.17 4.16 14.47 5.61 21.98l-14.14 2.53c-1.18-6.86-2.85-13.7-4.79-20.51-1.47-5.01-3.17-10.38-4.91-15.25-5.36-15.26-11.74-30.14-18.53-44.94-43.59-92.18-96.95-179.83-137.31-273.76-39.87-93.009-72.82-195.602-55.47-297.656z"/><path d="m1096.71 806.023c-18.23 101.521 13.57 203.797 52.42 296.787 39.5 94.29 91.98 182.21 134.83 275.07 6.75 15.07 13.19 30.5 18.57 46.25 1.79 5.14 3.52 10.81 5 16.04 1.99 7.23 3.73 14.58 4.95 22.13l-14.2 2.11c-.98-6.88-2.45-13.77-4.19-20.64-1.32-5.05-2.86-10.47-4.46-15.39-4.9-15.4-10.84-30.48-17.19-45.46-40.82-93.44-91.56-182.63-129.12-277.72-37.09-94.15-66.99-197.68-46.61-299.177z"/><path d="m1072.34 838.222c-21.23 100.935 7.52 204.108 43.6 298.208 36.68 95.41 86.53 184.86 126.6 278.95 6.3 15.26 12.29 30.88 17.19 46.78 1.64 5.19 3.2 10.9 4.53 16.18 1.77 7.28 3.29 14.69 4.29 22.27l-14.26 1.69c-.77-6.91-2.04-13.84-3.57-20.76-1.17-5.09-2.55-10.55-4-15.52-4.45-15.54-9.93-30.78-15.84-45.95-38.04-94.6-86.11-185.26-120.82-281.42-34.29-95.21-61.1-199.583-37.72-300.428z"/><path d="m1047.02 869.679c-24.21 100.259 1.46 204.241 34.73 299.381 33.85 96.46 81.02 187.34 118.28 282.58 5.85 15.44 11.37 31.22 15.8 47.26 1.47 5.24 2.87 11 4.04 16.31 1.56 7.34 2.85 14.79 3.63 22.39l-14.3 1.26c-.57-6.93-1.63-13.9-2.96-20.85-1.02-5.12-2.23-10.62-3.54-15.63-3.98-15.67-9.01-31.06-14.46-46.4-35.22-95.69-80.58-187.74-112.43-284.88-31.44-96.19-55.14-201.311-28.79-301.421z"/><path d="m1020.79 900.376c-27.18 99.493-4.6 204.194 25.83 300.264 30.97 97.43 75.43 189.67 109.84 285.97 5.39 15.61 10.44 31.55 14.39 47.72 1.32 5.28 2.55 11.07 3.56 16.42 1.34 7.38 2.41 14.86 2.96 22.48l-14.34.84c-.36-6.94-1.2-13.93-2.33-20.93-.86-5.15-1.91-10.68-3.07-15.72-3.52-15.78-8.09-31.32-13.09-46.82-32.35-96.69-74.96-190.04-103.92-288.09-28.57-97.07-49.146-202.856-19.83-302.134z"/><path d="m993.652 930.277c-30.121 98.643-10.657 203.963 16.918 300.903 28.06 98.3 69.76 191.82 101.3 289.1 4.93 15.76 9.5 31.84 12.97 48.13 1.17 5.3 2.22 11.14 3.07 16.51 1.12 7.41 1.97 14.92 2.3 22.57l-14.36.4c-.15-6.94-.79-13.96-1.71-20.98-.71-5.18-1.6-10.74-2.6-15.82-3.05-15.87-7.16-31.54-11.69-47.17-29.48-97.61-69.3-192.19-95.33-291.05-25.69-97.89-43.12-204.22-10.868-302.593z"/><path d="m965.643 959.359c-33.035 97.711-16.706 203.561 7.982 301.271 25.131 99.09 64.045 193.81 92.685 291.98 4.45 15.9 8.54 32.11 11.54 48.49 1 5.34 1.88 11.2 2.57 16.59.9 7.45 1.53 14.99 1.63 22.64l-14.36-.02c.05-6.95-.39-13.99-1.09-21.04-.56-5.18-1.28-10.77-2.13-15.88-2.58-15.96-6.23-31.74-10.29-47.5-26.57-98.44-63.568-194.16-86.653-293.75-22.773-98.6-37.038-205.41-1.884-302.781z"/></g><g fill="#959ba2"><path d="m1.04492-.670207c232.48408 4.284427 499.27808 7.994417 732.41808 10.543537l-.06 4.18867c-233.321-3.8895-499.702-9.11338-732.35808-14.732207z"/><path d="m1.08765-.622498c232.25435 11.177798 498.82035 22.798398 731.78335 32.264898l-.18 4.1887c-233.107-10.8128-499.216-23.9414-731.60335-36.453598z"/><path d="m1.12891-.574486c231.82109 18.059186 497.92409 37.584486 730.50309 53.962186l-.305 4.1768c-232.682-17.7242-498.284-38.7394-730.19809-58.138986z"/><path d="m1.16919-.526535c231.18281 24.928635 496.58981 52.340635 728.57781 75.611735l-.425 4.1648c-232.055-24.6175-496.917-53.5015-728.15281-79.776535z"/><path d="m1.20752-.478958c230.34148 31.780158 494.81848 67.048858 726.01448 97.189458l-.55 4.1525c-231.222-31.4867-495.109-68.2214-725.46448-101.341958z"/><path d="m1.24438-.431206c229.29762 38.601706 492.61262 81.703306 722.81262 118.689206l-.676 4.135c-230.183-38.3384-492.866-82.8821-722.13662-122.824206z"/><path d="m1.28003-.377106c228.05197 45.381406 489.97197 96.279906 718.97697 140.082106l-.801 4.11c-228.946-45.1476-490.19-97.4643-718.17597-144.192106z"/><path d="m1.31445-.329315c226.60455 52.131215 486.89955 110.778315 714.50355 161.354315l-.922 4.087c-227.505-51.922-487.084-111.9697-713.58155-165.441315z"/><path d="m1.34692-.275375c224.95808 58.833075 483.39908 125.176375 709.40308 182.477375l-1.041 4.057c-225.867-58.648-483.549-126.3669-708.36208-186.534375z"/><path d="m1.37769-.221634c223.11431 65.481134 479.47331 139.459634 703.67531 203.444634l-1.161 4.027c-224.025-65.326-479.586-140.6621-702.51431-207.471634z"/><path d="m1.40674-.167908c221.07426 72.069308 475.12526 153.622908 697.33426 224.231908l-1.281 3.992c-221.991-71.944-475.205-154.8262-696.05326-228.223908z"/><path d="m1.43433-.10788c218.83867 78.59168 470.35867 167.64888 690.37167 244.81688l-1.395 3.949c-219.759-78.496-470.402-168.8517-688.97667-248.76588z"/><path d="m1.46045-.0542603c216.41055 85.0542603 465.17855 181.5312603 682.80555 265.1912603l-1.513 3.908c-217.333-84.977-465.185-182.7345-681.29255-269.0992603z"/><path d="m1.48462.00582886c213.79238 91.43307114 459.58938 195.25217114 674.63838 285.33317114l-1.628 3.86c-214.717-91.391-459.56-196.4557-673.01038-289.19317114z"/><path d="m1.50708.0594482c210.98592 97.7400518 453.59392 208.7995518 665.87992 305.2235518l-1.742 3.812c-211.913-97.722-453.533-210.0031-664.13792-309.0355518z"/><path d="m1.52832.119232c207.99268 103.956768 447.19968 222.167768 656.52968 324.844768l-1.854 3.758c-208.919-103.964-447.101-223.365-654.67568-328.602768z"/><path d="m1.54736.179291c204.81764 110.078709 440.41264 235.338709 646.60264 344.178709l-1.963 3.698c-205.744-110.115-440.278-236.529-644.63964-347.876709z"/><path d="m1.5647.239319c201.4623 116.110681 433.2383 248.299681 636.1073 363.212681l-2.07 3.638c-202.387-116.176-433.069-249.49-634.0373-366.850681z"/><path d="m1.57983.299072c197.92917 122.033928 425.68217 261.044928 625.05317 381.922928l-2.178 3.577c-198.851-122.127-425.476-262.227-622.87517-385.499928z"/><path d="m1.59375.358673c194.22225 127.850327 417.75025 273.557327 613.44925 400.299327l-2.286 3.511c-195.139-127.973-417.508-274.739-611.16325-403.810327z"/><path d="m1.60571.418701c190.34429 133.559299 409.45129 285.830299 601.30829 418.324299l-2.393 3.441c-191.257-133.703-409.174-287.003-598.91529-421.765299z"/><path d="m1.61572.48465c186.29828 139.14235 400.79328 297.84535 588.63228 435.97535l-2.49 3.368c-187.208-139.32-400.482-299.016-586.14228-439.34335z"/><path d="m1.62402.544281c182.08798 144.611719 391.77998 309.609719 575.43898 453.247719l-2.588 3.294c-182.993-144.814-391.436-310.763-572.85098-456.541719z"/><path d="m1.6311.604218c177.7179 149.954782 382.4229 321.098782 561.7399 470.122782l-2.685 3.215c-178.616-150.181-382.044-322.24-559.0549-473.337782z"/><path d="m1.6355.664001c173.1915 155.160999 372.7295 332.305999 547.5465 486.583999l-2.778 3.134c-174.083-155.413-372.318-333.432-544.7685-489.717999z"/><path d="m1.63843.730072c168.51257 160.228928 362.70857 343.214928 532.87157 502.609928l-2.871 3.051c-169.396-160.507-362.262-344.331-530.00057-505.660928z"/><path d="m1.63916.790039c163.68484 165.159961 352.36684 353.823961 517.72784 518.199961l-2.96 2.964c-164.56-165.461-351.889-354.927-514.76784-521.163961z"/><path d="m1.63843.855469c158.71457 169.934531 341.71557 364.122531 502.12757 533.327531l-3.047 2.875c-159.579-170.272-341.204-365.214-499.08057-536.202531z"/><path d="m1.6355.915283c153.6025 174.572717 330.7635 374.099717 486.0855 547.991717l-3.13 2.783c-154.458-174.93-330.221-375.173-482.9555-550.774717z"/><path d="m1.6311.975342c148.3569 179.054658 319.5199 383.749658 469.6149 562.174658l-3.211 2.689c-149.201-179.437-318.946-384.804-466.4039-564.863658z"/><path d="m1.62451 1.04083c142.97949 183.37517 307.99649 393.05717 452.73149 575.85617l-3.289 2.592c-143.812-183.784-307.391-394.098-449.44249-578.44817z"/><path d="m1.61646 1.10071c137.47654 187.53929 296.20054 402.02329 435.44954 589.03529l-3.365 2.494c-138.297-187.97-295.564-403.044-432.08454-591.52929z"/><path d="m1.60645 1.16077c131.85255 191.53623 284.14355 410.63523 417.78455 601.69823l-3.438 2.388c-132.66-191.987-283.478-411.634-414.34655-604.08623z"/><path d="m1.59473 1.22058c126.11327 195.36642 271.83827 418.88542 399.75127 613.82842l-3.507 2.291c-126.907-195.843-271.142-419.868-396.24427-616.11942z"/><path d="m1.58081 1.28632c120.26219 199.01668 259.29219 426.76068 381.36619 625.41268l-3.573 2.184c-121.041-199.52-258.568-427.725-377.79319-627.59668z"/><path d="m1.56567 1.34607c114.30533 202.49293 246.51833 434.26593 362.64533 636.45293l-3.636 2.076c-115.069-203.023-245.766-435.21-359.00933-638.52893z"/><path d="m1.54834 1.40643c108.24766 205.79657 233.52666 441.38857 343.60566 646.93057l-3.697 1.969c-108.995-206.349-232.747-442.308-339.90866-648.89957z"/><path d="m1.5293 1.45978c102.0957 208.92522 220.3307 448.12722 324.2637 656.84622l-3.754 1.855c-102.826-209.489-219.523-449.016-320.5097-658.70122z"/><path d="m1.50854 1.51947c95.85276 211.85753 206.93946 454.46553 304.63546 666.17453l-3.807 1.747c-96.566-212.45-206.1066-455.334-300.82846-667.92153z"/><path d="m1.48584 1.57928c89.52626 214.61072 193.36816 460.40272 284.74016 674.91672l-3.858 1.634c-90.221-215.222-192.5077-461.246-280.88216-676.55072z"/><path d="m1.46191 1.63336c83.12049 217.17164 179.62409 465.94064 264.59409 683.07264l-3.905 1.514c-83.797-217.801-178.7408-466.757-260.68909-684.58664z"/><path d="m1.43604 1.69305c76.64166 219.54095 165.72396 471.06095 244.21396 690.61895l-3.947 1.4c-77.301-220.194-164.8166-471.856-240.26696-692.01895z"/><path d="m1.40845 1.74695c70.09515 221.71905 151.67655 475.77305 223.61955 697.56005l-3.987 1.28c-70.734-222.386-150.7467-476.534-219.63255-698.84005z"/><path d="m1.37939 1.8009c63.48721 223.7001 137.49561 480.0631 202.82761 703.8851l-4.023 1.167c-64.106-224.39-136.5435-480.796-198.80461-705.0521z"/><path d="m1.34814 1.85468c56.82336 225.48932 123.19486 483.93232 181.85886 709.59332l-4.057 1.047c-57.42-226.192-122.2203-484.637-177.80186-710.64032z"/><path d="m1.31567 1.90869c50.10963 227.07431 108.78533 487.37231 160.72833 714.67931l-4.086.922c-50.685-227.797-107.7895-488.048-156.64233-715.60131z"/><path d="m1.28198 1.96252c43.35132 228.45648 94.27962 490.38348 139.45702 719.13148l-4.111.802c-43.9056-229.202-93.2654-491.034-135.34602-719.93348z"/><path d="m1.24658 2.01611c36.55532 229.64189 79.69052 492.96189 118.06242 722.94889l-4.133.677c-37.087-230.4-78.6576-493.583-113.92942-723.62589z"/><path d="m1.20972 2.06421c29.72678 230.62279 65.03188 495.11179 96.56398 726.13279l-4.1508.556c-30.2361-231.398-63.981-495.701-92.41318-726.68879z"/><path d="m1.17139 2.112c22.87211 231.407 50.31601 496.824 74.98131 728.682l-4.1663.431c-23.3583-232.195-49.2478-497.377-70.81501-729.113z"/><path d="m1.13135 2.15985c15.99755 231.98115 35.55535 498.09815 53.33205 730.58415l-4.1772.312c-16.4597-232.789-34.4711-498.622-49.15485-730.89615z"/><path d="m1.09033 2.20764c9.10827 232.35236 20.76377 498.93236 31.63587 731.84136l-4.1847.185c-9.5471-233.17-19.66441-499.423-27.45117-732.02636z"/><path d="m1.04736 2.25c2.21158 232.526 5.95435 499.332 9.91234 732.464l-4.18823.059c-2.62598-233.352-4.84107-499.788-5.72411-732.523z"/><path d="m1.0034 2.29779c-4.68703 232.48421-8.861 499.28521-11.8205 732.43321l-4.188-.065c4.2971-233.329 9.98756-499.711 16.0085-732.36821z"/><path d="m.958385 2.33911c-11.581685 232.24489-23.668685 498.80289-33.543085 731.75789l-4.1843-.186c11.2172-233.098 24.8069-499.196 37.727385-731.57189z"/><path d="m733.403 14.0621c3.052.0419 6.253.0658 9.592.0658 33.191 0 80.072-2.2978 131.769-12.73357 38.768-7.82087 80.246-20.22543 120.677-39.67883 60.639-29.1832 118.919-74.2655 162.009-143.5105 43.08-69.233 70.92-162.563 70.92-288.086 0-42.682-3.22-89.087-10.15-139.549l-2.08.287-1.29 1.646c47.23 37.213 105.4 60.15 168.03 74.361 93.96 21.315 198.05 23.02 290.76 23.534 46.35.258 89.85.21 127.79 2.149 37.92 1.927 70.29 5.87 94.24 13.966l1.34-3.967c-16.42-5.547-36.4-9.132-59.18-11.489-39.87-4.117-88.36-4.476-141.24-4.733-79.33-.377-168.58-.527-253.26-12.668-84.7-12.141-164.78-36.28-225.89-84.444l-4.07-3.213.7 5.14c6.9 50.294 10.11 96.507 10.11 138.98-.01 111.036-21.88 196.444-56.66 262.146-26.09 49.277-59.45 87.49-96.38 117.1279-55.39 44.4479-118.835 69.5979-177.755 83.62406-58.914 14.02612-113.274 16.92228-150.39 16.92228-3.321 0-6.498-.02391-9.532-.0658z"/><path d="m732.691 35.8309c9.035.3889 19.369.6642 30.774.6642 37.11-.006 85.546-2.9141 137.358-14.2954 38.863-8.5389 79.629-21.847031 118.927-42.2938 58.95-30.6552 114.62-77.395 155.49-148.0399 40.87-70.645 66.93-165.142 66.93-291.24 0-35.334-2.04-73.158-6.38-113.633l-2.08.222-1.35 1.609c46.1 38.596 103.56 63.25 165.75 79.316 93.29 24.091 197.28 28.884 289.93 32.151 46.33 1.628 89.81 2.873 127.67 5.936 37.85 3.052 70.09 7.953 93.79 16.755l1.45-3.925c-16.25-6.032-36.11-10.203-58.81-13.237-39.73-5.301-88.18-7.096-141.04-8.921-79.29-2.735-168.48-5.53-252.77-20.178-84.3-14.648-163.63-41.157-223.28-91.11l-3.98-3.333.55 5.164c4.32 40.337 6.36 78.011 6.36 113.184 0 111.581-20.48 198.024-53.44 264.947-24.72 50.192-56.45 89.422-91.88 120.0775-53.15 45.9678-114.667 72.64377-173.312 87.8128-58.639 15.175-114.382 18.8431-155.883 18.8371-11.339 0-21.613-.2693-30.594-.6582z"/><path d="m731.327 57.5643c14.247 1.0352 31.749 1.8849 51.614 1.8849 39.934 0 89.412-3.4287 141.212-15.6956 38.845-9.2031 78.997-23.3729 117.377-44.80097 57.58-32.13923 111.18-80.65013 150.32-153.07863 39.15-72.428 63.84-168.726 63.84-296.433 0-27.071-1.11-55.554-3.42-85.521l-2.09.161-1.4 1.568c44.95 39.948 101.65 66.295 163.33 84.199 92.53 26.849 196.33 34.724 288.85 40.738 46.26 3.004 89.69 5.541 127.44 9.723 37.74 4.177 69.82 10.029 93.25 19.532l1.57-3.884c-16.07-6.51-35.79-11.267-58.4-14.971-39.55-6.481-87.93-9.712-140.71-13.105-79.17-5.086-168.24-10.526-252.07-27.669-83.82-17.138-162.33-45.992-220.47-97.692l-3.88-3.447.4 5.17c2.3 29.865 3.41 58.241 3.41 85.198 0 113.04-19.42 201.111-50.96 269.643-23.64 51.402-54.1 91.8225-88.36 123.5847-51.38 47.63132-111.33 75.7793-169.64 92.0254-58.298 16.2401-114.944 20.5664-159.599 20.5664-19.746 0-37.146-.8437-51.309-1.8729z"/><path d="m729.323 79.2498c18.902 1.9387 43.56 3.7219 71.934 3.7219 42.076 0 92.32-3.9134 144.054-17.0479 38.803-9.8494 78.439-24.8868 116.089-47.3621 56.46-33.701 108.42-84.1627 146.19-158.7687 37.78-74.607 61.38-173.316 61.38-303.549 0-17.712-.43-36.016-1.33-54.919l-2.1.102-1.43 1.519c43.73 41.265 99.63 69.281 160.75 89.01 91.7 29.584 195.22 40.534 287.52 49.289 46.15 4.374 89.48 8.198 127.09 13.499 37.61 5.29 69.5 12.094 92.63 22.284l1.69-3.83c-15.87-6.983-35.44-12.326-57.93-16.7-39.34-7.648-87.6-12.315-140.26-17.276-78.98-7.426-167.86-15.51-251.14-35.131s-160.89-50.785-217.47-104.19l-3.78-3.561.25 5.182c.89 18.843 1.32 37.076 1.32 54.722 0 115.321-18.57 205.587-48.98 276.119-22.81 52.903-52.27 94.7117-85.59 127.7066-49.96 49.49234-108.65 79.1603-166.638 96.4715-57.986 17.3113-115.273 22.2419-162.315 22.2419-28.201 0-52.715-1.7712-71.51-3.698z"/><path d="m726.672 100.863c23.096 3.07 54.857 6.152 91.596 6.152 43.787 0 94.648-4.381 146.351-18.4007 38.771-10.5136 78.021-26.4605 115.081-50.0608 55.59-35.40035 106.25-88.0461 142.94-165.2615 36.7-77.21 59.45-178.953 59.45-312.608 0-7.085-.06-14.253-.19-21.518l-2.1.036-1.48 1.478c42.49 42.545 97.53 72.213 158.05 93.743 90.77 32.289 193.92 46.303 285.92 57.798 46 5.739 89.2 10.849 126.64 17.257 37.43 6.409 69.1 14.152 91.92 25.031l1.8-3.782c-15.65-7.45-35.06-13.374-57.4-18.412-39.1-8.814-87.2-14.912-139.69-21.428-78.72-9.772-167.32-20.483-249.98-42.569-82.66-22.081-159.32-55.536-214.29-110.594l-3.67-3.674.09 5.188c.13 7.241.19 14.385.19 21.446 0 118.385-17.91 211.427-47.44 284.382-22.14 54.722-50.82 98.1471-83.4 132.5422-48.86 51.5927-106.55 82.8821-164.298 101.2943-57.748 18.4123-115.543 23.9235-164.494 23.9235-36.506 0-68.081-3.0638-91.046-6.1155z"/><path d="m723.381 122.393c26.908 4.386 65.663 9.149 110.522 9.149 44.751 0 95.575-4.739 146.764-19.333 38.393-10.951 76.993-27.4482 113.363-51.6648 54.55-36.3099 104.05-89.9908 140.26-168.1462 36.21-78.154 59.14-180.753 60.73-314.983l-2.09-.03-1.53 1.436c41.22 43.79 95.35 75.074 155.2 98.387 89.78 34.969 192.47 52.041 284.09 66.259 45.8 7.103 88.84 13.487 126.06 21.009 37.23 7.516 68.66 16.192 91.15 27.741l1.91-3.722c-15.43-7.917-34.65-14.409-56.84-20.112-38.82-9.969-86.71-17.484-138.98-25.557-78.41-12.105-166.65-25.437-248.61-49.971-81.97-24.521-157.61-60.239-210.92-116.9l-3.56-3.782-.06 5.188c-1.42 118.923-19.64 212.726-48.88 286.524-21.94 55.351-50.07 99.4578-82.01 134.50511-47.9 52.56799-104.37 84.79099-161.41 103.89789-57.035 19.1-114.627 25.066-164.637 25.066-44.566 0-83.1-4.733-109.846-9.096z"/><path d="m719.456 143.815c30.372 5.882 75.979 12.698 128.652 12.698 44.745 0 94.588-4.919 144.52-19.532 74.892-21.906 150.002-65.6961 208.082-147.2917 58.09-81.5896 99.12-200.8713 106.31-373.6543l-2.1-.09-1.57 1.394c39.9 44.987 93.08 77.862 152.21 102.946 88.7 37.614 190.85 57.726 282 74.654 45.57 8.455 88.4 16.115 125.39 24.743 36.99 8.617 68.14 18.221 90.28 30.434l2.02-3.668c-15.18-8.365-34.21-15.432-56.22-21.787-38.5-11.118-86.15-20.052-138.16-29.674-78.02-14.421-165.82-30.368-247.02-57.319-81.21-26.945-155.75-64.889-207.36-123.111l-3.44-3.884-.22 5.188c-4.77 114.812-24.54 205.718-54.21 277.488-22.26 53.8311-50.09 96.89682-81.39 131.2381-46.94 51.5148-101.69 83.4269-157.24 102.4909-55.549 19.059-111.89 25.246-161.882 25.246-52.314 0-97.664-6.774-127.857-12.62z"/><path d="m714.896 165.112c33.526 7.528 85.816 16.773 145.981 16.773 44.505 0 93.331-5.057 142.063-19.633 73.08-21.859 145.95-65.1881 203.44-144.851 57.49-79.6568 99.56-195.534 111.47-362.411l-2.09-.144-1.6 1.341c38.54 46.153 90.72 80.59 149.09 107.416 87.54 40.229 189.04 63.362 279.65 82.989 45.31 9.808 87.89 18.736 124.6 28.448 36.72 9.711 67.57 20.237 89.33 33.1022l2.13-3.6083c-14.92-8.8079-33.72-16.4379-55.53-23.4389-38.17-12.255-85.53-22.601-137.24-33.761-77.54-16.73-164.84-35.28-245.2-64.625-80.37-29.339-153.76-69.478-203.62-129.209l-3.32-3.985-.37 5.182c-7.91 110.88-29.18 198.986-59.34 268.7638-22.62 52.3347-50.24 94.3591-81.01 127.9823-46.14 50.4259-99.37 81.9669-153.52 100.9299-54.15 18.962-109.216 25.323-158.933 25.323-59.74 0-111.731-9.185-145.059-16.671z"/><path d="m709.708 186.259c36.404 9.323 95.169 21.356 162.501 21.356 44.111 0 91.902-5.164 139.481-19.663 71.36-21.739 142.25-64.541 199.3-142.2534 57.04-77.718 100.22-190.2556 116.54-351.4426l-2.08-.209-1.65 1.292c37.16 47.278 88.3 83.247 145.84 111.796 86.31 42.808 187.08 68.946 277.07 91.242 44.99 11.1534 87.29 21.338 123.7 32.1388 36.41 10.7948 66.94 22.2359 88.32 35.7354l2.23-3.5424c-14.66-9.251-33.23-17.431-54.82-25.0783-37.78-13.3799-84.82-25.1321-136.17-37.8175-77.02-19.023-163.72-40.152-243.18-71.872-79.47-31.709-151.63-74.008-199.69-135.187l-3.21-4.087-.53 5.17c-10.84 107.099-33.56 192.482-64.25 260.297-23.01 50.86257-50.49 91.8519-80.82 124.733-45.48 49.325-97.34 80.441-150.19 99.254-52.824 18.813-106.634 25.306-155.891 25.306-66.83 0-125.271-11.956-161.459-21.225z"/><path d="m703.892 207.25c39.025 11.232 104.054 26.407 178.244 26.407 43.59 0 90.346-5.236 136.834-19.621 69.74-21.572 138.87-63.764 195.59-139.5314 56.72-75.76733 101.04-185.0266 121.48-340.7136l-2.07-.275-1.69 1.244c35.74 48.362 85.78 85.832 142.45 116.069 85.01 45.357 184.96 74.4686 274.25 99.4272 44.64 12.4823 86.62 23.9175 122.69 35.7954 36.08 11.87192 66.25 24.2105 87.22 38.3384l2.34-3.4706c-14.38-9.6879-32.7-18.41226-54.06-26.69987-37.37-14.49283-84.03-27.63343-134.98-41.83903-76.42-21.2965-162.46-44.9925-240.95-79.0525-78.49-34.054-149.36-78.478-195.59-141.057l-3.08-4.171-.68 5.146c-13.59 103.443-37.73 186.1696-68.96 252.0576-46.85 98.8231-109.6 159.7744-176.85 196.1204-67.25 36.34-139.058 48.044-203.944 48.044-73.621.006-138.292-15.073-177.083-26.245z"/><path d="m697.46 228.056c41.4 13.26 112.455 31.918 193.209 31.923 42.992 0 88.73-5.295 134.191-19.531 68.2-21.35 135.75-62.872 192.25-136.689 56.51-73.8102 101.96-179.8378 126.26-330.2l-2.06-.335-1.73 1.191c34.29 49.397 83.21 88.339 138.95 120.245 83.62 47.8589 182.67 79.9204 271.18 107.52378 44.25 13.79872 85.87 26.47252 121.58 39.41552 35.7 12.9371 65.5 26.1614 86.04 40.9115l2.44-3.4048c-14.09-10.1067-32.14-19.3697-53.24-28.2856-36.92-15.5999-83.18-30.1166-133.69-45.82421-75.75-23.55839-161.05-49.79149-238.49-86.16729-77.45-36.3699-146.97-82.8759-191.33-146.8019l-2.96-4.26-.82 5.122c-16.15 99.906-41.64 180.0299-73.43 244.0091-47.69 95.9629-109.5 155.6039-175.35 191.3449-65.85 35.73-135.815 47.548-199.791 47.548-80.108 0-150.78-18.538-191.934-31.727z"/><path d="m690.411 248.659c43.549 15.39 120.389 37.865 207.432 37.871 42.334 0 87.084-5.319 131.577-19.387 66.74-21.087 132.88-61.891 189.24-133.739 56.37-71.854 102.96-174.6923 130.86-319.878l-2.06-.395-1.75 1.143c32.8 50.39 80.55 90.7686 135.32 124.314 82.17 50.3121 180.21 85.3057 267.86 115.5181 43.83 15.1032 85.05 29.0096 120.36 43.0058 35.31 13.9901 64.7 28.0941 84.79 43.4431l2.54-3.327c-13.78-10.52-31.55-20.316-52.38-29.854-36.44-16.6887-82.25-32.5699-132.26-49.7734-75.02-25.7903-159.51-54.54863-235.83-93.2042-76.33-38.6496-144.45-87.1964-186.89-152.4084l-2.83-4.35-.98 5.098c-18.55 96.4654-45.34 174.0399-77.69 236.1282-48.52 93.1328-109.52 151.4268-174.1 186.5218-64.58 35.084-132.794 46.956-195.777 46.956-86.325.006-162.747-22.332-206.037-37.633z"/><path d="m682.753 269.045c45.492 17.604 127.85 44.221 220.948 44.226 41.639 0 85.427-5.325 129.009-19.19 65.37-20.794 130.23-60.825 186.52-130.711 56.28-69.8848 103.98-169.57557 135.25-309.711l-2.04-.455-1.79 1.089c31.3 51.3415 77.82 93.1206 131.58 128.2757 80.63 52.7295 177.6 90.6133 264.31 123.4103 43.36 16.396 84.16 31.523 119.03 46.561 34.88 15.031 63.84 30.003 83.46 45.938l2.64-3.25c-13.46-10.92-30.93-21.242-51.46-31.397-35.94-17.76-81.25-34.993-130.74-53.669-74.22-28.0103-157.81-59.2579-232.96-100.1634-75.15-40.8995-141.8-91.445-182.28-157.8836l-2.7-4.434-1.13 5.068c-20.78 93.1088-48.81 168.1761-81.72 228.3974-49.36 90.3316-109.66 147.2506-173.07 181.6516s-129.979 46.285-191.909 46.285c-92.296.006-174.217-26.431-219.435-43.945z"/><path d="m674.495 289.198c47.228 19.909 134.845 50.971 233.777 50.977 40.922 0 83.782-5.32 126.488-18.963 64.08-20.459 127.8-59.677 184.05-127.599 56.25-67.917 105.03-164.49 139.44-299.689l-2.03-.521-1.82 1.036c29.76 52.2506 75.02 95.3881 127.71 132.1229 79.04 55.0991 174.84 95.8431 260.54 131.2011 42.86 17.677 83.18 34.001 117.6 50.067 34.41 16.061 62.92 31.888 82.06 48.398l2.74-3.172c-13.14-11.315-30.3-22.152-50.52-32.905-35.39-18.819-80.18-37.393-129.08-57.529-73.36-30.2-155.99-63.913-229.89-107.0266-73.91-43.1136-139.02-95.6157-177.52-163.2274l-2.57-4.511-1.28 5.032c-22.86 89.8352-52.07 162.4371-85.51 220.804-50.18 87.549-109.88 143.067-172.21 176.75-62.34 33.683-127.357 45.537-188.198 45.543-98.058.006-185.208-30.847-232.149-50.647z"/><path d="m665.646 309.095c48.765 22.284 141.367 58.086 245.953 58.094 40.186 0 82.148-5.293 124.041-18.697 62.85-20.099 125.53-58.462 181.77-124.41 56.25-65.942 106.08-159.433 143.42-289.8029l-2.02-.5744-1.85.9813c28.19 53.1066 72.16 97.5665 123.73 135.8511 77.37 57.4209 171.92 100.9829 256.54 138.8729 42.31 18.939 82.13 36.454 116.06 53.531 33.92 17.078 61.94 33.737 80.59 50.815l2.83-3.093c-12.8-11.699-29.62-23.038-49.52-34.39-34.82-19.86-79.03-39.756-127.32-61.334-72.43-32.361-154.02-68.509-226.61-113.801-72.6-45.2852-136.13-99.69034-172.6-168.4207l-2.43-4.5836-1.43 4.9906c-24.81 86.628-55.12 156.8004-89.09 213.3297-50.97 84.791-110.15 138.879-171.49 171.814s-124.887 44.729-184.621 44.735c-103.629.006-195.74-35.556-244.212-57.72z"/><path d="m656.203 328.722c50.131 24.725 147.429 65.554 257.502 65.564 39.456 0 80.557-5.253 121.675-18.396 61.69-19.708 123.42-57.191 179.68-121.158 56.27-63.968 107.09-154.395 147.14-280.038l-2-.6343-1.88.9275c26.61 53.9204 69.23 99.6668 119.65 139.4598 75.63 59.688 168.85 106.045 252.31 146.424 41.72 20.184 81.01 38.877 114.42 56.954 33.4 18.071 60.91 35.562 79.04 53.179l2.92-3.005c-12.43-12.075-28.92-23.911-48.47-35.848-34.22-20.884-77.82-42.079-125.45-65.081-71.44-34.497-151.92-73.05-223.13-120.472-71.22-47.4162-133.11-103.6882-167.53-173.4658l-2.3-4.6555-1.58 4.9428c-53.22 166.9735-125.37 271.0975-203.63 333.4975-39.13 31.205-79.8 51.987-120.46 64.983-40.662 12.994-81.32 18.197-120.405 18.197-109.032.011-205.822-40.539-255.647-65.133z"/><path d="m646.187 348.055c51.309 27.233 153.029 73.36 268.452 73.372 77.439.01 161.081-20.824 239.481-82.102 78.4-61.268 151.5-162.874 208.26-324.1922l-1.99-.6942-1.9.8676c25 54.6863 66.25 101.6778 115.46 142.9538 73.83 61.909 165.63 111.006 247.85 153.845 41.11 21.416 79.83 41.258 112.68 60.322 32.85 19.054 59.83 37.351 77.43 55.501l3.01-2.917c-12.07-12.44-28.2-24.756-47.39-37.268-33.58-21.89-76.54-44.373-123.46-68.775-70.38-36.603-149.69-77.527-219.46-127.043-69.78-49.51-129.98-107.5892-162.31-178.36l-2.16-4.72131-1.72 4.90081c-56.56 160.7915-129.27 261.6315-206.88 322.2835-77.61 60.644-160.192 81.201-236.901 81.211-114.304.012-215.486-45.795-266.489-72.882z"/><path d="m635.602 367.09c26.154 14.897 65.7 35.26 113.783 51.908 48.084 16.646 104.712 29.581 165.051 29.583 75.985.009 157.874-20.561 235.654-80.038 77.79-59.472 151.42-157.75 211.26-312.983l-1.95-.7539-1.94.8137c23.37 55.4042 63.2 103.5982 111.17 146.3112 71.96 64.075 162.26 115.871 243.18 161.132 40.45 22.625 78.56 43.611 110.84 63.639 32.27 20.021 58.7 39.11 75.75 57.774l3.09-2.826c-23.39-25.567-63.03-51.213-110.83-78.944-71.7-41.569-161.8-87.711-242.59-144.019-40.39-28.148-78.46-58.839-110.73-92.737-32.27-33.893-58.74-70.9864-76.02-111.9578l-2.01-4.7871-1.87 4.847c-59.64 154.7239-132.88 252.2849-209.89 311.1639-77.02 58.875-157.871 79.167-233.114 79.176-119.468.015-224.76-51.311-276.763-80.94z"/><path d="m624.455 385.798c26.579 16.2 67.291 38.667 117.08 57.093 49.795 18.426 108.673 32.817 171.584 32.819 74.561.009 154.801-20.254 232.001-77.912 77.2-57.653 151.33-152.617 214-301.8656l-1.93-.8078-1.95.7539c21.71 56.0745 60.1 105.4295 106.78 149.5485 70.02 66.175 158.75 120.634 238.29 168.273 39.76 23.816 77.23 45.925 108.9 66.901 31.66 20.97 57.51 40.834 74 59.996l3.18-2.734c-22.63-26.248-61.48-53.059-108.45-82.197-70.43-43.678-159.12-92.472-238.2-151.149-39.54-29.339-76.68-61.143-107.93-95.981s-56.61-72.703-72.67-114.1654l-1.87-4.8409-2.01 4.781c-62.47 148.7583-136.2 243.0393-212.65 300.1303-76.46 57.087-155.678 77.071-229.491 77.08-62.271.002-120.676-14.256-170.13-32.557-49.448-18.3-89.933-40.637-116.356-56.742z"/><path d="m612.757 404.169c26.92 17.524 68.685 42.165 120.084 62.436 51.392 20.27 112.431 36.178 177.891 36.18 73.154.008 151.828-19.906 228.478-75.731 76.64-55.82 151.23-147.477 216.49-290.826l-1.9-.868-1.98.7c20.04 56.691 56.95 107.165 102.3 152.648 68.03 68.228 155.1 125.291 233.19 175.269 39.04 24.985 75.84 48.195 106.87 70.102 31.02 21.899 56.28 42.522 72.2 62.165l3.24-2.638c-21.83-26.909-59.87-54.86-105.95-85.379-69.11-45.748-156.3-97.149-233.62-158.149-38.65-30.499-74.83-63.393-105.03-99.14-30.21-35.754-54.43-74.349-69.25-116.278l-1.73-4.889-2.15 4.721c-65.06 142.876-139.23 233.889-215.15 289.177-75.92 55.282-153.608 74.918-226.008 74.927-64.778.002-125.314-15.755-176.353-35.887-51.04-20.131-92.572-44.629-119.336-62.051z"/><path d="m600.521 422.184c27.183 18.866 69.887 45.748 122.788 67.927 52.9 22.177 116.009 39.661 184 39.662 71.767.008 148.971-19.52 225.071-73.497 76.1-53.974 151.08-142.328 218.71-279.873l-1.88-.921-2 .634c18.35 57.265 53.75 108.81 97.73 155.622 65.98 70.211 151.31 129.835 227.89 182.107 38.28 26.133 74.38 50.424 104.74 73.241 30.36 22.81 54.99 44.173 70.32 64.278l3.33-2.537c-10.51-13.781-25.07-27.92-42.65-42.617-30.75-25.714-70.73-53.121-114.44-82.912-65.56-44.678-139.46-94.707-202.88-152.133-63.43-57.427-116.32-122.226-140.05-196.324l-1.58-4.942-2.29 4.655c-67.4 137.09-141.97 224.837-217.37 278.305-75.4 53.464-151.638 72.717-222.651 72.726-67.267.001-129.849-17.312-182.379-39.337-52.529-22.023-94.994-48.749-122.016-67.505z"/><path d="m587.758 439.828c27.368 20.225 70.899 49.41 125.205 73.557 54.307 24.144 119.408 43.259 189.912 43.26 70.42.007 146.225-19.101 221.785-71.219 75.56-52.114 150.88-137.179 220.63-269.003l-1.86-.981-2.01.58c16.64 57.786 50.49 110.354 93.06 158.449 63.87 72.141 147.4 134.269 222.39 188.79 37.5 27.257 72.85 52.607 102.53 76.315 29.67 23.702 53.65 45.789 68.38 66.337l3.4-2.435c-10.1-14.092-24.23-28.657-41.36-43.868-29.97-26.61-69.13-55.195-111.94-86.267-64.2-46.603-136.58-98.802-198.27-158.085-30.85-29.64-59.01-61.045-82.15-94.387-23.14-33.348-41.25-68.617-52.02-106.01l-1.43-4.984-2.43 4.589c-69.51 131.388-144.43 215.876-219.3 267.512-74.88 51.632-149.738 70.471-219.405 70.479-69.738.002-134.289-18.923-188.212-42.899-53.924-23.975-97.209-52.992-124.416-73.098z"/><path d="m574.475 457.086c27.482 21.596 71.718 53.147 127.335 79.317 55.617 26.168 122.639 46.967 195.662 46.969 69.092.006 143.548-18.651 218.568-68.9 75.03-50.246 150.63-132.032 222.26-258.22l-1.83-1.035-2.03.52c14.92 58.253 47.2 111.805 88.33 161.141 61.69 74.004 143.35 138.583 216.69 195.305 36.66 28.357 71.25 54.746 100.21 79.327 28.96 24.57 52.28 47.356 66.39 68.336l3.47-2.34c-9.68-14.379-23.38-29.357-40.04-45.07-29.17-27.49-67.47-57.224-109.33-89.554-62.79-48.486-133.6-102.809-193.5-163.896-29.95-30.542-57.18-62.77-79.32-96.784-22.13-34.018-39.19-69.814-48.84-107.5l-1.29-5.032-2.56 4.518c-71.39 125.767-146.58 207.01-220.94 256.803-74.36 49.791-147.894 68.185-216.238 68.192-72.221.002-138.657-20.586-193.879-46.57-55.222-25.982-99.213-57.35-126.53-78.82z"/><path d="m560.686 473.942c27.519 22.979 72.349 56.95 129.187 85.199 56.838 28.245 125.702 50.779 201.257 50.779 67.793.006 140.96-18.168 215.44-66.542 74.48-48.371 150.27-126.89 223.55-247.519l-1.78-1.09-2.05.461c13.19 58.666 43.86 113.153 83.51 163.689 59.47 75.801 139.17 142.773 210.8 201.648 35.81 29.435 69.6 56.835 97.81 82.26 28.22 25.42 50.85 48.888 64.33 70.28l3.55-2.238c-9.25-14.66-22.5-30.038-38.69-46.237-28.34-28.345-65.74-59.198-106.62-92.755-61.33-50.33-130.49-106.73-188.56-169.568-29.03-31.417-55.29-64.438-76.4-99.094-21.12-34.658-37.11-70.945-45.64-108.906l-1.14-5.063-2.69 4.434c-73.04 120.233-148.44 198.241-222.26 246.185-73.84 47.941-146.109 65.861-213.16 65.867-74.711.006-142.965-22.297-199.39-50.342-56.431-28.043-101.013-61.818-128.369-84.663z"/><path d="m546.404 490.382c27.486 24.37 72.797 60.816 130.76 91.194 57.962 30.373 128.604 54.697 206.719 54.697 66.525.006 138.437-17.664 212.347-64.159 73.92-46.489 149.83-121.758 224.56-236.912l-1.76-1.137-2.05.395c11.43 59.035 40.48 114.406 78.6 166.096 57.21 77.533 134.89 146.841 204.73 207.81 34.92 30.482 67.88 58.881 95.34 85.132 27.44 26.245 49.37 50.372 62.21 72.153l3.61-2.13c-8.81-14.93-21.59-30.691-37.3-47.362-27.49-29.177-63.95-61.125-103.83-95.879-59.8-52.131-127.26-110.557-183.43-175.088-28.09-32.264-53.35-66.05-73.44-101.318-20.08-35.269-34.99-72.011-42.38-110.21l-.99-5.092-2.82 4.35c-74.48 114.772-149.99 189.559-223.27 235.647-73.29 46.084-144.344 63.509-210.127 63.515-77.235 0-147.231-24.061-204.775-54.218-57.543-30.154-102.603-66.39-129.926-90.619z"/><path d="m531.639 506.39c27.383 25.77 73.058 64.741 132.062 97.295 58.998 32.552 131.357 58.708 212.057 58.708 65.28.006 135.992-17.138 209.312-61.742 73.33-44.606 149.28-116.641 225.22-226.396l-1.72-1.192-2.07.337c9.68 59.347 37.07 115.556 73.65 168.354 54.87 79.194 130.46 150.779 198.46 213.795 34.01 31.505 66.12 60.862 92.77 87.92 26.66 27.047 47.86 51.814 60.05 73.967l3.67-2.023c-8.36-15.181-20.67-31.319-35.87-48.451-26.62-29.973-62.12-62.992-100.94-98.913-58.23-53.878-123.93-114.285-178.17-180.453-27.11-33.084-51.37-67.605-70.39-103.452-19.03-35.849-32.84-73.018-39.1-111.418l-.83-5.124-2.96 4.269c-75.69 109.391-151.23 180.974-223.94 225.201-72.72 44.222-142.598 61.126-207.142 61.132-79.779.006-151.462-25.868-210.035-58.181-58.567-32.317-103.993-71.063-131.213-96.683z"/><path d="m516.407 521.954c27.211 27.174 73.136 68.718 133.089 103.5 59.949 34.778 133.966 62.807 217.298 62.807 64.06.006 133.596-16.587 206.306-59.306 72.7-42.72 148.59-111.541 225.53-215.978l-1.68-1.242-2.08.276c7.92 59.607 33.62 116.604 68.62 170.463 52.5 80.786 125.93 154.585 192.04 219.587 33.05 32.505 64.28 62.801 90.12 90.638 25.84 27.824 46.3 53.214 57.82 75.713l3.73-1.909c-7.9-15.426-19.73-31.918-34.42-49.498-25.71-30.751-60.21-64.805-97.96-101.863-56.6-55.584-120.48-117.911-172.73-185.66-26.13-33.873-49.34-69.098-67.29-105.494-17.96-36.398-30.66-73.96-35.78-112.529l-.68-5.146-3.08 4.18c-76.69 104.089-152.18 172.485-224.29 214.848-72.113 42.365-140.84 58.731-204.176 58.731-82.375.006-155.685-27.717-215.198-62.244-59.506-34.518-105.181-75.822-132.23-102.839z"/><path d="m500.719 537.058c26.971 28.583 73.031 72.743 133.854 109.795 60.811 37.045 136.431 66.995 222.45 67.001 62.857 0 131.237-16.019 203.287-56.853 72.06-40.84 147.79-106.465 225.52-205.664l-1.65-1.292-2.08.214c6.15 59.816 30.15 117.55 63.53 172.425 50.09 82.307 121.3 158.248 185.45 225.19 32.07 33.467 62.38 64.679 87.39 93.264 25.01 28.584 44.7 54.566 55.55 77.402l3.78-1.8c-7.45-15.65-18.77-32.489-32.94-50.494-24.78-31.499-58.26-66.564-94.89-104.729-54.93-57.236-116.93-121.43-167.15-190.699-25.11-34.635-47.26-70.532-64.14-107.447-16.86-36.914-28.44-74.836-32.42-113.54l-.52-5.164-3.2 4.086c-77.47 98.869-152.82 164.099-224.29 204.604-71.48 40.499-139.082 56.302-201.227 56.308-85.026 0-159.904-29.614-220.272-66.391-60.366-36.765-106.176-80.675-132.986-109.091z"/><path d="m484.591 551.69c26.664 29.993 72.742 76.816 134.347 116.178 61.601 39.355 138.776 71.273 227.536 71.273 61.685 0 128.928-15.426 200.286-54.387 71.36-38.955 146.84-101.411 225.14-195.454l-1.61-1.341-2.09.152c4.37 59.972 26.65 118.392 58.39 174.234 47.62 83.761 116.55 161.779 178.68 230.593 31.07 34.401 60.44 66.498 84.59 95.819 24.15 29.313 43.06 55.863 53.23 79.013l3.84-1.68c-6.98-15.87-17.81-33.04-31.43-51.46-23.84-32.216-56.27-68.263-91.74-107.493-53.21-58.845-113.28-124.846-161.42-195.575-24.07-35.365-45.16-71.908-60.92-109.301-15.77-37.4-26.22-75.649-29.04-114.454l-.38-5.177-3.32 3.99c-78.04 93.73-153.13 155.816-223.93 194.46-70.796 38.644-137.291 53.867-198.276 53.873-87.736 0-164.134-31.553-225.28-70.616-61.138-39.062-106.969-85.612-133.473-115.43z"/><path d="m468.035 565.839c26.291 31.401 72.274 80.924 134.586 122.637 62.301 41.708 140.984 75.63 232.568 75.63 60.524 0 126.642-14.828 197.251-51.904 70.63-37.082 145.75-96.399 224.41-185.369l-1.57-1.387-2.09.089c2.58 60.076 23.12 119.134 53.2 175.89 45.11 85.138 111.69 165.166 171.76 235.794 30.03 35.304 58.44 68.261 81.7 98.281 23.27 30.02 41.39 57.12 50.87 80.56l3.88-1.57c-6.5-16.07-16.81-33.55-29.89-52.36-22.87-32.92-54.21-69.908-88.51-110.173-51.44-60.395-109.53-128.15-155.54-200.279-23.02-36.059-43.01-73.213-57.66-111.06-14.65-37.848-23.95-76.391-25.63-115.262l-.22-5.186-3.44 3.888c-78.4 88.675-153.14 147.64-223.21 184.434-70.075 36.789-135.475 51.419-195.311 51.425-90.525 0-168.401-33.527-230.241-74.923-61.831-41.39-107.568-90.626-133.702-121.844z"/><path d="m451.067 579.489c25.854 32.807 71.624 85.07 134.559 129.171 62.931 44.101 143.08 80.064 237.578 80.064 59.369.006 124.368-14.206 194.186-49.421 69.83-35.215 144.49-91.415 223.3-175.401l-1.53-1.433-2.09.028c.8 60.127 19.58 119.768 47.96 177.392 42.56 86.437 106.74 168.404 164.69 240.784 28.97 36.187 56.39 69.967 78.75 100.667 22.37 30.69 39.67 58.32 48.45 82.03l3.93-1.46c-6.02-16.25-15.81-34.03-28.32-53.22-21.89-33.58-52.12-71.48-85.2-112.752-49.63-61.891-105.68-131.339-149.54-204.803-21.93-36.729-40.81-74.457-54.33-112.723-13.53-38.267-21.68-77.066-22.2-115.97l-.07-5.191-3.55 3.785c-78.55 83.704-152.84 139.582-222.13 174.527-69.302 34.946-133.607 48.972-192.306 48.972-93.403 0-172.721-35.538-235.173-79.304-62.448-43.754-107.976-95.717-133.675-128.334z"/><path d="m433.701 592.63c25.353 34.213 70.795 89.246 134.281 135.776 31.743 23.265 68.003 44.406 108.524 59.737 40.514 15.324 85.301 24.839 134.043 24.833 58.232.006 122.106-13.578 191.081-46.937 68.97-33.354 143.05-86.479 221.81-165.561l-1.49-1.478-2.08-.036c-.03 1.651-.05 3.309-.05 4.96 0 59.713 17.52 119.42 44.38 177.391 40.3 86.951 101.65 170.055 156.96 243.475 27.65 36.71 53.8 70.99 75.03 102.08 21.23 31.08 37.54 58.99 45.55 82.79l3.97-1.34c-5.5-16.32-14.67-34.24-26.48-53.64-20.67-33.94-49.47-72.4-81.04-114.26-47.35-62.799-100.95-133.259-142.66-207.369-41.73-74.115-71.53-151.851-71.52-229.127 0-1.633.01-3.261.04-4.888l.09-5.194-3.67 3.679c-78.49 78.82-152.2 131.639-220.667 164.748-68.464 33.108-131.674 46.518-189.254 46.518-48.197 0-92.464-9.395-132.565-24.564-60.147-22.75-110.929-58.504-151.398-94.963-40.469-36.46-70.618-73.613-89.52-99.124z"/><path d="m415.953 605.247c24.789 35.616 69.785 93.456 133.747 142.451 31.983 24.498 68.712 46.782 110.034 62.944 41.316 16.169 87.228 26.204 137.532 26.204 57.101 0 119.838-12.937 187.901-44.454s141.453-81.59 219.943-155.867l-1.44-1.526-2.09-.096c-.22 4.703-.32 9.413-.32 14.122 0 58.977 16.65 118.342 42.16 176.224 38.27 86.813 96.5 170.324 148.77 244.141 26.14 36.9 50.79 71.39 70.71 102.6s35.09 59.17 42.3 82.89l4.01-1.22c-4.95-16.26-13.43-34.2-24.45-53.65-19.29-34.03-46.4-72.7-76.22-114.79-44.72-63.14-95.54-133.993-135.14-208.175-39.61-74.182-67.96-151.666-67.95-228.02 0-4.644.1-9.287.31-13.924l.24-5.188-3.77 3.566c-78.23 74.032-151.26 123.829-218.822 155.113-67.572 31.283-129.676 44.065-186.142 44.065-49.742 0-95.121-9.921-136.006-25.916-61.332-23.989-112.561-61.664-153.077-100.002-40.517-38.338-70.312-77.329-88.792-103.879z"/><path d="m397.839 617.34c24.162 37.004 68.595 97.686 132.963 149.177 32.186 25.743 69.36 49.187 111.484 66.206 42.118 17.012 89.191 27.591 141.104 27.591 55.976 0 117.564-12.297 184.646-41.983 67.084-29.685 139.664-76.76 217.684-146.322l-1.39-1.562-2.09-.162c-.59 7.827-.88 15.672-.88 23.529 0 58.246 15.79 117.253 39.95 174.985 36.23 86.592 91.32 170.361 140.57 244.441 24.62 37.03 47.78 71.64 66.39 102.91 18.61 31.28 32.65 59.24 39.07 82.85l4.04-1.11c-4.41-16.18-12.2-34.09-22.43-53.55-17.92-34.06-43.34-72.86-71.41-115.11-42.1-63.37-90.13-134.471-127.61-208.629-37.49-74.157-64.39-151.343-64.38-226.787 0-7.755.28-15.492.87-23.212l.39-5.176-3.87 3.459c-77.77 69.329-149.99 116.14-216.597 145.617-66.609 29.476-127.593 41.617-182.953 41.623-51.345 0-97.861-10.453-139.536-27.286-62.512-25.252-114.135-64.883-154.633-105.124-40.498-40.235-69.862-81.075-87.875-108.667z"/><path d="m379.374 628.883c23.474 38.398 67.225 101.947 131.931 155.963 32.354 27.011 69.953 51.635 112.881 69.514 42.925 17.874 91.183 28.998 144.783 28.998 54.84 0 115.261-11.639 181.296-39.517 66.035-27.879 137.675-71.992 215.025-136.935l-1.35-1.603-2.08-.222c-1.17 11.011-1.72 22.081-1.72 33.193 0 57.546 14.93 116.158 37.72 173.681 34.21 86.281 86.15 170.165 132.37 244.345 23.11 37.09 44.78 71.75 62.09 103.03 17.3 31.28 30.22 59.19 35.86 82.64l4.07-.98c-3.87-16.08-10.98-33.94-20.43-53.38-16.55-34.01-40.3-72.87-66.61-115.18-39.47-63.46-84.73-134.7-120.09-208.733-35.36-74.032-60.8-150.853-60.79-225.423 0-10.969.55-21.895 1.7-32.756l.54-5.158-3.97 3.339c-77.09 64.727-148.39 108.601-213.963 136.282-65.579 27.687-125.421 39.188-179.668 39.188-53.02 0-100.703-10.992-143.174-28.674-63.698-26.527-115.662-68.138-156.078-110.306-40.416-42.163-69.271-84.863-86.77-113.49z"/><path d="m360.574 639.875c22.724 39.775 65.675 106.226 130.654 162.803 32.49 28.291 70.495 54.112 114.235 72.865 43.74 18.747 93.218 30.428 148.584 30.428 53.696 0 112.927-10.981 177.825-37.076 64.909-26.09 135.488-67.282 211.958-127.713l-1.3-1.646-2.07-.281c-1.95 14.271-2.86 28.675-2.86 43.167 0 56.853 14.07 115.028 35.51 172.281 32.17 85.877 80.98 169.717 124.17 243.857 21.6 37.06 41.79 71.7 57.8 102.92 16.01 31.21 27.82 59.02 32.68 82.28l4.11-.86c-3.35-15.95-9.78-33.72-18.46-53.1-15.19-33.9-37.27-72.73-61.84-115.02-36.86-63.43-79.34-134.64-112.57-208.45-33.24-73.815-57.21-150.205-57.21-223.908 0-14.313.91-28.525 2.81-42.605l.7-5.14-4.07 3.214c-76.21 60.233-146.454 101.204-210.92 127.12-64.461 25.91-123.142 36.765-176.263 36.771-54.78-.006-103.665-11.543-146.932-30.093-64.9-27.819-117.157-71.441-157.426-115.548-40.269-44.106-68.538-88.686-85.478-118.342z"/><path d="m341.457 650.306c21.914 41.144 63.944 110.521 129.133 169.689 32.595 29.584 70.988 56.619 115.553 76.258s95.299 31.876 152.514 31.876c105.107 0 231.946-41.282 382.703-153.33l-1.25-1.675-2.06-.347c-2.93 17.616-4.29 35.466-4.29 53.483.01 56.165 13.2 113.867 33.29 170.779 30.14 85.371 75.81 168.991 116 242.931 20.09 36.97 38.81 71.51 53.53 102.6 14.73 31.08 25.44 58.73 29.55 81.77l4.12-.74c-2.82-15.79-8.59-33.45-16.5-52.73-13.85-33.73-34.26-72.44-57.1-114.62-34.25-63.26-73.96-134.31-105.07-207.79-31.13-73.471-53.64-149.358-53.63-222.2 0-17.802 1.34-35.424 4.23-52.795l.85-5.122-4.17 3.099c-150.268 111.677-276.227 152.499-380.203 152.499-56.611 0-106.747-12.1-150.824-31.523-66.116-29.13-118.62-74.786-158.679-120.862-40.061-46.069-67.665-92.54-84-123.219z"/><path d="m322.039 660.161c21.043 42.503 62.033 114.836 127.371 176.625 32.671 30.894 71.438 59.156 116.845 79.692 45.407 20.543 97.452 33.348 156.599 33.348 102.768 0 226.872-38.631 375.056-142.086l-1.2-1.717-2.06-.401c-4.14 21.033-6.03 42.479-6.03 64.189 0 55.464 12.34 112.645 31.08 169.149 28.12 84.75 70.67 167.99 107.86 241.56 18.6 36.79 35.86 71.16 49.3 102.05 13.46 30.88 23.08 58.31 26.45 81.09l4.14-.61c-2.32-15.62-7.43-33.12-14.58-52.26-12.51-33.48-31.28-71.99-52.39-113.96-31.67-62.95-68.61-133.69-97.61-206.72-29.02-73.03-50.07-148.32-50.06-220.299 0-21.47 1.87-42.641 5.95-63.381l1-5.092-4.25 2.967c-147.704 103.114-270.965 141.333-372.656 141.333-58.543 0-109.965-12.662-154.873-32.971-67.357-30.464-120.062-78.179-159.852-126.241-39.79-48.056-66.65-96.43-82.336-128.12z"/><path d="m302.337 669.442c20.114 43.849 59.94 119.156 125.373 183.602 32.718 32.223 71.847 61.723 118.117 83.169 46.267 21.452 99.678 34.838 160.866 34.838 100.368 0 221.594-35.987 366.787-131.076l-1.14-1.753-2.05-.467c-5.58 24.534-8.09 49.732-8.09 75.331 0 54.77 11.48 111.374 28.88 167.384 26.1 84 65.53 166.68 99.76 239.73 17.11 36.52 32.92 70.62 45.11 101.25 12.19 30.62 20.74 57.77 23.39 80.25l4.16-.49c-1.82-15.42-6.29-32.73-12.69-51.69-11.2-33.16-28.34-71.37-47.73-113.04-29.1-62.49-63.3-132.77-90.2-205.22-26.9-72.44-46.5-147.063-46.49-218.174 0-25.324 2.48-50.205 7.99-74.397l1.16-5.063-4.35 2.843c-144.728 94.777-265.152 130.393-364.497 130.393-60.578-.006-113.346-13.236-159.104-34.449-68.631-31.81-121.496-81.607-160.955-131.674-39.46-50.055-65.497-100.349-80.49-133.045z"/><path d="m282.368 678.13c19.126 45.184 57.664 123.501 123.14 190.627 32.739 33.558 72.223 64.321 119.382 86.688 47.156 22.374 101.988 36.346 165.33 36.346 97.909-.006 216.09-33.354 357.9-120.323l-1.1-1.789-2.02-.527c-7.3 28.13-10.51 57.266-10.51 86.975.01 54.053 10.63 110.023 26.69 165.443 24.1 83.13 60.45 165.06 91.73 237.4 15.64 36.16 30.01 69.93 40.96 100.21s18.44 57.09 20.39 79.23l4.18-.37c-1.34-15.18-5.18-32.26-10.84-50.99-9.92-32.77-25.44-70.59-43.14-111.86-26.55-61.89-58.01-131.52-82.83-203.26-24.81-71.74-42.95-145.58-42.95-215.803 0-29.41 3.18-58.186 10.37-85.922l1.3-5.026-4.42 2.717c-141.35 86.681-258.771 119.706-355.71 119.706-62.726-.006-116.901-13.816-163.535-35.939-69.944-33.18-122.93-85.09-162-137.173-39.07-52.077-64.204-104.304-78.459-137.993z"/><path d="m262.151 686.22c18.077 46.507 55.204 127.857 120.674 197.688 32.736 34.916 72.57 66.954 120.65 90.261 48.078 23.307 104.4 37.861 170.015 37.861 95.372 0 210.328-30.735 348.34-109.841l-1.04-1.813-2.01-.587c-9.27 31.823-13.27 65.11-13.27 99.194 0 53.307 9.78 108.557 24.52 163.307 22.1 82.11 55.39 163.09 83.77 234.53 14.18 35.72 27.14 69.06 36.86 98.92 9.72 29.87 16.19 56.28 17.45 78.03l4.19-.24c-1.76-29.83-12.84-67.31-28.43-110.2-23.39-64.32-56.95-140.77-84.64-220.98-27.71-80.22-49.54-164.18-49.53-243.367 0-33.754 3.96-66.642 13.1-98.027l1.45-4.978-4.5 2.579c-137.56 78.843-251.804 109.293-346.26 109.293-64.993 0-120.646-14.414-168.188-37.451-71.305-34.563-124.378-88.609-163.001-142.733-38.622-54.118-62.772-108.289-76.245-142.96z"/><path d="m241.702 693.712c16.97 47.811 52.56 132.219 117.98 204.791 32.711 36.286 72.894 69.61 121.934 93.862 49.037 24.255 106.928 39.415 174.953 39.415 92.739 0 204.272-28.15 338.07-99.66l-.987-1.843-1.993-.646c-11.53 35.633-16.395 73.329-16.395 112.079.012 105.04 35.706 217.86 71.716 318.84 18.02 50.49 36.12 98.02 49.91 140.08 13.79 42.05 23.24 78.67 24.04 107.12l4.19-.12c-.84-29.25-10.42-66.09-24.26-108.3-20.75-63.31-51.11-138.63-76.29-217.7-25.168-79.06-45.123-161.85-45.117-239.92 0-38.4 4.823-75.656 16.191-110.787l1.598-4.943-4.578 2.448c-133.361 71.267-244.218 99.162-336.095 99.162-67.403 0-124.609-15.01-173.097-38.977-72.724-35.963-125.852-92.169-163.971-148.351s-61.203-112.305-73.851-147.95z"/><path d="m221.041 700.588c15.805 49.103 49.727 136.599 115.059 211.941 32.667 37.668 73.201 72.303 123.247 97.511 50.041 25.21 109.589 40.99 180.174 40.99 89.981 0 197.876-25.62 327.055-89.793l-.934-1.878-1.974-.7c-14.115 39.565-19.925 81.971-19.925 125.721.012 103.33 32.353 214.2 64.617 313.35 16.14 49.57 32.26 96.22 44.34 137.47 12.08 41.24 20.08 77.11 20.07 104.95v.18l4.19-.02c0-.05 0-.1 0-.16-.01-28.62-8.13-64.73-20.24-106.13-18.18-62.09-45.39-136.03-68.047-213.72-22.654-77.68-40.742-159.08-40.742-235.92 0-43.38 5.762-85.307 19.686-124.315l1.741-4.889-4.649 2.31c-128.748 63.964-236.009 89.354-325.188 89.354-69.962-.01-128.811-15.62-178.29-40.54-74.211-37.379-127.368-95.776-164.928-154.034-37.56-58.259-59.496-116.35-71.276-152.959z"/><path d="m200.184 706.853c14.582 50.378 46.706 140.985 111.917 219.134 32.605 39.068 73.5 75.023 124.603 101.203 51.1 26.18 112.401 42.57 185.71 42.57 87.085 0 191.097-23.11 315.244-80.261l-.874-1.897-1.951-.766c-17.047 43.644-23.868 91.134-23.868 140.284.006 100.1 28.266 207.17 56.467 303.19 14.103 48 28.2 93.25 38.748 133.42 10.56 40.18 17.56 75.31 17.56 102.94 0 1.61-.03 3.2-.07 4.76l4.18.13c.05-1.61.08-3.24.08-4.89-.01-28.32-7.11-63.68-17.7-104-15.884-60.47-39.663-132.08-59.468-207.24-19.8-75.14-35.615-153.82-35.609-228.31 0-48.77 6.768-95.73 23.582-138.758l1.884-4.835-4.715 2.173c-123.727 56.96-227.153 79.87-313.49 79.87-72.685 0-133.276-16.23-183.8-42.11-75.777-38.82-128.94-99.424-165.889-159.783-36.947-60.353-57.651-120.425-68.518-157.991z"/><path d="m179.15 712.495c13.301 51.641 43.493 145.384 108.555 226.369 32.531 40.487 73.798 77.776 126.021 104.946 52.221 27.17 115.386 44.18 191.605 44.18 84.021 0 183.893-20.66 302.582-71.09l-.819-1.93-1.927-.82c-20.362 47.9-28.254 100.9-28.26 155.89.006 96.55 24.323 199.32 48.586 291.76 12.135 46.22 24.263 89.84 33.34 128.79 9.089 38.93 15.115 73.19 15.109 100.53 0 3.43-.096 6.75-.287 9.96l4.182.25c.197-3.3.293-6.7.293-10.21-.006-27.94-6.109-62.42-15.216-101.48-13.666-58.6-34.13-127.53-51.171-199.81-17.041-72.27-30.648-147.9-30.642-219.79-.006-54.6 7.844-107.03 27.919-154.25l2.035-4.78-4.781 2.04c-118.295 50.25-217.616 70.75-300.943 70.75-75.596-.01-138.041-16.86-189.671-43.71-77.437-40.275-130.586-103.123-166.873-165.606-36.284-62.465-55.67-124.53-65.58-163.036z"/><path d="m157.958 717.51c11.962 52.885 40.085 149.799 104.977 233.651 32.446 41.922 74.105 80.579 127.52 108.739 53.412 28.16 118.566 45.81 197.89 45.81 80.765 0 176.215-18.28 289.028-62.31l-.76-1.95-1.902-.88c-24.114 52.35-33.131 111.4-33.131 172.77 0 92.58 20.517 190.49 40.993 278.85 10.238 44.18 20.47 85.96 28.135 123.46s12.751 70.73 12.751 97.69c0 5.57-.222 10.87-.671 15.89l4.171.37c.467-5.15.688-10.58.688-16.26-.006-27.48-5.152-60.9-12.841-98.52-11.53-56.43-28.798-122.29-43.177-191.31-14.378-69.01-25.867-141.19-25.861-210.17 0-60.97 8.964-119.41 32.742-171.02l2.172-4.71-4.834 1.89c-112.437 43.88-207.372 62.02-287.503 62.02-78.705 0-143.128-17.49-195.937-45.33-39.605-20.88-72.681-47.6-100.31-77.169-41.443-44.364-70.622-95.179-91.104-142.301-20.482-47.129-32.266-90.56-38.95-120.132z"/><path d="m136.628 721.896c10.562 54.112 36.478 154.233 101.186 240.987 32.355 43.377 74.43 83.407 129.119 112.577 54.686 29.18 121.967 47.47 204.622 47.47 77.277 0 167.987-15.98 274.5-53.95l-.7-1.97-1.878-.93c-28.357 57.04-38.523 122.82-38.523 191.18 0 88.09 16.886 180.5 33.736 264.2 8.43 41.85 16.849 81.53 23.156 117.36 6.313 35.83 10.501 67.84 10.501 94.28 0 8.13-.395 15.74-1.238 22.76l4.158.5c.868-7.22 1.269-14.99 1.269-23.26 0-26.88-4.237-59.06-10.561-95.01-9.496-53.91-23.707-116.26-35.543-181.58-11.835-65.32-21.289-133.59-21.289-199.25-.006-67.95 10.124-133.08 38.085-189.32l2.31-4.64-4.889 1.74c-106.16 37.84-196.398 53.7-273.094 53.7-82.04 0-148.582-18.13-202.65-46.97-40.551-21.64-74.091-49.3-101.854-79.913-41.644-45.914-70.279-98.464-89.971-147.113-19.692-48.648-30.439-93.39-36.342-123.65z"/><path d="m115.176 725.642c9.105 55.327 32.669 158.685 97.189 248.389 32.261 44.849 74.786 86.279 130.843 116.479 56.054 30.2 125.619 49.15 211.85 49.15 73.52 0 159.156-13.77 258.938-46.03l-.64-1.99-1.849-.99c-33.185 62.06-44.494 135.43-44.494 211.49 0 82.91 13.445 169.09 26.866 247.47 6.714 39.19 13.421 76.43 18.447 110.32 5.027 33.9 8.365 64.44 8.365 90.19 0 11.23-.634 21.55-2.034 30.83l4.147.62c1.436-9.55 2.076-20.06 2.076-31.45 0-26.1-3.369-56.81-8.407-90.8-7.563-50.98-18.884-109.33-28.314-170.42-9.424-61.09-16.958-124.91-16.958-186.76-.006-75.66 11.279-148.34 43.997-209.52l2.448-4.57-4.937 1.59c-99.452 32.16-184.658 45.83-257.651 45.83-85.62 0-154.44-18.8-209.863-48.65-41.568-22.4-75.607-51.02-103.516-82.68-41.863-47.492-69.921-101.801-88.776-151.994-18.856-50.186-28.507-96.244-33.594-127.18z"/><path d="m93.6228 728.753c7.5872 56.524 28.6502 163.162 92.9872 255.851 32.17 46.346 75.185 89.196 132.719 120.436 57.531 31.25 129.557 50.86 219.639 50.86 69.451 0 149.636-11.65 242.25-38.59l-.581-2.01-1.819-1.04c-19.351 33.73-32.119 71.14-40.06 110.67-7.934 39.54-11.039 81.22-11.039 123.55 0 76.86 10.232 155.89 20.452 228.14 5.104 36.12 10.214 70.55 14.037 102.16 3.823 31.6 6.366 60.38 6.366 85.17 0 15.07-.939 28.67-3.081 40.51l4.123.75c2.202-12.18 3.147-26.01 3.147-41.26 0-25.07-2.561-53.99-6.396-85.68-5.757-47.52-14.373-101.28-21.547-157.5-7.18-56.23-12.913-114.92-12.913-172.29 0-42.13 3.094-83.54 10.956-122.72 7.869-39.19 20.506-76.15 39.587-109.42l2.585-4.5-4.984 1.45c-92.302 26.85-172.105 38.43-241.083 38.43-89.479-.01-160.753-19.47-217.64-50.36-42.666-23.17-77.248-52.78-105.32-85.51-42.108-49.078-69.558-105.176-87.529-156.918-17.974-51.748-26.467-99.122-30.7054-130.735z"/><path d="m71.9863 731.225c6.0099 57.702 24.4195 167.655 88.5887 263.39 32.086 47.855 75.641 92.155 134.776 124.455 59.133 32.31 133.817 52.61 228.057 52.61 65.017 0 139.347-9.66 224.344-31.67l-.521-2.03-1.789-1.09c-22.54 36.73-37.14 78.2-46.109 122.25-8.969 44.06-12.314 90.72-12.314 137.88 0 69.63 7.288 140.37 14.558 205.46 7.276 65.08 14.534 124.53 14.528 171.45 0 19.95-1.311 37.62-4.458 52.46l4.099.87c3.231-15.26 4.547-33.2 4.547-53.33 0-47.33-7.288-106.85-14.552-171.92-7.27-65.06-14.534-135.65-14.534-204.99 0-46.96 3.333-93.35 12.231-137.04 8.891-43.69 23.347-84.68 45.576-120.9l2.717-4.42-5.026 1.29c-84.715 21.95-158.696 31.54-223.297 31.54-93.644-.01-167.572-20.15-226.049-52.09-43.856-23.96-79.032-54.57-107.291-88.38-42.387-50.703-69.198-108.609-86.243-161.931-17.0438-53.316-24.3174-102.03-27.6729-134.295z"/><path d="m50.2861 733.056c4.3711 58.863 19.9674 172.185 83.9969 271.004 32.016 49.41 76.173 95.18 137.052 128.56 60.877 33.39 138.443 54.38 237.181 54.38 60.159 0 128.181-7.79 205.112-25.29l-.461-2.05-1.753-1.14c-26.31 40.14-42.944 86.45-53.015 135.87-10.064 49.42-13.564 101.97-13.564 154.66 0 60.71 4.649 121.62 9.292 178.13 4.649 56.52 9.287 108.65 9.287 151.72 0 26.38-1.748 49.37-6.235 67.81l4.069 1c4.613-18.98 6.348-42.24 6.348-68.81 0-43.37-4.649-95.56-9.292-152.06-4.644-56.5-9.281-117.29-9.281-177.79 0-52.51 3.495-104.79 13.481-153.82 9.993-49.04 26.471-94.83 52.416-134.42l2.842-4.34-5.062 1.15c-76.673 17.45-144.386 25.19-204.184 25.19-98.151 0-174.96-20.84-235.167-53.86-45.156-24.77-80.986-56.4-109.46-91.3-42.71-52.358-68.8595-112.106-84.9283-167.02-16.0706-54.908-22.059-104.968-24.4978-137.885z"/><path d="m28.5417 734.235c1.3299 30.009 5.1583 74.199 16.6371 123.632 17.2194 74.14 51.6541 160.133 120.8152 227.653 34.577 33.75 77.832 62.86 131.876 83.51 54.044 20.66 118.863 32.86 196.581 32.86 54.806 0 116.026-6.07 184.424-19.51l-.401-2.06-1.717-1.19c-30.923 44.27-49.843 96.68-61.044 152.79s-14.684 115.94-14.684 175.1c0 49.21 2.411 97.95 4.823 143.72 2.411 45.76 4.817 88.54 4.817 125.78.006 35.4-2.19 65.81-8.539 88.89l4.039 1.11c6.516-23.74 8.682-54.42 8.688-90-.006-74.82-9.645-171.36-9.639-269.5-.006-59 3.482-118.56 14.605-174.28 11.118-55.72 29.876-107.57 60.368-151.21l2.974-4.26-5.098 1c-68.164 13.4-129.119 19.43-183.616 19.43-103.043 0-182.987-21.55-245.09-55.67-46.576-25.59-83.132-58.26-111.859-94.28-43.0894-54.038-68.5524-115.665-83.6022-172.195-15.0514-56.529-19.6875-107.942-21.1742-141.506l-4.1843.186z"/><path d="m6.77147 734.773c.44692 30.577 3.04647 75.923 13.51093 126.768 15.6981 76.264 49.0974 164.959 119.6096 234.659 35.252 34.84 79.777 64.9 135.916 86.24 56.139 21.33 123.879 33.94 205.581 33.94 48.877 0 102.75-4.52 162.135-14.36l-.341-2.07-1.681-1.25c-37.11 49.91-58.63 111.1-70.893 176.57-12.262 65.48-15.271 135.28-15.271 202.54 0 65.28 2.838 128.17 2.837 182.31.001 24.98-.604 48.09-2.363 68.7-1.758 20.61-4.675 38.72-9.26 53.65l4.004 1.23c4.713-15.36 7.653-33.73 9.429-54.52 1.774-20.79 2.379-44.02 2.379-69.06-.001-54.28-2.839-117.14-2.838-182.31-.002-67.13 3.012-136.69 15.2-201.77 12.185-65.08 33.543-125.63 70.139-174.84l3.099-4.17-5.122.85c-59.188 9.82-112.834 14.31-161.453 14.31-108.366 0-191.735-22.29-255.919-57.53-48.14-26.43-85.503-60.15-114.529-97.32-43.5357-55.76-68.2946-119.296-82.2817-177.471-13.9879-58.169-17.201-110.958-17.7001-145.156l-4.1882.06z"/><path d="m-15.0051 734.665c-.0517 3.429-.0818 7.049-.0818 10.843 0 33.462 2.3381 80.465 12.83004 132.171 7.87 38.781 20.32676 80.219 39.84176 120.574 29.2657 60.537 74.4451 118.647 143.7551 161.577 69.307 42.94 162.679 70.67 288.195 70.66 42.271 0 88.191-3.14 138.076-9.9l-.281-2.08-1.645-1.3c-37.294 47.17-60.331 105.3-74.654 167.92-21.476 93.92-23.364 198.01-24.04 290.73-.336 46.35-.366 89.86-2.369 127.79-1.997 37.92-5.992 70.28-14.13 94.22l3.966 1.35c5.573-16.42 9.19-36.39 11.587-59.17 4.191-39.86 4.633-88.34 4.981-141.24.519-79.33.822-168.58 13.112-253.25 12.284-84.68 36.567-164.72 84.831-225.74l3.22-4.08-5.14.7c-49.718 6.74-95.451 9.86-137.514 9.86-111.03 0-196.478-21.78-262.238-56.44-49.322-26-87.586-59.25-117.2793-96.08-44.5354-55.24-69.7764-118.569-83.8726-177.479-14.09705-58.905-17.0447-113.364-17.0438-150.793 0-3.77.0299-7.366.0816-10.777z"/><path d="m-36.769 733.911c-.4189 9.359-.7178 20.118-.7178 32.008 0 37.309 2.9413 85.82 14.3787 137.64 8.5789 38.859 21.93837 79.591 42.4362 118.831 30.7407 58.87 77.5773 114.4 148.3179 155.16 70.737 40.76 165.317 66.73 291.475 66.73 34.875 0 72.165-1.98 112.036-6.19l-.22-2.08-1.603-1.35c-38.677 46.04-63.429 103.46-79.602 165.62-24.254 93.25-29.228 197.24-32.655 289.9-1.711 46.32-3.032 89.81-6.159 127.66-3.121 37.85-8.073 70.07-16.919 93.76l3.925 1.46c6.058-16.24 10.265-36.09 13.337-58.79 5.371-39.73 7.251-88.17 9.169-141.03 2.872-79.28 5.822-168.48 20.618-252.75 14.791-84.28 41.438-163.57 91.493-223.13l3.339-3.98-5.162.55c-39.737 4.19-76.881 6.16-111.597 6.16-111.637 0-198.154-20.42-265.159-53.28-50.256-24.65-89.549-56.3-120.2608-91.65-46.0641-53.05-72.819932-114.457-88.0569-173.087-15.2368-58.617-18.944-114.429-18.9431-156.154 0-11.824.2975-22.517.7141-31.822z"/></g><path d="m0 671h1600v300h-1600z" fill="url(#a)"/></g></svg>